%TF.GenerationSoftware,KiCad,Pcbnew,9.0.6*%
%TF.CreationDate,2026-05-03T18:05:21+02:00*%
%TF.ProjectId,STM32F0_PCB1,53544d33-3246-4305-9f50-4342312e6b69,rev?*%
%TF.SameCoordinates,PX7223ec0PY875c260*%
%TF.FileFunction,Legend,Top*%
%TF.FilePolarity,Positive*%
%FSLAX46Y46*%
G04 Gerber Fmt 4.6, Leading zero omitted, Abs format (unit mm)*
G04 Created by KiCad (PCBNEW 9.0.6) date 2026-05-03 18:05:21*
%MOMM*%
%LPD*%
G01*
G04 APERTURE LIST*
%ADD10C,0.100000*%
%ADD11C,0.150000*%
%ADD12C,0.120000*%
%ADD13C,0.200000*%
%ADD14C,0.250000*%
G04 APERTURE END LIST*
D10*
X47375265Y33239905D02*
X47375265Y34039905D01*
X47375265Y34039905D02*
X47641931Y33468477D01*
X47641931Y33468477D02*
X47908598Y34039905D01*
X47908598Y34039905D02*
X47908598Y33239905D01*
X48175265Y34039905D02*
X48632408Y34039905D01*
X48403836Y33239905D02*
X48403836Y34039905D01*
X49356218Y33239905D02*
X49089551Y33620858D01*
X48899075Y33239905D02*
X48899075Y34039905D01*
X48899075Y34039905D02*
X49203837Y34039905D01*
X49203837Y34039905D02*
X49280027Y34001810D01*
X49280027Y34001810D02*
X49318122Y33963715D01*
X49318122Y33963715D02*
X49356218Y33887524D01*
X49356218Y33887524D02*
X49356218Y33773239D01*
X49356218Y33773239D02*
X49318122Y33697048D01*
X49318122Y33697048D02*
X49280027Y33658953D01*
X49280027Y33658953D02*
X49203837Y33620858D01*
X49203837Y33620858D02*
X48899075Y33620858D01*
X49813360Y33239905D02*
X49737170Y33278000D01*
X49737170Y33278000D02*
X49699075Y33316096D01*
X49699075Y33316096D02*
X49660979Y33392286D01*
X49660979Y33392286D02*
X49660979Y33620858D01*
X49660979Y33620858D02*
X49699075Y33697048D01*
X49699075Y33697048D02*
X49737170Y33735143D01*
X49737170Y33735143D02*
X49813360Y33773239D01*
X49813360Y33773239D02*
X49927646Y33773239D01*
X49927646Y33773239D02*
X50003837Y33735143D01*
X50003837Y33735143D02*
X50041932Y33697048D01*
X50041932Y33697048D02*
X50080027Y33620858D01*
X50080027Y33620858D02*
X50080027Y33392286D01*
X50080027Y33392286D02*
X50041932Y33316096D01*
X50041932Y33316096D02*
X50003837Y33278000D01*
X50003837Y33278000D02*
X49927646Y33239905D01*
X49927646Y33239905D02*
X49813360Y33239905D01*
X50841932Y33239905D02*
X50384789Y33239905D01*
X50613361Y33239905D02*
X50613361Y34039905D01*
X50613361Y34039905D02*
X50537170Y33925620D01*
X50537170Y33925620D02*
X50460980Y33849429D01*
X50460980Y33849429D02*
X50384789Y33811334D01*
X63672312Y26265010D02*
X63596122Y26303105D01*
X63596122Y26303105D02*
X63481836Y26303105D01*
X63481836Y26303105D02*
X63367550Y26265010D01*
X63367550Y26265010D02*
X63291360Y26188820D01*
X63291360Y26188820D02*
X63253265Y26112629D01*
X63253265Y26112629D02*
X63215169Y25960248D01*
X63215169Y25960248D02*
X63215169Y25845962D01*
X63215169Y25845962D02*
X63253265Y25693581D01*
X63253265Y25693581D02*
X63291360Y25617391D01*
X63291360Y25617391D02*
X63367550Y25541200D01*
X63367550Y25541200D02*
X63481836Y25503105D01*
X63481836Y25503105D02*
X63558027Y25503105D01*
X63558027Y25503105D02*
X63672312Y25541200D01*
X63672312Y25541200D02*
X63710408Y25579296D01*
X63710408Y25579296D02*
X63710408Y25845962D01*
X63710408Y25845962D02*
X63558027Y25845962D01*
X64053265Y25503105D02*
X64053265Y26303105D01*
X64053265Y26303105D02*
X64510408Y25503105D01*
X64510408Y25503105D02*
X64510408Y26303105D01*
X64891360Y25503105D02*
X64891360Y26303105D01*
X64891360Y26303105D02*
X65081836Y26303105D01*
X65081836Y26303105D02*
X65196122Y26265010D01*
X65196122Y26265010D02*
X65272312Y26188820D01*
X65272312Y26188820D02*
X65310407Y26112629D01*
X65310407Y26112629D02*
X65348503Y25960248D01*
X65348503Y25960248D02*
X65348503Y25845962D01*
X65348503Y25845962D02*
X65310407Y25693581D01*
X65310407Y25693581D02*
X65272312Y25617391D01*
X65272312Y25617391D02*
X65196122Y25541200D01*
X65196122Y25541200D02*
X65081836Y25503105D01*
X65081836Y25503105D02*
X64891360Y25503105D01*
X59735379Y26303105D02*
X60002046Y25503105D01*
X60002046Y25503105D02*
X60268712Y26303105D01*
X60802045Y25922153D02*
X60916331Y25884058D01*
X60916331Y25884058D02*
X60954426Y25845962D01*
X60954426Y25845962D02*
X60992522Y25769772D01*
X60992522Y25769772D02*
X60992522Y25655486D01*
X60992522Y25655486D02*
X60954426Y25579296D01*
X60954426Y25579296D02*
X60916331Y25541200D01*
X60916331Y25541200D02*
X60840141Y25503105D01*
X60840141Y25503105D02*
X60535379Y25503105D01*
X60535379Y25503105D02*
X60535379Y26303105D01*
X60535379Y26303105D02*
X60802045Y26303105D01*
X60802045Y26303105D02*
X60878236Y26265010D01*
X60878236Y26265010D02*
X60916331Y26226915D01*
X60916331Y26226915D02*
X60954426Y26150724D01*
X60954426Y26150724D02*
X60954426Y26074534D01*
X60954426Y26074534D02*
X60916331Y25998343D01*
X60916331Y25998343D02*
X60878236Y25960248D01*
X60878236Y25960248D02*
X60802045Y25922153D01*
X60802045Y25922153D02*
X60535379Y25922153D01*
X61297283Y25731677D02*
X61678236Y25731677D01*
X61221093Y25503105D02*
X61487760Y26303105D01*
X61487760Y26303105D02*
X61754426Y25503105D01*
X61906807Y26303105D02*
X62363950Y26303105D01*
X62135378Y25503105D02*
X62135378Y26303105D01*
X29732912Y42216210D02*
X29656722Y42254305D01*
X29656722Y42254305D02*
X29542436Y42254305D01*
X29542436Y42254305D02*
X29428150Y42216210D01*
X29428150Y42216210D02*
X29351960Y42140020D01*
X29351960Y42140020D02*
X29313865Y42063829D01*
X29313865Y42063829D02*
X29275769Y41911448D01*
X29275769Y41911448D02*
X29275769Y41797162D01*
X29275769Y41797162D02*
X29313865Y41644781D01*
X29313865Y41644781D02*
X29351960Y41568591D01*
X29351960Y41568591D02*
X29428150Y41492400D01*
X29428150Y41492400D02*
X29542436Y41454305D01*
X29542436Y41454305D02*
X29618627Y41454305D01*
X29618627Y41454305D02*
X29732912Y41492400D01*
X29732912Y41492400D02*
X29771008Y41530496D01*
X29771008Y41530496D02*
X29771008Y41797162D01*
X29771008Y41797162D02*
X29618627Y41797162D01*
X30113865Y41454305D02*
X30113865Y42254305D01*
X30113865Y42254305D02*
X30418627Y42254305D01*
X30418627Y42254305D02*
X30494817Y42216210D01*
X30494817Y42216210D02*
X30532912Y42178115D01*
X30532912Y42178115D02*
X30571008Y42101924D01*
X30571008Y42101924D02*
X30571008Y41987639D01*
X30571008Y41987639D02*
X30532912Y41911448D01*
X30532912Y41911448D02*
X30494817Y41873353D01*
X30494817Y41873353D02*
X30418627Y41835258D01*
X30418627Y41835258D02*
X30113865Y41835258D01*
X30913865Y41454305D02*
X30913865Y42254305D01*
X31447198Y42254305D02*
X31599579Y42254305D01*
X31599579Y42254305D02*
X31675769Y42216210D01*
X31675769Y42216210D02*
X31751960Y42140020D01*
X31751960Y42140020D02*
X31790055Y41987639D01*
X31790055Y41987639D02*
X31790055Y41720972D01*
X31790055Y41720972D02*
X31751960Y41568591D01*
X31751960Y41568591D02*
X31675769Y41492400D01*
X31675769Y41492400D02*
X31599579Y41454305D01*
X31599579Y41454305D02*
X31447198Y41454305D01*
X31447198Y41454305D02*
X31371007Y41492400D01*
X31371007Y41492400D02*
X31294817Y41568591D01*
X31294817Y41568591D02*
X31256721Y41720972D01*
X31256721Y41720972D02*
X31256721Y41987639D01*
X31256721Y41987639D02*
X31294817Y42140020D01*
X31294817Y42140020D02*
X31371007Y42216210D01*
X31371007Y42216210D02*
X31447198Y42254305D01*
X32742436Y41873353D02*
X33009102Y41873353D01*
X33123388Y41454305D02*
X32742436Y41454305D01*
X32742436Y41454305D02*
X32742436Y42254305D01*
X32742436Y42254305D02*
X33123388Y42254305D01*
X33390055Y41454305D02*
X33809103Y41987639D01*
X33390055Y41987639D02*
X33809103Y41454305D01*
X33999579Y41987639D02*
X34304341Y41987639D01*
X34113865Y42254305D02*
X34113865Y41568591D01*
X34113865Y41568591D02*
X34151960Y41492400D01*
X34151960Y41492400D02*
X34228150Y41454305D01*
X34228150Y41454305D02*
X34304341Y41454305D01*
X34875770Y41492400D02*
X34799579Y41454305D01*
X34799579Y41454305D02*
X34647198Y41454305D01*
X34647198Y41454305D02*
X34571008Y41492400D01*
X34571008Y41492400D02*
X34532912Y41568591D01*
X34532912Y41568591D02*
X34532912Y41873353D01*
X34532912Y41873353D02*
X34571008Y41949543D01*
X34571008Y41949543D02*
X34647198Y41987639D01*
X34647198Y41987639D02*
X34799579Y41987639D01*
X34799579Y41987639D02*
X34875770Y41949543D01*
X34875770Y41949543D02*
X34913865Y41873353D01*
X34913865Y41873353D02*
X34913865Y41797162D01*
X34913865Y41797162D02*
X34532912Y41720972D01*
X35256722Y41987639D02*
X35256722Y41454305D01*
X35256722Y41911448D02*
X35294817Y41949543D01*
X35294817Y41949543D02*
X35371007Y41987639D01*
X35371007Y41987639D02*
X35485293Y41987639D01*
X35485293Y41987639D02*
X35561484Y41949543D01*
X35561484Y41949543D02*
X35599579Y41873353D01*
X35599579Y41873353D02*
X35599579Y41454305D01*
X36323389Y41454305D02*
X36323389Y42254305D01*
X36323389Y41492400D02*
X36247198Y41454305D01*
X36247198Y41454305D02*
X36094817Y41454305D01*
X36094817Y41454305D02*
X36018627Y41492400D01*
X36018627Y41492400D02*
X35980532Y41530496D01*
X35980532Y41530496D02*
X35942436Y41606686D01*
X35942436Y41606686D02*
X35942436Y41835258D01*
X35942436Y41835258D02*
X35980532Y41911448D01*
X35980532Y41911448D02*
X36018627Y41949543D01*
X36018627Y41949543D02*
X36094817Y41987639D01*
X36094817Y41987639D02*
X36247198Y41987639D01*
X36247198Y41987639D02*
X36323389Y41949543D01*
X37009104Y41492400D02*
X36932913Y41454305D01*
X36932913Y41454305D02*
X36780532Y41454305D01*
X36780532Y41454305D02*
X36704342Y41492400D01*
X36704342Y41492400D02*
X36666246Y41568591D01*
X36666246Y41568591D02*
X36666246Y41873353D01*
X36666246Y41873353D02*
X36704342Y41949543D01*
X36704342Y41949543D02*
X36780532Y41987639D01*
X36780532Y41987639D02*
X36932913Y41987639D01*
X36932913Y41987639D02*
X37009104Y41949543D01*
X37009104Y41949543D02*
X37047199Y41873353D01*
X37047199Y41873353D02*
X37047199Y41797162D01*
X37047199Y41797162D02*
X36666246Y41720972D01*
X37390056Y41454305D02*
X37390056Y41987639D01*
X37390056Y41835258D02*
X37428151Y41911448D01*
X37428151Y41911448D02*
X37466246Y41949543D01*
X37466246Y41949543D02*
X37542437Y41987639D01*
X37542437Y41987639D02*
X37618627Y41987639D01*
D11*
X56588207Y39983610D02*
X56512017Y40021705D01*
X56512017Y40021705D02*
X56397731Y40021705D01*
X56397731Y40021705D02*
X56283445Y39983610D01*
X56283445Y39983610D02*
X56207255Y39907420D01*
X56207255Y39907420D02*
X56169160Y39831229D01*
X56169160Y39831229D02*
X56131064Y39678848D01*
X56131064Y39678848D02*
X56131064Y39564562D01*
X56131064Y39564562D02*
X56169160Y39412181D01*
X56169160Y39412181D02*
X56207255Y39335991D01*
X56207255Y39335991D02*
X56283445Y39259800D01*
X56283445Y39259800D02*
X56397731Y39221705D01*
X56397731Y39221705D02*
X56473922Y39221705D01*
X56473922Y39221705D02*
X56588207Y39259800D01*
X56588207Y39259800D02*
X56626303Y39297896D01*
X56626303Y39297896D02*
X56626303Y39564562D01*
X56626303Y39564562D02*
X56473922Y39564562D01*
X56969160Y39221705D02*
X56969160Y40021705D01*
X56969160Y40021705D02*
X57426303Y39221705D01*
X57426303Y39221705D02*
X57426303Y40021705D01*
X57807255Y39221705D02*
X57807255Y40021705D01*
X57807255Y40021705D02*
X57997731Y40021705D01*
X57997731Y40021705D02*
X58112017Y39983610D01*
X58112017Y39983610D02*
X58188207Y39907420D01*
X58188207Y39907420D02*
X58226302Y39831229D01*
X58226302Y39831229D02*
X58264398Y39678848D01*
X58264398Y39678848D02*
X58264398Y39564562D01*
X58264398Y39564562D02*
X58226302Y39412181D01*
X58226302Y39412181D02*
X58188207Y39335991D01*
X58188207Y39335991D02*
X58112017Y39259800D01*
X58112017Y39259800D02*
X57997731Y39221705D01*
X57997731Y39221705D02*
X57807255Y39221705D01*
D10*
X58688969Y33161200D02*
X58803255Y33123105D01*
X58803255Y33123105D02*
X58993731Y33123105D01*
X58993731Y33123105D02*
X59069922Y33161200D01*
X59069922Y33161200D02*
X59108017Y33199296D01*
X59108017Y33199296D02*
X59146112Y33275486D01*
X59146112Y33275486D02*
X59146112Y33351677D01*
X59146112Y33351677D02*
X59108017Y33427867D01*
X59108017Y33427867D02*
X59069922Y33465962D01*
X59069922Y33465962D02*
X58993731Y33504058D01*
X58993731Y33504058D02*
X58841350Y33542153D01*
X58841350Y33542153D02*
X58765160Y33580248D01*
X58765160Y33580248D02*
X58727065Y33618343D01*
X58727065Y33618343D02*
X58688969Y33694534D01*
X58688969Y33694534D02*
X58688969Y33770724D01*
X58688969Y33770724D02*
X58727065Y33846915D01*
X58727065Y33846915D02*
X58765160Y33885010D01*
X58765160Y33885010D02*
X58841350Y33923105D01*
X58841350Y33923105D02*
X59031827Y33923105D01*
X59031827Y33923105D02*
X59146112Y33885010D01*
X59412779Y33923105D02*
X59603255Y33123105D01*
X59603255Y33123105D02*
X59755636Y33694534D01*
X59755636Y33694534D02*
X59908017Y33123105D01*
X59908017Y33123105D02*
X60098494Y33923105D01*
X60403256Y33123105D02*
X60403256Y33923105D01*
X60403256Y33923105D02*
X60593732Y33923105D01*
X60593732Y33923105D02*
X60708018Y33885010D01*
X60708018Y33885010D02*
X60784208Y33808820D01*
X60784208Y33808820D02*
X60822303Y33732629D01*
X60822303Y33732629D02*
X60860399Y33580248D01*
X60860399Y33580248D02*
X60860399Y33465962D01*
X60860399Y33465962D02*
X60822303Y33313581D01*
X60822303Y33313581D02*
X60784208Y33237391D01*
X60784208Y33237391D02*
X60708018Y33161200D01*
X60708018Y33161200D02*
X60593732Y33123105D01*
X60593732Y33123105D02*
X60403256Y33123105D01*
X62269923Y33199296D02*
X62231827Y33161200D01*
X62231827Y33161200D02*
X62117542Y33123105D01*
X62117542Y33123105D02*
X62041351Y33123105D01*
X62041351Y33123105D02*
X61927065Y33161200D01*
X61927065Y33161200D02*
X61850875Y33237391D01*
X61850875Y33237391D02*
X61812780Y33313581D01*
X61812780Y33313581D02*
X61774684Y33465962D01*
X61774684Y33465962D02*
X61774684Y33580248D01*
X61774684Y33580248D02*
X61812780Y33732629D01*
X61812780Y33732629D02*
X61850875Y33808820D01*
X61850875Y33808820D02*
X61927065Y33885010D01*
X61927065Y33885010D02*
X62041351Y33923105D01*
X62041351Y33923105D02*
X62117542Y33923105D01*
X62117542Y33923105D02*
X62231827Y33885010D01*
X62231827Y33885010D02*
X62269923Y33846915D01*
X62727065Y33123105D02*
X62650875Y33161200D01*
X62650875Y33161200D02*
X62612780Y33199296D01*
X62612780Y33199296D02*
X62574684Y33275486D01*
X62574684Y33275486D02*
X62574684Y33504058D01*
X62574684Y33504058D02*
X62612780Y33580248D01*
X62612780Y33580248D02*
X62650875Y33618343D01*
X62650875Y33618343D02*
X62727065Y33656439D01*
X62727065Y33656439D02*
X62841351Y33656439D01*
X62841351Y33656439D02*
X62917542Y33618343D01*
X62917542Y33618343D02*
X62955637Y33580248D01*
X62955637Y33580248D02*
X62993732Y33504058D01*
X62993732Y33504058D02*
X62993732Y33275486D01*
X62993732Y33275486D02*
X62955637Y33199296D01*
X62955637Y33199296D02*
X62917542Y33161200D01*
X62917542Y33161200D02*
X62841351Y33123105D01*
X62841351Y33123105D02*
X62727065Y33123105D01*
X63336590Y33656439D02*
X63336590Y33123105D01*
X63336590Y33580248D02*
X63374685Y33618343D01*
X63374685Y33618343D02*
X63450875Y33656439D01*
X63450875Y33656439D02*
X63565161Y33656439D01*
X63565161Y33656439D02*
X63641352Y33618343D01*
X63641352Y33618343D02*
X63679447Y33542153D01*
X63679447Y33542153D02*
X63679447Y33123105D01*
X64060400Y33656439D02*
X64060400Y33123105D01*
X64060400Y33580248D02*
X64098495Y33618343D01*
X64098495Y33618343D02*
X64174685Y33656439D01*
X64174685Y33656439D02*
X64288971Y33656439D01*
X64288971Y33656439D02*
X64365162Y33618343D01*
X64365162Y33618343D02*
X64403257Y33542153D01*
X64403257Y33542153D02*
X64403257Y33123105D01*
X65088972Y33161200D02*
X65012781Y33123105D01*
X65012781Y33123105D02*
X64860400Y33123105D01*
X64860400Y33123105D02*
X64784210Y33161200D01*
X64784210Y33161200D02*
X64746114Y33237391D01*
X64746114Y33237391D02*
X64746114Y33542153D01*
X64746114Y33542153D02*
X64784210Y33618343D01*
X64784210Y33618343D02*
X64860400Y33656439D01*
X64860400Y33656439D02*
X65012781Y33656439D01*
X65012781Y33656439D02*
X65088972Y33618343D01*
X65088972Y33618343D02*
X65127067Y33542153D01*
X65127067Y33542153D02*
X65127067Y33465962D01*
X65127067Y33465962D02*
X64746114Y33389772D01*
X65812781Y33161200D02*
X65736590Y33123105D01*
X65736590Y33123105D02*
X65584209Y33123105D01*
X65584209Y33123105D02*
X65508019Y33161200D01*
X65508019Y33161200D02*
X65469924Y33199296D01*
X65469924Y33199296D02*
X65431828Y33275486D01*
X65431828Y33275486D02*
X65431828Y33504058D01*
X65431828Y33504058D02*
X65469924Y33580248D01*
X65469924Y33580248D02*
X65508019Y33618343D01*
X65508019Y33618343D02*
X65584209Y33656439D01*
X65584209Y33656439D02*
X65736590Y33656439D01*
X65736590Y33656439D02*
X65812781Y33618343D01*
X66041352Y33656439D02*
X66346114Y33656439D01*
X66155638Y33923105D02*
X66155638Y33237391D01*
X66155638Y33237391D02*
X66193733Y33161200D01*
X66193733Y33161200D02*
X66269923Y33123105D01*
X66269923Y33123105D02*
X66346114Y33123105D01*
X66727066Y33123105D02*
X66650876Y33161200D01*
X66650876Y33161200D02*
X66612781Y33199296D01*
X66612781Y33199296D02*
X66574685Y33275486D01*
X66574685Y33275486D02*
X66574685Y33504058D01*
X66574685Y33504058D02*
X66612781Y33580248D01*
X66612781Y33580248D02*
X66650876Y33618343D01*
X66650876Y33618343D02*
X66727066Y33656439D01*
X66727066Y33656439D02*
X66841352Y33656439D01*
X66841352Y33656439D02*
X66917543Y33618343D01*
X66917543Y33618343D02*
X66955638Y33580248D01*
X66955638Y33580248D02*
X66993733Y33504058D01*
X66993733Y33504058D02*
X66993733Y33275486D01*
X66993733Y33275486D02*
X66955638Y33199296D01*
X66955638Y33199296D02*
X66917543Y33161200D01*
X66917543Y33161200D02*
X66841352Y33123105D01*
X66841352Y33123105D02*
X66727066Y33123105D01*
X67336591Y33123105D02*
X67336591Y33656439D01*
X67336591Y33504058D02*
X67374686Y33580248D01*
X67374686Y33580248D02*
X67412781Y33618343D01*
X67412781Y33618343D02*
X67488972Y33656439D01*
X67488972Y33656439D02*
X67565162Y33656439D01*
X40693065Y37763860D02*
X40693065Y38563860D01*
X40693065Y38563860D02*
X40959731Y37992432D01*
X40959731Y37992432D02*
X41226398Y38563860D01*
X41226398Y38563860D02*
X41226398Y37763860D01*
X41721636Y37763860D02*
X41645446Y37801955D01*
X41645446Y37801955D02*
X41607351Y37840051D01*
X41607351Y37840051D02*
X41569255Y37916241D01*
X41569255Y37916241D02*
X41569255Y38144813D01*
X41569255Y38144813D02*
X41607351Y38221003D01*
X41607351Y38221003D02*
X41645446Y38259098D01*
X41645446Y38259098D02*
X41721636Y38297194D01*
X41721636Y38297194D02*
X41835922Y38297194D01*
X41835922Y38297194D02*
X41912113Y38259098D01*
X41912113Y38259098D02*
X41950208Y38221003D01*
X41950208Y38221003D02*
X41988303Y38144813D01*
X41988303Y38144813D02*
X41988303Y37916241D01*
X41988303Y37916241D02*
X41950208Y37840051D01*
X41950208Y37840051D02*
X41912113Y37801955D01*
X41912113Y37801955D02*
X41835922Y37763860D01*
X41835922Y37763860D02*
X41721636Y37763860D01*
X42216875Y38297194D02*
X42521637Y38297194D01*
X42331161Y38563860D02*
X42331161Y37878146D01*
X42331161Y37878146D02*
X42369256Y37801955D01*
X42369256Y37801955D02*
X42445446Y37763860D01*
X42445446Y37763860D02*
X42521637Y37763860D01*
X42902589Y37763860D02*
X42826399Y37801955D01*
X42826399Y37801955D02*
X42788304Y37840051D01*
X42788304Y37840051D02*
X42750208Y37916241D01*
X42750208Y37916241D02*
X42750208Y38144813D01*
X42750208Y38144813D02*
X42788304Y38221003D01*
X42788304Y38221003D02*
X42826399Y38259098D01*
X42826399Y38259098D02*
X42902589Y38297194D01*
X42902589Y38297194D02*
X43016875Y38297194D01*
X43016875Y38297194D02*
X43093066Y38259098D01*
X43093066Y38259098D02*
X43131161Y38221003D01*
X43131161Y38221003D02*
X43169256Y38144813D01*
X43169256Y38144813D02*
X43169256Y37916241D01*
X43169256Y37916241D02*
X43131161Y37840051D01*
X43131161Y37840051D02*
X43093066Y37801955D01*
X43093066Y37801955D02*
X43016875Y37763860D01*
X43016875Y37763860D02*
X42902589Y37763860D01*
X43512114Y37763860D02*
X43512114Y38297194D01*
X43512114Y38144813D02*
X43550209Y38221003D01*
X43550209Y38221003D02*
X43588304Y38259098D01*
X43588304Y38259098D02*
X43664495Y38297194D01*
X43664495Y38297194D02*
X43740685Y38297194D01*
X41150208Y36552096D02*
X41112112Y36514000D01*
X41112112Y36514000D02*
X40997827Y36475905D01*
X40997827Y36475905D02*
X40921636Y36475905D01*
X40921636Y36475905D02*
X40807350Y36514000D01*
X40807350Y36514000D02*
X40731160Y36590191D01*
X40731160Y36590191D02*
X40693065Y36666381D01*
X40693065Y36666381D02*
X40654969Y36818762D01*
X40654969Y36818762D02*
X40654969Y36933048D01*
X40654969Y36933048D02*
X40693065Y37085429D01*
X40693065Y37085429D02*
X40731160Y37161620D01*
X40731160Y37161620D02*
X40807350Y37237810D01*
X40807350Y37237810D02*
X40921636Y37275905D01*
X40921636Y37275905D02*
X40997827Y37275905D01*
X40997827Y37275905D02*
X41112112Y37237810D01*
X41112112Y37237810D02*
X41150208Y37199715D01*
X41607350Y36475905D02*
X41531160Y36514000D01*
X41531160Y36514000D02*
X41493065Y36552096D01*
X41493065Y36552096D02*
X41454969Y36628286D01*
X41454969Y36628286D02*
X41454969Y36856858D01*
X41454969Y36856858D02*
X41493065Y36933048D01*
X41493065Y36933048D02*
X41531160Y36971143D01*
X41531160Y36971143D02*
X41607350Y37009239D01*
X41607350Y37009239D02*
X41721636Y37009239D01*
X41721636Y37009239D02*
X41797827Y36971143D01*
X41797827Y36971143D02*
X41835922Y36933048D01*
X41835922Y36933048D02*
X41874017Y36856858D01*
X41874017Y36856858D02*
X41874017Y36628286D01*
X41874017Y36628286D02*
X41835922Y36552096D01*
X41835922Y36552096D02*
X41797827Y36514000D01*
X41797827Y36514000D02*
X41721636Y36475905D01*
X41721636Y36475905D02*
X41607350Y36475905D01*
X42216875Y37009239D02*
X42216875Y36475905D01*
X42216875Y36933048D02*
X42254970Y36971143D01*
X42254970Y36971143D02*
X42331160Y37009239D01*
X42331160Y37009239D02*
X42445446Y37009239D01*
X42445446Y37009239D02*
X42521637Y36971143D01*
X42521637Y36971143D02*
X42559732Y36894953D01*
X42559732Y36894953D02*
X42559732Y36475905D01*
X42826399Y37009239D02*
X43131161Y37009239D01*
X42940685Y37275905D02*
X42940685Y36590191D01*
X42940685Y36590191D02*
X42978780Y36514000D01*
X42978780Y36514000D02*
X43054970Y36475905D01*
X43054970Y36475905D02*
X43131161Y36475905D01*
X43397828Y36475905D02*
X43397828Y37009239D01*
X43397828Y36856858D02*
X43435923Y36933048D01*
X43435923Y36933048D02*
X43474018Y36971143D01*
X43474018Y36971143D02*
X43550209Y37009239D01*
X43550209Y37009239D02*
X43626399Y37009239D01*
X44007351Y36475905D02*
X43931161Y36514000D01*
X43931161Y36514000D02*
X43893066Y36552096D01*
X43893066Y36552096D02*
X43854970Y36628286D01*
X43854970Y36628286D02*
X43854970Y36856858D01*
X43854970Y36856858D02*
X43893066Y36933048D01*
X43893066Y36933048D02*
X43931161Y36971143D01*
X43931161Y36971143D02*
X44007351Y37009239D01*
X44007351Y37009239D02*
X44121637Y37009239D01*
X44121637Y37009239D02*
X44197828Y36971143D01*
X44197828Y36971143D02*
X44235923Y36933048D01*
X44235923Y36933048D02*
X44274018Y36856858D01*
X44274018Y36856858D02*
X44274018Y36628286D01*
X44274018Y36628286D02*
X44235923Y36552096D01*
X44235923Y36552096D02*
X44197828Y36514000D01*
X44197828Y36514000D02*
X44121637Y36475905D01*
X44121637Y36475905D02*
X44007351Y36475905D01*
X44731161Y36475905D02*
X44654971Y36514000D01*
X44654971Y36514000D02*
X44616876Y36590191D01*
X44616876Y36590191D02*
X44616876Y37275905D01*
X45150209Y36475905D02*
X45074019Y36514000D01*
X45074019Y36514000D02*
X45035924Y36590191D01*
X45035924Y36590191D02*
X45035924Y37275905D01*
X45759734Y36514000D02*
X45683543Y36475905D01*
X45683543Y36475905D02*
X45531162Y36475905D01*
X45531162Y36475905D02*
X45454972Y36514000D01*
X45454972Y36514000D02*
X45416876Y36590191D01*
X45416876Y36590191D02*
X45416876Y36894953D01*
X45416876Y36894953D02*
X45454972Y36971143D01*
X45454972Y36971143D02*
X45531162Y37009239D01*
X45531162Y37009239D02*
X45683543Y37009239D01*
X45683543Y37009239D02*
X45759734Y36971143D01*
X45759734Y36971143D02*
X45797829Y36894953D01*
X45797829Y36894953D02*
X45797829Y36818762D01*
X45797829Y36818762D02*
X45416876Y36742572D01*
X46140686Y36475905D02*
X46140686Y37009239D01*
X46140686Y36856858D02*
X46178781Y36933048D01*
X46178781Y36933048D02*
X46216876Y36971143D01*
X46216876Y36971143D02*
X46293067Y37009239D01*
X46293067Y37009239D02*
X46369257Y37009239D01*
D11*
X55457960Y40745667D02*
X56067484Y40745667D01*
X55762722Y40440905D02*
X55762722Y41050429D01*
X56372245Y41240905D02*
X56867483Y41240905D01*
X56867483Y41240905D02*
X56600817Y40936143D01*
X56600817Y40936143D02*
X56715102Y40936143D01*
X56715102Y40936143D02*
X56791293Y40898048D01*
X56791293Y40898048D02*
X56829388Y40859953D01*
X56829388Y40859953D02*
X56867483Y40783762D01*
X56867483Y40783762D02*
X56867483Y40593286D01*
X56867483Y40593286D02*
X56829388Y40517096D01*
X56829388Y40517096D02*
X56791293Y40479000D01*
X56791293Y40479000D02*
X56715102Y40440905D01*
X56715102Y40440905D02*
X56486531Y40440905D01*
X56486531Y40440905D02*
X56410340Y40479000D01*
X56410340Y40479000D02*
X56372245Y40517096D01*
X57134150Y40974239D02*
X57324626Y40440905D01*
X57324626Y40440905D02*
X57515103Y40974239D01*
X57743674Y41240905D02*
X58238912Y41240905D01*
X58238912Y41240905D02*
X57972246Y40936143D01*
X57972246Y40936143D02*
X58086531Y40936143D01*
X58086531Y40936143D02*
X58162722Y40898048D01*
X58162722Y40898048D02*
X58200817Y40859953D01*
X58200817Y40859953D02*
X58238912Y40783762D01*
X58238912Y40783762D02*
X58238912Y40593286D01*
X58238912Y40593286D02*
X58200817Y40517096D01*
X58200817Y40517096D02*
X58162722Y40479000D01*
X58162722Y40479000D02*
X58086531Y40440905D01*
X58086531Y40440905D02*
X57857960Y40440905D01*
X57857960Y40440905D02*
X57781769Y40479000D01*
X57781769Y40479000D02*
X57743674Y40517096D01*
D10*
X13397047Y6060132D02*
X13435142Y6174418D01*
X13435142Y6174418D02*
X13473238Y6212513D01*
X13473238Y6212513D02*
X13549428Y6250609D01*
X13549428Y6250609D02*
X13663714Y6250609D01*
X13663714Y6250609D02*
X13739904Y6212513D01*
X13739904Y6212513D02*
X13778000Y6174418D01*
X13778000Y6174418D02*
X13816095Y6098228D01*
X13816095Y6098228D02*
X13816095Y5793466D01*
X13816095Y5793466D02*
X13016095Y5793466D01*
X13016095Y5793466D02*
X13016095Y6060132D01*
X13016095Y6060132D02*
X13054190Y6136323D01*
X13054190Y6136323D02*
X13092285Y6174418D01*
X13092285Y6174418D02*
X13168476Y6212513D01*
X13168476Y6212513D02*
X13244666Y6212513D01*
X13244666Y6212513D02*
X13320857Y6174418D01*
X13320857Y6174418D02*
X13358952Y6136323D01*
X13358952Y6136323D02*
X13397047Y6060132D01*
X13397047Y6060132D02*
X13397047Y5793466D01*
X13016095Y6745847D02*
X13016095Y6898228D01*
X13016095Y6898228D02*
X13054190Y6974418D01*
X13054190Y6974418D02*
X13130380Y7050609D01*
X13130380Y7050609D02*
X13282761Y7088704D01*
X13282761Y7088704D02*
X13549428Y7088704D01*
X13549428Y7088704D02*
X13701809Y7050609D01*
X13701809Y7050609D02*
X13778000Y6974418D01*
X13778000Y6974418D02*
X13816095Y6898228D01*
X13816095Y6898228D02*
X13816095Y6745847D01*
X13816095Y6745847D02*
X13778000Y6669656D01*
X13778000Y6669656D02*
X13701809Y6593466D01*
X13701809Y6593466D02*
X13549428Y6555370D01*
X13549428Y6555370D02*
X13282761Y6555370D01*
X13282761Y6555370D02*
X13130380Y6593466D01*
X13130380Y6593466D02*
X13054190Y6669656D01*
X13054190Y6669656D02*
X13016095Y6745847D01*
X13016095Y7583942D02*
X13016095Y7736323D01*
X13016095Y7736323D02*
X13054190Y7812513D01*
X13054190Y7812513D02*
X13130380Y7888704D01*
X13130380Y7888704D02*
X13282761Y7926799D01*
X13282761Y7926799D02*
X13549428Y7926799D01*
X13549428Y7926799D02*
X13701809Y7888704D01*
X13701809Y7888704D02*
X13778000Y7812513D01*
X13778000Y7812513D02*
X13816095Y7736323D01*
X13816095Y7736323D02*
X13816095Y7583942D01*
X13816095Y7583942D02*
X13778000Y7507751D01*
X13778000Y7507751D02*
X13701809Y7431561D01*
X13701809Y7431561D02*
X13549428Y7393465D01*
X13549428Y7393465D02*
X13282761Y7393465D01*
X13282761Y7393465D02*
X13130380Y7431561D01*
X13130380Y7431561D02*
X13054190Y7507751D01*
X13054190Y7507751D02*
X13016095Y7583942D01*
X13016095Y8155370D02*
X13016095Y8612513D01*
X13816095Y8383941D02*
X13016095Y8383941D01*
X52547112Y26417410D02*
X52470922Y26455505D01*
X52470922Y26455505D02*
X52356636Y26455505D01*
X52356636Y26455505D02*
X52242350Y26417410D01*
X52242350Y26417410D02*
X52166160Y26341220D01*
X52166160Y26341220D02*
X52128065Y26265029D01*
X52128065Y26265029D02*
X52089969Y26112648D01*
X52089969Y26112648D02*
X52089969Y25998362D01*
X52089969Y25998362D02*
X52128065Y25845981D01*
X52128065Y25845981D02*
X52166160Y25769791D01*
X52166160Y25769791D02*
X52242350Y25693600D01*
X52242350Y25693600D02*
X52356636Y25655505D01*
X52356636Y25655505D02*
X52432827Y25655505D01*
X52432827Y25655505D02*
X52547112Y25693600D01*
X52547112Y25693600D02*
X52585208Y25731696D01*
X52585208Y25731696D02*
X52585208Y25998362D01*
X52585208Y25998362D02*
X52432827Y25998362D01*
X52928065Y25655505D02*
X52928065Y26455505D01*
X52928065Y26455505D02*
X53385208Y25655505D01*
X53385208Y25655505D02*
X53385208Y26455505D01*
X53766160Y25655505D02*
X53766160Y26455505D01*
X53766160Y26455505D02*
X53956636Y26455505D01*
X53956636Y26455505D02*
X54070922Y26417410D01*
X54070922Y26417410D02*
X54147112Y26341220D01*
X54147112Y26341220D02*
X54185207Y26265029D01*
X54185207Y26265029D02*
X54223303Y26112648D01*
X54223303Y26112648D02*
X54223303Y25998362D01*
X54223303Y25998362D02*
X54185207Y25845981D01*
X54185207Y25845981D02*
X54147112Y25769791D01*
X54147112Y25769791D02*
X54070922Y25693600D01*
X54070922Y25693600D02*
X53956636Y25655505D01*
X53956636Y25655505D02*
X53766160Y25655505D01*
D11*
X66735560Y36580105D02*
X66735560Y37380105D01*
X66735560Y37380105D02*
X67192703Y36580105D01*
X67192703Y36580105D02*
X67192703Y37380105D01*
X68145083Y37418200D02*
X67459369Y36389629D01*
X68868893Y36656296D02*
X68830797Y36618200D01*
X68830797Y36618200D02*
X68716512Y36580105D01*
X68716512Y36580105D02*
X68640321Y36580105D01*
X68640321Y36580105D02*
X68526035Y36618200D01*
X68526035Y36618200D02*
X68449845Y36694391D01*
X68449845Y36694391D02*
X68411750Y36770581D01*
X68411750Y36770581D02*
X68373654Y36922962D01*
X68373654Y36922962D02*
X68373654Y37037248D01*
X68373654Y37037248D02*
X68411750Y37189629D01*
X68411750Y37189629D02*
X68449845Y37265820D01*
X68449845Y37265820D02*
X68526035Y37342010D01*
X68526035Y37342010D02*
X68640321Y37380105D01*
X68640321Y37380105D02*
X68716512Y37380105D01*
X68716512Y37380105D02*
X68830797Y37342010D01*
X68830797Y37342010D02*
X68868893Y37303915D01*
D10*
X39825695Y3609066D02*
X39025695Y3609066D01*
X39025695Y3609066D02*
X39597123Y3875732D01*
X39597123Y3875732D02*
X39025695Y4142399D01*
X39025695Y4142399D02*
X39825695Y4142399D01*
X39749504Y4980495D02*
X39787600Y4942399D01*
X39787600Y4942399D02*
X39825695Y4828114D01*
X39825695Y4828114D02*
X39825695Y4751923D01*
X39825695Y4751923D02*
X39787600Y4637637D01*
X39787600Y4637637D02*
X39711409Y4561447D01*
X39711409Y4561447D02*
X39635219Y4523352D01*
X39635219Y4523352D02*
X39482838Y4485256D01*
X39482838Y4485256D02*
X39368552Y4485256D01*
X39368552Y4485256D02*
X39216171Y4523352D01*
X39216171Y4523352D02*
X39139980Y4561447D01*
X39139980Y4561447D02*
X39063790Y4637637D01*
X39063790Y4637637D02*
X39025695Y4751923D01*
X39025695Y4751923D02*
X39025695Y4828114D01*
X39025695Y4828114D02*
X39063790Y4942399D01*
X39063790Y4942399D02*
X39101885Y4980495D01*
X39025695Y5323352D02*
X39673314Y5323352D01*
X39673314Y5323352D02*
X39749504Y5361447D01*
X39749504Y5361447D02*
X39787600Y5399542D01*
X39787600Y5399542D02*
X39825695Y5475733D01*
X39825695Y5475733D02*
X39825695Y5628114D01*
X39825695Y5628114D02*
X39787600Y5704304D01*
X39787600Y5704304D02*
X39749504Y5742399D01*
X39749504Y5742399D02*
X39673314Y5780495D01*
X39673314Y5780495D02*
X39025695Y5780495D01*
X39825695Y7151923D02*
X39825695Y6770971D01*
X39825695Y6770971D02*
X39025695Y6770971D01*
X39406647Y7418590D02*
X39406647Y7685256D01*
X39825695Y7799542D02*
X39825695Y7418590D01*
X39825695Y7418590D02*
X39025695Y7418590D01*
X39025695Y7418590D02*
X39025695Y7799542D01*
X39825695Y8142400D02*
X39025695Y8142400D01*
X39025695Y8142400D02*
X39025695Y8332876D01*
X39025695Y8332876D02*
X39063790Y8447162D01*
X39063790Y8447162D02*
X39139980Y8523352D01*
X39139980Y8523352D02*
X39216171Y8561447D01*
X39216171Y8561447D02*
X39368552Y8599543D01*
X39368552Y8599543D02*
X39482838Y8599543D01*
X39482838Y8599543D02*
X39635219Y8561447D01*
X39635219Y8561447D02*
X39711409Y8523352D01*
X39711409Y8523352D02*
X39787600Y8447162D01*
X39787600Y8447162D02*
X39825695Y8332876D01*
X39825695Y8332876D02*
X39825695Y8142400D01*
X51998065Y33189105D02*
X51998065Y33989105D01*
X51998065Y33989105D02*
X52264731Y33417677D01*
X52264731Y33417677D02*
X52531398Y33989105D01*
X52531398Y33989105D02*
X52531398Y33189105D01*
X52798065Y33989105D02*
X53255208Y33989105D01*
X53026636Y33189105D02*
X53026636Y33989105D01*
X53979018Y33189105D02*
X53712351Y33570058D01*
X53521875Y33189105D02*
X53521875Y33989105D01*
X53521875Y33989105D02*
X53826637Y33989105D01*
X53826637Y33989105D02*
X53902827Y33951010D01*
X53902827Y33951010D02*
X53940922Y33912915D01*
X53940922Y33912915D02*
X53979018Y33836724D01*
X53979018Y33836724D02*
X53979018Y33722439D01*
X53979018Y33722439D02*
X53940922Y33646248D01*
X53940922Y33646248D02*
X53902827Y33608153D01*
X53902827Y33608153D02*
X53826637Y33570058D01*
X53826637Y33570058D02*
X53521875Y33570058D01*
X54436160Y33189105D02*
X54359970Y33227200D01*
X54359970Y33227200D02*
X54321875Y33265296D01*
X54321875Y33265296D02*
X54283779Y33341486D01*
X54283779Y33341486D02*
X54283779Y33570058D01*
X54283779Y33570058D02*
X54321875Y33646248D01*
X54321875Y33646248D02*
X54359970Y33684343D01*
X54359970Y33684343D02*
X54436160Y33722439D01*
X54436160Y33722439D02*
X54550446Y33722439D01*
X54550446Y33722439D02*
X54626637Y33684343D01*
X54626637Y33684343D02*
X54664732Y33646248D01*
X54664732Y33646248D02*
X54702827Y33570058D01*
X54702827Y33570058D02*
X54702827Y33341486D01*
X54702827Y33341486D02*
X54664732Y33265296D01*
X54664732Y33265296D02*
X54626637Y33227200D01*
X54626637Y33227200D02*
X54550446Y33189105D01*
X54550446Y33189105D02*
X54436160Y33189105D01*
X55007589Y33912915D02*
X55045685Y33951010D01*
X55045685Y33951010D02*
X55121875Y33989105D01*
X55121875Y33989105D02*
X55312351Y33989105D01*
X55312351Y33989105D02*
X55388542Y33951010D01*
X55388542Y33951010D02*
X55426637Y33912915D01*
X55426637Y33912915D02*
X55464732Y33836724D01*
X55464732Y33836724D02*
X55464732Y33760534D01*
X55464732Y33760534D02*
X55426637Y33646248D01*
X55426637Y33646248D02*
X54969494Y33189105D01*
X54969494Y33189105D02*
X55464732Y33189105D01*
X4844692Y18404532D02*
X4844692Y18137866D01*
X5263740Y18137866D02*
X4463740Y18137866D01*
X4463740Y18137866D02*
X4463740Y18518818D01*
X5263740Y18937865D02*
X5225645Y18861675D01*
X5225645Y18861675D02*
X5149454Y18823580D01*
X5149454Y18823580D02*
X4463740Y18823580D01*
X5263740Y19585485D02*
X4844692Y19585485D01*
X4844692Y19585485D02*
X4768502Y19547390D01*
X4768502Y19547390D02*
X4730406Y19471199D01*
X4730406Y19471199D02*
X4730406Y19318818D01*
X4730406Y19318818D02*
X4768502Y19242628D01*
X5225645Y19585485D02*
X5263740Y19509294D01*
X5263740Y19509294D02*
X5263740Y19318818D01*
X5263740Y19318818D02*
X5225645Y19242628D01*
X5225645Y19242628D02*
X5149454Y19204532D01*
X5149454Y19204532D02*
X5073264Y19204532D01*
X5073264Y19204532D02*
X4997073Y19242628D01*
X4997073Y19242628D02*
X4958978Y19318818D01*
X4958978Y19318818D02*
X4958978Y19509294D01*
X4958978Y19509294D02*
X4920883Y19585485D01*
X5225645Y19928342D02*
X5263740Y20004533D01*
X5263740Y20004533D02*
X5263740Y20156914D01*
X5263740Y20156914D02*
X5225645Y20233104D01*
X5225645Y20233104D02*
X5149454Y20271200D01*
X5149454Y20271200D02*
X5111359Y20271200D01*
X5111359Y20271200D02*
X5035168Y20233104D01*
X5035168Y20233104D02*
X4997073Y20156914D01*
X4997073Y20156914D02*
X4997073Y20042628D01*
X4997073Y20042628D02*
X4958978Y19966438D01*
X4958978Y19966438D02*
X4882787Y19928342D01*
X4882787Y19928342D02*
X4844692Y19928342D01*
X4844692Y19928342D02*
X4768502Y19966438D01*
X4768502Y19966438D02*
X4730406Y20042628D01*
X4730406Y20042628D02*
X4730406Y20156914D01*
X4730406Y20156914D02*
X4768502Y20233104D01*
X5263740Y20614057D02*
X4463740Y20614057D01*
X5263740Y20956914D02*
X4844692Y20956914D01*
X4844692Y20956914D02*
X4768502Y20918819D01*
X4768502Y20918819D02*
X4730406Y20842628D01*
X4730406Y20842628D02*
X4730406Y20728342D01*
X4730406Y20728342D02*
X4768502Y20652152D01*
X4768502Y20652152D02*
X4806597Y20614057D01*
X6551695Y18137866D02*
X5751695Y18137866D01*
X5751695Y18137866D02*
X6323123Y18404532D01*
X6323123Y18404532D02*
X5751695Y18671199D01*
X5751695Y18671199D02*
X6551695Y18671199D01*
X6513600Y19356914D02*
X6551695Y19280723D01*
X6551695Y19280723D02*
X6551695Y19128342D01*
X6551695Y19128342D02*
X6513600Y19052152D01*
X6513600Y19052152D02*
X6437409Y19014056D01*
X6437409Y19014056D02*
X6132647Y19014056D01*
X6132647Y19014056D02*
X6056457Y19052152D01*
X6056457Y19052152D02*
X6018361Y19128342D01*
X6018361Y19128342D02*
X6018361Y19280723D01*
X6018361Y19280723D02*
X6056457Y19356914D01*
X6056457Y19356914D02*
X6132647Y19395009D01*
X6132647Y19395009D02*
X6208838Y19395009D01*
X6208838Y19395009D02*
X6285028Y19014056D01*
X6551695Y19737866D02*
X6018361Y19737866D01*
X6094552Y19737866D02*
X6056457Y19775961D01*
X6056457Y19775961D02*
X6018361Y19852151D01*
X6018361Y19852151D02*
X6018361Y19966437D01*
X6018361Y19966437D02*
X6056457Y20042628D01*
X6056457Y20042628D02*
X6132647Y20080723D01*
X6132647Y20080723D02*
X6551695Y20080723D01*
X6132647Y20080723D02*
X6056457Y20118818D01*
X6056457Y20118818D02*
X6018361Y20195009D01*
X6018361Y20195009D02*
X6018361Y20309294D01*
X6018361Y20309294D02*
X6056457Y20385485D01*
X6056457Y20385485D02*
X6132647Y20423580D01*
X6132647Y20423580D02*
X6551695Y20423580D01*
X6551695Y20918818D02*
X6513600Y20842628D01*
X6513600Y20842628D02*
X6475504Y20804533D01*
X6475504Y20804533D02*
X6399314Y20766437D01*
X6399314Y20766437D02*
X6170742Y20766437D01*
X6170742Y20766437D02*
X6094552Y20804533D01*
X6094552Y20804533D02*
X6056457Y20842628D01*
X6056457Y20842628D02*
X6018361Y20918818D01*
X6018361Y20918818D02*
X6018361Y21033104D01*
X6018361Y21033104D02*
X6056457Y21109295D01*
X6056457Y21109295D02*
X6094552Y21147390D01*
X6094552Y21147390D02*
X6170742Y21185485D01*
X6170742Y21185485D02*
X6399314Y21185485D01*
X6399314Y21185485D02*
X6475504Y21147390D01*
X6475504Y21147390D02*
X6513600Y21109295D01*
X6513600Y21109295D02*
X6551695Y21033104D01*
X6551695Y21033104D02*
X6551695Y20918818D01*
X6551695Y21528343D02*
X6018361Y21528343D01*
X6170742Y21528343D02*
X6094552Y21566438D01*
X6094552Y21566438D02*
X6056457Y21604533D01*
X6056457Y21604533D02*
X6018361Y21680724D01*
X6018361Y21680724D02*
X6018361Y21756914D01*
X6018361Y21947390D02*
X6551695Y22137866D01*
X6018361Y22328343D02*
X6551695Y22137866D01*
X6551695Y22137866D02*
X6742171Y22061676D01*
X6742171Y22061676D02*
X6780266Y22023581D01*
X6780266Y22023581D02*
X6818361Y21947390D01*
D11*
X56588207Y38612010D02*
X56512017Y38650105D01*
X56512017Y38650105D02*
X56397731Y38650105D01*
X56397731Y38650105D02*
X56283445Y38612010D01*
X56283445Y38612010D02*
X56207255Y38535820D01*
X56207255Y38535820D02*
X56169160Y38459629D01*
X56169160Y38459629D02*
X56131064Y38307248D01*
X56131064Y38307248D02*
X56131064Y38192962D01*
X56131064Y38192962D02*
X56169160Y38040581D01*
X56169160Y38040581D02*
X56207255Y37964391D01*
X56207255Y37964391D02*
X56283445Y37888200D01*
X56283445Y37888200D02*
X56397731Y37850105D01*
X56397731Y37850105D02*
X56473922Y37850105D01*
X56473922Y37850105D02*
X56588207Y37888200D01*
X56588207Y37888200D02*
X56626303Y37926296D01*
X56626303Y37926296D02*
X56626303Y38192962D01*
X56626303Y38192962D02*
X56473922Y38192962D01*
X56969160Y37850105D02*
X56969160Y38650105D01*
X56969160Y38650105D02*
X57426303Y37850105D01*
X57426303Y37850105D02*
X57426303Y38650105D01*
X57807255Y37850105D02*
X57807255Y38650105D01*
X57807255Y38650105D02*
X57997731Y38650105D01*
X57997731Y38650105D02*
X58112017Y38612010D01*
X58112017Y38612010D02*
X58188207Y38535820D01*
X58188207Y38535820D02*
X58226302Y38459629D01*
X58226302Y38459629D02*
X58264398Y38307248D01*
X58264398Y38307248D02*
X58264398Y38192962D01*
X58264398Y38192962D02*
X58226302Y38040581D01*
X58226302Y38040581D02*
X58188207Y37964391D01*
X58188207Y37964391D02*
X58112017Y37888200D01*
X58112017Y37888200D02*
X57997731Y37850105D01*
X57997731Y37850105D02*
X57807255Y37850105D01*
D10*
X48114865Y25960267D02*
X48724389Y25960267D01*
X48419627Y25655505D02*
X48419627Y26265029D01*
X49029150Y26455505D02*
X49524388Y26455505D01*
X49524388Y26455505D02*
X49257722Y26150743D01*
X49257722Y26150743D02*
X49372007Y26150743D01*
X49372007Y26150743D02*
X49448198Y26112648D01*
X49448198Y26112648D02*
X49486293Y26074553D01*
X49486293Y26074553D02*
X49524388Y25998362D01*
X49524388Y25998362D02*
X49524388Y25807886D01*
X49524388Y25807886D02*
X49486293Y25731696D01*
X49486293Y25731696D02*
X49448198Y25693600D01*
X49448198Y25693600D02*
X49372007Y25655505D01*
X49372007Y25655505D02*
X49143436Y25655505D01*
X49143436Y25655505D02*
X49067245Y25693600D01*
X49067245Y25693600D02*
X49029150Y25731696D01*
X49791055Y26188839D02*
X49981531Y25655505D01*
X49981531Y25655505D02*
X50172008Y26188839D01*
X50400579Y26455505D02*
X50895817Y26455505D01*
X50895817Y26455505D02*
X50629151Y26150743D01*
X50629151Y26150743D02*
X50743436Y26150743D01*
X50743436Y26150743D02*
X50819627Y26112648D01*
X50819627Y26112648D02*
X50857722Y26074553D01*
X50857722Y26074553D02*
X50895817Y25998362D01*
X50895817Y25998362D02*
X50895817Y25807886D01*
X50895817Y25807886D02*
X50857722Y25731696D01*
X50857722Y25731696D02*
X50819627Y25693600D01*
X50819627Y25693600D02*
X50743436Y25655505D01*
X50743436Y25655505D02*
X50514865Y25655505D01*
X50514865Y25655505D02*
X50438674Y25693600D01*
X50438674Y25693600D02*
X50400579Y25731696D01*
X49274590Y2046913D02*
X49236495Y1970723D01*
X49236495Y1970723D02*
X49236495Y1856437D01*
X49236495Y1856437D02*
X49274590Y1742151D01*
X49274590Y1742151D02*
X49350780Y1665961D01*
X49350780Y1665961D02*
X49426971Y1627866D01*
X49426971Y1627866D02*
X49579352Y1589770D01*
X49579352Y1589770D02*
X49693638Y1589770D01*
X49693638Y1589770D02*
X49846019Y1627866D01*
X49846019Y1627866D02*
X49922209Y1665961D01*
X49922209Y1665961D02*
X49998400Y1742151D01*
X49998400Y1742151D02*
X50036495Y1856437D01*
X50036495Y1856437D02*
X50036495Y1932628D01*
X50036495Y1932628D02*
X49998400Y2046913D01*
X49998400Y2046913D02*
X49960304Y2085009D01*
X49960304Y2085009D02*
X49693638Y2085009D01*
X49693638Y2085009D02*
X49693638Y1932628D01*
X50036495Y2427866D02*
X49236495Y2427866D01*
X49236495Y2427866D02*
X50036495Y2885009D01*
X50036495Y2885009D02*
X49236495Y2885009D01*
X50036495Y3265961D02*
X49236495Y3265961D01*
X49236495Y3265961D02*
X49236495Y3456437D01*
X49236495Y3456437D02*
X49274590Y3570723D01*
X49274590Y3570723D02*
X49350780Y3646913D01*
X49350780Y3646913D02*
X49426971Y3685008D01*
X49426971Y3685008D02*
X49579352Y3723104D01*
X49579352Y3723104D02*
X49693638Y3723104D01*
X49693638Y3723104D02*
X49846019Y3685008D01*
X49846019Y3685008D02*
X49922209Y3646913D01*
X49922209Y3646913D02*
X49998400Y3570723D01*
X49998400Y3570723D02*
X50036495Y3456437D01*
X50036495Y3456437D02*
X50036495Y3265961D01*
D11*
X66684760Y35894239D02*
X66684760Y35360905D01*
X66684760Y35818048D02*
X66722855Y35856143D01*
X66722855Y35856143D02*
X66799045Y35894239D01*
X66799045Y35894239D02*
X66913331Y35894239D01*
X66913331Y35894239D02*
X66989522Y35856143D01*
X66989522Y35856143D02*
X67027617Y35779953D01*
X67027617Y35779953D02*
X67027617Y35360905D01*
X67865713Y35360905D02*
X67599046Y35741858D01*
X67408570Y35360905D02*
X67408570Y36160905D01*
X67408570Y36160905D02*
X67713332Y36160905D01*
X67713332Y36160905D02*
X67789522Y36122810D01*
X67789522Y36122810D02*
X67827617Y36084715D01*
X67827617Y36084715D02*
X67865713Y36008524D01*
X67865713Y36008524D02*
X67865713Y35894239D01*
X67865713Y35894239D02*
X67827617Y35818048D01*
X67827617Y35818048D02*
X67789522Y35779953D01*
X67789522Y35779953D02*
X67713332Y35741858D01*
X67713332Y35741858D02*
X67408570Y35741858D01*
X68513332Y35399000D02*
X68437141Y35360905D01*
X68437141Y35360905D02*
X68284760Y35360905D01*
X68284760Y35360905D02*
X68208570Y35399000D01*
X68208570Y35399000D02*
X68170474Y35475191D01*
X68170474Y35475191D02*
X68170474Y35779953D01*
X68170474Y35779953D02*
X68208570Y35856143D01*
X68208570Y35856143D02*
X68284760Y35894239D01*
X68284760Y35894239D02*
X68437141Y35894239D01*
X68437141Y35894239D02*
X68513332Y35856143D01*
X68513332Y35856143D02*
X68551427Y35779953D01*
X68551427Y35779953D02*
X68551427Y35703762D01*
X68551427Y35703762D02*
X68170474Y35627572D01*
X68856188Y35399000D02*
X68932379Y35360905D01*
X68932379Y35360905D02*
X69084760Y35360905D01*
X69084760Y35360905D02*
X69160950Y35399000D01*
X69160950Y35399000D02*
X69199046Y35475191D01*
X69199046Y35475191D02*
X69199046Y35513286D01*
X69199046Y35513286D02*
X69160950Y35589477D01*
X69160950Y35589477D02*
X69084760Y35627572D01*
X69084760Y35627572D02*
X68970474Y35627572D01*
X68970474Y35627572D02*
X68894284Y35665667D01*
X68894284Y35665667D02*
X68856188Y35741858D01*
X68856188Y35741858D02*
X68856188Y35779953D01*
X68856188Y35779953D02*
X68894284Y35856143D01*
X68894284Y35856143D02*
X68970474Y35894239D01*
X68970474Y35894239D02*
X69084760Y35894239D01*
X69084760Y35894239D02*
X69160950Y35856143D01*
X69846665Y35399000D02*
X69770474Y35360905D01*
X69770474Y35360905D02*
X69618093Y35360905D01*
X69618093Y35360905D02*
X69541903Y35399000D01*
X69541903Y35399000D02*
X69503807Y35475191D01*
X69503807Y35475191D02*
X69503807Y35779953D01*
X69503807Y35779953D02*
X69541903Y35856143D01*
X69541903Y35856143D02*
X69618093Y35894239D01*
X69618093Y35894239D02*
X69770474Y35894239D01*
X69770474Y35894239D02*
X69846665Y35856143D01*
X69846665Y35856143D02*
X69884760Y35779953D01*
X69884760Y35779953D02*
X69884760Y35703762D01*
X69884760Y35703762D02*
X69503807Y35627572D01*
X70113331Y35894239D02*
X70418093Y35894239D01*
X70227617Y36160905D02*
X70227617Y35475191D01*
X70227617Y35475191D02*
X70265712Y35399000D01*
X70265712Y35399000D02*
X70341902Y35360905D01*
X70341902Y35360905D02*
X70418093Y35360905D01*
D10*
X49680933Y4574266D02*
X49680933Y5183789D01*
X49985695Y4879028D02*
X49376171Y4879028D01*
X49185695Y5945694D02*
X49185695Y5564742D01*
X49185695Y5564742D02*
X49566647Y5526646D01*
X49566647Y5526646D02*
X49528552Y5564742D01*
X49528552Y5564742D02*
X49490457Y5640932D01*
X49490457Y5640932D02*
X49490457Y5831408D01*
X49490457Y5831408D02*
X49528552Y5907599D01*
X49528552Y5907599D02*
X49566647Y5945694D01*
X49566647Y5945694D02*
X49642838Y5983789D01*
X49642838Y5983789D02*
X49833314Y5983789D01*
X49833314Y5983789D02*
X49909504Y5945694D01*
X49909504Y5945694D02*
X49947600Y5907599D01*
X49947600Y5907599D02*
X49985695Y5831408D01*
X49985695Y5831408D02*
X49985695Y5640932D01*
X49985695Y5640932D02*
X49947600Y5564742D01*
X49947600Y5564742D02*
X49909504Y5526646D01*
X49185695Y6212361D02*
X49985695Y6479028D01*
X49985695Y6479028D02*
X49185695Y6745694D01*
D11*
X49587923Y46707822D02*
X50349828Y46707822D01*
X51587923Y46326869D02*
X51587923Y47326869D01*
X51587923Y47326869D02*
X52159351Y46326869D01*
X52159351Y46326869D02*
X52159351Y47326869D01*
X53064113Y46326869D02*
X53064113Y46850679D01*
X53064113Y46850679D02*
X53016494Y46945917D01*
X53016494Y46945917D02*
X52921256Y46993536D01*
X52921256Y46993536D02*
X52730780Y46993536D01*
X52730780Y46993536D02*
X52635542Y46945917D01*
X53064113Y46374488D02*
X52968875Y46326869D01*
X52968875Y46326869D02*
X52730780Y46326869D01*
X52730780Y46326869D02*
X52635542Y46374488D01*
X52635542Y46374488D02*
X52587923Y46469727D01*
X52587923Y46469727D02*
X52587923Y46564965D01*
X52587923Y46564965D02*
X52635542Y46660203D01*
X52635542Y46660203D02*
X52730780Y46707822D01*
X52730780Y46707822D02*
X52968875Y46707822D01*
X52968875Y46707822D02*
X53064113Y46755441D01*
X53492685Y46374488D02*
X53587923Y46326869D01*
X53587923Y46326869D02*
X53778399Y46326869D01*
X53778399Y46326869D02*
X53873637Y46374488D01*
X53873637Y46374488D02*
X53921256Y46469727D01*
X53921256Y46469727D02*
X53921256Y46517346D01*
X53921256Y46517346D02*
X53873637Y46612584D01*
X53873637Y46612584D02*
X53778399Y46660203D01*
X53778399Y46660203D02*
X53635542Y46660203D01*
X53635542Y46660203D02*
X53540304Y46707822D01*
X53540304Y46707822D02*
X53492685Y46803060D01*
X53492685Y46803060D02*
X53492685Y46850679D01*
X53492685Y46850679D02*
X53540304Y46945917D01*
X53540304Y46945917D02*
X53635542Y46993536D01*
X53635542Y46993536D02*
X53778399Y46993536D01*
X53778399Y46993536D02*
X53873637Y46945917D01*
X54302209Y46374488D02*
X54397447Y46326869D01*
X54397447Y46326869D02*
X54587923Y46326869D01*
X54587923Y46326869D02*
X54683161Y46374488D01*
X54683161Y46374488D02*
X54730780Y46469727D01*
X54730780Y46469727D02*
X54730780Y46517346D01*
X54730780Y46517346D02*
X54683161Y46612584D01*
X54683161Y46612584D02*
X54587923Y46660203D01*
X54587923Y46660203D02*
X54445066Y46660203D01*
X54445066Y46660203D02*
X54349828Y46707822D01*
X54349828Y46707822D02*
X54302209Y46803060D01*
X54302209Y46803060D02*
X54302209Y46850679D01*
X54302209Y46850679D02*
X54349828Y46945917D01*
X54349828Y46945917D02*
X54445066Y46993536D01*
X54445066Y46993536D02*
X54587923Y46993536D01*
X54587923Y46993536D02*
X54683161Y46945917D01*
X55540304Y46374488D02*
X55445066Y46326869D01*
X55445066Y46326869D02*
X55254590Y46326869D01*
X55254590Y46326869D02*
X55159352Y46374488D01*
X55159352Y46374488D02*
X55111733Y46469727D01*
X55111733Y46469727D02*
X55111733Y46850679D01*
X55111733Y46850679D02*
X55159352Y46945917D01*
X55159352Y46945917D02*
X55254590Y46993536D01*
X55254590Y46993536D02*
X55445066Y46993536D01*
X55445066Y46993536D02*
X55540304Y46945917D01*
X55540304Y46945917D02*
X55587923Y46850679D01*
X55587923Y46850679D02*
X55587923Y46755441D01*
X55587923Y46755441D02*
X55111733Y46660203D01*
X56016495Y46326869D02*
X56016495Y46993536D01*
X56016495Y46803060D02*
X56064114Y46898298D01*
X56064114Y46898298D02*
X56111733Y46945917D01*
X56111733Y46945917D02*
X56206971Y46993536D01*
X56206971Y46993536D02*
X56302209Y46993536D01*
X57254591Y47326869D02*
X57826019Y47326869D01*
X57540305Y46326869D02*
X57540305Y47326869D01*
X58587924Y46326869D02*
X58587924Y46850679D01*
X58587924Y46850679D02*
X58540305Y46945917D01*
X58540305Y46945917D02*
X58445067Y46993536D01*
X58445067Y46993536D02*
X58254591Y46993536D01*
X58254591Y46993536D02*
X58159353Y46945917D01*
X58587924Y46374488D02*
X58492686Y46326869D01*
X58492686Y46326869D02*
X58254591Y46326869D01*
X58254591Y46326869D02*
X58159353Y46374488D01*
X58159353Y46374488D02*
X58111734Y46469727D01*
X58111734Y46469727D02*
X58111734Y46564965D01*
X58111734Y46564965D02*
X58159353Y46660203D01*
X58159353Y46660203D02*
X58254591Y46707822D01*
X58254591Y46707822D02*
X58492686Y46707822D01*
X58492686Y46707822D02*
X58587924Y46755441D01*
X59492686Y46993536D02*
X59492686Y45993536D01*
X59492686Y46374488D02*
X59397448Y46326869D01*
X59397448Y46326869D02*
X59206972Y46326869D01*
X59206972Y46326869D02*
X59111734Y46374488D01*
X59111734Y46374488D02*
X59064115Y46422108D01*
X59064115Y46422108D02*
X59016496Y46517346D01*
X59016496Y46517346D02*
X59016496Y46803060D01*
X59016496Y46803060D02*
X59064115Y46898298D01*
X59064115Y46898298D02*
X59111734Y46945917D01*
X59111734Y46945917D02*
X59206972Y46993536D01*
X59206972Y46993536D02*
X59397448Y46993536D01*
X59397448Y46993536D02*
X59492686Y46945917D01*
X59968877Y46326869D02*
X59968877Y46993536D01*
X59968877Y47326869D02*
X59921258Y47279250D01*
X59921258Y47279250D02*
X59968877Y47231631D01*
X59968877Y47231631D02*
X60016496Y47279250D01*
X60016496Y47279250D02*
X59968877Y47326869D01*
X59968877Y47326869D02*
X59968877Y47231631D01*
X61206972Y46707822D02*
X61968877Y46707822D01*
X50349828Y44764544D02*
X50492685Y44716925D01*
X50492685Y44716925D02*
X50730780Y44716925D01*
X50730780Y44716925D02*
X50826018Y44764544D01*
X50826018Y44764544D02*
X50873637Y44812164D01*
X50873637Y44812164D02*
X50921256Y44907402D01*
X50921256Y44907402D02*
X50921256Y45002640D01*
X50921256Y45002640D02*
X50873637Y45097878D01*
X50873637Y45097878D02*
X50826018Y45145497D01*
X50826018Y45145497D02*
X50730780Y45193116D01*
X50730780Y45193116D02*
X50540304Y45240735D01*
X50540304Y45240735D02*
X50445066Y45288354D01*
X50445066Y45288354D02*
X50397447Y45335973D01*
X50397447Y45335973D02*
X50349828Y45431211D01*
X50349828Y45431211D02*
X50349828Y45526449D01*
X50349828Y45526449D02*
X50397447Y45621687D01*
X50397447Y45621687D02*
X50445066Y45669306D01*
X50445066Y45669306D02*
X50540304Y45716925D01*
X50540304Y45716925D02*
X50778399Y45716925D01*
X50778399Y45716925D02*
X50921256Y45669306D01*
X51206971Y45716925D02*
X51778399Y45716925D01*
X51492685Y44716925D02*
X51492685Y45716925D01*
X52111733Y44716925D02*
X52111733Y45716925D01*
X52111733Y45716925D02*
X52445066Y45002640D01*
X52445066Y45002640D02*
X52778399Y45716925D01*
X52778399Y45716925D02*
X52778399Y44716925D01*
X53159352Y45716925D02*
X53778399Y45716925D01*
X53778399Y45716925D02*
X53445066Y45335973D01*
X53445066Y45335973D02*
X53587923Y45335973D01*
X53587923Y45335973D02*
X53683161Y45288354D01*
X53683161Y45288354D02*
X53730780Y45240735D01*
X53730780Y45240735D02*
X53778399Y45145497D01*
X53778399Y45145497D02*
X53778399Y44907402D01*
X53778399Y44907402D02*
X53730780Y44812164D01*
X53730780Y44812164D02*
X53683161Y44764544D01*
X53683161Y44764544D02*
X53587923Y44716925D01*
X53587923Y44716925D02*
X53302209Y44716925D01*
X53302209Y44716925D02*
X53206971Y44764544D01*
X53206971Y44764544D02*
X53159352Y44812164D01*
X54159352Y45621687D02*
X54206971Y45669306D01*
X54206971Y45669306D02*
X54302209Y45716925D01*
X54302209Y45716925D02*
X54540304Y45716925D01*
X54540304Y45716925D02*
X54635542Y45669306D01*
X54635542Y45669306D02*
X54683161Y45621687D01*
X54683161Y45621687D02*
X54730780Y45526449D01*
X54730780Y45526449D02*
X54730780Y45431211D01*
X54730780Y45431211D02*
X54683161Y45288354D01*
X54683161Y45288354D02*
X54111733Y44716925D01*
X54111733Y44716925D02*
X54730780Y44716925D01*
X55159352Y45097878D02*
X55921257Y45097878D01*
X56730780Y45240735D02*
X56873637Y45193116D01*
X56873637Y45193116D02*
X56921256Y45145497D01*
X56921256Y45145497D02*
X56968875Y45050259D01*
X56968875Y45050259D02*
X56968875Y44907402D01*
X56968875Y44907402D02*
X56921256Y44812164D01*
X56921256Y44812164D02*
X56873637Y44764544D01*
X56873637Y44764544D02*
X56778399Y44716925D01*
X56778399Y44716925D02*
X56397447Y44716925D01*
X56397447Y44716925D02*
X56397447Y45716925D01*
X56397447Y45716925D02*
X56730780Y45716925D01*
X56730780Y45716925D02*
X56826018Y45669306D01*
X56826018Y45669306D02*
X56873637Y45621687D01*
X56873637Y45621687D02*
X56921256Y45526449D01*
X56921256Y45526449D02*
X56921256Y45431211D01*
X56921256Y45431211D02*
X56873637Y45335973D01*
X56873637Y45335973D02*
X56826018Y45288354D01*
X56826018Y45288354D02*
X56730780Y45240735D01*
X56730780Y45240735D02*
X56397447Y45240735D01*
X57826018Y44716925D02*
X57826018Y45240735D01*
X57826018Y45240735D02*
X57778399Y45335973D01*
X57778399Y45335973D02*
X57683161Y45383592D01*
X57683161Y45383592D02*
X57492685Y45383592D01*
X57492685Y45383592D02*
X57397447Y45335973D01*
X57826018Y44764544D02*
X57730780Y44716925D01*
X57730780Y44716925D02*
X57492685Y44716925D01*
X57492685Y44716925D02*
X57397447Y44764544D01*
X57397447Y44764544D02*
X57349828Y44859783D01*
X57349828Y44859783D02*
X57349828Y44955021D01*
X57349828Y44955021D02*
X57397447Y45050259D01*
X57397447Y45050259D02*
X57492685Y45097878D01*
X57492685Y45097878D02*
X57730780Y45097878D01*
X57730780Y45097878D02*
X57826018Y45145497D01*
X58254590Y44764544D02*
X58349828Y44716925D01*
X58349828Y44716925D02*
X58540304Y44716925D01*
X58540304Y44716925D02*
X58635542Y44764544D01*
X58635542Y44764544D02*
X58683161Y44859783D01*
X58683161Y44859783D02*
X58683161Y44907402D01*
X58683161Y44907402D02*
X58635542Y45002640D01*
X58635542Y45002640D02*
X58540304Y45050259D01*
X58540304Y45050259D02*
X58397447Y45050259D01*
X58397447Y45050259D02*
X58302209Y45097878D01*
X58302209Y45097878D02*
X58254590Y45193116D01*
X58254590Y45193116D02*
X58254590Y45240735D01*
X58254590Y45240735D02*
X58302209Y45335973D01*
X58302209Y45335973D02*
X58397447Y45383592D01*
X58397447Y45383592D02*
X58540304Y45383592D01*
X58540304Y45383592D02*
X58635542Y45335973D01*
X59492685Y44764544D02*
X59397447Y44716925D01*
X59397447Y44716925D02*
X59206971Y44716925D01*
X59206971Y44716925D02*
X59111733Y44764544D01*
X59111733Y44764544D02*
X59064114Y44859783D01*
X59064114Y44859783D02*
X59064114Y45240735D01*
X59064114Y45240735D02*
X59111733Y45335973D01*
X59111733Y45335973D02*
X59206971Y45383592D01*
X59206971Y45383592D02*
X59397447Y45383592D01*
X59397447Y45383592D02*
X59492685Y45335973D01*
X59492685Y45335973D02*
X59540304Y45240735D01*
X59540304Y45240735D02*
X59540304Y45145497D01*
X59540304Y45145497D02*
X59064114Y45050259D01*
X60397447Y44716925D02*
X60397447Y45716925D01*
X60397447Y44764544D02*
X60302209Y44716925D01*
X60302209Y44716925D02*
X60111733Y44716925D01*
X60111733Y44716925D02*
X60016495Y44764544D01*
X60016495Y44764544D02*
X59968876Y44812164D01*
X59968876Y44812164D02*
X59921257Y44907402D01*
X59921257Y44907402D02*
X59921257Y45193116D01*
X59921257Y45193116D02*
X59968876Y45288354D01*
X59968876Y45288354D02*
X60016495Y45335973D01*
X60016495Y45335973D02*
X60111733Y45383592D01*
X60111733Y45383592D02*
X60302209Y45383592D01*
X60302209Y45383592D02*
X60397447Y45335973D01*
X52802209Y43106981D02*
X52802209Y44106981D01*
X52802209Y44106981D02*
X53183161Y44106981D01*
X53183161Y44106981D02*
X53278399Y44059362D01*
X53278399Y44059362D02*
X53326018Y44011743D01*
X53326018Y44011743D02*
X53373637Y43916505D01*
X53373637Y43916505D02*
X53373637Y43773648D01*
X53373637Y43773648D02*
X53326018Y43678410D01*
X53326018Y43678410D02*
X53278399Y43630791D01*
X53278399Y43630791D02*
X53183161Y43583172D01*
X53183161Y43583172D02*
X52802209Y43583172D01*
X53945066Y43106981D02*
X53849828Y43154600D01*
X53849828Y43154600D02*
X53802209Y43249839D01*
X53802209Y43249839D02*
X53802209Y44106981D01*
X54754590Y43106981D02*
X54754590Y43630791D01*
X54754590Y43630791D02*
X54706971Y43726029D01*
X54706971Y43726029D02*
X54611733Y43773648D01*
X54611733Y43773648D02*
X54421257Y43773648D01*
X54421257Y43773648D02*
X54326019Y43726029D01*
X54754590Y43154600D02*
X54659352Y43106981D01*
X54659352Y43106981D02*
X54421257Y43106981D01*
X54421257Y43106981D02*
X54326019Y43154600D01*
X54326019Y43154600D02*
X54278400Y43249839D01*
X54278400Y43249839D02*
X54278400Y43345077D01*
X54278400Y43345077D02*
X54326019Y43440315D01*
X54326019Y43440315D02*
X54421257Y43487934D01*
X54421257Y43487934D02*
X54659352Y43487934D01*
X54659352Y43487934D02*
X54754590Y43535553D01*
X55087924Y43773648D02*
X55468876Y43773648D01*
X55230781Y44106981D02*
X55230781Y43249839D01*
X55230781Y43249839D02*
X55278400Y43154600D01*
X55278400Y43154600D02*
X55373638Y43106981D01*
X55373638Y43106981D02*
X55468876Y43106981D01*
X55659353Y43773648D02*
X56040305Y43773648D01*
X55802210Y43106981D02*
X55802210Y43964124D01*
X55802210Y43964124D02*
X55849829Y44059362D01*
X55849829Y44059362D02*
X55945067Y44106981D01*
X55945067Y44106981D02*
X56040305Y44106981D01*
X56516496Y43106981D02*
X56421258Y43154600D01*
X56421258Y43154600D02*
X56373639Y43202220D01*
X56373639Y43202220D02*
X56326020Y43297458D01*
X56326020Y43297458D02*
X56326020Y43583172D01*
X56326020Y43583172D02*
X56373639Y43678410D01*
X56373639Y43678410D02*
X56421258Y43726029D01*
X56421258Y43726029D02*
X56516496Y43773648D01*
X56516496Y43773648D02*
X56659353Y43773648D01*
X56659353Y43773648D02*
X56754591Y43726029D01*
X56754591Y43726029D02*
X56802210Y43678410D01*
X56802210Y43678410D02*
X56849829Y43583172D01*
X56849829Y43583172D02*
X56849829Y43297458D01*
X56849829Y43297458D02*
X56802210Y43202220D01*
X56802210Y43202220D02*
X56754591Y43154600D01*
X56754591Y43154600D02*
X56659353Y43106981D01*
X56659353Y43106981D02*
X56516496Y43106981D01*
X57278401Y43106981D02*
X57278401Y43773648D01*
X57278401Y43583172D02*
X57326020Y43678410D01*
X57326020Y43678410D02*
X57373639Y43726029D01*
X57373639Y43726029D02*
X57468877Y43773648D01*
X57468877Y43773648D02*
X57564115Y43773648D01*
X57897449Y43106981D02*
X57897449Y43773648D01*
X57897449Y43678410D02*
X57945068Y43726029D01*
X57945068Y43726029D02*
X58040306Y43773648D01*
X58040306Y43773648D02*
X58183163Y43773648D01*
X58183163Y43773648D02*
X58278401Y43726029D01*
X58278401Y43726029D02*
X58326020Y43630791D01*
X58326020Y43630791D02*
X58326020Y43106981D01*
X58326020Y43630791D02*
X58373639Y43726029D01*
X58373639Y43726029D02*
X58468877Y43773648D01*
X58468877Y43773648D02*
X58611734Y43773648D01*
X58611734Y43773648D02*
X58706973Y43726029D01*
X58706973Y43726029D02*
X58754592Y43630791D01*
X58754592Y43630791D02*
X58754592Y43106981D01*
X66735560Y37900905D02*
X66735560Y38700905D01*
X66735560Y38700905D02*
X67192703Y37900905D01*
X67192703Y37900905D02*
X67192703Y38700905D01*
X68145083Y38739000D02*
X67459369Y37710429D01*
X68868893Y37977096D02*
X68830797Y37939000D01*
X68830797Y37939000D02*
X68716512Y37900905D01*
X68716512Y37900905D02*
X68640321Y37900905D01*
X68640321Y37900905D02*
X68526035Y37939000D01*
X68526035Y37939000D02*
X68449845Y38015191D01*
X68449845Y38015191D02*
X68411750Y38091381D01*
X68411750Y38091381D02*
X68373654Y38243762D01*
X68373654Y38243762D02*
X68373654Y38358048D01*
X68373654Y38358048D02*
X68411750Y38510429D01*
X68411750Y38510429D02*
X68449845Y38586620D01*
X68449845Y38586620D02*
X68526035Y38662810D01*
X68526035Y38662810D02*
X68640321Y38700905D01*
X68640321Y38700905D02*
X68716512Y38700905D01*
X68716512Y38700905D02*
X68830797Y38662810D01*
X68830797Y38662810D02*
X68868893Y38624715D01*
D10*
X22363200Y24703770D02*
X22401295Y24818056D01*
X22401295Y24818056D02*
X22401295Y25008532D01*
X22401295Y25008532D02*
X22363200Y25084723D01*
X22363200Y25084723D02*
X22325104Y25122818D01*
X22325104Y25122818D02*
X22248914Y25160913D01*
X22248914Y25160913D02*
X22172723Y25160913D01*
X22172723Y25160913D02*
X22096533Y25122818D01*
X22096533Y25122818D02*
X22058438Y25084723D01*
X22058438Y25084723D02*
X22020342Y25008532D01*
X22020342Y25008532D02*
X21982247Y24856151D01*
X21982247Y24856151D02*
X21944152Y24779961D01*
X21944152Y24779961D02*
X21906057Y24741866D01*
X21906057Y24741866D02*
X21829866Y24703770D01*
X21829866Y24703770D02*
X21753676Y24703770D01*
X21753676Y24703770D02*
X21677485Y24741866D01*
X21677485Y24741866D02*
X21639390Y24779961D01*
X21639390Y24779961D02*
X21601295Y24856151D01*
X21601295Y24856151D02*
X21601295Y25046628D01*
X21601295Y25046628D02*
X21639390Y25160913D01*
X21601295Y25389485D02*
X21601295Y25846628D01*
X22401295Y25618056D02*
X21601295Y25618056D01*
X22401295Y26113295D02*
X21601295Y26113295D01*
X21601295Y26113295D02*
X22172723Y26379961D01*
X22172723Y26379961D02*
X21601295Y26646628D01*
X21601295Y26646628D02*
X22401295Y26646628D01*
X21601295Y26951390D02*
X21601295Y27446628D01*
X21601295Y27446628D02*
X21906057Y27179962D01*
X21906057Y27179962D02*
X21906057Y27294247D01*
X21906057Y27294247D02*
X21944152Y27370438D01*
X21944152Y27370438D02*
X21982247Y27408533D01*
X21982247Y27408533D02*
X22058438Y27446628D01*
X22058438Y27446628D02*
X22248914Y27446628D01*
X22248914Y27446628D02*
X22325104Y27408533D01*
X22325104Y27408533D02*
X22363200Y27370438D01*
X22363200Y27370438D02*
X22401295Y27294247D01*
X22401295Y27294247D02*
X22401295Y27065676D01*
X22401295Y27065676D02*
X22363200Y26989485D01*
X22363200Y26989485D02*
X22325104Y26951390D01*
X21677485Y27751390D02*
X21639390Y27789486D01*
X21639390Y27789486D02*
X21601295Y27865676D01*
X21601295Y27865676D02*
X21601295Y28056152D01*
X21601295Y28056152D02*
X21639390Y28132343D01*
X21639390Y28132343D02*
X21677485Y28170438D01*
X21677485Y28170438D02*
X21753676Y28208533D01*
X21753676Y28208533D02*
X21829866Y28208533D01*
X21829866Y28208533D02*
X21944152Y28170438D01*
X21944152Y28170438D02*
X22401295Y27713295D01*
X22401295Y27713295D02*
X22401295Y28208533D01*
D11*
X66697464Y39158200D02*
X66811750Y39120105D01*
X66811750Y39120105D02*
X67002226Y39120105D01*
X67002226Y39120105D02*
X67078417Y39158200D01*
X67078417Y39158200D02*
X67116512Y39196296D01*
X67116512Y39196296D02*
X67154607Y39272486D01*
X67154607Y39272486D02*
X67154607Y39348677D01*
X67154607Y39348677D02*
X67116512Y39424867D01*
X67116512Y39424867D02*
X67078417Y39462962D01*
X67078417Y39462962D02*
X67002226Y39501058D01*
X67002226Y39501058D02*
X66849845Y39539153D01*
X66849845Y39539153D02*
X66773655Y39577248D01*
X66773655Y39577248D02*
X66735560Y39615343D01*
X66735560Y39615343D02*
X66697464Y39691534D01*
X66697464Y39691534D02*
X66697464Y39767724D01*
X66697464Y39767724D02*
X66735560Y39843915D01*
X66735560Y39843915D02*
X66773655Y39882010D01*
X66773655Y39882010D02*
X66849845Y39920105D01*
X66849845Y39920105D02*
X67040322Y39920105D01*
X67040322Y39920105D02*
X67154607Y39882010D01*
X67421274Y39920105D02*
X67611750Y39120105D01*
X67611750Y39120105D02*
X67764131Y39691534D01*
X67764131Y39691534D02*
X67916512Y39120105D01*
X67916512Y39120105D02*
X68106989Y39920105D01*
X68868894Y39196296D02*
X68830798Y39158200D01*
X68830798Y39158200D02*
X68716513Y39120105D01*
X68716513Y39120105D02*
X68640322Y39120105D01*
X68640322Y39120105D02*
X68526036Y39158200D01*
X68526036Y39158200D02*
X68449846Y39234391D01*
X68449846Y39234391D02*
X68411751Y39310581D01*
X68411751Y39310581D02*
X68373655Y39462962D01*
X68373655Y39462962D02*
X68373655Y39577248D01*
X68373655Y39577248D02*
X68411751Y39729629D01*
X68411751Y39729629D02*
X68449846Y39805820D01*
X68449846Y39805820D02*
X68526036Y39882010D01*
X68526036Y39882010D02*
X68640322Y39920105D01*
X68640322Y39920105D02*
X68716513Y39920105D01*
X68716513Y39920105D02*
X68830798Y39882010D01*
X68830798Y39882010D02*
X68868894Y39843915D01*
X69592703Y39120105D02*
X69211751Y39120105D01*
X69211751Y39120105D02*
X69211751Y39920105D01*
X69859370Y39120105D02*
X69859370Y39920105D01*
X70316513Y39120105D02*
X69973655Y39577248D01*
X70316513Y39920105D02*
X69859370Y39462962D01*
X66748264Y40479000D02*
X66862550Y40440905D01*
X66862550Y40440905D02*
X67053026Y40440905D01*
X67053026Y40440905D02*
X67129217Y40479000D01*
X67129217Y40479000D02*
X67167312Y40517096D01*
X67167312Y40517096D02*
X67205407Y40593286D01*
X67205407Y40593286D02*
X67205407Y40669477D01*
X67205407Y40669477D02*
X67167312Y40745667D01*
X67167312Y40745667D02*
X67129217Y40783762D01*
X67129217Y40783762D02*
X67053026Y40821858D01*
X67053026Y40821858D02*
X66900645Y40859953D01*
X66900645Y40859953D02*
X66824455Y40898048D01*
X66824455Y40898048D02*
X66786360Y40936143D01*
X66786360Y40936143D02*
X66748264Y41012334D01*
X66748264Y41012334D02*
X66748264Y41088524D01*
X66748264Y41088524D02*
X66786360Y41164715D01*
X66786360Y41164715D02*
X66824455Y41202810D01*
X66824455Y41202810D02*
X66900645Y41240905D01*
X66900645Y41240905D02*
X67091122Y41240905D01*
X67091122Y41240905D02*
X67205407Y41202810D01*
X67472074Y41240905D02*
X67662550Y40440905D01*
X67662550Y40440905D02*
X67814931Y41012334D01*
X67814931Y41012334D02*
X67967312Y40440905D01*
X67967312Y40440905D02*
X68157789Y41240905D01*
X68462551Y40440905D02*
X68462551Y41240905D01*
X68462551Y41240905D02*
X68653027Y41240905D01*
X68653027Y41240905D02*
X68767313Y41202810D01*
X68767313Y41202810D02*
X68843503Y41126620D01*
X68843503Y41126620D02*
X68881598Y41050429D01*
X68881598Y41050429D02*
X68919694Y40898048D01*
X68919694Y40898048D02*
X68919694Y40783762D01*
X68919694Y40783762D02*
X68881598Y40631381D01*
X68881598Y40631381D02*
X68843503Y40555191D01*
X68843503Y40555191D02*
X68767313Y40479000D01*
X68767313Y40479000D02*
X68653027Y40440905D01*
X68653027Y40440905D02*
X68462551Y40440905D01*
X69262551Y40440905D02*
X69262551Y41240905D01*
X69795884Y41240905D02*
X69948265Y41240905D01*
X69948265Y41240905D02*
X70024455Y41202810D01*
X70024455Y41202810D02*
X70100646Y41126620D01*
X70100646Y41126620D02*
X70138741Y40974239D01*
X70138741Y40974239D02*
X70138741Y40707572D01*
X70138741Y40707572D02*
X70100646Y40555191D01*
X70100646Y40555191D02*
X70024455Y40479000D01*
X70024455Y40479000D02*
X69948265Y40440905D01*
X69948265Y40440905D02*
X69795884Y40440905D01*
X69795884Y40440905D02*
X69719693Y40479000D01*
X69719693Y40479000D02*
X69643503Y40555191D01*
X69643503Y40555191D02*
X69605407Y40707572D01*
X69605407Y40707572D02*
X69605407Y40974239D01*
X69605407Y40974239D02*
X69643503Y41126620D01*
X69643503Y41126620D02*
X69719693Y41202810D01*
X69719693Y41202810D02*
X69795884Y41240905D01*
D10*
X37501695Y22430475D02*
X37501695Y22925713D01*
X37501695Y22925713D02*
X37806457Y22659047D01*
X37806457Y22659047D02*
X37806457Y22773332D01*
X37806457Y22773332D02*
X37844552Y22849523D01*
X37844552Y22849523D02*
X37882647Y22887618D01*
X37882647Y22887618D02*
X37958838Y22925713D01*
X37958838Y22925713D02*
X38149314Y22925713D01*
X38149314Y22925713D02*
X38225504Y22887618D01*
X38225504Y22887618D02*
X38263600Y22849523D01*
X38263600Y22849523D02*
X38301695Y22773332D01*
X38301695Y22773332D02*
X38301695Y22544761D01*
X38301695Y22544761D02*
X38263600Y22468570D01*
X38263600Y22468570D02*
X38225504Y22430475D01*
X37768361Y23192380D02*
X38301695Y23382856D01*
X38301695Y23382856D02*
X37768361Y23573333D01*
X37501695Y23801904D02*
X37501695Y24297142D01*
X37501695Y24297142D02*
X37806457Y24030476D01*
X37806457Y24030476D02*
X37806457Y24144761D01*
X37806457Y24144761D02*
X37844552Y24220952D01*
X37844552Y24220952D02*
X37882647Y24259047D01*
X37882647Y24259047D02*
X37958838Y24297142D01*
X37958838Y24297142D02*
X38149314Y24297142D01*
X38149314Y24297142D02*
X38225504Y24259047D01*
X38225504Y24259047D02*
X38263600Y24220952D01*
X38263600Y24220952D02*
X38301695Y24144761D01*
X38301695Y24144761D02*
X38301695Y23916190D01*
X38301695Y23916190D02*
X38263600Y23839999D01*
X38263600Y23839999D02*
X38225504Y23801904D01*
X38301695Y25630476D02*
X38301695Y25249524D01*
X38301695Y25249524D02*
X37501695Y25249524D01*
X38301695Y25897143D02*
X37501695Y25897143D01*
X37501695Y25897143D02*
X37501695Y26087619D01*
X37501695Y26087619D02*
X37539790Y26201905D01*
X37539790Y26201905D02*
X37615980Y26278095D01*
X37615980Y26278095D02*
X37692171Y26316190D01*
X37692171Y26316190D02*
X37844552Y26354286D01*
X37844552Y26354286D02*
X37958838Y26354286D01*
X37958838Y26354286D02*
X38111219Y26316190D01*
X38111219Y26316190D02*
X38187409Y26278095D01*
X38187409Y26278095D02*
X38263600Y26201905D01*
X38263600Y26201905D02*
X38301695Y26087619D01*
X38301695Y26087619D02*
X38301695Y25897143D01*
X37501695Y26849524D02*
X37501695Y27001905D01*
X37501695Y27001905D02*
X37539790Y27078095D01*
X37539790Y27078095D02*
X37615980Y27154286D01*
X37615980Y27154286D02*
X37768361Y27192381D01*
X37768361Y27192381D02*
X38035028Y27192381D01*
X38035028Y27192381D02*
X38187409Y27154286D01*
X38187409Y27154286D02*
X38263600Y27078095D01*
X38263600Y27078095D02*
X38301695Y27001905D01*
X38301695Y27001905D02*
X38301695Y26849524D01*
X38301695Y26849524D02*
X38263600Y26773333D01*
X38263600Y26773333D02*
X38187409Y26697143D01*
X38187409Y26697143D02*
X38035028Y26659047D01*
X38035028Y26659047D02*
X37768361Y26659047D01*
X37768361Y26659047D02*
X37615980Y26697143D01*
X37615980Y26697143D02*
X37539790Y26773333D01*
X37539790Y26773333D02*
X37501695Y26849524D01*
X2792495Y34546209D02*
X2411542Y34279542D01*
X2792495Y34089066D02*
X1992495Y34089066D01*
X1992495Y34089066D02*
X1992495Y34393828D01*
X1992495Y34393828D02*
X2030590Y34470018D01*
X2030590Y34470018D02*
X2068685Y34508113D01*
X2068685Y34508113D02*
X2144876Y34546209D01*
X2144876Y34546209D02*
X2259161Y34546209D01*
X2259161Y34546209D02*
X2335352Y34508113D01*
X2335352Y34508113D02*
X2373447Y34470018D01*
X2373447Y34470018D02*
X2411542Y34393828D01*
X2411542Y34393828D02*
X2411542Y34089066D01*
X2030590Y35308113D02*
X1992495Y35231923D01*
X1992495Y35231923D02*
X1992495Y35117637D01*
X1992495Y35117637D02*
X2030590Y35003351D01*
X2030590Y35003351D02*
X2106780Y34927161D01*
X2106780Y34927161D02*
X2182971Y34889066D01*
X2182971Y34889066D02*
X2335352Y34850970D01*
X2335352Y34850970D02*
X2449638Y34850970D01*
X2449638Y34850970D02*
X2602019Y34889066D01*
X2602019Y34889066D02*
X2678209Y34927161D01*
X2678209Y34927161D02*
X2754400Y35003351D01*
X2754400Y35003351D02*
X2792495Y35117637D01*
X2792495Y35117637D02*
X2792495Y35193828D01*
X2792495Y35193828D02*
X2754400Y35308113D01*
X2754400Y35308113D02*
X2716304Y35346209D01*
X2716304Y35346209D02*
X2449638Y35346209D01*
X2449638Y35346209D02*
X2449638Y35193828D01*
X2373447Y35955732D02*
X2411542Y36070018D01*
X2411542Y36070018D02*
X2449638Y36108113D01*
X2449638Y36108113D02*
X2525828Y36146209D01*
X2525828Y36146209D02*
X2640114Y36146209D01*
X2640114Y36146209D02*
X2716304Y36108113D01*
X2716304Y36108113D02*
X2754400Y36070018D01*
X2754400Y36070018D02*
X2792495Y35993828D01*
X2792495Y35993828D02*
X2792495Y35689066D01*
X2792495Y35689066D02*
X1992495Y35689066D01*
X1992495Y35689066D02*
X1992495Y35955732D01*
X1992495Y35955732D02*
X2030590Y36031923D01*
X2030590Y36031923D02*
X2068685Y36070018D01*
X2068685Y36070018D02*
X2144876Y36108113D01*
X2144876Y36108113D02*
X2221066Y36108113D01*
X2221066Y36108113D02*
X2297257Y36070018D01*
X2297257Y36070018D02*
X2335352Y36031923D01*
X2335352Y36031923D02*
X2373447Y35955732D01*
X2373447Y35955732D02*
X2373447Y35689066D01*
X2792495Y37479542D02*
X2792495Y37098590D01*
X2792495Y37098590D02*
X1992495Y37098590D01*
X2373447Y37746209D02*
X2373447Y38012875D01*
X2792495Y38127161D02*
X2792495Y37746209D01*
X2792495Y37746209D02*
X1992495Y37746209D01*
X1992495Y37746209D02*
X1992495Y38127161D01*
X2792495Y38470019D02*
X1992495Y38470019D01*
X1992495Y38470019D02*
X1992495Y38660495D01*
X1992495Y38660495D02*
X2030590Y38774781D01*
X2030590Y38774781D02*
X2106780Y38850971D01*
X2106780Y38850971D02*
X2182971Y38889066D01*
X2182971Y38889066D02*
X2335352Y38927162D01*
X2335352Y38927162D02*
X2449638Y38927162D01*
X2449638Y38927162D02*
X2602019Y38889066D01*
X2602019Y38889066D02*
X2678209Y38850971D01*
X2678209Y38850971D02*
X2754400Y38774781D01*
X2754400Y38774781D02*
X2792495Y38660495D01*
X2792495Y38660495D02*
X2792495Y38470019D01*
D11*
X56588207Y36122810D02*
X56512017Y36160905D01*
X56512017Y36160905D02*
X56397731Y36160905D01*
X56397731Y36160905D02*
X56283445Y36122810D01*
X56283445Y36122810D02*
X56207255Y36046620D01*
X56207255Y36046620D02*
X56169160Y35970429D01*
X56169160Y35970429D02*
X56131064Y35818048D01*
X56131064Y35818048D02*
X56131064Y35703762D01*
X56131064Y35703762D02*
X56169160Y35551381D01*
X56169160Y35551381D02*
X56207255Y35475191D01*
X56207255Y35475191D02*
X56283445Y35399000D01*
X56283445Y35399000D02*
X56397731Y35360905D01*
X56397731Y35360905D02*
X56473922Y35360905D01*
X56473922Y35360905D02*
X56588207Y35399000D01*
X56588207Y35399000D02*
X56626303Y35437096D01*
X56626303Y35437096D02*
X56626303Y35703762D01*
X56626303Y35703762D02*
X56473922Y35703762D01*
X56969160Y35360905D02*
X56969160Y36160905D01*
X56969160Y36160905D02*
X57426303Y35360905D01*
X57426303Y35360905D02*
X57426303Y36160905D01*
X57807255Y35360905D02*
X57807255Y36160905D01*
X57807255Y36160905D02*
X57997731Y36160905D01*
X57997731Y36160905D02*
X58112017Y36122810D01*
X58112017Y36122810D02*
X58188207Y36046620D01*
X58188207Y36046620D02*
X58226302Y35970429D01*
X58226302Y35970429D02*
X58264398Y35818048D01*
X58264398Y35818048D02*
X58264398Y35703762D01*
X58264398Y35703762D02*
X58226302Y35551381D01*
X58226302Y35551381D02*
X58188207Y35475191D01*
X58188207Y35475191D02*
X58112017Y35399000D01*
X58112017Y35399000D02*
X57997731Y35360905D01*
X57997731Y35360905D02*
X57807255Y35360905D01*
D10*
X19471369Y46780832D02*
X19852322Y46780832D01*
X19395179Y46552260D02*
X19661846Y47352260D01*
X19661846Y47352260D02*
X19928512Y46552260D01*
X20538036Y46590355D02*
X20461845Y46552260D01*
X20461845Y46552260D02*
X20309464Y46552260D01*
X20309464Y46552260D02*
X20233274Y46590355D01*
X20233274Y46590355D02*
X20195179Y46628451D01*
X20195179Y46628451D02*
X20157083Y46704641D01*
X20157083Y46704641D02*
X20157083Y46933213D01*
X20157083Y46933213D02*
X20195179Y47009403D01*
X20195179Y47009403D02*
X20233274Y47047498D01*
X20233274Y47047498D02*
X20309464Y47085594D01*
X20309464Y47085594D02*
X20461845Y47085594D01*
X20461845Y47085594D02*
X20538036Y47047498D01*
X21223750Y46590355D02*
X21147559Y46552260D01*
X21147559Y46552260D02*
X20995178Y46552260D01*
X20995178Y46552260D02*
X20918988Y46590355D01*
X20918988Y46590355D02*
X20880893Y46628451D01*
X20880893Y46628451D02*
X20842797Y46704641D01*
X20842797Y46704641D02*
X20842797Y46933213D01*
X20842797Y46933213D02*
X20880893Y47009403D01*
X20880893Y47009403D02*
X20918988Y47047498D01*
X20918988Y47047498D02*
X20995178Y47085594D01*
X20995178Y47085594D02*
X21147559Y47085594D01*
X21147559Y47085594D02*
X21223750Y47047498D01*
X21871369Y46590355D02*
X21795178Y46552260D01*
X21795178Y46552260D02*
X21642797Y46552260D01*
X21642797Y46552260D02*
X21566607Y46590355D01*
X21566607Y46590355D02*
X21528511Y46666546D01*
X21528511Y46666546D02*
X21528511Y46971308D01*
X21528511Y46971308D02*
X21566607Y47047498D01*
X21566607Y47047498D02*
X21642797Y47085594D01*
X21642797Y47085594D02*
X21795178Y47085594D01*
X21795178Y47085594D02*
X21871369Y47047498D01*
X21871369Y47047498D02*
X21909464Y46971308D01*
X21909464Y46971308D02*
X21909464Y46895117D01*
X21909464Y46895117D02*
X21528511Y46818927D01*
X22366606Y46552260D02*
X22290416Y46590355D01*
X22290416Y46590355D02*
X22252321Y46666546D01*
X22252321Y46666546D02*
X22252321Y47352260D01*
X22976131Y46590355D02*
X22899940Y46552260D01*
X22899940Y46552260D02*
X22747559Y46552260D01*
X22747559Y46552260D02*
X22671369Y46590355D01*
X22671369Y46590355D02*
X22633273Y46666546D01*
X22633273Y46666546D02*
X22633273Y46971308D01*
X22633273Y46971308D02*
X22671369Y47047498D01*
X22671369Y47047498D02*
X22747559Y47085594D01*
X22747559Y47085594D02*
X22899940Y47085594D01*
X22899940Y47085594D02*
X22976131Y47047498D01*
X22976131Y47047498D02*
X23014226Y46971308D01*
X23014226Y46971308D02*
X23014226Y46895117D01*
X23014226Y46895117D02*
X22633273Y46818927D01*
X23357083Y46552260D02*
X23357083Y47085594D01*
X23357083Y46933213D02*
X23395178Y47009403D01*
X23395178Y47009403D02*
X23433273Y47047498D01*
X23433273Y47047498D02*
X23509464Y47085594D01*
X23509464Y47085594D02*
X23585654Y47085594D01*
X23966606Y46552260D02*
X23890416Y46590355D01*
X23890416Y46590355D02*
X23852321Y46628451D01*
X23852321Y46628451D02*
X23814225Y46704641D01*
X23814225Y46704641D02*
X23814225Y46933213D01*
X23814225Y46933213D02*
X23852321Y47009403D01*
X23852321Y47009403D02*
X23890416Y47047498D01*
X23890416Y47047498D02*
X23966606Y47085594D01*
X23966606Y47085594D02*
X24080892Y47085594D01*
X24080892Y47085594D02*
X24157083Y47047498D01*
X24157083Y47047498D02*
X24195178Y47009403D01*
X24195178Y47009403D02*
X24233273Y46933213D01*
X24233273Y46933213D02*
X24233273Y46704641D01*
X24233273Y46704641D02*
X24195178Y46628451D01*
X24195178Y46628451D02*
X24157083Y46590355D01*
X24157083Y46590355D02*
X24080892Y46552260D01*
X24080892Y46552260D02*
X23966606Y46552260D01*
X24576131Y46552260D02*
X24576131Y47085594D01*
X24576131Y47009403D02*
X24614226Y47047498D01*
X24614226Y47047498D02*
X24690416Y47085594D01*
X24690416Y47085594D02*
X24804702Y47085594D01*
X24804702Y47085594D02*
X24880893Y47047498D01*
X24880893Y47047498D02*
X24918988Y46971308D01*
X24918988Y46971308D02*
X24918988Y46552260D01*
X24918988Y46971308D02*
X24957083Y47047498D01*
X24957083Y47047498D02*
X25033274Y47085594D01*
X25033274Y47085594D02*
X25147559Y47085594D01*
X25147559Y47085594D02*
X25223750Y47047498D01*
X25223750Y47047498D02*
X25261845Y46971308D01*
X25261845Y46971308D02*
X25261845Y46552260D01*
X25947560Y46590355D02*
X25871369Y46552260D01*
X25871369Y46552260D02*
X25718988Y46552260D01*
X25718988Y46552260D02*
X25642798Y46590355D01*
X25642798Y46590355D02*
X25604702Y46666546D01*
X25604702Y46666546D02*
X25604702Y46971308D01*
X25604702Y46971308D02*
X25642798Y47047498D01*
X25642798Y47047498D02*
X25718988Y47085594D01*
X25718988Y47085594D02*
X25871369Y47085594D01*
X25871369Y47085594D02*
X25947560Y47047498D01*
X25947560Y47047498D02*
X25985655Y46971308D01*
X25985655Y46971308D02*
X25985655Y46895117D01*
X25985655Y46895117D02*
X25604702Y46818927D01*
X26214226Y47085594D02*
X26518988Y47085594D01*
X26328512Y47352260D02*
X26328512Y46666546D01*
X26328512Y46666546D02*
X26366607Y46590355D01*
X26366607Y46590355D02*
X26442797Y46552260D01*
X26442797Y46552260D02*
X26518988Y46552260D01*
X27090417Y46590355D02*
X27014226Y46552260D01*
X27014226Y46552260D02*
X26861845Y46552260D01*
X26861845Y46552260D02*
X26785655Y46590355D01*
X26785655Y46590355D02*
X26747559Y46666546D01*
X26747559Y46666546D02*
X26747559Y46971308D01*
X26747559Y46971308D02*
X26785655Y47047498D01*
X26785655Y47047498D02*
X26861845Y47085594D01*
X26861845Y47085594D02*
X27014226Y47085594D01*
X27014226Y47085594D02*
X27090417Y47047498D01*
X27090417Y47047498D02*
X27128512Y46971308D01*
X27128512Y46971308D02*
X27128512Y46895117D01*
X27128512Y46895117D02*
X26747559Y46818927D01*
X27471369Y46552260D02*
X27471369Y47085594D01*
X27471369Y46933213D02*
X27509464Y47009403D01*
X27509464Y47009403D02*
X27547559Y47047498D01*
X27547559Y47047498D02*
X27623750Y47085594D01*
X27623750Y47085594D02*
X27699940Y47085594D01*
X19509465Y45569067D02*
X20118989Y45569067D01*
X19814227Y45264305D02*
X19814227Y45873829D01*
X21528512Y46026210D02*
X21452322Y46064305D01*
X21452322Y46064305D02*
X21338036Y46064305D01*
X21338036Y46064305D02*
X21223750Y46026210D01*
X21223750Y46026210D02*
X21147560Y45950020D01*
X21147560Y45950020D02*
X21109465Y45873829D01*
X21109465Y45873829D02*
X21071369Y45721448D01*
X21071369Y45721448D02*
X21071369Y45607162D01*
X21071369Y45607162D02*
X21109465Y45454781D01*
X21109465Y45454781D02*
X21147560Y45378591D01*
X21147560Y45378591D02*
X21223750Y45302400D01*
X21223750Y45302400D02*
X21338036Y45264305D01*
X21338036Y45264305D02*
X21414227Y45264305D01*
X21414227Y45264305D02*
X21528512Y45302400D01*
X21528512Y45302400D02*
X21566608Y45340496D01*
X21566608Y45340496D02*
X21566608Y45607162D01*
X21566608Y45607162D02*
X21414227Y45607162D01*
X21833274Y45797639D02*
X22023750Y45264305D01*
X22214227Y45797639D02*
X22023750Y45264305D01*
X22023750Y45264305D02*
X21947560Y45073829D01*
X21947560Y45073829D02*
X21909465Y45035734D01*
X21909465Y45035734D02*
X21833274Y44997639D01*
X22518989Y45264305D02*
X22518989Y45797639D01*
X22518989Y45645258D02*
X22557084Y45721448D01*
X22557084Y45721448D02*
X22595179Y45759543D01*
X22595179Y45759543D02*
X22671370Y45797639D01*
X22671370Y45797639D02*
X22747560Y45797639D01*
X23128512Y45264305D02*
X23052322Y45302400D01*
X23052322Y45302400D02*
X23014227Y45340496D01*
X23014227Y45340496D02*
X22976131Y45416686D01*
X22976131Y45416686D02*
X22976131Y45645258D01*
X22976131Y45645258D02*
X23014227Y45721448D01*
X23014227Y45721448D02*
X23052322Y45759543D01*
X23052322Y45759543D02*
X23128512Y45797639D01*
X23128512Y45797639D02*
X23242798Y45797639D01*
X23242798Y45797639D02*
X23318989Y45759543D01*
X23318989Y45759543D02*
X23357084Y45721448D01*
X23357084Y45721448D02*
X23395179Y45645258D01*
X23395179Y45645258D02*
X23395179Y45416686D01*
X23395179Y45416686D02*
X23357084Y45340496D01*
X23357084Y45340496D02*
X23318989Y45302400D01*
X23318989Y45302400D02*
X23242798Y45264305D01*
X23242798Y45264305D02*
X23128512Y45264305D01*
X23699941Y45302400D02*
X23776132Y45264305D01*
X23776132Y45264305D02*
X23928513Y45264305D01*
X23928513Y45264305D02*
X24004703Y45302400D01*
X24004703Y45302400D02*
X24042799Y45378591D01*
X24042799Y45378591D02*
X24042799Y45416686D01*
X24042799Y45416686D02*
X24004703Y45492877D01*
X24004703Y45492877D02*
X23928513Y45530972D01*
X23928513Y45530972D02*
X23814227Y45530972D01*
X23814227Y45530972D02*
X23738037Y45569067D01*
X23738037Y45569067D02*
X23699941Y45645258D01*
X23699941Y45645258D02*
X23699941Y45683353D01*
X23699941Y45683353D02*
X23738037Y45759543D01*
X23738037Y45759543D02*
X23814227Y45797639D01*
X23814227Y45797639D02*
X23928513Y45797639D01*
X23928513Y45797639D02*
X24004703Y45759543D01*
X24728513Y45302400D02*
X24652322Y45264305D01*
X24652322Y45264305D02*
X24499941Y45264305D01*
X24499941Y45264305D02*
X24423751Y45302400D01*
X24423751Y45302400D02*
X24385656Y45340496D01*
X24385656Y45340496D02*
X24347560Y45416686D01*
X24347560Y45416686D02*
X24347560Y45645258D01*
X24347560Y45645258D02*
X24385656Y45721448D01*
X24385656Y45721448D02*
X24423751Y45759543D01*
X24423751Y45759543D02*
X24499941Y45797639D01*
X24499941Y45797639D02*
X24652322Y45797639D01*
X24652322Y45797639D02*
X24728513Y45759543D01*
X25185655Y45264305D02*
X25109465Y45302400D01*
X25109465Y45302400D02*
X25071370Y45340496D01*
X25071370Y45340496D02*
X25033274Y45416686D01*
X25033274Y45416686D02*
X25033274Y45645258D01*
X25033274Y45645258D02*
X25071370Y45721448D01*
X25071370Y45721448D02*
X25109465Y45759543D01*
X25109465Y45759543D02*
X25185655Y45797639D01*
X25185655Y45797639D02*
X25299941Y45797639D01*
X25299941Y45797639D02*
X25376132Y45759543D01*
X25376132Y45759543D02*
X25414227Y45721448D01*
X25414227Y45721448D02*
X25452322Y45645258D01*
X25452322Y45645258D02*
X25452322Y45416686D01*
X25452322Y45416686D02*
X25414227Y45340496D01*
X25414227Y45340496D02*
X25376132Y45302400D01*
X25376132Y45302400D02*
X25299941Y45264305D01*
X25299941Y45264305D02*
X25185655Y45264305D01*
X25795180Y45797639D02*
X25795180Y44997639D01*
X25795180Y45759543D02*
X25871370Y45797639D01*
X25871370Y45797639D02*
X26023751Y45797639D01*
X26023751Y45797639D02*
X26099942Y45759543D01*
X26099942Y45759543D02*
X26138037Y45721448D01*
X26138037Y45721448D02*
X26176132Y45645258D01*
X26176132Y45645258D02*
X26176132Y45416686D01*
X26176132Y45416686D02*
X26138037Y45340496D01*
X26138037Y45340496D02*
X26099942Y45302400D01*
X26099942Y45302400D02*
X26023751Y45264305D01*
X26023751Y45264305D02*
X25871370Y45264305D01*
X25871370Y45264305D02*
X25795180Y45302400D01*
X26823752Y45302400D02*
X26747561Y45264305D01*
X26747561Y45264305D02*
X26595180Y45264305D01*
X26595180Y45264305D02*
X26518990Y45302400D01*
X26518990Y45302400D02*
X26480894Y45378591D01*
X26480894Y45378591D02*
X26480894Y45683353D01*
X26480894Y45683353D02*
X26518990Y45759543D01*
X26518990Y45759543D02*
X26595180Y45797639D01*
X26595180Y45797639D02*
X26747561Y45797639D01*
X26747561Y45797639D02*
X26823752Y45759543D01*
X26823752Y45759543D02*
X26861847Y45683353D01*
X26861847Y45683353D02*
X26861847Y45607162D01*
X26861847Y45607162D02*
X26480894Y45530972D01*
X6856495Y6352209D02*
X6475542Y6085542D01*
X6856495Y5895066D02*
X6056495Y5895066D01*
X6056495Y5895066D02*
X6056495Y6199828D01*
X6056495Y6199828D02*
X6094590Y6276018D01*
X6094590Y6276018D02*
X6132685Y6314113D01*
X6132685Y6314113D02*
X6208876Y6352209D01*
X6208876Y6352209D02*
X6323161Y6352209D01*
X6323161Y6352209D02*
X6399352Y6314113D01*
X6399352Y6314113D02*
X6437447Y6276018D01*
X6437447Y6276018D02*
X6475542Y6199828D01*
X6475542Y6199828D02*
X6475542Y5895066D01*
X6818400Y6999828D02*
X6856495Y6923637D01*
X6856495Y6923637D02*
X6856495Y6771256D01*
X6856495Y6771256D02*
X6818400Y6695066D01*
X6818400Y6695066D02*
X6742209Y6656970D01*
X6742209Y6656970D02*
X6437447Y6656970D01*
X6437447Y6656970D02*
X6361257Y6695066D01*
X6361257Y6695066D02*
X6323161Y6771256D01*
X6323161Y6771256D02*
X6323161Y6923637D01*
X6323161Y6923637D02*
X6361257Y6999828D01*
X6361257Y6999828D02*
X6437447Y7037923D01*
X6437447Y7037923D02*
X6513638Y7037923D01*
X6513638Y7037923D02*
X6589828Y6656970D01*
X6818400Y7342684D02*
X6856495Y7418875D01*
X6856495Y7418875D02*
X6856495Y7571256D01*
X6856495Y7571256D02*
X6818400Y7647446D01*
X6818400Y7647446D02*
X6742209Y7685542D01*
X6742209Y7685542D02*
X6704114Y7685542D01*
X6704114Y7685542D02*
X6627923Y7647446D01*
X6627923Y7647446D02*
X6589828Y7571256D01*
X6589828Y7571256D02*
X6589828Y7456970D01*
X6589828Y7456970D02*
X6551733Y7380780D01*
X6551733Y7380780D02*
X6475542Y7342684D01*
X6475542Y7342684D02*
X6437447Y7342684D01*
X6437447Y7342684D02*
X6361257Y7380780D01*
X6361257Y7380780D02*
X6323161Y7456970D01*
X6323161Y7456970D02*
X6323161Y7571256D01*
X6323161Y7571256D02*
X6361257Y7647446D01*
X6818400Y8333161D02*
X6856495Y8256970D01*
X6856495Y8256970D02*
X6856495Y8104589D01*
X6856495Y8104589D02*
X6818400Y8028399D01*
X6818400Y8028399D02*
X6742209Y7990303D01*
X6742209Y7990303D02*
X6437447Y7990303D01*
X6437447Y7990303D02*
X6361257Y8028399D01*
X6361257Y8028399D02*
X6323161Y8104589D01*
X6323161Y8104589D02*
X6323161Y8256970D01*
X6323161Y8256970D02*
X6361257Y8333161D01*
X6361257Y8333161D02*
X6437447Y8371256D01*
X6437447Y8371256D02*
X6513638Y8371256D01*
X6513638Y8371256D02*
X6589828Y7990303D01*
X6323161Y8599827D02*
X6323161Y8904589D01*
X6056495Y8714113D02*
X6742209Y8714113D01*
X6742209Y8714113D02*
X6818400Y8752208D01*
X6818400Y8752208D02*
X6856495Y8828398D01*
X6856495Y8828398D02*
X6856495Y8904589D01*
D11*
X56169160Y36630905D02*
X56169160Y37430905D01*
X56169160Y37430905D02*
X56626303Y36630905D01*
X56626303Y36630905D02*
X56626303Y37430905D01*
X57578683Y37469000D02*
X56892969Y36440429D01*
X58302493Y36707096D02*
X58264397Y36669000D01*
X58264397Y36669000D02*
X58150112Y36630905D01*
X58150112Y36630905D02*
X58073921Y36630905D01*
X58073921Y36630905D02*
X57959635Y36669000D01*
X57959635Y36669000D02*
X57883445Y36745191D01*
X57883445Y36745191D02*
X57845350Y36821381D01*
X57845350Y36821381D02*
X57807254Y36973762D01*
X57807254Y36973762D02*
X57807254Y37088048D01*
X57807254Y37088048D02*
X57845350Y37240429D01*
X57845350Y37240429D02*
X57883445Y37316620D01*
X57883445Y37316620D02*
X57959635Y37392810D01*
X57959635Y37392810D02*
X58073921Y37430905D01*
X58073921Y37430905D02*
X58150112Y37430905D01*
X58150112Y37430905D02*
X58264397Y37392810D01*
X58264397Y37392810D02*
X58302493Y37354715D01*
D10*
X50713331Y19368953D02*
X50827617Y19330858D01*
X50827617Y19330858D02*
X50865712Y19292762D01*
X50865712Y19292762D02*
X50903808Y19216572D01*
X50903808Y19216572D02*
X50903808Y19102286D01*
X50903808Y19102286D02*
X50865712Y19026096D01*
X50865712Y19026096D02*
X50827617Y18988000D01*
X50827617Y18988000D02*
X50751427Y18949905D01*
X50751427Y18949905D02*
X50446665Y18949905D01*
X50446665Y18949905D02*
X50446665Y19749905D01*
X50446665Y19749905D02*
X50713331Y19749905D01*
X50713331Y19749905D02*
X50789522Y19711810D01*
X50789522Y19711810D02*
X50827617Y19673715D01*
X50827617Y19673715D02*
X50865712Y19597524D01*
X50865712Y19597524D02*
X50865712Y19521334D01*
X50865712Y19521334D02*
X50827617Y19445143D01*
X50827617Y19445143D02*
X50789522Y19407048D01*
X50789522Y19407048D02*
X50713331Y19368953D01*
X50713331Y19368953D02*
X50446665Y19368953D01*
X51589522Y18949905D02*
X51589522Y19368953D01*
X51589522Y19368953D02*
X51551427Y19445143D01*
X51551427Y19445143D02*
X51475236Y19483239D01*
X51475236Y19483239D02*
X51322855Y19483239D01*
X51322855Y19483239D02*
X51246665Y19445143D01*
X51589522Y18988000D02*
X51513331Y18949905D01*
X51513331Y18949905D02*
X51322855Y18949905D01*
X51322855Y18949905D02*
X51246665Y18988000D01*
X51246665Y18988000D02*
X51208569Y19064191D01*
X51208569Y19064191D02*
X51208569Y19140381D01*
X51208569Y19140381D02*
X51246665Y19216572D01*
X51246665Y19216572D02*
X51322855Y19254667D01*
X51322855Y19254667D02*
X51513331Y19254667D01*
X51513331Y19254667D02*
X51589522Y19292762D01*
X51856189Y19483239D02*
X52160951Y19483239D01*
X51970475Y19749905D02*
X51970475Y19064191D01*
X51970475Y19064191D02*
X52008570Y18988000D01*
X52008570Y18988000D02*
X52084760Y18949905D01*
X52084760Y18949905D02*
X52160951Y18949905D01*
X52313332Y19483239D02*
X52618094Y19483239D01*
X52427618Y19749905D02*
X52427618Y19064191D01*
X52427618Y19064191D02*
X52465713Y18988000D01*
X52465713Y18988000D02*
X52541903Y18949905D01*
X52541903Y18949905D02*
X52618094Y18949905D01*
X53189523Y18988000D02*
X53113332Y18949905D01*
X53113332Y18949905D02*
X52960951Y18949905D01*
X52960951Y18949905D02*
X52884761Y18988000D01*
X52884761Y18988000D02*
X52846665Y19064191D01*
X52846665Y19064191D02*
X52846665Y19368953D01*
X52846665Y19368953D02*
X52884761Y19445143D01*
X52884761Y19445143D02*
X52960951Y19483239D01*
X52960951Y19483239D02*
X53113332Y19483239D01*
X53113332Y19483239D02*
X53189523Y19445143D01*
X53189523Y19445143D02*
X53227618Y19368953D01*
X53227618Y19368953D02*
X53227618Y19292762D01*
X53227618Y19292762D02*
X52846665Y19216572D01*
X53570475Y18949905D02*
X53570475Y19483239D01*
X53570475Y19330858D02*
X53608570Y19407048D01*
X53608570Y19407048D02*
X53646665Y19445143D01*
X53646665Y19445143D02*
X53722856Y19483239D01*
X53722856Y19483239D02*
X53799046Y19483239D01*
X53989522Y19483239D02*
X54179998Y18949905D01*
X54370475Y19483239D02*
X54179998Y18949905D01*
X54179998Y18949905D02*
X54103808Y18759429D01*
X54103808Y18759429D02*
X54065713Y18721334D01*
X54065713Y18721334D02*
X53989522Y18683239D01*
X55741904Y19026096D02*
X55703808Y18988000D01*
X55703808Y18988000D02*
X55589523Y18949905D01*
X55589523Y18949905D02*
X55513332Y18949905D01*
X55513332Y18949905D02*
X55399046Y18988000D01*
X55399046Y18988000D02*
X55322856Y19064191D01*
X55322856Y19064191D02*
X55284761Y19140381D01*
X55284761Y19140381D02*
X55246665Y19292762D01*
X55246665Y19292762D02*
X55246665Y19407048D01*
X55246665Y19407048D02*
X55284761Y19559429D01*
X55284761Y19559429D02*
X55322856Y19635620D01*
X55322856Y19635620D02*
X55399046Y19711810D01*
X55399046Y19711810D02*
X55513332Y19749905D01*
X55513332Y19749905D02*
X55589523Y19749905D01*
X55589523Y19749905D02*
X55703808Y19711810D01*
X55703808Y19711810D02*
X55741904Y19673715D01*
X56084761Y18949905D02*
X56084761Y19749905D01*
X56427618Y18949905D02*
X56427618Y19368953D01*
X56427618Y19368953D02*
X56389523Y19445143D01*
X56389523Y19445143D02*
X56313332Y19483239D01*
X56313332Y19483239D02*
X56199046Y19483239D01*
X56199046Y19483239D02*
X56122856Y19445143D01*
X56122856Y19445143D02*
X56084761Y19407048D01*
X57151428Y18949905D02*
X57151428Y19368953D01*
X57151428Y19368953D02*
X57113333Y19445143D01*
X57113333Y19445143D02*
X57037142Y19483239D01*
X57037142Y19483239D02*
X56884761Y19483239D01*
X56884761Y19483239D02*
X56808571Y19445143D01*
X57151428Y18988000D02*
X57075237Y18949905D01*
X57075237Y18949905D02*
X56884761Y18949905D01*
X56884761Y18949905D02*
X56808571Y18988000D01*
X56808571Y18988000D02*
X56770475Y19064191D01*
X56770475Y19064191D02*
X56770475Y19140381D01*
X56770475Y19140381D02*
X56808571Y19216572D01*
X56808571Y19216572D02*
X56884761Y19254667D01*
X56884761Y19254667D02*
X57075237Y19254667D01*
X57075237Y19254667D02*
X57151428Y19292762D01*
X57532381Y18949905D02*
X57532381Y19483239D01*
X57532381Y19330858D02*
X57570476Y19407048D01*
X57570476Y19407048D02*
X57608571Y19445143D01*
X57608571Y19445143D02*
X57684762Y19483239D01*
X57684762Y19483239D02*
X57760952Y19483239D01*
X58370476Y19483239D02*
X58370476Y18835620D01*
X58370476Y18835620D02*
X58332381Y18759429D01*
X58332381Y18759429D02*
X58294285Y18721334D01*
X58294285Y18721334D02*
X58218095Y18683239D01*
X58218095Y18683239D02*
X58103809Y18683239D01*
X58103809Y18683239D02*
X58027619Y18721334D01*
X58370476Y18988000D02*
X58294285Y18949905D01*
X58294285Y18949905D02*
X58141904Y18949905D01*
X58141904Y18949905D02*
X58065714Y18988000D01*
X58065714Y18988000D02*
X58027619Y19026096D01*
X58027619Y19026096D02*
X57989523Y19102286D01*
X57989523Y19102286D02*
X57989523Y19330858D01*
X57989523Y19330858D02*
X58027619Y19407048D01*
X58027619Y19407048D02*
X58065714Y19445143D01*
X58065714Y19445143D02*
X58141904Y19483239D01*
X58141904Y19483239D02*
X58294285Y19483239D01*
X58294285Y19483239D02*
X58370476Y19445143D01*
X59056191Y18988000D02*
X58980000Y18949905D01*
X58980000Y18949905D02*
X58827619Y18949905D01*
X58827619Y18949905D02*
X58751429Y18988000D01*
X58751429Y18988000D02*
X58713333Y19064191D01*
X58713333Y19064191D02*
X58713333Y19368953D01*
X58713333Y19368953D02*
X58751429Y19445143D01*
X58751429Y19445143D02*
X58827619Y19483239D01*
X58827619Y19483239D02*
X58980000Y19483239D01*
X58980000Y19483239D02*
X59056191Y19445143D01*
X59056191Y19445143D02*
X59094286Y19368953D01*
X59094286Y19368953D02*
X59094286Y19292762D01*
X59094286Y19292762D02*
X58713333Y19216572D01*
X59437143Y18949905D02*
X59437143Y19483239D01*
X59437143Y19330858D02*
X59475238Y19407048D01*
X59475238Y19407048D02*
X59513333Y19445143D01*
X59513333Y19445143D02*
X59589524Y19483239D01*
X59589524Y19483239D02*
X59665714Y19483239D01*
D11*
X8907542Y37009181D02*
X8574209Y37485372D01*
X8336114Y37009181D02*
X8336114Y38009181D01*
X8336114Y38009181D02*
X8717066Y38009181D01*
X8717066Y38009181D02*
X8812304Y37961562D01*
X8812304Y37961562D02*
X8859923Y37913943D01*
X8859923Y37913943D02*
X8907542Y37818705D01*
X8907542Y37818705D02*
X8907542Y37675848D01*
X8907542Y37675848D02*
X8859923Y37580610D01*
X8859923Y37580610D02*
X8812304Y37532991D01*
X8812304Y37532991D02*
X8717066Y37485372D01*
X8717066Y37485372D02*
X8336114Y37485372D01*
X9859923Y37009181D02*
X9288495Y37009181D01*
X9574209Y37009181D02*
X9574209Y38009181D01*
X9574209Y38009181D02*
X9478971Y37866324D01*
X9478971Y37866324D02*
X9383733Y37771086D01*
X9383733Y37771086D02*
X9288495Y37723467D01*
X10193257Y38009181D02*
X10812304Y38009181D01*
X10812304Y38009181D02*
X10478971Y37628229D01*
X10478971Y37628229D02*
X10621828Y37628229D01*
X10621828Y37628229D02*
X10717066Y37580610D01*
X10717066Y37580610D02*
X10764685Y37532991D01*
X10764685Y37532991D02*
X10812304Y37437753D01*
X10812304Y37437753D02*
X10812304Y37199658D01*
X10812304Y37199658D02*
X10764685Y37104420D01*
X10764685Y37104420D02*
X10717066Y37056800D01*
X10717066Y37056800D02*
X10621828Y37009181D01*
X10621828Y37009181D02*
X10336114Y37009181D01*
X10336114Y37009181D02*
X10240876Y37056800D01*
X10240876Y37056800D02*
X10193257Y37104420D01*
X19037633Y11813381D02*
X18704300Y12289572D01*
X18466205Y11813381D02*
X18466205Y12813381D01*
X18466205Y12813381D02*
X18847157Y12813381D01*
X18847157Y12813381D02*
X18942395Y12765762D01*
X18942395Y12765762D02*
X18990014Y12718143D01*
X18990014Y12718143D02*
X19037633Y12622905D01*
X19037633Y12622905D02*
X19037633Y12480048D01*
X19037633Y12480048D02*
X18990014Y12384810D01*
X18990014Y12384810D02*
X18942395Y12337191D01*
X18942395Y12337191D02*
X18847157Y12289572D01*
X18847157Y12289572D02*
X18466205Y12289572D01*
X19370967Y12813381D02*
X19990014Y12813381D01*
X19990014Y12813381D02*
X19656681Y12432429D01*
X19656681Y12432429D02*
X19799538Y12432429D01*
X19799538Y12432429D02*
X19894776Y12384810D01*
X19894776Y12384810D02*
X19942395Y12337191D01*
X19942395Y12337191D02*
X19990014Y12241953D01*
X19990014Y12241953D02*
X19990014Y12003858D01*
X19990014Y12003858D02*
X19942395Y11908620D01*
X19942395Y11908620D02*
X19894776Y11861000D01*
X19894776Y11861000D02*
X19799538Y11813381D01*
X19799538Y11813381D02*
X19513824Y11813381D01*
X19513824Y11813381D02*
X19418586Y11861000D01*
X19418586Y11861000D02*
X19370967Y11908620D01*
X4722019Y24928534D02*
X4245828Y24595201D01*
X4722019Y24357106D02*
X3722019Y24357106D01*
X3722019Y24357106D02*
X3722019Y24738058D01*
X3722019Y24738058D02*
X3769638Y24833296D01*
X3769638Y24833296D02*
X3817257Y24880915D01*
X3817257Y24880915D02*
X3912495Y24928534D01*
X3912495Y24928534D02*
X4055352Y24928534D01*
X4055352Y24928534D02*
X4150590Y24880915D01*
X4150590Y24880915D02*
X4198209Y24833296D01*
X4198209Y24833296D02*
X4245828Y24738058D01*
X4245828Y24738058D02*
X4245828Y24357106D01*
X4722019Y25404725D02*
X4722019Y25595201D01*
X4722019Y25595201D02*
X4674400Y25690439D01*
X4674400Y25690439D02*
X4626780Y25738058D01*
X4626780Y25738058D02*
X4483923Y25833296D01*
X4483923Y25833296D02*
X4293447Y25880915D01*
X4293447Y25880915D02*
X3912495Y25880915D01*
X3912495Y25880915D02*
X3817257Y25833296D01*
X3817257Y25833296D02*
X3769638Y25785677D01*
X3769638Y25785677D02*
X3722019Y25690439D01*
X3722019Y25690439D02*
X3722019Y25499963D01*
X3722019Y25499963D02*
X3769638Y25404725D01*
X3769638Y25404725D02*
X3817257Y25357106D01*
X3817257Y25357106D02*
X3912495Y25309487D01*
X3912495Y25309487D02*
X4150590Y25309487D01*
X4150590Y25309487D02*
X4245828Y25357106D01*
X4245828Y25357106D02*
X4293447Y25404725D01*
X4293447Y25404725D02*
X4341066Y25499963D01*
X4341066Y25499963D02*
X4341066Y25690439D01*
X4341066Y25690439D02*
X4293447Y25785677D01*
X4293447Y25785677D02*
X4245828Y25833296D01*
X4245828Y25833296D02*
X4150590Y25880915D01*
X2692495Y6149581D02*
X2692495Y7149581D01*
X2692495Y6673391D02*
X3263923Y6673391D01*
X3263923Y6149581D02*
X3263923Y7149581D01*
X3692495Y7054343D02*
X3740114Y7101962D01*
X3740114Y7101962D02*
X3835352Y7149581D01*
X3835352Y7149581D02*
X4073447Y7149581D01*
X4073447Y7149581D02*
X4168685Y7101962D01*
X4168685Y7101962D02*
X4216304Y7054343D01*
X4216304Y7054343D02*
X4263923Y6959105D01*
X4263923Y6959105D02*
X4263923Y6863867D01*
X4263923Y6863867D02*
X4216304Y6721010D01*
X4216304Y6721010D02*
X3644876Y6149581D01*
X3644876Y6149581D02*
X4263923Y6149581D01*
X16332580Y43645043D02*
X16380200Y43597424D01*
X16380200Y43597424D02*
X16427819Y43454567D01*
X16427819Y43454567D02*
X16427819Y43359329D01*
X16427819Y43359329D02*
X16380200Y43216472D01*
X16380200Y43216472D02*
X16284961Y43121234D01*
X16284961Y43121234D02*
X16189723Y43073615D01*
X16189723Y43073615D02*
X15999247Y43025996D01*
X15999247Y43025996D02*
X15856390Y43025996D01*
X15856390Y43025996D02*
X15665914Y43073615D01*
X15665914Y43073615D02*
X15570676Y43121234D01*
X15570676Y43121234D02*
X15475438Y43216472D01*
X15475438Y43216472D02*
X15427819Y43359329D01*
X15427819Y43359329D02*
X15427819Y43454567D01*
X15427819Y43454567D02*
X15475438Y43597424D01*
X15475438Y43597424D02*
X15523057Y43645043D01*
X16427819Y44597424D02*
X16427819Y44025996D01*
X16427819Y44311710D02*
X15427819Y44311710D01*
X15427819Y44311710D02*
X15570676Y44216472D01*
X15570676Y44216472D02*
X15665914Y44121234D01*
X15665914Y44121234D02*
X15713533Y44025996D01*
X15427819Y44930758D02*
X15427819Y45549805D01*
X15427819Y45549805D02*
X15808771Y45216472D01*
X15808771Y45216472D02*
X15808771Y45359329D01*
X15808771Y45359329D02*
X15856390Y45454567D01*
X15856390Y45454567D02*
X15904009Y45502186D01*
X15904009Y45502186D02*
X15999247Y45549805D01*
X15999247Y45549805D02*
X16237342Y45549805D01*
X16237342Y45549805D02*
X16332580Y45502186D01*
X16332580Y45502186D02*
X16380200Y45454567D01*
X16380200Y45454567D02*
X16427819Y45359329D01*
X16427819Y45359329D02*
X16427819Y45073615D01*
X16427819Y45073615D02*
X16380200Y44978377D01*
X16380200Y44978377D02*
X16332580Y44930758D01*
X15227467Y2945600D02*
X15370324Y2897981D01*
X15370324Y2897981D02*
X15608419Y2897981D01*
X15608419Y2897981D02*
X15703657Y2945600D01*
X15703657Y2945600D02*
X15751276Y2993220D01*
X15751276Y2993220D02*
X15798895Y3088458D01*
X15798895Y3088458D02*
X15798895Y3183696D01*
X15798895Y3183696D02*
X15751276Y3278934D01*
X15751276Y3278934D02*
X15703657Y3326553D01*
X15703657Y3326553D02*
X15608419Y3374172D01*
X15608419Y3374172D02*
X15417943Y3421791D01*
X15417943Y3421791D02*
X15322705Y3469410D01*
X15322705Y3469410D02*
X15275086Y3517029D01*
X15275086Y3517029D02*
X15227467Y3612267D01*
X15227467Y3612267D02*
X15227467Y3707505D01*
X15227467Y3707505D02*
X15275086Y3802743D01*
X15275086Y3802743D02*
X15322705Y3850362D01*
X15322705Y3850362D02*
X15417943Y3897981D01*
X15417943Y3897981D02*
X15656038Y3897981D01*
X15656038Y3897981D02*
X15798895Y3850362D01*
X16132229Y3897981D02*
X16370324Y2897981D01*
X16370324Y2897981D02*
X16560800Y3612267D01*
X16560800Y3612267D02*
X16751276Y2897981D01*
X16751276Y2897981D02*
X16989372Y3897981D01*
X17322705Y3802743D02*
X17370324Y3850362D01*
X17370324Y3850362D02*
X17465562Y3897981D01*
X17465562Y3897981D02*
X17703657Y3897981D01*
X17703657Y3897981D02*
X17798895Y3850362D01*
X17798895Y3850362D02*
X17846514Y3802743D01*
X17846514Y3802743D02*
X17894133Y3707505D01*
X17894133Y3707505D02*
X17894133Y3612267D01*
X17894133Y3612267D02*
X17846514Y3469410D01*
X17846514Y3469410D02*
X17275086Y2897981D01*
X17275086Y2897981D02*
X17894133Y2897981D01*
X31532533Y13896181D02*
X31199200Y14372372D01*
X30961105Y13896181D02*
X30961105Y14896181D01*
X30961105Y14896181D02*
X31342057Y14896181D01*
X31342057Y14896181D02*
X31437295Y14848562D01*
X31437295Y14848562D02*
X31484914Y14800943D01*
X31484914Y14800943D02*
X31532533Y14705705D01*
X31532533Y14705705D02*
X31532533Y14562848D01*
X31532533Y14562848D02*
X31484914Y14467610D01*
X31484914Y14467610D02*
X31437295Y14419991D01*
X31437295Y14419991D02*
X31342057Y14372372D01*
X31342057Y14372372D02*
X30961105Y14372372D01*
X32389676Y14562848D02*
X32389676Y13896181D01*
X32151581Y14943800D02*
X31913486Y14229515D01*
X31913486Y14229515D02*
X32532533Y14229515D01*
X6240433Y14220020D02*
X6192814Y14172400D01*
X6192814Y14172400D02*
X6049957Y14124781D01*
X6049957Y14124781D02*
X5954719Y14124781D01*
X5954719Y14124781D02*
X5811862Y14172400D01*
X5811862Y14172400D02*
X5716624Y14267639D01*
X5716624Y14267639D02*
X5669005Y14362877D01*
X5669005Y14362877D02*
X5621386Y14553353D01*
X5621386Y14553353D02*
X5621386Y14696210D01*
X5621386Y14696210D02*
X5669005Y14886686D01*
X5669005Y14886686D02*
X5716624Y14981924D01*
X5716624Y14981924D02*
X5811862Y15077162D01*
X5811862Y15077162D02*
X5954719Y15124781D01*
X5954719Y15124781D02*
X6049957Y15124781D01*
X6049957Y15124781D02*
X6192814Y15077162D01*
X6192814Y15077162D02*
X6240433Y15029543D01*
X6621386Y15029543D02*
X6669005Y15077162D01*
X6669005Y15077162D02*
X6764243Y15124781D01*
X6764243Y15124781D02*
X7002338Y15124781D01*
X7002338Y15124781D02*
X7097576Y15077162D01*
X7097576Y15077162D02*
X7145195Y15029543D01*
X7145195Y15029543D02*
X7192814Y14934305D01*
X7192814Y14934305D02*
X7192814Y14839067D01*
X7192814Y14839067D02*
X7145195Y14696210D01*
X7145195Y14696210D02*
X6573767Y14124781D01*
X6573767Y14124781D02*
X7192814Y14124781D01*
X56964342Y2948781D02*
X56631009Y3424972D01*
X56392914Y2948781D02*
X56392914Y3948781D01*
X56392914Y3948781D02*
X56773866Y3948781D01*
X56773866Y3948781D02*
X56869104Y3901162D01*
X56869104Y3901162D02*
X56916723Y3853543D01*
X56916723Y3853543D02*
X56964342Y3758305D01*
X56964342Y3758305D02*
X56964342Y3615448D01*
X56964342Y3615448D02*
X56916723Y3520210D01*
X56916723Y3520210D02*
X56869104Y3472591D01*
X56869104Y3472591D02*
X56773866Y3424972D01*
X56773866Y3424972D02*
X56392914Y3424972D01*
X57916723Y2948781D02*
X57345295Y2948781D01*
X57631009Y2948781D02*
X57631009Y3948781D01*
X57631009Y3948781D02*
X57535771Y3805924D01*
X57535771Y3805924D02*
X57440533Y3710686D01*
X57440533Y3710686D02*
X57345295Y3663067D01*
X58250057Y3948781D02*
X58916723Y3948781D01*
X58916723Y3948781D02*
X58488152Y2948781D01*
X39617780Y20777334D02*
X39665400Y20729715D01*
X39665400Y20729715D02*
X39713019Y20586858D01*
X39713019Y20586858D02*
X39713019Y20491620D01*
X39713019Y20491620D02*
X39665400Y20348763D01*
X39665400Y20348763D02*
X39570161Y20253525D01*
X39570161Y20253525D02*
X39474923Y20205906D01*
X39474923Y20205906D02*
X39284447Y20158287D01*
X39284447Y20158287D02*
X39141590Y20158287D01*
X39141590Y20158287D02*
X38951114Y20205906D01*
X38951114Y20205906D02*
X38855876Y20253525D01*
X38855876Y20253525D02*
X38760638Y20348763D01*
X38760638Y20348763D02*
X38713019Y20491620D01*
X38713019Y20491620D02*
X38713019Y20586858D01*
X38713019Y20586858D02*
X38760638Y20729715D01*
X38760638Y20729715D02*
X38808257Y20777334D01*
X38713019Y21634477D02*
X38713019Y21444001D01*
X38713019Y21444001D02*
X38760638Y21348763D01*
X38760638Y21348763D02*
X38808257Y21301144D01*
X38808257Y21301144D02*
X38951114Y21205906D01*
X38951114Y21205906D02*
X39141590Y21158287D01*
X39141590Y21158287D02*
X39522542Y21158287D01*
X39522542Y21158287D02*
X39617780Y21205906D01*
X39617780Y21205906D02*
X39665400Y21253525D01*
X39665400Y21253525D02*
X39713019Y21348763D01*
X39713019Y21348763D02*
X39713019Y21539239D01*
X39713019Y21539239D02*
X39665400Y21634477D01*
X39665400Y21634477D02*
X39617780Y21682096D01*
X39617780Y21682096D02*
X39522542Y21729715D01*
X39522542Y21729715D02*
X39284447Y21729715D01*
X39284447Y21729715D02*
X39189209Y21682096D01*
X39189209Y21682096D02*
X39141590Y21634477D01*
X39141590Y21634477D02*
X39093971Y21539239D01*
X39093971Y21539239D02*
X39093971Y21348763D01*
X39093971Y21348763D02*
X39141590Y21253525D01*
X39141590Y21253525D02*
X39189209Y21205906D01*
X39189209Y21205906D02*
X39284447Y21158287D01*
X67052866Y21830381D02*
X67052866Y21116096D01*
X67052866Y21116096D02*
X67005247Y20973239D01*
X67005247Y20973239D02*
X66910009Y20878000D01*
X66910009Y20878000D02*
X66767152Y20830381D01*
X66767152Y20830381D02*
X66671914Y20830381D01*
X67481438Y21735143D02*
X67529057Y21782762D01*
X67529057Y21782762D02*
X67624295Y21830381D01*
X67624295Y21830381D02*
X67862390Y21830381D01*
X67862390Y21830381D02*
X67957628Y21782762D01*
X67957628Y21782762D02*
X68005247Y21735143D01*
X68005247Y21735143D02*
X68052866Y21639905D01*
X68052866Y21639905D02*
X68052866Y21544667D01*
X68052866Y21544667D02*
X68005247Y21401810D01*
X68005247Y21401810D02*
X67433819Y20830381D01*
X67433819Y20830381D02*
X68052866Y20830381D01*
X5199142Y31295181D02*
X4865809Y31771372D01*
X4627714Y31295181D02*
X4627714Y32295181D01*
X4627714Y32295181D02*
X5008666Y32295181D01*
X5008666Y32295181D02*
X5103904Y32247562D01*
X5103904Y32247562D02*
X5151523Y32199943D01*
X5151523Y32199943D02*
X5199142Y32104705D01*
X5199142Y32104705D02*
X5199142Y31961848D01*
X5199142Y31961848D02*
X5151523Y31866610D01*
X5151523Y31866610D02*
X5103904Y31818991D01*
X5103904Y31818991D02*
X5008666Y31771372D01*
X5008666Y31771372D02*
X4627714Y31771372D01*
X6151523Y31295181D02*
X5580095Y31295181D01*
X5865809Y31295181D02*
X5865809Y32295181D01*
X5865809Y32295181D02*
X5770571Y32152324D01*
X5770571Y32152324D02*
X5675333Y32057086D01*
X5675333Y32057086D02*
X5580095Y32009467D01*
X7008666Y31961848D02*
X7008666Y31295181D01*
X6770571Y32342800D02*
X6532476Y31628515D01*
X6532476Y31628515D02*
X7151523Y31628515D01*
X53560742Y10765620D02*
X53513123Y10718000D01*
X53513123Y10718000D02*
X53370266Y10670381D01*
X53370266Y10670381D02*
X53275028Y10670381D01*
X53275028Y10670381D02*
X53132171Y10718000D01*
X53132171Y10718000D02*
X53036933Y10813239D01*
X53036933Y10813239D02*
X52989314Y10908477D01*
X52989314Y10908477D02*
X52941695Y11098953D01*
X52941695Y11098953D02*
X52941695Y11241810D01*
X52941695Y11241810D02*
X52989314Y11432286D01*
X52989314Y11432286D02*
X53036933Y11527524D01*
X53036933Y11527524D02*
X53132171Y11622762D01*
X53132171Y11622762D02*
X53275028Y11670381D01*
X53275028Y11670381D02*
X53370266Y11670381D01*
X53370266Y11670381D02*
X53513123Y11622762D01*
X53513123Y11622762D02*
X53560742Y11575143D01*
X54513123Y10670381D02*
X53941695Y10670381D01*
X54227409Y10670381D02*
X54227409Y11670381D01*
X54227409Y11670381D02*
X54132171Y11527524D01*
X54132171Y11527524D02*
X54036933Y11432286D01*
X54036933Y11432286D02*
X53941695Y11384667D01*
X55370266Y11337048D02*
X55370266Y10670381D01*
X55132171Y11718000D02*
X54894076Y11003715D01*
X54894076Y11003715D02*
X55513123Y11003715D01*
X34174133Y11400620D02*
X34126514Y11353000D01*
X34126514Y11353000D02*
X33983657Y11305381D01*
X33983657Y11305381D02*
X33888419Y11305381D01*
X33888419Y11305381D02*
X33745562Y11353000D01*
X33745562Y11353000D02*
X33650324Y11448239D01*
X33650324Y11448239D02*
X33602705Y11543477D01*
X33602705Y11543477D02*
X33555086Y11733953D01*
X33555086Y11733953D02*
X33555086Y11876810D01*
X33555086Y11876810D02*
X33602705Y12067286D01*
X33602705Y12067286D02*
X33650324Y12162524D01*
X33650324Y12162524D02*
X33745562Y12257762D01*
X33745562Y12257762D02*
X33888419Y12305381D01*
X33888419Y12305381D02*
X33983657Y12305381D01*
X33983657Y12305381D02*
X34126514Y12257762D01*
X34126514Y12257762D02*
X34174133Y12210143D01*
X35078895Y12305381D02*
X34602705Y12305381D01*
X34602705Y12305381D02*
X34555086Y11829191D01*
X34555086Y11829191D02*
X34602705Y11876810D01*
X34602705Y11876810D02*
X34697943Y11924429D01*
X34697943Y11924429D02*
X34936038Y11924429D01*
X34936038Y11924429D02*
X35031276Y11876810D01*
X35031276Y11876810D02*
X35078895Y11829191D01*
X35078895Y11829191D02*
X35126514Y11733953D01*
X35126514Y11733953D02*
X35126514Y11495858D01*
X35126514Y11495858D02*
X35078895Y11400620D01*
X35078895Y11400620D02*
X35031276Y11353000D01*
X35031276Y11353000D02*
X34936038Y11305381D01*
X34936038Y11305381D02*
X34697943Y11305381D01*
X34697943Y11305381D02*
X34602705Y11353000D01*
X34602705Y11353000D02*
X34555086Y11400620D01*
X20933580Y21423334D02*
X20981200Y21375715D01*
X20981200Y21375715D02*
X21028819Y21232858D01*
X21028819Y21232858D02*
X21028819Y21137620D01*
X21028819Y21137620D02*
X20981200Y20994763D01*
X20981200Y20994763D02*
X20885961Y20899525D01*
X20885961Y20899525D02*
X20790723Y20851906D01*
X20790723Y20851906D02*
X20600247Y20804287D01*
X20600247Y20804287D02*
X20457390Y20804287D01*
X20457390Y20804287D02*
X20266914Y20851906D01*
X20266914Y20851906D02*
X20171676Y20899525D01*
X20171676Y20899525D02*
X20076438Y20994763D01*
X20076438Y20994763D02*
X20028819Y21137620D01*
X20028819Y21137620D02*
X20028819Y21232858D01*
X20028819Y21232858D02*
X20076438Y21375715D01*
X20076438Y21375715D02*
X20124057Y21423334D01*
X20028819Y21756668D02*
X20028819Y22375715D01*
X20028819Y22375715D02*
X20409771Y22042382D01*
X20409771Y22042382D02*
X20409771Y22185239D01*
X20409771Y22185239D02*
X20457390Y22280477D01*
X20457390Y22280477D02*
X20505009Y22328096D01*
X20505009Y22328096D02*
X20600247Y22375715D01*
X20600247Y22375715D02*
X20838342Y22375715D01*
X20838342Y22375715D02*
X20933580Y22328096D01*
X20933580Y22328096D02*
X20981200Y22280477D01*
X20981200Y22280477D02*
X21028819Y22185239D01*
X21028819Y22185239D02*
X21028819Y21899525D01*
X21028819Y21899525D02*
X20981200Y21804287D01*
X20981200Y21804287D02*
X20933580Y21756668D01*
X40256819Y26033506D02*
X39256819Y26033506D01*
X39256819Y26033506D02*
X39256819Y26271601D01*
X39256819Y26271601D02*
X39304438Y26414458D01*
X39304438Y26414458D02*
X39399676Y26509696D01*
X39399676Y26509696D02*
X39494914Y26557315D01*
X39494914Y26557315D02*
X39685390Y26604934D01*
X39685390Y26604934D02*
X39828247Y26604934D01*
X39828247Y26604934D02*
X40018723Y26557315D01*
X40018723Y26557315D02*
X40113961Y26509696D01*
X40113961Y26509696D02*
X40209200Y26414458D01*
X40209200Y26414458D02*
X40256819Y26271601D01*
X40256819Y26271601D02*
X40256819Y26033506D01*
X40256819Y27557315D02*
X40256819Y26985887D01*
X40256819Y27271601D02*
X39256819Y27271601D01*
X39256819Y27271601D02*
X39399676Y27176363D01*
X39399676Y27176363D02*
X39494914Y27081125D01*
X39494914Y27081125D02*
X39542533Y26985887D01*
X20980495Y40270781D02*
X20980495Y39461258D01*
X20980495Y39461258D02*
X21028114Y39366020D01*
X21028114Y39366020D02*
X21075733Y39318400D01*
X21075733Y39318400D02*
X21170971Y39270781D01*
X21170971Y39270781D02*
X21361447Y39270781D01*
X21361447Y39270781D02*
X21456685Y39318400D01*
X21456685Y39318400D02*
X21504304Y39366020D01*
X21504304Y39366020D02*
X21551923Y39461258D01*
X21551923Y39461258D02*
X21551923Y40270781D01*
X22504304Y40270781D02*
X22028114Y40270781D01*
X22028114Y40270781D02*
X21980495Y39794591D01*
X21980495Y39794591D02*
X22028114Y39842210D01*
X22028114Y39842210D02*
X22123352Y39889829D01*
X22123352Y39889829D02*
X22361447Y39889829D01*
X22361447Y39889829D02*
X22456685Y39842210D01*
X22456685Y39842210D02*
X22504304Y39794591D01*
X22504304Y39794591D02*
X22551923Y39699353D01*
X22551923Y39699353D02*
X22551923Y39461258D01*
X22551923Y39461258D02*
X22504304Y39366020D01*
X22504304Y39366020D02*
X22456685Y39318400D01*
X22456685Y39318400D02*
X22361447Y39270781D01*
X22361447Y39270781D02*
X22123352Y39270781D01*
X22123352Y39270781D02*
X22028114Y39318400D01*
X22028114Y39318400D02*
X21980495Y39366020D01*
X23571295Y29704381D02*
X23571295Y28894858D01*
X23571295Y28894858D02*
X23618914Y28799620D01*
X23618914Y28799620D02*
X23666533Y28752000D01*
X23666533Y28752000D02*
X23761771Y28704381D01*
X23761771Y28704381D02*
X23952247Y28704381D01*
X23952247Y28704381D02*
X24047485Y28752000D01*
X24047485Y28752000D02*
X24095104Y28799620D01*
X24095104Y28799620D02*
X24142723Y28894858D01*
X24142723Y28894858D02*
X24142723Y29704381D01*
X25142723Y28704381D02*
X24571295Y28704381D01*
X24857009Y28704381D02*
X24857009Y29704381D01*
X24857009Y29704381D02*
X24761771Y29561524D01*
X24761771Y29561524D02*
X24666533Y29466286D01*
X24666533Y29466286D02*
X24571295Y29418667D01*
X43368933Y7215981D02*
X43035600Y7692172D01*
X42797505Y7215981D02*
X42797505Y8215981D01*
X42797505Y8215981D02*
X43178457Y8215981D01*
X43178457Y8215981D02*
X43273695Y8168362D01*
X43273695Y8168362D02*
X43321314Y8120743D01*
X43321314Y8120743D02*
X43368933Y8025505D01*
X43368933Y8025505D02*
X43368933Y7882648D01*
X43368933Y7882648D02*
X43321314Y7787410D01*
X43321314Y7787410D02*
X43273695Y7739791D01*
X43273695Y7739791D02*
X43178457Y7692172D01*
X43178457Y7692172D02*
X42797505Y7692172D01*
X43702267Y8215981D02*
X44368933Y8215981D01*
X44368933Y8215981D02*
X43940362Y7215981D01*
X33023980Y22236134D02*
X33071600Y22188515D01*
X33071600Y22188515D02*
X33119219Y22045658D01*
X33119219Y22045658D02*
X33119219Y21950420D01*
X33119219Y21950420D02*
X33071600Y21807563D01*
X33071600Y21807563D02*
X32976361Y21712325D01*
X32976361Y21712325D02*
X32881123Y21664706D01*
X32881123Y21664706D02*
X32690647Y21617087D01*
X32690647Y21617087D02*
X32547790Y21617087D01*
X32547790Y21617087D02*
X32357314Y21664706D01*
X32357314Y21664706D02*
X32262076Y21712325D01*
X32262076Y21712325D02*
X32166838Y21807563D01*
X32166838Y21807563D02*
X32119219Y21950420D01*
X32119219Y21950420D02*
X32119219Y22045658D01*
X32119219Y22045658D02*
X32166838Y22188515D01*
X32166838Y22188515D02*
X32214457Y22236134D01*
X32452552Y23093277D02*
X33119219Y23093277D01*
X32071600Y22855182D02*
X32785885Y22617087D01*
X32785885Y22617087D02*
X32785885Y23236134D01*
X8166267Y2996400D02*
X8309124Y2948781D01*
X8309124Y2948781D02*
X8547219Y2948781D01*
X8547219Y2948781D02*
X8642457Y2996400D01*
X8642457Y2996400D02*
X8690076Y3044020D01*
X8690076Y3044020D02*
X8737695Y3139258D01*
X8737695Y3139258D02*
X8737695Y3234496D01*
X8737695Y3234496D02*
X8690076Y3329734D01*
X8690076Y3329734D02*
X8642457Y3377353D01*
X8642457Y3377353D02*
X8547219Y3424972D01*
X8547219Y3424972D02*
X8356743Y3472591D01*
X8356743Y3472591D02*
X8261505Y3520210D01*
X8261505Y3520210D02*
X8213886Y3567829D01*
X8213886Y3567829D02*
X8166267Y3663067D01*
X8166267Y3663067D02*
X8166267Y3758305D01*
X8166267Y3758305D02*
X8213886Y3853543D01*
X8213886Y3853543D02*
X8261505Y3901162D01*
X8261505Y3901162D02*
X8356743Y3948781D01*
X8356743Y3948781D02*
X8594838Y3948781D01*
X8594838Y3948781D02*
X8737695Y3901162D01*
X9071029Y3948781D02*
X9309124Y2948781D01*
X9309124Y2948781D02*
X9499600Y3663067D01*
X9499600Y3663067D02*
X9690076Y2948781D01*
X9690076Y2948781D02*
X9928172Y3948781D01*
X10832933Y2948781D02*
X10261505Y2948781D01*
X10547219Y2948781D02*
X10547219Y3948781D01*
X10547219Y3948781D02*
X10451981Y3805924D01*
X10451981Y3805924D02*
X10356743Y3710686D01*
X10356743Y3710686D02*
X10261505Y3663067D01*
X6109619Y27076496D02*
X6919142Y27076496D01*
X6919142Y27076496D02*
X7014380Y27124115D01*
X7014380Y27124115D02*
X7062000Y27171734D01*
X7062000Y27171734D02*
X7109619Y27266972D01*
X7109619Y27266972D02*
X7109619Y27457448D01*
X7109619Y27457448D02*
X7062000Y27552686D01*
X7062000Y27552686D02*
X7014380Y27600305D01*
X7014380Y27600305D02*
X6919142Y27647924D01*
X6919142Y27647924D02*
X6109619Y27647924D01*
X6109619Y28028877D02*
X6109619Y28647924D01*
X6109619Y28647924D02*
X6490571Y28314591D01*
X6490571Y28314591D02*
X6490571Y28457448D01*
X6490571Y28457448D02*
X6538190Y28552686D01*
X6538190Y28552686D02*
X6585809Y28600305D01*
X6585809Y28600305D02*
X6681047Y28647924D01*
X6681047Y28647924D02*
X6919142Y28647924D01*
X6919142Y28647924D02*
X7014380Y28600305D01*
X7014380Y28600305D02*
X7062000Y28552686D01*
X7062000Y28552686D02*
X7109619Y28457448D01*
X7109619Y28457448D02*
X7109619Y28171734D01*
X7109619Y28171734D02*
X7062000Y28076496D01*
X7062000Y28076496D02*
X7014380Y28028877D01*
X40256819Y24104734D02*
X39780628Y23771401D01*
X40256819Y23533306D02*
X39256819Y23533306D01*
X39256819Y23533306D02*
X39256819Y23914258D01*
X39256819Y23914258D02*
X39304438Y24009496D01*
X39304438Y24009496D02*
X39352057Y24057115D01*
X39352057Y24057115D02*
X39447295Y24104734D01*
X39447295Y24104734D02*
X39590152Y24104734D01*
X39590152Y24104734D02*
X39685390Y24057115D01*
X39685390Y24057115D02*
X39733009Y24009496D01*
X39733009Y24009496D02*
X39780628Y23914258D01*
X39780628Y23914258D02*
X39780628Y23533306D01*
X39256819Y24961877D02*
X39256819Y24771401D01*
X39256819Y24771401D02*
X39304438Y24676163D01*
X39304438Y24676163D02*
X39352057Y24628544D01*
X39352057Y24628544D02*
X39494914Y24533306D01*
X39494914Y24533306D02*
X39685390Y24485687D01*
X39685390Y24485687D02*
X40066342Y24485687D01*
X40066342Y24485687D02*
X40161580Y24533306D01*
X40161580Y24533306D02*
X40209200Y24580925D01*
X40209200Y24580925D02*
X40256819Y24676163D01*
X40256819Y24676163D02*
X40256819Y24866639D01*
X40256819Y24866639D02*
X40209200Y24961877D01*
X40209200Y24961877D02*
X40161580Y25009496D01*
X40161580Y25009496D02*
X40066342Y25057115D01*
X40066342Y25057115D02*
X39828247Y25057115D01*
X39828247Y25057115D02*
X39733009Y25009496D01*
X39733009Y25009496D02*
X39685390Y24961877D01*
X39685390Y24961877D02*
X39637771Y24866639D01*
X39637771Y24866639D02*
X39637771Y24676163D01*
X39637771Y24676163D02*
X39685390Y24580925D01*
X39685390Y24580925D02*
X39733009Y24533306D01*
X39733009Y24533306D02*
X39828247Y24485687D01*
X44336819Y23103096D02*
X45146342Y23103096D01*
X45146342Y23103096D02*
X45241580Y23150715D01*
X45241580Y23150715D02*
X45289200Y23198334D01*
X45289200Y23198334D02*
X45336819Y23293572D01*
X45336819Y23293572D02*
X45336819Y23484048D01*
X45336819Y23484048D02*
X45289200Y23579286D01*
X45289200Y23579286D02*
X45241580Y23626905D01*
X45241580Y23626905D02*
X45146342Y23674524D01*
X45146342Y23674524D02*
X44336819Y23674524D01*
X44432057Y24103096D02*
X44384438Y24150715D01*
X44384438Y24150715D02*
X44336819Y24245953D01*
X44336819Y24245953D02*
X44336819Y24484048D01*
X44336819Y24484048D02*
X44384438Y24579286D01*
X44384438Y24579286D02*
X44432057Y24626905D01*
X44432057Y24626905D02*
X44527295Y24674524D01*
X44527295Y24674524D02*
X44622533Y24674524D01*
X44622533Y24674524D02*
X44765390Y24626905D01*
X44765390Y24626905D02*
X45336819Y24055477D01*
X45336819Y24055477D02*
X45336819Y24674524D01*
X64076342Y11584781D02*
X63743009Y12060972D01*
X63504914Y11584781D02*
X63504914Y12584781D01*
X63504914Y12584781D02*
X63885866Y12584781D01*
X63885866Y12584781D02*
X63981104Y12537162D01*
X63981104Y12537162D02*
X64028723Y12489543D01*
X64028723Y12489543D02*
X64076342Y12394305D01*
X64076342Y12394305D02*
X64076342Y12251448D01*
X64076342Y12251448D02*
X64028723Y12156210D01*
X64028723Y12156210D02*
X63981104Y12108591D01*
X63981104Y12108591D02*
X63885866Y12060972D01*
X63885866Y12060972D02*
X63504914Y12060972D01*
X64457295Y12489543D02*
X64504914Y12537162D01*
X64504914Y12537162D02*
X64600152Y12584781D01*
X64600152Y12584781D02*
X64838247Y12584781D01*
X64838247Y12584781D02*
X64933485Y12537162D01*
X64933485Y12537162D02*
X64981104Y12489543D01*
X64981104Y12489543D02*
X65028723Y12394305D01*
X65028723Y12394305D02*
X65028723Y12299067D01*
X65028723Y12299067D02*
X64981104Y12156210D01*
X64981104Y12156210D02*
X64409676Y11584781D01*
X64409676Y11584781D02*
X65028723Y11584781D01*
X65981104Y11584781D02*
X65409676Y11584781D01*
X65695390Y11584781D02*
X65695390Y12584781D01*
X65695390Y12584781D02*
X65600152Y12441924D01*
X65600152Y12441924D02*
X65504914Y12346686D01*
X65504914Y12346686D02*
X65409676Y12299067D01*
X49936495Y41032781D02*
X49936495Y40223258D01*
X49936495Y40223258D02*
X49984114Y40128020D01*
X49984114Y40128020D02*
X50031733Y40080400D01*
X50031733Y40080400D02*
X50126971Y40032781D01*
X50126971Y40032781D02*
X50317447Y40032781D01*
X50317447Y40032781D02*
X50412685Y40080400D01*
X50412685Y40080400D02*
X50460304Y40128020D01*
X50460304Y40128020D02*
X50507923Y40223258D01*
X50507923Y40223258D02*
X50507923Y41032781D01*
X50888876Y41032781D02*
X51555542Y41032781D01*
X51555542Y41032781D02*
X51126971Y40032781D01*
X6248495Y45214381D02*
X6248495Y46214381D01*
X6248495Y45738191D02*
X6819923Y45738191D01*
X6819923Y45214381D02*
X6819923Y46214381D01*
X7819923Y45214381D02*
X7248495Y45214381D01*
X7534209Y45214381D02*
X7534209Y46214381D01*
X7534209Y46214381D02*
X7438971Y46071524D01*
X7438971Y46071524D02*
X7343733Y45976286D01*
X7343733Y45976286D02*
X7248495Y45928667D01*
X68072095Y6149581D02*
X68072095Y7149581D01*
X68072095Y6673391D02*
X68643523Y6673391D01*
X68643523Y6149581D02*
X68643523Y7149581D01*
X69548285Y6816248D02*
X69548285Y6149581D01*
X69310190Y7197200D02*
X69072095Y6482915D01*
X69072095Y6482915D02*
X69691142Y6482915D01*
X35712495Y36359181D02*
X35712495Y35549658D01*
X35712495Y35549658D02*
X35760114Y35454420D01*
X35760114Y35454420D02*
X35807733Y35406800D01*
X35807733Y35406800D02*
X35902971Y35359181D01*
X35902971Y35359181D02*
X36093447Y35359181D01*
X36093447Y35359181D02*
X36188685Y35406800D01*
X36188685Y35406800D02*
X36236304Y35454420D01*
X36236304Y35454420D02*
X36283923Y35549658D01*
X36283923Y35549658D02*
X36283923Y36359181D01*
X37188685Y36359181D02*
X36998209Y36359181D01*
X36998209Y36359181D02*
X36902971Y36311562D01*
X36902971Y36311562D02*
X36855352Y36263943D01*
X36855352Y36263943D02*
X36760114Y36121086D01*
X36760114Y36121086D02*
X36712495Y35930610D01*
X36712495Y35930610D02*
X36712495Y35549658D01*
X36712495Y35549658D02*
X36760114Y35454420D01*
X36760114Y35454420D02*
X36807733Y35406800D01*
X36807733Y35406800D02*
X36902971Y35359181D01*
X36902971Y35359181D02*
X37093447Y35359181D01*
X37093447Y35359181D02*
X37188685Y35406800D01*
X37188685Y35406800D02*
X37236304Y35454420D01*
X37236304Y35454420D02*
X37283923Y35549658D01*
X37283923Y35549658D02*
X37283923Y35787753D01*
X37283923Y35787753D02*
X37236304Y35882991D01*
X37236304Y35882991D02*
X37188685Y35930610D01*
X37188685Y35930610D02*
X37093447Y35978229D01*
X37093447Y35978229D02*
X36902971Y35978229D01*
X36902971Y35978229D02*
X36807733Y35930610D01*
X36807733Y35930610D02*
X36760114Y35882991D01*
X36760114Y35882991D02*
X36712495Y35787753D01*
X18514219Y30921534D02*
X18038028Y30588201D01*
X18514219Y30350106D02*
X17514219Y30350106D01*
X17514219Y30350106D02*
X17514219Y30731058D01*
X17514219Y30731058D02*
X17561838Y30826296D01*
X17561838Y30826296D02*
X17609457Y30873915D01*
X17609457Y30873915D02*
X17704695Y30921534D01*
X17704695Y30921534D02*
X17847552Y30921534D01*
X17847552Y30921534D02*
X17942790Y30873915D01*
X17942790Y30873915D02*
X17990409Y30826296D01*
X17990409Y30826296D02*
X18038028Y30731058D01*
X18038028Y30731058D02*
X18038028Y30350106D01*
X18514219Y31873915D02*
X18514219Y31302487D01*
X18514219Y31588201D02*
X17514219Y31588201D01*
X17514219Y31588201D02*
X17657076Y31492963D01*
X17657076Y31492963D02*
X17752314Y31397725D01*
X17752314Y31397725D02*
X17799933Y31302487D01*
X62487980Y12107943D02*
X62535600Y12060324D01*
X62535600Y12060324D02*
X62583219Y11917467D01*
X62583219Y11917467D02*
X62583219Y11822229D01*
X62583219Y11822229D02*
X62535600Y11679372D01*
X62535600Y11679372D02*
X62440361Y11584134D01*
X62440361Y11584134D02*
X62345123Y11536515D01*
X62345123Y11536515D02*
X62154647Y11488896D01*
X62154647Y11488896D02*
X62011790Y11488896D01*
X62011790Y11488896D02*
X61821314Y11536515D01*
X61821314Y11536515D02*
X61726076Y11584134D01*
X61726076Y11584134D02*
X61630838Y11679372D01*
X61630838Y11679372D02*
X61583219Y11822229D01*
X61583219Y11822229D02*
X61583219Y11917467D01*
X61583219Y11917467D02*
X61630838Y12060324D01*
X61630838Y12060324D02*
X61678457Y12107943D01*
X62583219Y13060324D02*
X62583219Y12488896D01*
X62583219Y12774610D02*
X61583219Y12774610D01*
X61583219Y12774610D02*
X61726076Y12679372D01*
X61726076Y12679372D02*
X61821314Y12584134D01*
X61821314Y12584134D02*
X61868933Y12488896D01*
X61583219Y13393658D02*
X61583219Y14060324D01*
X61583219Y14060324D02*
X62583219Y13631753D01*
X43374361Y12865743D02*
X43279123Y12913362D01*
X43279123Y12913362D02*
X43183885Y13008600D01*
X43183885Y13008600D02*
X43041028Y13151458D01*
X43041028Y13151458D02*
X42945790Y13199077D01*
X42945790Y13199077D02*
X42850552Y13199077D01*
X42898171Y12960981D02*
X42802933Y13008600D01*
X42802933Y13008600D02*
X42707695Y13103839D01*
X42707695Y13103839D02*
X42660076Y13294315D01*
X42660076Y13294315D02*
X42660076Y13627648D01*
X42660076Y13627648D02*
X42707695Y13818124D01*
X42707695Y13818124D02*
X42802933Y13913362D01*
X42802933Y13913362D02*
X42898171Y13960981D01*
X42898171Y13960981D02*
X43088647Y13960981D01*
X43088647Y13960981D02*
X43183885Y13913362D01*
X43183885Y13913362D02*
X43279123Y13818124D01*
X43279123Y13818124D02*
X43326742Y13627648D01*
X43326742Y13627648D02*
X43326742Y13294315D01*
X43326742Y13294315D02*
X43279123Y13103839D01*
X43279123Y13103839D02*
X43183885Y13008600D01*
X43183885Y13008600D02*
X43088647Y12960981D01*
X43088647Y12960981D02*
X42898171Y12960981D01*
X44279123Y12960981D02*
X43707695Y12960981D01*
X43993409Y12960981D02*
X43993409Y13960981D01*
X43993409Y13960981D02*
X43898171Y13818124D01*
X43898171Y13818124D02*
X43802933Y13722886D01*
X43802933Y13722886D02*
X43707695Y13675267D01*
X40555942Y39721620D02*
X40508323Y39674000D01*
X40508323Y39674000D02*
X40365466Y39626381D01*
X40365466Y39626381D02*
X40270228Y39626381D01*
X40270228Y39626381D02*
X40127371Y39674000D01*
X40127371Y39674000D02*
X40032133Y39769239D01*
X40032133Y39769239D02*
X39984514Y39864477D01*
X39984514Y39864477D02*
X39936895Y40054953D01*
X39936895Y40054953D02*
X39936895Y40197810D01*
X39936895Y40197810D02*
X39984514Y40388286D01*
X39984514Y40388286D02*
X40032133Y40483524D01*
X40032133Y40483524D02*
X40127371Y40578762D01*
X40127371Y40578762D02*
X40270228Y40626381D01*
X40270228Y40626381D02*
X40365466Y40626381D01*
X40365466Y40626381D02*
X40508323Y40578762D01*
X40508323Y40578762D02*
X40555942Y40531143D01*
X41508323Y39626381D02*
X40936895Y39626381D01*
X41222609Y39626381D02*
X41222609Y40626381D01*
X41222609Y40626381D02*
X41127371Y40483524D01*
X41127371Y40483524D02*
X41032133Y40388286D01*
X41032133Y40388286D02*
X40936895Y40340667D01*
X42365466Y40626381D02*
X42174990Y40626381D01*
X42174990Y40626381D02*
X42079752Y40578762D01*
X42079752Y40578762D02*
X42032133Y40531143D01*
X42032133Y40531143D02*
X41936895Y40388286D01*
X41936895Y40388286D02*
X41889276Y40197810D01*
X41889276Y40197810D02*
X41889276Y39816858D01*
X41889276Y39816858D02*
X41936895Y39721620D01*
X41936895Y39721620D02*
X41984514Y39674000D01*
X41984514Y39674000D02*
X42079752Y39626381D01*
X42079752Y39626381D02*
X42270228Y39626381D01*
X42270228Y39626381D02*
X42365466Y39674000D01*
X42365466Y39674000D02*
X42413085Y39721620D01*
X42413085Y39721620D02*
X42460704Y39816858D01*
X42460704Y39816858D02*
X42460704Y40054953D01*
X42460704Y40054953D02*
X42413085Y40150191D01*
X42413085Y40150191D02*
X42365466Y40197810D01*
X42365466Y40197810D02*
X42270228Y40245429D01*
X42270228Y40245429D02*
X42079752Y40245429D01*
X42079752Y40245429D02*
X41984514Y40197810D01*
X41984514Y40197810D02*
X41936895Y40150191D01*
X41936895Y40150191D02*
X41889276Y40054953D01*
X16914019Y25690534D02*
X16437828Y25357201D01*
X16914019Y25119106D02*
X15914019Y25119106D01*
X15914019Y25119106D02*
X15914019Y25500058D01*
X15914019Y25500058D02*
X15961638Y25595296D01*
X15961638Y25595296D02*
X16009257Y25642915D01*
X16009257Y25642915D02*
X16104495Y25690534D01*
X16104495Y25690534D02*
X16247352Y25690534D01*
X16247352Y25690534D02*
X16342590Y25642915D01*
X16342590Y25642915D02*
X16390209Y25595296D01*
X16390209Y25595296D02*
X16437828Y25500058D01*
X16437828Y25500058D02*
X16437828Y25119106D01*
X16342590Y26261963D02*
X16294971Y26166725D01*
X16294971Y26166725D02*
X16247352Y26119106D01*
X16247352Y26119106D02*
X16152114Y26071487D01*
X16152114Y26071487D02*
X16104495Y26071487D01*
X16104495Y26071487D02*
X16009257Y26119106D01*
X16009257Y26119106D02*
X15961638Y26166725D01*
X15961638Y26166725D02*
X15914019Y26261963D01*
X15914019Y26261963D02*
X15914019Y26452439D01*
X15914019Y26452439D02*
X15961638Y26547677D01*
X15961638Y26547677D02*
X16009257Y26595296D01*
X16009257Y26595296D02*
X16104495Y26642915D01*
X16104495Y26642915D02*
X16152114Y26642915D01*
X16152114Y26642915D02*
X16247352Y26595296D01*
X16247352Y26595296D02*
X16294971Y26547677D01*
X16294971Y26547677D02*
X16342590Y26452439D01*
X16342590Y26452439D02*
X16342590Y26261963D01*
X16342590Y26261963D02*
X16390209Y26166725D01*
X16390209Y26166725D02*
X16437828Y26119106D01*
X16437828Y26119106D02*
X16533066Y26071487D01*
X16533066Y26071487D02*
X16723542Y26071487D01*
X16723542Y26071487D02*
X16818780Y26119106D01*
X16818780Y26119106D02*
X16866400Y26166725D01*
X16866400Y26166725D02*
X16914019Y26261963D01*
X16914019Y26261963D02*
X16914019Y26452439D01*
X16914019Y26452439D02*
X16866400Y26547677D01*
X16866400Y26547677D02*
X16818780Y26595296D01*
X16818780Y26595296D02*
X16723542Y26642915D01*
X16723542Y26642915D02*
X16533066Y26642915D01*
X16533066Y26642915D02*
X16437828Y26595296D01*
X16437828Y26595296D02*
X16390209Y26547677D01*
X16390209Y26547677D02*
X16342590Y26452439D01*
X53814742Y2872581D02*
X53481409Y3348772D01*
X53243314Y2872581D02*
X53243314Y3872581D01*
X53243314Y3872581D02*
X53624266Y3872581D01*
X53624266Y3872581D02*
X53719504Y3824962D01*
X53719504Y3824962D02*
X53767123Y3777343D01*
X53767123Y3777343D02*
X53814742Y3682105D01*
X53814742Y3682105D02*
X53814742Y3539248D01*
X53814742Y3539248D02*
X53767123Y3444010D01*
X53767123Y3444010D02*
X53719504Y3396391D01*
X53719504Y3396391D02*
X53624266Y3348772D01*
X53624266Y3348772D02*
X53243314Y3348772D01*
X54767123Y2872581D02*
X54195695Y2872581D01*
X54481409Y2872581D02*
X54481409Y3872581D01*
X54481409Y3872581D02*
X54386171Y3729724D01*
X54386171Y3729724D02*
X54290933Y3634486D01*
X54290933Y3634486D02*
X54195695Y3586867D01*
X55338552Y3444010D02*
X55243314Y3491629D01*
X55243314Y3491629D02*
X55195695Y3539248D01*
X55195695Y3539248D02*
X55148076Y3634486D01*
X55148076Y3634486D02*
X55148076Y3682105D01*
X55148076Y3682105D02*
X55195695Y3777343D01*
X55195695Y3777343D02*
X55243314Y3824962D01*
X55243314Y3824962D02*
X55338552Y3872581D01*
X55338552Y3872581D02*
X55529028Y3872581D01*
X55529028Y3872581D02*
X55624266Y3824962D01*
X55624266Y3824962D02*
X55671885Y3777343D01*
X55671885Y3777343D02*
X55719504Y3682105D01*
X55719504Y3682105D02*
X55719504Y3634486D01*
X55719504Y3634486D02*
X55671885Y3539248D01*
X55671885Y3539248D02*
X55624266Y3491629D01*
X55624266Y3491629D02*
X55529028Y3444010D01*
X55529028Y3444010D02*
X55338552Y3444010D01*
X55338552Y3444010D02*
X55243314Y3396391D01*
X55243314Y3396391D02*
X55195695Y3348772D01*
X55195695Y3348772D02*
X55148076Y3253534D01*
X55148076Y3253534D02*
X55148076Y3063058D01*
X55148076Y3063058D02*
X55195695Y2967820D01*
X55195695Y2967820D02*
X55243314Y2920200D01*
X55243314Y2920200D02*
X55338552Y2872581D01*
X55338552Y2872581D02*
X55529028Y2872581D01*
X55529028Y2872581D02*
X55624266Y2920200D01*
X55624266Y2920200D02*
X55671885Y2967820D01*
X55671885Y2967820D02*
X55719504Y3063058D01*
X55719504Y3063058D02*
X55719504Y3253534D01*
X55719504Y3253534D02*
X55671885Y3348772D01*
X55671885Y3348772D02*
X55624266Y3396391D01*
X55624266Y3396391D02*
X55529028Y3444010D01*
X66321266Y29450381D02*
X66321266Y28736096D01*
X66321266Y28736096D02*
X66273647Y28593239D01*
X66273647Y28593239D02*
X66178409Y28498000D01*
X66178409Y28498000D02*
X66035552Y28450381D01*
X66035552Y28450381D02*
X65940314Y28450381D01*
X67273647Y29450381D02*
X66797457Y29450381D01*
X66797457Y29450381D02*
X66749838Y28974191D01*
X66749838Y28974191D02*
X66797457Y29021810D01*
X66797457Y29021810D02*
X66892695Y29069429D01*
X66892695Y29069429D02*
X67130790Y29069429D01*
X67130790Y29069429D02*
X67226028Y29021810D01*
X67226028Y29021810D02*
X67273647Y28974191D01*
X67273647Y28974191D02*
X67321266Y28878953D01*
X67321266Y28878953D02*
X67321266Y28640858D01*
X67321266Y28640858D02*
X67273647Y28545620D01*
X67273647Y28545620D02*
X67226028Y28498000D01*
X67226028Y28498000D02*
X67130790Y28450381D01*
X67130790Y28450381D02*
X66892695Y28450381D01*
X66892695Y28450381D02*
X66797457Y28498000D01*
X66797457Y28498000D02*
X66749838Y28545620D01*
X25263695Y11352281D02*
X25263695Y10542758D01*
X25263695Y10542758D02*
X25311314Y10447520D01*
X25311314Y10447520D02*
X25358933Y10399900D01*
X25358933Y10399900D02*
X25454171Y10352281D01*
X25454171Y10352281D02*
X25644647Y10352281D01*
X25644647Y10352281D02*
X25739885Y10399900D01*
X25739885Y10399900D02*
X25787504Y10447520D01*
X25787504Y10447520D02*
X25835123Y10542758D01*
X25835123Y10542758D02*
X25835123Y11352281D01*
X26739885Y11018948D02*
X26739885Y10352281D01*
X26501790Y11399900D02*
X26263695Y10685615D01*
X26263695Y10685615D02*
X26882742Y10685615D01*
X53209866Y39305581D02*
X53209866Y38591296D01*
X53209866Y38591296D02*
X53162247Y38448439D01*
X53162247Y38448439D02*
X53067009Y38353200D01*
X53067009Y38353200D02*
X52924152Y38305581D01*
X52924152Y38305581D02*
X52828914Y38305581D01*
X54114628Y38972248D02*
X54114628Y38305581D01*
X53876533Y39353200D02*
X53638438Y38638915D01*
X53638438Y38638915D02*
X54257485Y38638915D01*
X44943733Y16658420D02*
X44896114Y16610800D01*
X44896114Y16610800D02*
X44753257Y16563181D01*
X44753257Y16563181D02*
X44658019Y16563181D01*
X44658019Y16563181D02*
X44515162Y16610800D01*
X44515162Y16610800D02*
X44419924Y16706039D01*
X44419924Y16706039D02*
X44372305Y16801277D01*
X44372305Y16801277D02*
X44324686Y16991753D01*
X44324686Y16991753D02*
X44324686Y17134610D01*
X44324686Y17134610D02*
X44372305Y17325086D01*
X44372305Y17325086D02*
X44419924Y17420324D01*
X44419924Y17420324D02*
X44515162Y17515562D01*
X44515162Y17515562D02*
X44658019Y17563181D01*
X44658019Y17563181D02*
X44753257Y17563181D01*
X44753257Y17563181D02*
X44896114Y17515562D01*
X44896114Y17515562D02*
X44943733Y17467943D01*
X45277067Y17563181D02*
X45943733Y17563181D01*
X45943733Y17563181D02*
X45515162Y16563181D01*
X22998133Y12981781D02*
X22664800Y13457972D01*
X22426705Y12981781D02*
X22426705Y13981781D01*
X22426705Y13981781D02*
X22807657Y13981781D01*
X22807657Y13981781D02*
X22902895Y13934162D01*
X22902895Y13934162D02*
X22950514Y13886543D01*
X22950514Y13886543D02*
X22998133Y13791305D01*
X22998133Y13791305D02*
X22998133Y13648448D01*
X22998133Y13648448D02*
X22950514Y13553210D01*
X22950514Y13553210D02*
X22902895Y13505591D01*
X22902895Y13505591D02*
X22807657Y13457972D01*
X22807657Y13457972D02*
X22426705Y13457972D01*
X23902895Y13981781D02*
X23426705Y13981781D01*
X23426705Y13981781D02*
X23379086Y13505591D01*
X23379086Y13505591D02*
X23426705Y13553210D01*
X23426705Y13553210D02*
X23521943Y13600829D01*
X23521943Y13600829D02*
X23760038Y13600829D01*
X23760038Y13600829D02*
X23855276Y13553210D01*
X23855276Y13553210D02*
X23902895Y13505591D01*
X23902895Y13505591D02*
X23950514Y13410353D01*
X23950514Y13410353D02*
X23950514Y13172258D01*
X23950514Y13172258D02*
X23902895Y13077020D01*
X23902895Y13077020D02*
X23855276Y13029400D01*
X23855276Y13029400D02*
X23760038Y12981781D01*
X23760038Y12981781D02*
X23521943Y12981781D01*
X23521943Y12981781D02*
X23426705Y13029400D01*
X23426705Y13029400D02*
X23379086Y13077020D01*
X18514219Y33366343D02*
X18038028Y33033010D01*
X18514219Y32794915D02*
X17514219Y32794915D01*
X17514219Y32794915D02*
X17514219Y33175867D01*
X17514219Y33175867D02*
X17561838Y33271105D01*
X17561838Y33271105D02*
X17609457Y33318724D01*
X17609457Y33318724D02*
X17704695Y33366343D01*
X17704695Y33366343D02*
X17847552Y33366343D01*
X17847552Y33366343D02*
X17942790Y33318724D01*
X17942790Y33318724D02*
X17990409Y33271105D01*
X17990409Y33271105D02*
X18038028Y33175867D01*
X18038028Y33175867D02*
X18038028Y32794915D01*
X18514219Y34318724D02*
X18514219Y33747296D01*
X18514219Y34033010D02*
X17514219Y34033010D01*
X17514219Y34033010D02*
X17657076Y33937772D01*
X17657076Y33937772D02*
X17752314Y33842534D01*
X17752314Y33842534D02*
X17799933Y33747296D01*
X17514219Y34937772D02*
X17514219Y35033010D01*
X17514219Y35033010D02*
X17561838Y35128248D01*
X17561838Y35128248D02*
X17609457Y35175867D01*
X17609457Y35175867D02*
X17704695Y35223486D01*
X17704695Y35223486D02*
X17895171Y35271105D01*
X17895171Y35271105D02*
X18133266Y35271105D01*
X18133266Y35271105D02*
X18323742Y35223486D01*
X18323742Y35223486D02*
X18418980Y35175867D01*
X18418980Y35175867D02*
X18466600Y35128248D01*
X18466600Y35128248D02*
X18514219Y35033010D01*
X18514219Y35033010D02*
X18514219Y34937772D01*
X18514219Y34937772D02*
X18466600Y34842534D01*
X18466600Y34842534D02*
X18418980Y34794915D01*
X18418980Y34794915D02*
X18323742Y34747296D01*
X18323742Y34747296D02*
X18133266Y34699677D01*
X18133266Y34699677D02*
X17895171Y34699677D01*
X17895171Y34699677D02*
X17704695Y34747296D01*
X17704695Y34747296D02*
X17609457Y34794915D01*
X17609457Y34794915D02*
X17561838Y34842534D01*
X17561838Y34842534D02*
X17514219Y34937772D01*
X63523905Y5844381D02*
X63523905Y6844381D01*
X63523905Y6844381D02*
X63762000Y6844381D01*
X63762000Y6844381D02*
X63904857Y6796762D01*
X63904857Y6796762D02*
X64000095Y6701524D01*
X64000095Y6701524D02*
X64047714Y6606286D01*
X64047714Y6606286D02*
X64095333Y6415810D01*
X64095333Y6415810D02*
X64095333Y6272953D01*
X64095333Y6272953D02*
X64047714Y6082477D01*
X64047714Y6082477D02*
X64000095Y5987239D01*
X64000095Y5987239D02*
X63904857Y5892000D01*
X63904857Y5892000D02*
X63762000Y5844381D01*
X63762000Y5844381D02*
X63523905Y5844381D01*
X64428667Y6844381D02*
X65047714Y6844381D01*
X65047714Y6844381D02*
X64714381Y6463429D01*
X64714381Y6463429D02*
X64857238Y6463429D01*
X64857238Y6463429D02*
X64952476Y6415810D01*
X64952476Y6415810D02*
X65000095Y6368191D01*
X65000095Y6368191D02*
X65047714Y6272953D01*
X65047714Y6272953D02*
X65047714Y6034858D01*
X65047714Y6034858D02*
X65000095Y5939620D01*
X65000095Y5939620D02*
X64952476Y5892000D01*
X64952476Y5892000D02*
X64857238Y5844381D01*
X64857238Y5844381D02*
X64571524Y5844381D01*
X64571524Y5844381D02*
X64476286Y5892000D01*
X64476286Y5892000D02*
X64428667Y5939620D01*
X16818780Y21016934D02*
X16866400Y20969315D01*
X16866400Y20969315D02*
X16914019Y20826458D01*
X16914019Y20826458D02*
X16914019Y20731220D01*
X16914019Y20731220D02*
X16866400Y20588363D01*
X16866400Y20588363D02*
X16771161Y20493125D01*
X16771161Y20493125D02*
X16675923Y20445506D01*
X16675923Y20445506D02*
X16485447Y20397887D01*
X16485447Y20397887D02*
X16342590Y20397887D01*
X16342590Y20397887D02*
X16152114Y20445506D01*
X16152114Y20445506D02*
X16056876Y20493125D01*
X16056876Y20493125D02*
X15961638Y20588363D01*
X15961638Y20588363D02*
X15914019Y20731220D01*
X15914019Y20731220D02*
X15914019Y20826458D01*
X15914019Y20826458D02*
X15961638Y20969315D01*
X15961638Y20969315D02*
X16009257Y21016934D01*
X16342590Y21588363D02*
X16294971Y21493125D01*
X16294971Y21493125D02*
X16247352Y21445506D01*
X16247352Y21445506D02*
X16152114Y21397887D01*
X16152114Y21397887D02*
X16104495Y21397887D01*
X16104495Y21397887D02*
X16009257Y21445506D01*
X16009257Y21445506D02*
X15961638Y21493125D01*
X15961638Y21493125D02*
X15914019Y21588363D01*
X15914019Y21588363D02*
X15914019Y21778839D01*
X15914019Y21778839D02*
X15961638Y21874077D01*
X15961638Y21874077D02*
X16009257Y21921696D01*
X16009257Y21921696D02*
X16104495Y21969315D01*
X16104495Y21969315D02*
X16152114Y21969315D01*
X16152114Y21969315D02*
X16247352Y21921696D01*
X16247352Y21921696D02*
X16294971Y21874077D01*
X16294971Y21874077D02*
X16342590Y21778839D01*
X16342590Y21778839D02*
X16342590Y21588363D01*
X16342590Y21588363D02*
X16390209Y21493125D01*
X16390209Y21493125D02*
X16437828Y21445506D01*
X16437828Y21445506D02*
X16533066Y21397887D01*
X16533066Y21397887D02*
X16723542Y21397887D01*
X16723542Y21397887D02*
X16818780Y21445506D01*
X16818780Y21445506D02*
X16866400Y21493125D01*
X16866400Y21493125D02*
X16914019Y21588363D01*
X16914019Y21588363D02*
X16914019Y21778839D01*
X16914019Y21778839D02*
X16866400Y21874077D01*
X16866400Y21874077D02*
X16818780Y21921696D01*
X16818780Y21921696D02*
X16723542Y21969315D01*
X16723542Y21969315D02*
X16533066Y21969315D01*
X16533066Y21969315D02*
X16437828Y21921696D01*
X16437828Y21921696D02*
X16390209Y21874077D01*
X16390209Y21874077D02*
X16342590Y21778839D01*
X42708005Y9658981D02*
X42708005Y10658981D01*
X42708005Y10658981D02*
X42946100Y10658981D01*
X42946100Y10658981D02*
X43088957Y10611362D01*
X43088957Y10611362D02*
X43184195Y10516124D01*
X43184195Y10516124D02*
X43231814Y10420886D01*
X43231814Y10420886D02*
X43279433Y10230410D01*
X43279433Y10230410D02*
X43279433Y10087553D01*
X43279433Y10087553D02*
X43231814Y9897077D01*
X43231814Y9897077D02*
X43184195Y9801839D01*
X43184195Y9801839D02*
X43088957Y9706600D01*
X43088957Y9706600D02*
X42946100Y9658981D01*
X42946100Y9658981D02*
X42708005Y9658981D01*
X43660386Y10563743D02*
X43708005Y10611362D01*
X43708005Y10611362D02*
X43803243Y10658981D01*
X43803243Y10658981D02*
X44041338Y10658981D01*
X44041338Y10658981D02*
X44136576Y10611362D01*
X44136576Y10611362D02*
X44184195Y10563743D01*
X44184195Y10563743D02*
X44231814Y10468505D01*
X44231814Y10468505D02*
X44231814Y10373267D01*
X44231814Y10373267D02*
X44184195Y10230410D01*
X44184195Y10230410D02*
X43612767Y9658981D01*
X43612767Y9658981D02*
X44231814Y9658981D01*
X59018610Y6911181D02*
X59018610Y7911181D01*
X60066228Y7006420D02*
X60018609Y6958800D01*
X60018609Y6958800D02*
X59875752Y6911181D01*
X59875752Y6911181D02*
X59780514Y6911181D01*
X59780514Y6911181D02*
X59637657Y6958800D01*
X59637657Y6958800D02*
X59542419Y7054039D01*
X59542419Y7054039D02*
X59494800Y7149277D01*
X59494800Y7149277D02*
X59447181Y7339753D01*
X59447181Y7339753D02*
X59447181Y7482610D01*
X59447181Y7482610D02*
X59494800Y7673086D01*
X59494800Y7673086D02*
X59542419Y7768324D01*
X59542419Y7768324D02*
X59637657Y7863562D01*
X59637657Y7863562D02*
X59780514Y7911181D01*
X59780514Y7911181D02*
X59875752Y7911181D01*
X59875752Y7911181D02*
X60018609Y7863562D01*
X60018609Y7863562D02*
X60066228Y7815943D01*
X61018609Y6911181D02*
X60447181Y6911181D01*
X60732895Y6911181D02*
X60732895Y7911181D01*
X60732895Y7911181D02*
X60637657Y7768324D01*
X60637657Y7768324D02*
X60542419Y7673086D01*
X60542419Y7673086D02*
X60447181Y7625467D01*
X16310780Y37660343D02*
X16358400Y37612724D01*
X16358400Y37612724D02*
X16406019Y37469867D01*
X16406019Y37469867D02*
X16406019Y37374629D01*
X16406019Y37374629D02*
X16358400Y37231772D01*
X16358400Y37231772D02*
X16263161Y37136534D01*
X16263161Y37136534D02*
X16167923Y37088915D01*
X16167923Y37088915D02*
X15977447Y37041296D01*
X15977447Y37041296D02*
X15834590Y37041296D01*
X15834590Y37041296D02*
X15644114Y37088915D01*
X15644114Y37088915D02*
X15548876Y37136534D01*
X15548876Y37136534D02*
X15453638Y37231772D01*
X15453638Y37231772D02*
X15406019Y37374629D01*
X15406019Y37374629D02*
X15406019Y37469867D01*
X15406019Y37469867D02*
X15453638Y37612724D01*
X15453638Y37612724D02*
X15501257Y37660343D01*
X16406019Y38612724D02*
X16406019Y38041296D01*
X16406019Y38327010D02*
X15406019Y38327010D01*
X15406019Y38327010D02*
X15548876Y38231772D01*
X15548876Y38231772D02*
X15644114Y38136534D01*
X15644114Y38136534D02*
X15691733Y38041296D01*
X15406019Y39231772D02*
X15406019Y39327010D01*
X15406019Y39327010D02*
X15453638Y39422248D01*
X15453638Y39422248D02*
X15501257Y39469867D01*
X15501257Y39469867D02*
X15596495Y39517486D01*
X15596495Y39517486D02*
X15786971Y39565105D01*
X15786971Y39565105D02*
X16025066Y39565105D01*
X16025066Y39565105D02*
X16215542Y39517486D01*
X16215542Y39517486D02*
X16310780Y39469867D01*
X16310780Y39469867D02*
X16358400Y39422248D01*
X16358400Y39422248D02*
X16406019Y39327010D01*
X16406019Y39327010D02*
X16406019Y39231772D01*
X16406019Y39231772D02*
X16358400Y39136534D01*
X16358400Y39136534D02*
X16310780Y39088915D01*
X16310780Y39088915D02*
X16215542Y39041296D01*
X16215542Y39041296D02*
X16025066Y38993677D01*
X16025066Y38993677D02*
X15786971Y38993677D01*
X15786971Y38993677D02*
X15596495Y39041296D01*
X15596495Y39041296D02*
X15501257Y39088915D01*
X15501257Y39088915D02*
X15453638Y39136534D01*
X15453638Y39136534D02*
X15406019Y39231772D01*
X55196066Y29094781D02*
X55196066Y28380496D01*
X55196066Y28380496D02*
X55148447Y28237639D01*
X55148447Y28237639D02*
X55053209Y28142400D01*
X55053209Y28142400D02*
X54910352Y28094781D01*
X54910352Y28094781D02*
X54815114Y28094781D01*
X56100828Y29094781D02*
X55910352Y29094781D01*
X55910352Y29094781D02*
X55815114Y29047162D01*
X55815114Y29047162D02*
X55767495Y28999543D01*
X55767495Y28999543D02*
X55672257Y28856686D01*
X55672257Y28856686D02*
X55624638Y28666210D01*
X55624638Y28666210D02*
X55624638Y28285258D01*
X55624638Y28285258D02*
X55672257Y28190020D01*
X55672257Y28190020D02*
X55719876Y28142400D01*
X55719876Y28142400D02*
X55815114Y28094781D01*
X55815114Y28094781D02*
X56005590Y28094781D01*
X56005590Y28094781D02*
X56100828Y28142400D01*
X56100828Y28142400D02*
X56148447Y28190020D01*
X56148447Y28190020D02*
X56196066Y28285258D01*
X56196066Y28285258D02*
X56196066Y28523353D01*
X56196066Y28523353D02*
X56148447Y28618591D01*
X56148447Y28618591D02*
X56100828Y28666210D01*
X56100828Y28666210D02*
X56005590Y28713829D01*
X56005590Y28713829D02*
X55815114Y28713829D01*
X55815114Y28713829D02*
X55719876Y28666210D01*
X55719876Y28666210D02*
X55672257Y28618591D01*
X55672257Y28618591D02*
X55624638Y28523353D01*
X46605866Y8513181D02*
X46605866Y7798896D01*
X46605866Y7798896D02*
X46558247Y7656039D01*
X46558247Y7656039D02*
X46463009Y7560800D01*
X46463009Y7560800D02*
X46320152Y7513181D01*
X46320152Y7513181D02*
X46224914Y7513181D01*
X46986819Y8513181D02*
X47653485Y8513181D01*
X47653485Y8513181D02*
X47224914Y7513181D01*
X40454342Y42007620D02*
X40406723Y41960000D01*
X40406723Y41960000D02*
X40263866Y41912381D01*
X40263866Y41912381D02*
X40168628Y41912381D01*
X40168628Y41912381D02*
X40025771Y41960000D01*
X40025771Y41960000D02*
X39930533Y42055239D01*
X39930533Y42055239D02*
X39882914Y42150477D01*
X39882914Y42150477D02*
X39835295Y42340953D01*
X39835295Y42340953D02*
X39835295Y42483810D01*
X39835295Y42483810D02*
X39882914Y42674286D01*
X39882914Y42674286D02*
X39930533Y42769524D01*
X39930533Y42769524D02*
X40025771Y42864762D01*
X40025771Y42864762D02*
X40168628Y42912381D01*
X40168628Y42912381D02*
X40263866Y42912381D01*
X40263866Y42912381D02*
X40406723Y42864762D01*
X40406723Y42864762D02*
X40454342Y42817143D01*
X41406723Y41912381D02*
X40835295Y41912381D01*
X41121009Y41912381D02*
X41121009Y42912381D01*
X41121009Y42912381D02*
X41025771Y42769524D01*
X41025771Y42769524D02*
X40930533Y42674286D01*
X40930533Y42674286D02*
X40835295Y42626667D01*
X42311485Y42912381D02*
X41835295Y42912381D01*
X41835295Y42912381D02*
X41787676Y42436191D01*
X41787676Y42436191D02*
X41835295Y42483810D01*
X41835295Y42483810D02*
X41930533Y42531429D01*
X41930533Y42531429D02*
X42168628Y42531429D01*
X42168628Y42531429D02*
X42263866Y42483810D01*
X42263866Y42483810D02*
X42311485Y42436191D01*
X42311485Y42436191D02*
X42359104Y42340953D01*
X42359104Y42340953D02*
X42359104Y42102858D01*
X42359104Y42102858D02*
X42311485Y42007620D01*
X42311485Y42007620D02*
X42263866Y41960000D01*
X42263866Y41960000D02*
X42168628Y41912381D01*
X42168628Y41912381D02*
X41930533Y41912381D01*
X41930533Y41912381D02*
X41835295Y41960000D01*
X41835295Y41960000D02*
X41787676Y42007620D01*
X4570552Y39423181D02*
X4094362Y39423181D01*
X4094362Y39423181D02*
X4094362Y40423181D01*
X4903886Y39946991D02*
X5237219Y39946991D01*
X5380076Y39423181D02*
X4903886Y39423181D01*
X4903886Y39423181D02*
X4903886Y40423181D01*
X4903886Y40423181D02*
X5380076Y40423181D01*
X5808648Y39423181D02*
X5808648Y40423181D01*
X5808648Y40423181D02*
X6046743Y40423181D01*
X6046743Y40423181D02*
X6189600Y40375562D01*
X6189600Y40375562D02*
X6284838Y40280324D01*
X6284838Y40280324D02*
X6332457Y40185086D01*
X6332457Y40185086D02*
X6380076Y39994610D01*
X6380076Y39994610D02*
X6380076Y39851753D01*
X6380076Y39851753D02*
X6332457Y39661277D01*
X6332457Y39661277D02*
X6284838Y39566039D01*
X6284838Y39566039D02*
X6189600Y39470800D01*
X6189600Y39470800D02*
X6046743Y39423181D01*
X6046743Y39423181D02*
X5808648Y39423181D01*
X7332457Y39423181D02*
X6761029Y39423181D01*
X7046743Y39423181D02*
X7046743Y40423181D01*
X7046743Y40423181D02*
X6951505Y40280324D01*
X6951505Y40280324D02*
X6856267Y40185086D01*
X6856267Y40185086D02*
X6761029Y40137467D01*
X64516095Y45214381D02*
X64516095Y46214381D01*
X64516095Y45738191D02*
X65087523Y45738191D01*
X65087523Y45214381D02*
X65087523Y46214381D01*
X65468476Y46214381D02*
X66087523Y46214381D01*
X66087523Y46214381D02*
X65754190Y45833429D01*
X65754190Y45833429D02*
X65897047Y45833429D01*
X65897047Y45833429D02*
X65992285Y45785810D01*
X65992285Y45785810D02*
X66039904Y45738191D01*
X66039904Y45738191D02*
X66087523Y45642953D01*
X66087523Y45642953D02*
X66087523Y45404858D01*
X66087523Y45404858D02*
X66039904Y45309620D01*
X66039904Y45309620D02*
X65992285Y45262000D01*
X65992285Y45262000D02*
X65897047Y45214381D01*
X65897047Y45214381D02*
X65611333Y45214381D01*
X65611333Y45214381D02*
X65516095Y45262000D01*
X65516095Y45262000D02*
X65468476Y45309620D01*
X26515219Y41368743D02*
X26039028Y41035410D01*
X26515219Y40797315D02*
X25515219Y40797315D01*
X25515219Y40797315D02*
X25515219Y41178267D01*
X25515219Y41178267D02*
X25562838Y41273505D01*
X25562838Y41273505D02*
X25610457Y41321124D01*
X25610457Y41321124D02*
X25705695Y41368743D01*
X25705695Y41368743D02*
X25848552Y41368743D01*
X25848552Y41368743D02*
X25943790Y41321124D01*
X25943790Y41321124D02*
X25991409Y41273505D01*
X25991409Y41273505D02*
X26039028Y41178267D01*
X26039028Y41178267D02*
X26039028Y40797315D01*
X26515219Y42321124D02*
X26515219Y41749696D01*
X26515219Y42035410D02*
X25515219Y42035410D01*
X25515219Y42035410D02*
X25658076Y41940172D01*
X25658076Y41940172D02*
X25753314Y41844934D01*
X25753314Y41844934D02*
X25800933Y41749696D01*
X26515219Y43273505D02*
X26515219Y42702077D01*
X26515219Y42987791D02*
X25515219Y42987791D01*
X25515219Y42987791D02*
X25658076Y42892553D01*
X25658076Y42892553D02*
X25753314Y42797315D01*
X25753314Y42797315D02*
X25800933Y42702077D01*
X6113433Y11584781D02*
X5780100Y12060972D01*
X5542005Y11584781D02*
X5542005Y12584781D01*
X5542005Y12584781D02*
X5922957Y12584781D01*
X5922957Y12584781D02*
X6018195Y12537162D01*
X6018195Y12537162D02*
X6065814Y12489543D01*
X6065814Y12489543D02*
X6113433Y12394305D01*
X6113433Y12394305D02*
X6113433Y12251448D01*
X6113433Y12251448D02*
X6065814Y12156210D01*
X6065814Y12156210D02*
X6018195Y12108591D01*
X6018195Y12108591D02*
X5922957Y12060972D01*
X5922957Y12060972D02*
X5542005Y12060972D01*
X6494386Y12489543D02*
X6542005Y12537162D01*
X6542005Y12537162D02*
X6637243Y12584781D01*
X6637243Y12584781D02*
X6875338Y12584781D01*
X6875338Y12584781D02*
X6970576Y12537162D01*
X6970576Y12537162D02*
X7018195Y12489543D01*
X7018195Y12489543D02*
X7065814Y12394305D01*
X7065814Y12394305D02*
X7065814Y12299067D01*
X7065814Y12299067D02*
X7018195Y12156210D01*
X7018195Y12156210D02*
X6446767Y11584781D01*
X6446767Y11584781D02*
X7065814Y11584781D01*
X51528742Y15343981D02*
X51195409Y15820172D01*
X50957314Y15343981D02*
X50957314Y16343981D01*
X50957314Y16343981D02*
X51338266Y16343981D01*
X51338266Y16343981D02*
X51433504Y16296362D01*
X51433504Y16296362D02*
X51481123Y16248743D01*
X51481123Y16248743D02*
X51528742Y16153505D01*
X51528742Y16153505D02*
X51528742Y16010648D01*
X51528742Y16010648D02*
X51481123Y15915410D01*
X51481123Y15915410D02*
X51433504Y15867791D01*
X51433504Y15867791D02*
X51338266Y15820172D01*
X51338266Y15820172D02*
X50957314Y15820172D01*
X51909695Y16248743D02*
X51957314Y16296362D01*
X51957314Y16296362D02*
X52052552Y16343981D01*
X52052552Y16343981D02*
X52290647Y16343981D01*
X52290647Y16343981D02*
X52385885Y16296362D01*
X52385885Y16296362D02*
X52433504Y16248743D01*
X52433504Y16248743D02*
X52481123Y16153505D01*
X52481123Y16153505D02*
X52481123Y16058267D01*
X52481123Y16058267D02*
X52433504Y15915410D01*
X52433504Y15915410D02*
X51862076Y15343981D01*
X51862076Y15343981D02*
X52481123Y15343981D01*
X53100171Y16343981D02*
X53195409Y16343981D01*
X53195409Y16343981D02*
X53290647Y16296362D01*
X53290647Y16296362D02*
X53338266Y16248743D01*
X53338266Y16248743D02*
X53385885Y16153505D01*
X53385885Y16153505D02*
X53433504Y15963029D01*
X53433504Y15963029D02*
X53433504Y15724934D01*
X53433504Y15724934D02*
X53385885Y15534458D01*
X53385885Y15534458D02*
X53338266Y15439220D01*
X53338266Y15439220D02*
X53290647Y15391600D01*
X53290647Y15391600D02*
X53195409Y15343981D01*
X53195409Y15343981D02*
X53100171Y15343981D01*
X53100171Y15343981D02*
X53004933Y15391600D01*
X53004933Y15391600D02*
X52957314Y15439220D01*
X52957314Y15439220D02*
X52909695Y15534458D01*
X52909695Y15534458D02*
X52862076Y15724934D01*
X52862076Y15724934D02*
X52862076Y15963029D01*
X52862076Y15963029D02*
X52909695Y16153505D01*
X52909695Y16153505D02*
X52957314Y16248743D01*
X52957314Y16248743D02*
X53004933Y16296362D01*
X53004933Y16296362D02*
X53100171Y16343981D01*
X14735980Y40403543D02*
X14783600Y40355924D01*
X14783600Y40355924D02*
X14831219Y40213067D01*
X14831219Y40213067D02*
X14831219Y40117829D01*
X14831219Y40117829D02*
X14783600Y39974972D01*
X14783600Y39974972D02*
X14688361Y39879734D01*
X14688361Y39879734D02*
X14593123Y39832115D01*
X14593123Y39832115D02*
X14402647Y39784496D01*
X14402647Y39784496D02*
X14259790Y39784496D01*
X14259790Y39784496D02*
X14069314Y39832115D01*
X14069314Y39832115D02*
X13974076Y39879734D01*
X13974076Y39879734D02*
X13878838Y39974972D01*
X13878838Y39974972D02*
X13831219Y40117829D01*
X13831219Y40117829D02*
X13831219Y40213067D01*
X13831219Y40213067D02*
X13878838Y40355924D01*
X13878838Y40355924D02*
X13926457Y40403543D01*
X14831219Y41355924D02*
X14831219Y40784496D01*
X14831219Y41070210D02*
X13831219Y41070210D01*
X13831219Y41070210D02*
X13974076Y40974972D01*
X13974076Y40974972D02*
X14069314Y40879734D01*
X14069314Y40879734D02*
X14116933Y40784496D01*
X14831219Y42308305D02*
X14831219Y41736877D01*
X14831219Y42022591D02*
X13831219Y42022591D01*
X13831219Y42022591D02*
X13974076Y41927353D01*
X13974076Y41927353D02*
X14069314Y41832115D01*
X14069314Y41832115D02*
X14116933Y41736877D01*
X57472342Y16461581D02*
X57139009Y16937772D01*
X56900914Y16461581D02*
X56900914Y17461581D01*
X56900914Y17461581D02*
X57281866Y17461581D01*
X57281866Y17461581D02*
X57377104Y17413962D01*
X57377104Y17413962D02*
X57424723Y17366343D01*
X57424723Y17366343D02*
X57472342Y17271105D01*
X57472342Y17271105D02*
X57472342Y17128248D01*
X57472342Y17128248D02*
X57424723Y17033010D01*
X57424723Y17033010D02*
X57377104Y16985391D01*
X57377104Y16985391D02*
X57281866Y16937772D01*
X57281866Y16937772D02*
X56900914Y16937772D01*
X58424723Y16461581D02*
X57853295Y16461581D01*
X58139009Y16461581D02*
X58139009Y17461581D01*
X58139009Y17461581D02*
X58043771Y17318724D01*
X58043771Y17318724D02*
X57948533Y17223486D01*
X57948533Y17223486D02*
X57853295Y17175867D01*
X58900914Y16461581D02*
X59091390Y16461581D01*
X59091390Y16461581D02*
X59186628Y16509200D01*
X59186628Y16509200D02*
X59234247Y16556820D01*
X59234247Y16556820D02*
X59329485Y16699677D01*
X59329485Y16699677D02*
X59377104Y16890153D01*
X59377104Y16890153D02*
X59377104Y17271105D01*
X59377104Y17271105D02*
X59329485Y17366343D01*
X59329485Y17366343D02*
X59281866Y17413962D01*
X59281866Y17413962D02*
X59186628Y17461581D01*
X59186628Y17461581D02*
X58996152Y17461581D01*
X58996152Y17461581D02*
X58900914Y17413962D01*
X58900914Y17413962D02*
X58853295Y17366343D01*
X58853295Y17366343D02*
X58805676Y17271105D01*
X58805676Y17271105D02*
X58805676Y17033010D01*
X58805676Y17033010D02*
X58853295Y16937772D01*
X58853295Y16937772D02*
X58900914Y16890153D01*
X58900914Y16890153D02*
X58996152Y16842534D01*
X58996152Y16842534D02*
X59186628Y16842534D01*
X59186628Y16842534D02*
X59281866Y16890153D01*
X59281866Y16890153D02*
X59329485Y16937772D01*
X59329485Y16937772D02*
X59377104Y17033010D01*
X64970819Y14597143D02*
X64494628Y14263810D01*
X64970819Y14025715D02*
X63970819Y14025715D01*
X63970819Y14025715D02*
X63970819Y14406667D01*
X63970819Y14406667D02*
X64018438Y14501905D01*
X64018438Y14501905D02*
X64066057Y14549524D01*
X64066057Y14549524D02*
X64161295Y14597143D01*
X64161295Y14597143D02*
X64304152Y14597143D01*
X64304152Y14597143D02*
X64399390Y14549524D01*
X64399390Y14549524D02*
X64447009Y14501905D01*
X64447009Y14501905D02*
X64494628Y14406667D01*
X64494628Y14406667D02*
X64494628Y14025715D01*
X64970819Y15549524D02*
X64970819Y14978096D01*
X64970819Y15263810D02*
X63970819Y15263810D01*
X63970819Y15263810D02*
X64113676Y15168572D01*
X64113676Y15168572D02*
X64208914Y15073334D01*
X64208914Y15073334D02*
X64256533Y14978096D01*
X63970819Y16454286D02*
X63970819Y15978096D01*
X63970819Y15978096D02*
X64447009Y15930477D01*
X64447009Y15930477D02*
X64399390Y15978096D01*
X64399390Y15978096D02*
X64351771Y16073334D01*
X64351771Y16073334D02*
X64351771Y16311429D01*
X64351771Y16311429D02*
X64399390Y16406667D01*
X64399390Y16406667D02*
X64447009Y16454286D01*
X64447009Y16454286D02*
X64542247Y16501905D01*
X64542247Y16501905D02*
X64780342Y16501905D01*
X64780342Y16501905D02*
X64875580Y16454286D01*
X64875580Y16454286D02*
X64923200Y16406667D01*
X64923200Y16406667D02*
X64970819Y16311429D01*
X64970819Y16311429D02*
X64970819Y16073334D01*
X64970819Y16073334D02*
X64923200Y15978096D01*
X64923200Y15978096D02*
X64875580Y15930477D01*
X31126133Y28494820D02*
X31078514Y28447200D01*
X31078514Y28447200D02*
X30935657Y28399581D01*
X30935657Y28399581D02*
X30840419Y28399581D01*
X30840419Y28399581D02*
X30697562Y28447200D01*
X30697562Y28447200D02*
X30602324Y28542439D01*
X30602324Y28542439D02*
X30554705Y28637677D01*
X30554705Y28637677D02*
X30507086Y28828153D01*
X30507086Y28828153D02*
X30507086Y28971010D01*
X30507086Y28971010D02*
X30554705Y29161486D01*
X30554705Y29161486D02*
X30602324Y29256724D01*
X30602324Y29256724D02*
X30697562Y29351962D01*
X30697562Y29351962D02*
X30840419Y29399581D01*
X30840419Y29399581D02*
X30935657Y29399581D01*
X30935657Y29399581D02*
X31078514Y29351962D01*
X31078514Y29351962D02*
X31126133Y29304343D01*
X31602324Y28399581D02*
X31792800Y28399581D01*
X31792800Y28399581D02*
X31888038Y28447200D01*
X31888038Y28447200D02*
X31935657Y28494820D01*
X31935657Y28494820D02*
X32030895Y28637677D01*
X32030895Y28637677D02*
X32078514Y28828153D01*
X32078514Y28828153D02*
X32078514Y29209105D01*
X32078514Y29209105D02*
X32030895Y29304343D01*
X32030895Y29304343D02*
X31983276Y29351962D01*
X31983276Y29351962D02*
X31888038Y29399581D01*
X31888038Y29399581D02*
X31697562Y29399581D01*
X31697562Y29399581D02*
X31602324Y29351962D01*
X31602324Y29351962D02*
X31554705Y29304343D01*
X31554705Y29304343D02*
X31507086Y29209105D01*
X31507086Y29209105D02*
X31507086Y28971010D01*
X31507086Y28971010D02*
X31554705Y28875772D01*
X31554705Y28875772D02*
X31602324Y28828153D01*
X31602324Y28828153D02*
X31697562Y28780534D01*
X31697562Y28780534D02*
X31888038Y28780534D01*
X31888038Y28780534D02*
X31983276Y28828153D01*
X31983276Y28828153D02*
X32030895Y28875772D01*
X32030895Y28875772D02*
X32078514Y28971010D01*
X29246533Y32566020D02*
X29198914Y32518400D01*
X29198914Y32518400D02*
X29056057Y32470781D01*
X29056057Y32470781D02*
X28960819Y32470781D01*
X28960819Y32470781D02*
X28817962Y32518400D01*
X28817962Y32518400D02*
X28722724Y32613639D01*
X28722724Y32613639D02*
X28675105Y32708877D01*
X28675105Y32708877D02*
X28627486Y32899353D01*
X28627486Y32899353D02*
X28627486Y33042210D01*
X28627486Y33042210D02*
X28675105Y33232686D01*
X28675105Y33232686D02*
X28722724Y33327924D01*
X28722724Y33327924D02*
X28817962Y33423162D01*
X28817962Y33423162D02*
X28960819Y33470781D01*
X28960819Y33470781D02*
X29056057Y33470781D01*
X29056057Y33470781D02*
X29198914Y33423162D01*
X29198914Y33423162D02*
X29246533Y33375543D01*
X30198914Y32470781D02*
X29627486Y32470781D01*
X29913200Y32470781D02*
X29913200Y33470781D01*
X29913200Y33470781D02*
X29817962Y33327924D01*
X29817962Y33327924D02*
X29722724Y33232686D01*
X29722724Y33232686D02*
X29627486Y33185067D01*
X33397866Y4939381D02*
X33397866Y4225096D01*
X33397866Y4225096D02*
X33350247Y4082239D01*
X33350247Y4082239D02*
X33255009Y3987000D01*
X33255009Y3987000D02*
X33112152Y3939381D01*
X33112152Y3939381D02*
X33016914Y3939381D01*
X34397866Y3939381D02*
X33826438Y3939381D01*
X34112152Y3939381D02*
X34112152Y4939381D01*
X34112152Y4939381D02*
X34016914Y4796524D01*
X34016914Y4796524D02*
X33921676Y4701286D01*
X33921676Y4701286D02*
X33826438Y4653667D01*
X62537466Y42980981D02*
X62537466Y42266696D01*
X62537466Y42266696D02*
X62489847Y42123839D01*
X62489847Y42123839D02*
X62394609Y42028600D01*
X62394609Y42028600D02*
X62251752Y41980981D01*
X62251752Y41980981D02*
X62156514Y41980981D01*
X62918419Y42980981D02*
X63537466Y42980981D01*
X63537466Y42980981D02*
X63204133Y42600029D01*
X63204133Y42600029D02*
X63346990Y42600029D01*
X63346990Y42600029D02*
X63442228Y42552410D01*
X63442228Y42552410D02*
X63489847Y42504791D01*
X63489847Y42504791D02*
X63537466Y42409553D01*
X63537466Y42409553D02*
X63537466Y42171458D01*
X63537466Y42171458D02*
X63489847Y42076220D01*
X63489847Y42076220D02*
X63442228Y42028600D01*
X63442228Y42028600D02*
X63346990Y41980981D01*
X63346990Y41980981D02*
X63061276Y41980981D01*
X63061276Y41980981D02*
X62966038Y42028600D01*
X62966038Y42028600D02*
X62918419Y42076220D01*
X8907542Y40642381D02*
X8574209Y41118572D01*
X8336114Y40642381D02*
X8336114Y41642381D01*
X8336114Y41642381D02*
X8717066Y41642381D01*
X8717066Y41642381D02*
X8812304Y41594762D01*
X8812304Y41594762D02*
X8859923Y41547143D01*
X8859923Y41547143D02*
X8907542Y41451905D01*
X8907542Y41451905D02*
X8907542Y41309048D01*
X8907542Y41309048D02*
X8859923Y41213810D01*
X8859923Y41213810D02*
X8812304Y41166191D01*
X8812304Y41166191D02*
X8717066Y41118572D01*
X8717066Y41118572D02*
X8336114Y41118572D01*
X9859923Y40642381D02*
X9288495Y40642381D01*
X9574209Y40642381D02*
X9574209Y41642381D01*
X9574209Y41642381D02*
X9478971Y41499524D01*
X9478971Y41499524D02*
X9383733Y41404286D01*
X9383733Y41404286D02*
X9288495Y41356667D01*
X10240876Y41547143D02*
X10288495Y41594762D01*
X10288495Y41594762D02*
X10383733Y41642381D01*
X10383733Y41642381D02*
X10621828Y41642381D01*
X10621828Y41642381D02*
X10717066Y41594762D01*
X10717066Y41594762D02*
X10764685Y41547143D01*
X10764685Y41547143D02*
X10812304Y41451905D01*
X10812304Y41451905D02*
X10812304Y41356667D01*
X10812304Y41356667D02*
X10764685Y41213810D01*
X10764685Y41213810D02*
X10193257Y40642381D01*
X10193257Y40642381D02*
X10812304Y40642381D01*
D12*
%TO.C,R13*%
X9323336Y36549000D02*
X9777464Y36549000D01*
X9323336Y35079000D02*
X9777464Y35079000D01*
%TO.C,R3*%
X16510364Y12850800D02*
X16056236Y12850800D01*
X16510364Y11380800D02*
X16056236Y11380800D01*
%TO.C,R9*%
X5056200Y24409036D02*
X5056200Y24863164D01*
X6526200Y24409036D02*
X6526200Y24863164D01*
%TO.C,C13*%
X16918000Y44026648D02*
X16918000Y44549152D01*
X18388000Y44026648D02*
X18388000Y44549152D01*
%TO.C,SW2*%
X14606800Y9362800D02*
X14606800Y4962800D01*
X14606800Y4962800D02*
X14726800Y4962800D01*
X14726800Y9362800D02*
X14606800Y9362800D01*
X15736800Y4962800D02*
X16876800Y4962800D01*
X16876800Y9362800D02*
X15736800Y9362800D01*
X17886800Y4962800D02*
X18006800Y4962800D01*
X18006800Y9362800D02*
X17886800Y9362800D01*
X18006800Y4962800D02*
X18006800Y9362800D01*
%TO.C,R4*%
X30964200Y11456936D02*
X30964200Y11911064D01*
X32434200Y11456936D02*
X32434200Y11911064D01*
%TO.C,C2*%
X8939848Y15441600D02*
X9462352Y15441600D01*
X8939848Y13971600D02*
X9462352Y13971600D01*
%TO.C,R17*%
X56465800Y5767336D02*
X56465800Y6221464D01*
X57935800Y5767336D02*
X57935800Y6221464D01*
%TO.C,C6*%
X40428200Y21332252D02*
X40428200Y20809748D01*
X41898200Y21332252D02*
X41898200Y20809748D01*
D13*
%TO.C,J2*%
X60245200Y17511200D02*
X60245200Y20311200D01*
X62195200Y22011200D02*
X66145200Y22011200D01*
X66145200Y22011200D02*
X66145200Y17511200D01*
X66145200Y17511200D02*
X60245200Y17511200D01*
D12*
%TO.C,R14*%
X5538736Y34390000D02*
X5992864Y34390000D01*
X5538736Y32920000D02*
X5992864Y32920000D01*
%TO.C,C14*%
X54820452Y13739800D02*
X54297948Y13739800D01*
X54820452Y12269800D02*
X54297948Y12269800D01*
%TO.C,C5*%
X33605800Y9085948D02*
X33605800Y9608452D01*
X35075800Y9085948D02*
X35075800Y9608452D01*
%TO.C,C3*%
X21485800Y22322480D02*
X21485800Y22041320D01*
X22505800Y22322480D02*
X22505800Y22041320D01*
%TO.C,D1*%
X41215000Y25811600D02*
X43900000Y25811600D01*
X43900000Y27731600D02*
X41215000Y27731600D01*
X43900000Y25811600D02*
X43900000Y27731600D01*
%TO.C,U5*%
X19218000Y44434400D02*
X19393000Y44434400D01*
X19218000Y43759400D02*
X19218000Y44434400D01*
X19218000Y41214400D02*
X19218000Y41889400D01*
X19393000Y41214400D02*
X19218000Y41214400D01*
X22263000Y44434400D02*
X22438000Y44434400D01*
X22438000Y44434400D02*
X22438000Y43759400D01*
X22438000Y41889400D02*
X22438000Y41214400D01*
X22438000Y41214400D02*
X22263000Y41214400D01*
X20068000Y40734400D02*
X19588000Y40734400D01*
X19828000Y41064400D01*
X20068000Y40734400D01*
G36*
X20068000Y40734400D02*
G01*
X19588000Y40734400D01*
X19828000Y41064400D01*
X20068000Y40734400D01*
G37*
%TO.C,U1*%
X23234200Y21972400D02*
X23234200Y26592400D01*
X30004200Y26592400D02*
X30004200Y21972400D01*
X29549200Y28142400D02*
X29309200Y28472400D01*
X29789200Y28472400D01*
X29549200Y28142400D01*
G36*
X29549200Y28142400D02*
G01*
X29309200Y28472400D01*
X29789200Y28472400D01*
X29549200Y28142400D01*
G37*
%TO.C,R7*%
X40768600Y6681736D02*
X40768600Y7135864D01*
X42238600Y6681736D02*
X42238600Y7135864D01*
%TO.C,C4*%
X30629800Y22271680D02*
X30629800Y21990520D01*
X31649800Y22271680D02*
X31649800Y21990520D01*
%TO.C,SW1*%
X7672600Y9413600D02*
X7672600Y5013600D01*
X7672600Y5013600D02*
X7792600Y5013600D01*
X7792600Y9413600D02*
X7672600Y9413600D01*
X8802600Y5013600D02*
X9942600Y5013600D01*
X9942600Y9413600D02*
X8802600Y9413600D01*
X10952600Y5013600D02*
X11072600Y5013600D01*
X11072600Y9413600D02*
X10952600Y9413600D01*
X11072600Y5013600D02*
X11072600Y9413600D01*
%TO.C,U3*%
X7603200Y26737600D02*
X7873200Y26737600D01*
X7603200Y21217600D02*
X7603200Y26737600D01*
X7873200Y21217600D02*
X7603200Y21217600D01*
X12853200Y26737600D02*
X13123200Y26737600D01*
X13123200Y26737600D02*
X13123200Y21217600D01*
X13123200Y21217600D02*
X12853200Y21217600D01*
X13333200Y27227600D02*
X12863200Y27567600D01*
X13333200Y27907600D01*
X13333200Y27227600D01*
G36*
X13333200Y27227600D02*
G01*
X12863200Y27567600D01*
X13333200Y27907600D01*
X13333200Y27227600D01*
G37*
%TO.C,R6*%
X42442064Y25006400D02*
X41987936Y25006400D01*
X42442064Y23536400D02*
X41987936Y23536400D01*
%TO.C,U2*%
X43547748Y22520000D02*
X45357000Y22520000D01*
X45357000Y20300000D02*
X43137000Y20300000D01*
X43257000Y22530000D02*
X43117000Y22720000D01*
X43397000Y22720000D01*
X43257000Y22530000D01*
G36*
X43257000Y22530000D02*
G01*
X43117000Y22720000D01*
X43397000Y22720000D01*
X43257000Y22530000D01*
G37*
%TO.C,R21*%
X64438264Y11047400D02*
X63984136Y11047400D01*
X64438264Y9577400D02*
X63984136Y9577400D01*
%TO.C,U7*%
X46498400Y40204000D02*
X46498400Y42204000D01*
X48778400Y40214000D02*
X48778400Y42214000D01*
X46568400Y39564000D02*
X46288400Y39844000D01*
X46568400Y39844000D01*
X46568400Y39564000D01*
G36*
X46568400Y39564000D02*
G01*
X46288400Y39844000D01*
X46568400Y39844000D01*
X46568400Y39564000D01*
G37*
%TO.C,U6*%
X31078100Y40565600D02*
X31803100Y40565600D01*
X31078100Y39840600D02*
X31078100Y40565600D01*
X31078100Y36345600D02*
X31078100Y37070600D01*
X31803100Y36345600D02*
X31078100Y36345600D01*
X34573100Y40565600D02*
X35298100Y40565600D01*
X35298100Y40565600D02*
X35298100Y39840600D01*
X35298100Y37070600D02*
X35298100Y36345600D01*
X35298100Y36345600D02*
X34573100Y36345600D01*
X36128100Y37215600D02*
X35798100Y37455600D01*
X36128100Y37695600D01*
X36128100Y37215600D01*
G36*
X36128100Y37215600D02*
G01*
X35798100Y37455600D01*
X36128100Y37695600D01*
X36128100Y37215600D01*
G37*
%TO.C,R1*%
X20245336Y32180200D02*
X20699464Y32180200D01*
X20245336Y30710200D02*
X20699464Y30710200D01*
%TO.C,C17*%
X59748052Y13536600D02*
X59225548Y13536600D01*
X59748052Y12066600D02*
X59225548Y12066600D01*
%TO.C,Q1*%
X38927600Y14605300D02*
X39927600Y14605300D01*
X38927600Y13085300D02*
X38927600Y14605300D01*
X38977600Y13085300D02*
X38927600Y13085300D01*
X40877600Y13085300D02*
X40097600Y13085300D01*
X41047600Y14605300D02*
X42047600Y14605300D01*
X42047600Y14605300D02*
X42047600Y13085300D01*
X42047600Y13085300D02*
X41997600Y13085300D01*
X40437600Y12305300D02*
X40107600Y12545300D01*
X40437600Y12785300D01*
X40437600Y12305300D01*
G36*
X40437600Y12305300D02*
G01*
X40107600Y12545300D01*
X40437600Y12785300D01*
X40437600Y12305300D01*
G37*
%TO.C,C16*%
X44660452Y40917800D02*
X44137948Y40917800D01*
X44660452Y39447800D02*
X44137948Y39447800D01*
%TO.C,R8*%
X13946200Y26363664D02*
X13946200Y25909536D01*
X15416200Y26363664D02*
X15416200Y25909536D01*
%TO.C,R18*%
X54078200Y5767336D02*
X54078200Y6221464D01*
X55548200Y5767336D02*
X55548200Y6221464D01*
%TO.C,J5*%
X59940600Y27271200D02*
X59940600Y28651200D01*
X61320600Y27271200D02*
X59940600Y27271200D01*
X62590600Y30031200D02*
X65240600Y30031200D01*
X62590600Y27271200D02*
X62590600Y30031200D01*
X62590600Y27271200D02*
X65240600Y27271200D01*
X65240600Y27271200D02*
X65240600Y30031200D01*
%TO.C,U4*%
X27307200Y11199900D02*
X27307200Y10199900D01*
X30027200Y11199900D02*
X30027200Y10199900D01*
X27357200Y9529900D02*
X27077200Y9809900D01*
X27357200Y9809900D01*
X27357200Y9529900D01*
G36*
X27357200Y9529900D02*
G01*
X27077200Y9809900D01*
X27357200Y9809900D01*
X27357200Y9529900D01*
G37*
%TO.C,J4*%
X48703800Y34840400D02*
X48703800Y36220400D01*
X50083800Y34840400D02*
X48703800Y34840400D01*
X51353800Y37600400D02*
X54003800Y37600400D01*
X51353800Y34840400D02*
X51353800Y37600400D01*
X51353800Y34840400D02*
X54003800Y34840400D01*
X54003800Y34840400D02*
X54003800Y37600400D01*
%TO.C,C7*%
X44777252Y19581800D02*
X44254748Y19581800D01*
X44777252Y18111800D02*
X44254748Y18111800D01*
%TO.C,R5*%
X22429800Y10796536D02*
X22429800Y11250664D01*
X23899800Y10796536D02*
X23899800Y11250664D01*
%TO.C,R10*%
X20245336Y34466200D02*
X20699464Y34466200D01*
X20245336Y32996200D02*
X20699464Y32996200D01*
%TO.C,D3*%
X62577000Y9164200D02*
X62577000Y7244200D01*
X62577000Y7244200D02*
X65262000Y7244200D01*
X65262000Y9164200D02*
X62577000Y9164200D01*
%TO.C,C8*%
X13946200Y20922348D02*
X13946200Y21444852D01*
X15416200Y20922348D02*
X15416200Y21444852D01*
%TO.C,D2*%
X38840100Y11073800D02*
X38840100Y9153800D01*
X38840100Y9153800D02*
X41525100Y9153800D01*
X41525100Y11073800D02*
X38840100Y11073800D01*
D14*
%TO.C,IC1*%
X58177800Y11547200D02*
G75*
G02*
X57927800Y11547200I-125000J0D01*
G01*
X57927800Y11547200D02*
G75*
G02*
X58177800Y11547200I125000J0D01*
G01*
D12*
%TO.C,C10*%
X18676252Y39307900D02*
X18153748Y39307900D01*
X18676252Y37837900D02*
X18153748Y37837900D01*
%TO.C,J6*%
X48708800Y27271200D02*
X48708800Y28651200D01*
X50088800Y27271200D02*
X48708800Y27271200D01*
X51358800Y30031200D02*
X54008800Y30031200D01*
X51358800Y27271200D02*
X51358800Y30031200D01*
X51358800Y27271200D02*
X54008800Y27271200D01*
X54008800Y27271200D02*
X54008800Y30031200D01*
%TO.C,J7*%
X45559200Y6968000D02*
X46939200Y6968000D01*
X45559200Y5588000D02*
X45559200Y6968000D01*
X45559200Y4318000D02*
X45559200Y1668000D01*
X45559200Y4318000D02*
X48319200Y4318000D01*
X45559200Y1668000D02*
X48319200Y1668000D01*
X48319200Y4318000D02*
X48319200Y1668000D01*
%TO.C,C15*%
X44660452Y43203800D02*
X44137948Y43203800D01*
X44660452Y41733800D02*
X44137948Y41733800D01*
D10*
%TO.C,LED1*%
X5359800Y35692000D02*
X5359800Y35692000D01*
X5359800Y35592000D02*
X5359800Y35592000D01*
X5359800Y35692000D02*
G75*
G02*
X5359800Y35592000I0J-50000D01*
G01*
X5359800Y35592000D02*
G75*
G02*
X5359800Y35692000I0J50000D01*
G01*
D12*
%TO.C,R11*%
X23395000Y41809936D02*
X23395000Y42264064D01*
X24865000Y41809936D02*
X24865000Y42264064D01*
%TO.C,R2*%
X9428164Y12901600D02*
X8974036Y12901600D01*
X9428164Y11431600D02*
X8974036Y11431600D01*
%TO.C,R20*%
X54027400Y16432264D02*
X54027400Y15978136D01*
X55497400Y16432264D02*
X55497400Y15978136D01*
%TO.C,C11*%
X17152252Y41720900D02*
X16629748Y41720900D01*
X17152252Y40250900D02*
X16629748Y40250900D01*
%TO.C,R19*%
X57786536Y16025800D02*
X58240664Y16025800D01*
X57786536Y14555800D02*
X58240664Y14555800D01*
%TO.C,R15*%
X61672736Y15975000D02*
X62126864Y15975000D01*
X61672736Y14505000D02*
X62126864Y14505000D01*
%TO.C,C9*%
X30629800Y26511720D02*
X30629800Y26792880D01*
X31649800Y26511720D02*
X31649800Y26792880D01*
%TO.C,C1*%
X29674452Y35340600D02*
X29151948Y35340600D01*
X29674452Y33870600D02*
X29151948Y33870600D01*
%TO.C,J1*%
X22742200Y3732200D02*
X22742200Y5432200D01*
X32082200Y3732200D02*
X32082200Y5432200D01*
%TO.C,J3*%
X59780800Y41370800D02*
X61055800Y41370800D01*
X61055800Y41435800D02*
X61055800Y41370800D01*
X61055800Y41435800D02*
X64685800Y41435800D01*
X61055800Y34930800D02*
X61055800Y34865800D01*
X61055800Y34865800D02*
X64685800Y34865800D01*
X64685800Y41435800D02*
X64685800Y41370800D01*
X64685800Y34930800D02*
X64685800Y34865800D01*
%TO.C,R12*%
X9802864Y40105000D02*
X9348736Y40105000D01*
X9802864Y38635000D02*
X9348736Y38635000D01*
%TD*%
M02*
