%TF.GenerationSoftware,KiCad,Pcbnew,9.0.6*%
%TF.CreationDate,2026-05-03T18:05:21+02:00*%
%TF.ProjectId,STM32F0_PCB1,53544d33-3246-4305-9f50-4342312e6b69,rev?*%
%TF.SameCoordinates,PX7223ec0PY875c260*%
%TF.FileFunction,Copper,L4,Bot*%
%TF.FilePolarity,Positive*%
%FSLAX46Y46*%
G04 Gerber Fmt 4.6, Leading zero omitted, Abs format (unit mm)*
G04 Created by KiCad (PCBNEW 9.0.6) date 2026-05-03 18:05:21*
%MOMM*%
%LPD*%
G01*
G04 APERTURE LIST*
%TA.AperFunction,ComponentPad*%
%ADD10C,0.700000*%
%TD*%
%TA.AperFunction,ComponentPad*%
%ADD11C,4.400000*%
%TD*%
%TA.AperFunction,ComponentPad*%
%ADD12R,1.100000X1.100000*%
%TD*%
%TA.AperFunction,ComponentPad*%
%ADD13C,1.100000*%
%TD*%
%TA.AperFunction,HeatsinkPad*%
%ADD14C,0.500000*%
%TD*%
%TA.AperFunction,HeatsinkPad*%
%ADD15R,0.500000X1.600000*%
%TD*%
%TA.AperFunction,ComponentPad*%
%ADD16R,1.700000X1.700000*%
%TD*%
%TA.AperFunction,ComponentPad*%
%ADD17C,1.700000*%
%TD*%
%TA.AperFunction,HeatsinkPad*%
%ADD18O,1.000000X2.100000*%
%TD*%
%TA.AperFunction,HeatsinkPad*%
%ADD19O,1.000000X1.800000*%
%TD*%
%TA.AperFunction,ViaPad*%
%ADD20C,0.600000*%
%TD*%
%TA.AperFunction,Conductor*%
%ADD21C,0.200000*%
%TD*%
%TA.AperFunction,Conductor*%
%ADD22C,0.400000*%
%TD*%
G04 APERTURE END LIST*
D10*
%TO.P,H2,1,1*%
%TO.N,GND*%
X1804400Y3454400D03*
X2287674Y4621126D03*
X2287674Y2287674D03*
X3454400Y5104400D03*
D11*
X3454400Y3454400D03*
D10*
X3454400Y1804400D03*
X4621126Y4621126D03*
X4621126Y2287674D03*
X5104400Y3454400D03*
%TD*%
D12*
%TO.P,J2,1,1*%
%TO.N,/VBAT*%
X62195200Y20311200D03*
D13*
%TO.P,J2,2,2*%
%TO.N,GND*%
X64195200Y20311200D03*
%TD*%
D14*
%TO.P,U2,7,EP*%
%TO.N,GND*%
X44247000Y21960000D03*
D15*
X44247000Y21410000D03*
D14*
X44247000Y20860000D03*
%TD*%
D10*
%TO.P,H1,1,1*%
%TO.N,GND*%
X1804400Y45720000D03*
X2287674Y46886726D03*
X2287674Y44553274D03*
X3454400Y47370000D03*
D11*
X3454400Y45720000D03*
D10*
X3454400Y44070000D03*
X4621126Y46886726D03*
X4621126Y44553274D03*
X5104400Y45720000D03*
%TD*%
%TO.P,H4,1,1*%
%TO.N,GND*%
X67184000Y3454400D03*
X67667274Y4621126D03*
X67667274Y2287674D03*
X68834000Y5104400D03*
D11*
X68834000Y3454400D03*
D10*
X68834000Y1804400D03*
X70000726Y4621126D03*
X70000726Y2287674D03*
X70484000Y3454400D03*
%TD*%
D16*
%TO.P,J5,1,Pin_1*%
%TO.N,/VBAT*%
X61320600Y28651200D03*
D17*
%TO.P,J5,2,Pin_2*%
%TO.N,GND*%
X63860600Y28651200D03*
%TD*%
D16*
%TO.P,J4,1,Pin_1*%
%TO.N,/MTR_OUT1*%
X50083800Y36220400D03*
D17*
%TO.P,J4,2,Pin_2*%
%TO.N,/MTR_OUT2*%
X52623800Y36220400D03*
%TD*%
D16*
%TO.P,J6,1,Pin_1*%
%TO.N,+3V3*%
X50088800Y28651200D03*
D17*
%TO.P,J6,2,Pin_2*%
%TO.N,GND*%
X52628800Y28651200D03*
%TD*%
D16*
%TO.P,J7,1,Pin_1*%
%TO.N,+5V*%
X46939200Y5588000D03*
D17*
%TO.P,J7,2,Pin_2*%
%TO.N,GND*%
X46939200Y3048000D03*
%TD*%
D10*
%TO.P,H3,1,1*%
%TO.N,GND*%
X67184000Y45720000D03*
X67667274Y46886726D03*
X67667274Y44553274D03*
X68834000Y47370000D03*
D11*
X68834000Y45720000D03*
D10*
X68834000Y44070000D03*
X70000726Y46886726D03*
X70000726Y44553274D03*
X70484000Y45720000D03*
%TD*%
D18*
%TO.P,J1,S1,SHIELD*%
%TO.N,GND*%
X23092200Y6737200D03*
D19*
X23092200Y2557200D03*
D18*
X31732200Y6737200D03*
D19*
X31732200Y2557200D03*
%TD*%
D20*
%TO.N,GND*%
X39065200Y39065200D03*
X49225200Y9855200D03*
X32105600Y27427300D03*
X15370800Y10892800D03*
X35255200Y30175200D03*
X28448000Y35864800D03*
X9855200Y45415200D03*
X14935200Y30175200D03*
X22047200Y20421600D03*
X3505200Y36525200D03*
X44145200Y30175200D03*
X52578000Y12954000D03*
X57197879Y9908921D03*
X39065200Y36525200D03*
X66192400Y10312400D03*
X53035200Y41605200D03*
X14935200Y42875200D03*
X36525200Y3505200D03*
X68275200Y14935200D03*
X11531600Y5130800D03*
X20472400Y42570400D03*
X39065200Y41605200D03*
X43434000Y39065200D03*
X3505200Y8585200D03*
X29565600Y18389600D03*
X61925200Y42875200D03*
X26314400Y16967200D03*
X53492400Y17272000D03*
X3505200Y18745200D03*
X35610800Y10312400D03*
X58420000Y5080000D03*
X20015200Y13665200D03*
X57505600Y12801600D03*
X36423600Y37592000D03*
X20015200Y11125200D03*
X20015200Y6045200D03*
X17678400Y46228000D03*
X59182000Y39420800D03*
X11226800Y14681200D03*
X68219056Y22585333D03*
X26314400Y18440400D03*
X56845200Y23825200D03*
X56845200Y26365200D03*
X56845200Y21285200D03*
X15941000Y42275800D03*
X8458200Y28981400D03*
X3505200Y28905200D03*
X39598600Y15113000D03*
X9855200Y30175200D03*
X68275200Y12395200D03*
X59182000Y35610800D03*
X18745200Y26365200D03*
X3505200Y23825200D03*
X68275200Y20015200D03*
X53035200Y23825200D03*
X59436000Y8534400D03*
X21285200Y42926000D03*
X36525200Y14935200D03*
X26060400Y20116800D03*
X20015200Y8585200D03*
X44145200Y3505200D03*
X49225200Y14935200D03*
X29616400Y14071600D03*
X26314400Y15392400D03*
X3505200Y16205200D03*
X41148000Y19100800D03*
X49225200Y21285200D03*
X53594000Y5029200D03*
X68275200Y32715200D03*
X3505200Y21285200D03*
X68275200Y9855200D03*
X36474400Y38303200D03*
X49377600Y41198800D03*
X28905200Y42875200D03*
X43434000Y43738800D03*
X26314400Y13817600D03*
X9855200Y42875200D03*
X36525200Y12395200D03*
X26314400Y10007600D03*
X21894800Y11988800D03*
X29565600Y12598400D03*
X9855200Y32715200D03*
X11531600Y9296400D03*
X28905200Y11887200D03*
X29616400Y15443200D03*
X61925200Y45415200D03*
X36525200Y9855200D03*
X40335200Y30175200D03*
X3505200Y41605200D03*
X63195200Y4775200D03*
X29616400Y16967200D03*
X32004000Y35306000D03*
X20624800Y43434000D03*
X17424400Y37338000D03*
X44348400Y26670000D03*
X3505200Y11125200D03*
X3505200Y13665200D03*
X3505200Y33985200D03*
X26314400Y12192000D03*
X28905200Y45415200D03*
X14935200Y45415200D03*
X68275200Y27635200D03*
X61417200Y9597200D03*
X20015200Y16205200D03*
X65227200Y13284200D03*
X68275200Y25095200D03*
X3505200Y31445200D03*
X30429200Y12596500D03*
X36372800Y36830000D03*
X3505200Y26365200D03*
X49225200Y12395200D03*
X36525200Y26365200D03*
X56845200Y28905200D03*
X32156400Y21234400D03*
X20015200Y3505200D03*
X49225200Y40233600D03*
X36525200Y23825200D03*
X43586400Y17576800D03*
X68275200Y17475200D03*
X14935200Y32715200D03*
X14833600Y23215600D03*
X68275200Y30175200D03*
X36525200Y17475200D03*
X56845200Y41605200D03*
X59182000Y38150800D03*
X63322200Y13284200D03*
%TO.N,+3V3*%
X16002000Y27330400D03*
X19050000Y40233600D03*
X32156400Y26212800D03*
X14071600Y9245600D03*
X12268200Y19024600D03*
X19559900Y34899600D03*
X19507200Y30226000D03*
X20980400Y22956900D03*
X13970000Y4876800D03*
X24079200Y40030400D03*
X59182000Y40690800D03*
X44348400Y25298400D03*
X3657600Y38100000D03*
X20472400Y38557200D03*
X30327600Y35915600D03*
X11226800Y12192000D03*
X5283200Y22606000D03*
X46634400Y43230800D03*
%TO.N,/nRESET*%
X8280400Y16306800D03*
X27736800Y25958800D03*
X31826200Y30226000D03*
X27584400Y29514800D03*
%TO.N,+5V*%
X46939200Y38201600D03*
X29159200Y6146800D03*
X25603200Y6146800D03*
X52019200Y20828000D03*
X56845200Y13563600D03*
X46431200Y32766000D03*
%TO.N,/nCHG*%
X61722000Y7569200D03*
X36982400Y20726400D03*
%TO.N,Net-(J1-CC2)*%
X31648400Y9702800D03*
X29159200Y8280400D03*
%TO.N,/MCU_LED*%
X42570400Y11582400D03*
X28702000Y23825200D03*
%TO.N,/I2C_SDA*%
X28794200Y28846969D03*
X23545800Y31877000D03*
%TO.N,/BOOT*%
X17170400Y13563600D03*
X28600400Y25908000D03*
%TO.N,/I2C_SCL*%
X22504400Y33985200D03*
X27533600Y30581600D03*
%TO.N,/RGB_B*%
X30022800Y38912800D03*
X11734800Y39370000D03*
%TO.N,/RGB_G*%
X12192000Y36474400D03*
X29413200Y38303200D03*
%TO.N,/RGB_R*%
X29006800Y37338000D03*
X7823200Y33629600D03*
%TO.N,/SPI1_MISO*%
X24180800Y18999200D03*
X19100800Y21386800D03*
X21793200Y18897600D03*
X11023600Y26162000D03*
%TO.N,/IO_INT*%
X33274000Y42824400D03*
X26255691Y22648891D03*
%TO.N,/MTR_nSLEEP*%
X31292800Y44602400D03*
X33731200Y44602400D03*
%TO.N,/SWCLK*%
X62890400Y39370000D03*
X33197800Y20015200D03*
%TO.N,/SWDIO*%
X31242000Y19304000D03*
X62941200Y40690800D03*
%TD*%
D21*
%TO.N,/nRESET*%
X28295600Y30226000D02*
X27584400Y29514800D01*
X22555200Y21844000D02*
X20828000Y21844000D01*
X31826200Y30226000D02*
X28295600Y30226000D01*
X15290800Y16306800D02*
X8280400Y16306800D01*
X27736800Y25958800D02*
X26670000Y25958800D01*
X26670000Y25958800D02*
X22555200Y21844000D01*
X20828000Y21844000D02*
X15290800Y16306800D01*
%TO.N,+5V*%
X56235600Y14173200D02*
X56845200Y13563600D01*
X46990000Y38150800D02*
X46990000Y33324800D01*
X46939200Y38201600D02*
X46990000Y38150800D01*
X52019200Y20828000D02*
X52019200Y15900400D01*
X52019200Y15900400D02*
X53746400Y14173200D01*
X53746400Y14173200D02*
X56235600Y14173200D01*
X46990000Y33324800D02*
X46431200Y32766000D01*
D22*
X25603200Y6146800D02*
X29159200Y6146800D01*
D21*
%TO.N,/nCHG*%
X36982400Y20726400D02*
X50139600Y7569200D01*
X50139600Y7569200D02*
X61722000Y7569200D01*
%TO.N,Net-(J1-CC2)*%
X29159200Y8280400D02*
X30581600Y9702800D01*
X30581600Y9702800D02*
X31648400Y9702800D01*
%TO.N,/MCU_LED*%
X28702000Y23825200D02*
X28702000Y21064768D01*
X38184368Y11582400D02*
X42570400Y11582400D01*
X28702000Y21064768D02*
X38184368Y11582400D01*
%TO.N,/I2C_SDA*%
X24384000Y31648400D02*
X27178000Y28854400D01*
X28770870Y28846969D02*
X28794200Y28846969D01*
X28763439Y28854400D02*
X28770870Y28846969D01*
X23545800Y31877000D02*
X23774400Y31648400D01*
X27178000Y28854400D02*
X28763439Y28854400D01*
X23774400Y31648400D02*
X24384000Y31648400D01*
%TO.N,/BOOT*%
X22402800Y19710400D02*
X19761200Y19710400D01*
X28600400Y25908000D02*
X28600400Y25857200D01*
X28600400Y25908000D02*
X22402800Y19710400D01*
X17170400Y17119600D02*
X17170400Y13563600D01*
X19761200Y19710400D02*
X17170400Y17119600D01*
%TO.N,/I2C_SCL*%
X24130000Y33985200D02*
X27533600Y30581600D01*
X22504400Y33985200D02*
X24130000Y33985200D01*
%TO.N,/RGB_B*%
X11734800Y39370000D02*
X29565600Y39370000D01*
X29565600Y39370000D02*
X30022800Y38912800D01*
%TO.N,/RGB_G*%
X24587200Y36474400D02*
X26365200Y38252400D01*
X29362400Y38252400D02*
X29413200Y38303200D01*
X26365200Y38252400D02*
X29362400Y38252400D01*
X12192000Y36474400D02*
X24587200Y36474400D01*
%TO.N,/RGB_R*%
X25247600Y35763200D02*
X26822400Y37338000D01*
X8534400Y34340800D02*
X11633200Y34340800D01*
X26822400Y37338000D02*
X29006800Y37338000D01*
X7823200Y33629600D02*
X8534400Y34340800D01*
X11633200Y34340800D02*
X13055600Y35763200D01*
X13055600Y35763200D02*
X25247600Y35763200D01*
%TO.N,/SPI1_MISO*%
X24079200Y18897600D02*
X24180800Y18999200D01*
X19100800Y22809200D02*
X19100800Y21386800D01*
X11023600Y26162000D02*
X13258800Y23926800D01*
X13258800Y23926800D02*
X17983200Y23926800D01*
X21793200Y18897600D02*
X24079200Y18897600D01*
X17983200Y23926800D02*
X19100800Y22809200D01*
%TO.N,/IO_INT*%
X32969200Y25349200D02*
X32969200Y42519600D01*
X26255691Y22648891D02*
X26263600Y22656800D01*
X26568400Y22656800D02*
X28702000Y24790400D01*
X32410400Y24790400D02*
X32969200Y25349200D01*
X32969200Y42519600D02*
X33274000Y42824400D01*
X26263600Y22656800D02*
X26568400Y22656800D01*
X28702000Y24790400D02*
X32410400Y24790400D01*
%TO.N,/MTR_nSLEEP*%
X33731200Y44602400D02*
X31292800Y44602400D01*
%TO.N,/SWCLK*%
X62890400Y34086800D02*
X62890400Y39370000D01*
X39370000Y31292800D02*
X60096400Y31292800D01*
X60096400Y31292800D02*
X62890400Y34086800D01*
X33197800Y20015200D02*
X35382200Y22199600D01*
X35382200Y27305000D02*
X39370000Y31292800D01*
X35382200Y22199600D02*
X35382200Y27305000D01*
%TO.N,/SWDIO*%
X38963600Y31902400D02*
X59486800Y31902400D01*
X34747200Y27686000D02*
X38963600Y31902400D01*
X60960000Y33375600D02*
X60960000Y38709600D01*
X34747200Y22809200D02*
X34747200Y27686000D01*
X60960000Y38709600D02*
X62941200Y40690800D01*
X59486800Y31902400D02*
X60960000Y33375600D01*
X31242000Y19304000D02*
X34747200Y22809200D01*
%TD*%
%TA.AperFunction,Conductor*%
%TO.N,GND*%
G36*
X22924441Y21262900D02*
G01*
X22960094Y21202811D01*
X22957601Y21132986D01*
X22927627Y21084463D01*
X22190384Y20347219D01*
X22129061Y20313734D01*
X22102703Y20310900D01*
X20443497Y20310900D01*
X20376458Y20330585D01*
X20330703Y20383389D01*
X20320759Y20452547D01*
X20349784Y20516103D01*
X20355816Y20522581D01*
X21040416Y21207181D01*
X21101739Y21240666D01*
X21128097Y21243500D01*
X22468531Y21243500D01*
X22468547Y21243499D01*
X22476143Y21243499D01*
X22634254Y21243499D01*
X22634257Y21243499D01*
X22786985Y21284423D01*
X22786987Y21284425D01*
X22786989Y21284425D01*
X22792492Y21286704D01*
X22861961Y21294174D01*
X22924441Y21262900D01*
G37*
%TD.AperFunction*%
%TA.AperFunction,Conductor*%
G36*
X69241336Y48521274D02*
G01*
X69531396Y48503729D01*
X69546259Y48501924D01*
X69828398Y48450220D01*
X69842935Y48446637D01*
X70116772Y48361305D01*
X70130763Y48356000D01*
X70392343Y48238273D01*
X70405589Y48231320D01*
X70651065Y48082925D01*
X70663376Y48074427D01*
X70889173Y47897527D01*
X70900381Y47887597D01*
X71103196Y47684782D01*
X71113126Y47673574D01*
X71233081Y47520462D01*
X71290022Y47447783D01*
X71298528Y47435460D01*
X71446916Y47189996D01*
X71453875Y47176737D01*
X71571597Y46915169D01*
X71576906Y46901168D01*
X71662235Y46627337D01*
X71665819Y46612799D01*
X71717523Y46330660D01*
X71719328Y46315795D01*
X71736874Y46025737D01*
X71737100Y46018250D01*
X71737100Y3003751D01*
X71736874Y2996264D01*
X71719328Y2706206D01*
X71717523Y2691341D01*
X71665819Y2409202D01*
X71662235Y2394664D01*
X71576906Y2120833D01*
X71571597Y2106832D01*
X71453875Y1845264D01*
X71446916Y1832005D01*
X71298528Y1586541D01*
X71290022Y1574218D01*
X71113126Y1348427D01*
X71103196Y1337219D01*
X70900381Y1134404D01*
X70889173Y1124474D01*
X70663382Y947578D01*
X70651059Y939072D01*
X70405595Y790684D01*
X70392336Y783725D01*
X70130768Y666003D01*
X70116767Y660694D01*
X69842936Y575365D01*
X69828398Y571781D01*
X69546259Y520077D01*
X69531394Y518272D01*
X69241336Y500726D01*
X69233849Y500500D01*
X2952951Y500500D01*
X2945464Y500726D01*
X2655405Y518272D01*
X2640540Y520077D01*
X2358401Y571781D01*
X2343863Y575365D01*
X2070032Y660694D01*
X2056031Y666003D01*
X1794463Y783725D01*
X1781204Y790684D01*
X1535740Y939072D01*
X1523417Y947578D01*
X1297626Y1124474D01*
X1286418Y1134404D01*
X1083603Y1337219D01*
X1073673Y1348427D01*
X896773Y1574224D01*
X888275Y1586535D01*
X739880Y1832011D01*
X732927Y1845257D01*
X615200Y2106837D01*
X609893Y2120833D01*
X524564Y2394664D01*
X520980Y2409202D01*
X469276Y2691341D01*
X467471Y2706206D01*
X449926Y2996264D01*
X449700Y3003751D01*
X449700Y4955647D01*
X13169500Y4955647D01*
X13169500Y4797954D01*
X13200261Y4643311D01*
X13200264Y4643299D01*
X13260602Y4497628D01*
X13260609Y4497615D01*
X13348210Y4366512D01*
X13348213Y4366508D01*
X13459707Y4255014D01*
X13459711Y4255011D01*
X13590814Y4167410D01*
X13590827Y4167403D01*
X13736498Y4107065D01*
X13736503Y4107063D01*
X13891153Y4076301D01*
X13891156Y4076300D01*
X13891158Y4076300D01*
X14048844Y4076300D01*
X14048845Y4076301D01*
X14203497Y4107063D01*
X14349179Y4167406D01*
X14480289Y4255011D01*
X14591789Y4366511D01*
X14679394Y4497621D01*
X14739737Y4643303D01*
X14770500Y4797958D01*
X14770500Y4955642D01*
X14770500Y4955645D01*
X14770499Y4955647D01*
X14739738Y5110290D01*
X14739737Y5110297D01*
X14739735Y5110302D01*
X14679397Y5255973D01*
X14679390Y5255986D01*
X14591789Y5387089D01*
X14591786Y5387093D01*
X14480292Y5498587D01*
X14480288Y5498590D01*
X14349185Y5586191D01*
X14349172Y5586198D01*
X14203501Y5646536D01*
X14203489Y5646539D01*
X14048845Y5677300D01*
X14048842Y5677300D01*
X13891158Y5677300D01*
X13891155Y5677300D01*
X13736510Y5646539D01*
X13736498Y5646536D01*
X13590827Y5586198D01*
X13590814Y5586191D01*
X13459711Y5498590D01*
X13459707Y5498587D01*
X13348213Y5387093D01*
X13348210Y5387089D01*
X13260609Y5255986D01*
X13260602Y5255973D01*
X13200264Y5110302D01*
X13200261Y5110290D01*
X13169500Y4955647D01*
X449700Y4955647D01*
X449700Y6305067D01*
X24006700Y6305067D01*
X24006700Y6169333D01*
X24041831Y6038225D01*
X24041832Y6038222D01*
X24109695Y5920680D01*
X24109697Y5920678D01*
X24109698Y5920676D01*
X24205676Y5824698D01*
X24205677Y5824697D01*
X24205679Y5824696D01*
X24323221Y5756833D01*
X24323222Y5756833D01*
X24323225Y5756831D01*
X24454333Y5721700D01*
X24454335Y5721700D01*
X24590065Y5721700D01*
X24590067Y5721700D01*
X24721175Y5756831D01*
X24750370Y5773688D01*
X24818270Y5790161D01*
X24884298Y5767309D01*
X24915474Y5735192D01*
X24981410Y5636512D01*
X24981413Y5636508D01*
X25092907Y5525014D01*
X25092911Y5525011D01*
X25224014Y5437410D01*
X25224027Y5437403D01*
X25345488Y5387093D01*
X25369703Y5377063D01*
X25524353Y5346301D01*
X25524356Y5346300D01*
X25524358Y5346300D01*
X25682044Y5346300D01*
X25682045Y5346301D01*
X25836697Y5377063D01*
X25912163Y5408322D01*
X25981064Y5436861D01*
X26028516Y5446300D01*
X28733884Y5446300D01*
X28781336Y5436861D01*
X28901488Y5387093D01*
X28925703Y5377063D01*
X29080353Y5346301D01*
X29080356Y5346300D01*
X29080358Y5346300D01*
X29238044Y5346300D01*
X29238045Y5346301D01*
X29392697Y5377063D01*
X29538379Y5437406D01*
X29669489Y5525011D01*
X29780989Y5636511D01*
X29846926Y5735192D01*
X29864185Y5761022D01*
X29917797Y5805828D01*
X29987122Y5814535D01*
X30029287Y5799519D01*
X30103221Y5756833D01*
X30103222Y5756833D01*
X30103225Y5756831D01*
X30234333Y5721700D01*
X30234335Y5721700D01*
X30370065Y5721700D01*
X30370067Y5721700D01*
X30501175Y5756831D01*
X30618724Y5824698D01*
X30714702Y5920676D01*
X30782569Y6038225D01*
X30817700Y6169333D01*
X30817700Y6305067D01*
X30782569Y6436175D01*
X30753880Y6485865D01*
X45588700Y6485865D01*
X45588700Y4690130D01*
X45588701Y4690124D01*
X45595108Y4630517D01*
X45645402Y4495672D01*
X45645406Y4495665D01*
X45731652Y4380456D01*
X45731655Y4380453D01*
X45846864Y4294207D01*
X45846871Y4294203D01*
X45981717Y4243909D01*
X45981716Y4243909D01*
X45988644Y4243165D01*
X46041327Y4237500D01*
X47837072Y4237501D01*
X47896683Y4243909D01*
X48031531Y4294204D01*
X48146746Y4380454D01*
X48232996Y4495669D01*
X48283291Y4630517D01*
X48289700Y4690127D01*
X48289699Y6485872D01*
X48283291Y6545483D01*
X48280218Y6553721D01*
X48232997Y6680329D01*
X48232993Y6680336D01*
X48146747Y6795545D01*
X48146744Y6795548D01*
X48031535Y6881794D01*
X48031528Y6881798D01*
X47896682Y6932092D01*
X47896683Y6932092D01*
X47837083Y6938499D01*
X47837081Y6938500D01*
X47837073Y6938500D01*
X47837064Y6938500D01*
X46041329Y6938500D01*
X46041323Y6938499D01*
X45981716Y6932092D01*
X45846871Y6881798D01*
X45846864Y6881794D01*
X45731655Y6795548D01*
X45731652Y6795545D01*
X45645406Y6680336D01*
X45645402Y6680329D01*
X45595108Y6545483D01*
X45588701Y6485884D01*
X45588701Y6485877D01*
X45588700Y6485865D01*
X30753880Y6485865D01*
X30714704Y6553721D01*
X30714699Y6553727D01*
X30618726Y6649700D01*
X30618720Y6649705D01*
X30501178Y6717568D01*
X30501179Y6717568D01*
X30485684Y6721720D01*
X30370067Y6752700D01*
X30234333Y6752700D01*
X30118715Y6721720D01*
X30103221Y6717568D01*
X29985679Y6649705D01*
X29985674Y6649701D01*
X29972769Y6636796D01*
X29911444Y6603314D01*
X29841752Y6608303D01*
X29785821Y6650177D01*
X29781988Y6655594D01*
X29780988Y6657091D01*
X29669492Y6768587D01*
X29669488Y6768590D01*
X29538385Y6856191D01*
X29538372Y6856198D01*
X29392701Y6916536D01*
X29392689Y6916539D01*
X29238045Y6947300D01*
X29238042Y6947300D01*
X29080358Y6947300D01*
X29080355Y6947300D01*
X28925710Y6916539D01*
X28925698Y6916536D01*
X28781336Y6856739D01*
X28733884Y6847300D01*
X26028516Y6847300D01*
X25981064Y6856739D01*
X25836701Y6916536D01*
X25836689Y6916539D01*
X25682045Y6947300D01*
X25682042Y6947300D01*
X25524358Y6947300D01*
X25524355Y6947300D01*
X25369710Y6916539D01*
X25369698Y6916536D01*
X25224027Y6856198D01*
X25224014Y6856191D01*
X25092911Y6768590D01*
X24991780Y6667459D01*
X24930457Y6633975D01*
X24860765Y6638959D01*
X24842099Y6647754D01*
X24721178Y6717568D01*
X24721179Y6717568D01*
X24705684Y6721720D01*
X24590067Y6752700D01*
X24454333Y6752700D01*
X24338715Y6721720D01*
X24323221Y6717568D01*
X24205679Y6649705D01*
X24205673Y6649700D01*
X24109700Y6553727D01*
X24109695Y6553721D01*
X24041832Y6436179D01*
X24041831Y6436175D01*
X24006700Y6305067D01*
X449700Y6305067D01*
X449700Y8359247D01*
X28358700Y8359247D01*
X28358700Y8201554D01*
X28389461Y8046911D01*
X28389464Y8046899D01*
X28449802Y7901228D01*
X28449809Y7901215D01*
X28537410Y7770112D01*
X28537413Y7770108D01*
X28648907Y7658614D01*
X28648911Y7658611D01*
X28780014Y7571010D01*
X28780027Y7571003D01*
X28925698Y7510665D01*
X28925703Y7510663D01*
X29027803Y7490354D01*
X29080353Y7479901D01*
X29080356Y7479900D01*
X29080358Y7479900D01*
X29238044Y7479900D01*
X29238045Y7479901D01*
X29392697Y7510663D01*
X29538379Y7571006D01*
X29669489Y7658611D01*
X29780989Y7770111D01*
X29868594Y7901221D01*
X29928937Y8046903D01*
X29957520Y8190598D01*
X29959838Y8202250D01*
X29992223Y8264161D01*
X29993718Y8265684D01*
X30794016Y9065981D01*
X30820943Y9080685D01*
X30846762Y9097277D01*
X30852962Y9098169D01*
X30855339Y9099466D01*
X30881697Y9102300D01*
X31068634Y9102300D01*
X31135673Y9082615D01*
X31137525Y9081402D01*
X31269214Y8993410D01*
X31269227Y8993403D01*
X31414898Y8933065D01*
X31414903Y8933063D01*
X31569553Y8902301D01*
X31569556Y8902300D01*
X31569558Y8902300D01*
X31727244Y8902300D01*
X31727245Y8902301D01*
X31881897Y8933063D01*
X32018859Y8989794D01*
X32027572Y8993403D01*
X32027572Y8993404D01*
X32027579Y8993406D01*
X32158689Y9081011D01*
X32270189Y9192511D01*
X32357794Y9323621D01*
X32418137Y9469303D01*
X32448900Y9623958D01*
X32448900Y9781642D01*
X32448900Y9781645D01*
X32448899Y9781647D01*
X32431844Y9867389D01*
X32418137Y9936297D01*
X32410391Y9954998D01*
X32357797Y10081973D01*
X32357790Y10081986D01*
X32270189Y10213089D01*
X32270186Y10213093D01*
X32158692Y10324587D01*
X32158688Y10324590D01*
X32027585Y10412191D01*
X32027572Y10412198D01*
X31881901Y10472536D01*
X31881889Y10472539D01*
X31727245Y10503300D01*
X31727242Y10503300D01*
X31569558Y10503300D01*
X31569555Y10503300D01*
X31414910Y10472539D01*
X31414898Y10472536D01*
X31269227Y10412198D01*
X31269214Y10412191D01*
X31137525Y10324198D01*
X31070847Y10303320D01*
X31068634Y10303300D01*
X30502540Y10303300D01*
X30461619Y10292336D01*
X30461619Y10292335D01*
X30424351Y10282349D01*
X30349814Y10262377D01*
X30349809Y10262374D01*
X30212890Y10183325D01*
X30212882Y10183319D01*
X29144539Y9114975D01*
X29083216Y9081490D01*
X29081050Y9081039D01*
X28925708Y9050139D01*
X28925698Y9050136D01*
X28780027Y8989798D01*
X28780014Y8989791D01*
X28648911Y8902190D01*
X28648907Y8902187D01*
X28537413Y8790693D01*
X28537410Y8790689D01*
X28449809Y8659586D01*
X28449802Y8659573D01*
X28389464Y8513902D01*
X28389461Y8513890D01*
X28358700Y8359247D01*
X449700Y8359247D01*
X449700Y9324447D01*
X13271100Y9324447D01*
X13271100Y9166754D01*
X13301861Y9012111D01*
X13301864Y9012099D01*
X13362202Y8866428D01*
X13362209Y8866415D01*
X13449810Y8735312D01*
X13449813Y8735308D01*
X13561307Y8623814D01*
X13561311Y8623811D01*
X13692414Y8536210D01*
X13692427Y8536203D01*
X13828369Y8479895D01*
X13838103Y8475863D01*
X13992753Y8445101D01*
X13992756Y8445100D01*
X13992758Y8445100D01*
X14150444Y8445100D01*
X14150445Y8445101D01*
X14305097Y8475863D01*
X14310001Y8477895D01*
X14314832Y8479895D01*
X14450772Y8536203D01*
X14450772Y8536204D01*
X14450779Y8536206D01*
X14581889Y8623811D01*
X14693389Y8735311D01*
X14780994Y8866421D01*
X14841337Y9012103D01*
X14872100Y9166758D01*
X14872100Y9324442D01*
X14872100Y9324445D01*
X14872099Y9324447D01*
X14843285Y9469303D01*
X14841337Y9479097D01*
X14781335Y9623956D01*
X14780997Y9624773D01*
X14780990Y9624786D01*
X14693389Y9755889D01*
X14693386Y9755893D01*
X14581892Y9867387D01*
X14581888Y9867390D01*
X14450785Y9954991D01*
X14450772Y9954998D01*
X14305101Y10015336D01*
X14305089Y10015339D01*
X14150445Y10046100D01*
X14150442Y10046100D01*
X13992758Y10046100D01*
X13992755Y10046100D01*
X13838110Y10015339D01*
X13838098Y10015336D01*
X13692427Y9954998D01*
X13692414Y9954991D01*
X13561311Y9867390D01*
X13561307Y9867387D01*
X13449813Y9755893D01*
X13449810Y9755889D01*
X13362209Y9624786D01*
X13362202Y9624773D01*
X13301864Y9479102D01*
X13301861Y9479090D01*
X13271100Y9324447D01*
X449700Y9324447D01*
X449700Y12270847D01*
X10426300Y12270847D01*
X10426300Y12113154D01*
X10457061Y11958511D01*
X10457064Y11958499D01*
X10517402Y11812828D01*
X10517409Y11812815D01*
X10605010Y11681712D01*
X10605013Y11681708D01*
X10716507Y11570214D01*
X10716511Y11570211D01*
X10847614Y11482610D01*
X10847627Y11482603D01*
X10993298Y11422265D01*
X10993303Y11422263D01*
X11147953Y11391501D01*
X11147956Y11391500D01*
X11147958Y11391500D01*
X11305644Y11391500D01*
X11305645Y11391501D01*
X11460297Y11422263D01*
X11605979Y11482606D01*
X11737089Y11570211D01*
X11848589Y11681711D01*
X11936194Y11812821D01*
X11996537Y11958503D01*
X12027300Y12113158D01*
X12027300Y12270842D01*
X12027300Y12270845D01*
X12027299Y12270847D01*
X12023132Y12291798D01*
X11996537Y12425497D01*
X11996535Y12425502D01*
X11936197Y12571173D01*
X11936190Y12571186D01*
X11848589Y12702289D01*
X11848586Y12702293D01*
X11737092Y12813787D01*
X11737088Y12813790D01*
X11605985Y12901391D01*
X11605972Y12901398D01*
X11460301Y12961736D01*
X11460289Y12961739D01*
X11305645Y12992500D01*
X11305642Y12992500D01*
X11147958Y12992500D01*
X11147955Y12992500D01*
X10993310Y12961739D01*
X10993298Y12961736D01*
X10847627Y12901398D01*
X10847614Y12901391D01*
X10716511Y12813790D01*
X10716507Y12813787D01*
X10605013Y12702293D01*
X10605010Y12702289D01*
X10517409Y12571186D01*
X10517402Y12571173D01*
X10457064Y12425502D01*
X10457061Y12425490D01*
X10426300Y12270847D01*
X449700Y12270847D01*
X449700Y16385647D01*
X7479900Y16385647D01*
X7479900Y16227954D01*
X7510661Y16073311D01*
X7510664Y16073299D01*
X7571002Y15927628D01*
X7571009Y15927615D01*
X7658610Y15796512D01*
X7658613Y15796508D01*
X7770107Y15685014D01*
X7770111Y15685011D01*
X7901214Y15597410D01*
X7901227Y15597403D01*
X8046898Y15537065D01*
X8046903Y15537063D01*
X8201553Y15506301D01*
X8201556Y15506300D01*
X8201558Y15506300D01*
X8359244Y15506300D01*
X8359245Y15506301D01*
X8513897Y15537063D01*
X8659579Y15597406D01*
X8659585Y15597410D01*
X8791275Y15685402D01*
X8857953Y15706280D01*
X8860166Y15706300D01*
X15204131Y15706300D01*
X15204147Y15706299D01*
X15211743Y15706299D01*
X15369854Y15706299D01*
X15369857Y15706299D01*
X15522585Y15747223D01*
X15572704Y15776161D01*
X15659516Y15826280D01*
X15771320Y15938084D01*
X15771320Y15938086D01*
X15781528Y15948293D01*
X15781529Y15948296D01*
X16358220Y16524986D01*
X16419542Y16558470D01*
X16489234Y16553486D01*
X16545167Y16511614D01*
X16569584Y16446150D01*
X16569900Y16437304D01*
X16569900Y14143366D01*
X16550215Y14076327D01*
X16549002Y14074475D01*
X16461009Y13942786D01*
X16461002Y13942773D01*
X16400664Y13797102D01*
X16400661Y13797090D01*
X16369900Y13642447D01*
X16369900Y13484754D01*
X16400661Y13330111D01*
X16400664Y13330099D01*
X16461002Y13184428D01*
X16461009Y13184415D01*
X16548610Y13053312D01*
X16548613Y13053308D01*
X16660107Y12941814D01*
X16660111Y12941811D01*
X16791214Y12854210D01*
X16791227Y12854203D01*
X16936898Y12793865D01*
X16936903Y12793863D01*
X17091553Y12763101D01*
X17091556Y12763100D01*
X17091558Y12763100D01*
X17249244Y12763100D01*
X17249245Y12763101D01*
X17403897Y12793863D01*
X17549579Y12854206D01*
X17680689Y12941811D01*
X17792189Y13053311D01*
X17879794Y13184421D01*
X17940137Y13330103D01*
X17970900Y13484758D01*
X17970900Y13642442D01*
X17970900Y13642445D01*
X17970899Y13642447D01*
X17960907Y13692680D01*
X17940137Y13797097D01*
X17940135Y13797102D01*
X17879797Y13942773D01*
X17879790Y13942786D01*
X17791798Y14074475D01*
X17770920Y14141153D01*
X17770900Y14143366D01*
X17770900Y16819503D01*
X17790585Y16886542D01*
X17807219Y16907184D01*
X19973616Y19073581D01*
X20034939Y19107066D01*
X20061297Y19109900D01*
X20869031Y19109900D01*
X20936070Y19090215D01*
X20981825Y19037411D01*
X20990974Y18982534D01*
X20992700Y18982534D01*
X20992700Y18818754D01*
X21023461Y18664111D01*
X21023464Y18664099D01*
X21083802Y18518428D01*
X21083809Y18518415D01*
X21171410Y18387312D01*
X21171413Y18387308D01*
X21282907Y18275814D01*
X21282911Y18275811D01*
X21414014Y18188210D01*
X21414027Y18188203D01*
X21559698Y18127865D01*
X21559703Y18127863D01*
X21714353Y18097101D01*
X21714356Y18097100D01*
X21714358Y18097100D01*
X21872044Y18097100D01*
X21872045Y18097101D01*
X22026697Y18127863D01*
X22172379Y18188206D01*
X22234123Y18229462D01*
X22304075Y18276202D01*
X22370753Y18297080D01*
X22372966Y18297100D01*
X23759346Y18297100D01*
X23806798Y18287661D01*
X23947298Y18229465D01*
X23947303Y18229463D01*
X24101953Y18198701D01*
X24101956Y18198700D01*
X24101958Y18198700D01*
X24259644Y18198700D01*
X24259645Y18198701D01*
X24414297Y18229463D01*
X24527136Y18276202D01*
X24559972Y18289803D01*
X24559972Y18289804D01*
X24559979Y18289806D01*
X24691089Y18377411D01*
X24802589Y18488911D01*
X24890194Y18620021D01*
X24950537Y18765703D01*
X24981300Y18920358D01*
X24981300Y19078042D01*
X24981300Y19078045D01*
X24981299Y19078047D01*
X24954117Y19214700D01*
X24950537Y19232697D01*
X24938938Y19260700D01*
X24890197Y19378373D01*
X24890190Y19378386D01*
X24802589Y19509489D01*
X24802586Y19509493D01*
X24691092Y19620987D01*
X24691088Y19620990D01*
X24559985Y19708591D01*
X24559972Y19708598D01*
X24414301Y19768936D01*
X24414289Y19768939D01*
X24259645Y19799700D01*
X24259642Y19799700D01*
X24101958Y19799700D01*
X24101955Y19799700D01*
X23947310Y19768939D01*
X23947298Y19768936D01*
X23801627Y19708598D01*
X23801614Y19708591D01*
X23670511Y19620990D01*
X23670507Y19620987D01*
X23583940Y19534419D01*
X23557012Y19519716D01*
X23531194Y19503123D01*
X23524993Y19502232D01*
X23522617Y19500934D01*
X23496259Y19498100D01*
X23339097Y19498100D01*
X23272058Y19517785D01*
X23226303Y19570589D01*
X23216359Y19639747D01*
X23245384Y19703303D01*
X23251416Y19709781D01*
X23792084Y20250449D01*
X25569389Y22027756D01*
X25630710Y22061239D01*
X25700402Y22056255D01*
X25740366Y22030571D01*
X25740692Y22030967D01*
X25744094Y22028175D01*
X25744749Y22027754D01*
X25745398Y22027105D01*
X25745402Y22027102D01*
X25876505Y21939501D01*
X25876518Y21939494D01*
X25980068Y21896603D01*
X26022194Y21879154D01*
X26176844Y21848392D01*
X26176847Y21848391D01*
X26176849Y21848391D01*
X26334535Y21848391D01*
X26334536Y21848392D01*
X26489188Y21879154D01*
X26634870Y21939497D01*
X26765980Y22027102D01*
X26873636Y22134759D01*
X26879298Y22140074D01*
X26888585Y22148263D01*
X26937116Y22176280D01*
X27048920Y22288084D01*
X27048921Y22288087D01*
X27889819Y23128985D01*
X27951142Y23162470D01*
X28020834Y23157486D01*
X28076767Y23115614D01*
X28101184Y23050150D01*
X28101500Y23041304D01*
X28101500Y21151438D01*
X28101499Y21151420D01*
X28101499Y20985714D01*
X28101498Y20985714D01*
X28130759Y20876511D01*
X28142423Y20832983D01*
X28166969Y20790469D01*
X28190820Y20749158D01*
X28221479Y20696054D01*
X28221481Y20696051D01*
X28340349Y20577183D01*
X28340355Y20577178D01*
X37699507Y11218026D01*
X37699517Y11218015D01*
X37703847Y11213685D01*
X37703848Y11213684D01*
X37815652Y11101880D01*
X37815654Y11101879D01*
X37815658Y11101876D01*
X37952577Y11022827D01*
X37952584Y11022823D01*
X38064387Y10992866D01*
X38105310Y10981900D01*
X38105311Y10981900D01*
X41990634Y10981900D01*
X42057673Y10962215D01*
X42059525Y10961002D01*
X42191214Y10873010D01*
X42191227Y10873003D01*
X42336898Y10812665D01*
X42336903Y10812663D01*
X42491553Y10781901D01*
X42491556Y10781900D01*
X42491558Y10781900D01*
X42649244Y10781900D01*
X42649245Y10781901D01*
X42803897Y10812663D01*
X42949579Y10873006D01*
X43080689Y10960611D01*
X43192189Y11072111D01*
X43279794Y11203221D01*
X43340137Y11348903D01*
X43370900Y11503558D01*
X43370900Y11661242D01*
X43370900Y11661245D01*
X43370899Y11661247D01*
X43340750Y11812815D01*
X43340137Y11815897D01*
X43281070Y11958499D01*
X43279797Y11961573D01*
X43279790Y11961586D01*
X43192189Y12092689D01*
X43192186Y12092693D01*
X43080692Y12204187D01*
X43080688Y12204190D01*
X42949585Y12291791D01*
X42949572Y12291798D01*
X42803901Y12352136D01*
X42803889Y12352139D01*
X42649245Y12382900D01*
X42649242Y12382900D01*
X42491558Y12382900D01*
X42491555Y12382900D01*
X42336910Y12352139D01*
X42336898Y12352136D01*
X42191227Y12291798D01*
X42191214Y12291791D01*
X42059525Y12203798D01*
X41992847Y12182920D01*
X41990634Y12182900D01*
X38484465Y12182900D01*
X38417426Y12202585D01*
X38396784Y12219219D01*
X31919125Y18696878D01*
X31885640Y18758201D01*
X31890624Y18827893D01*
X31903699Y18853442D01*
X31951394Y18924821D01*
X31960066Y18945756D01*
X32011735Y19070499D01*
X32011737Y19070503D01*
X32042500Y19225158D01*
X32042638Y19225850D01*
X32075023Y19287761D01*
X32076523Y19289289D01*
X32355472Y19568239D01*
X32416793Y19601722D01*
X32486484Y19596738D01*
X32542418Y19554867D01*
X32546254Y19549446D01*
X32576012Y19504909D01*
X32687507Y19393414D01*
X32687511Y19393411D01*
X32818614Y19305810D01*
X32818627Y19305803D01*
X32964298Y19245465D01*
X32964303Y19245463D01*
X33118953Y19214701D01*
X33118956Y19214700D01*
X33118958Y19214700D01*
X33276644Y19214700D01*
X33276645Y19214701D01*
X33431297Y19245463D01*
X33576979Y19305806D01*
X33708089Y19393411D01*
X33819589Y19504911D01*
X33907194Y19636021D01*
X33967537Y19781703D01*
X33989442Y19891826D01*
X33998438Y19937050D01*
X34030823Y19998961D01*
X34032319Y20000485D01*
X34837081Y20805247D01*
X36181900Y20805247D01*
X36181900Y20647554D01*
X36212661Y20492911D01*
X36212664Y20492899D01*
X36273002Y20347228D01*
X36273007Y20347219D01*
X36360610Y20216112D01*
X36360613Y20216108D01*
X36472107Y20104614D01*
X36472111Y20104611D01*
X36603214Y20017010D01*
X36603227Y20017003D01*
X36732853Y19963311D01*
X36748903Y19956663D01*
X36808406Y19944827D01*
X36904249Y19925762D01*
X36966160Y19893377D01*
X36967738Y19891827D01*
X49770884Y7088680D01*
X49770886Y7088679D01*
X49770890Y7088676D01*
X49907809Y7009627D01*
X49907816Y7009623D01*
X50060543Y6968699D01*
X50060545Y6968699D01*
X50226254Y6968699D01*
X50226270Y6968700D01*
X61142234Y6968700D01*
X61209273Y6949015D01*
X61211125Y6947802D01*
X61342814Y6859810D01*
X61342827Y6859803D01*
X61488498Y6799465D01*
X61488503Y6799463D01*
X61643153Y6768701D01*
X61643156Y6768700D01*
X61643158Y6768700D01*
X61800844Y6768700D01*
X61800845Y6768701D01*
X61955497Y6799463D01*
X62092459Y6856194D01*
X62101172Y6859803D01*
X62101172Y6859804D01*
X62101179Y6859806D01*
X62232289Y6947411D01*
X62343789Y7058911D01*
X62431394Y7190021D01*
X62491737Y7335703D01*
X62522500Y7490358D01*
X62522500Y7648042D01*
X62522500Y7648045D01*
X62522499Y7648047D01*
X62498219Y7770108D01*
X62491737Y7802697D01*
X62450930Y7901215D01*
X62431397Y7948373D01*
X62431390Y7948386D01*
X62343789Y8079489D01*
X62343786Y8079493D01*
X62232292Y8190987D01*
X62232288Y8190990D01*
X62101185Y8278591D01*
X62101172Y8278598D01*
X61955501Y8338936D01*
X61955489Y8338939D01*
X61800845Y8369700D01*
X61800842Y8369700D01*
X61643158Y8369700D01*
X61643155Y8369700D01*
X61488510Y8338939D01*
X61488498Y8338936D01*
X61342827Y8278598D01*
X61342814Y8278591D01*
X61211125Y8190598D01*
X61144447Y8169720D01*
X61142234Y8169700D01*
X50439698Y8169700D01*
X50372659Y8189385D01*
X50352017Y8206019D01*
X37816973Y20741063D01*
X37807910Y20757661D01*
X37794778Y20771270D01*
X37784373Y20800765D01*
X37783488Y20802386D01*
X37783037Y20804553D01*
X37766291Y20888743D01*
X37762690Y20906847D01*
X51218700Y20906847D01*
X51218700Y20749154D01*
X51249461Y20594511D01*
X51249464Y20594499D01*
X51309802Y20448828D01*
X51309809Y20448815D01*
X51397802Y20317126D01*
X51418680Y20250449D01*
X51418700Y20248235D01*
X51418700Y15987070D01*
X51418699Y15987052D01*
X51418699Y15821346D01*
X51418698Y15821346D01*
X51459623Y15668615D01*
X51488558Y15618500D01*
X51488559Y15618496D01*
X51488560Y15618496D01*
X51535574Y15537063D01*
X51538679Y15531686D01*
X51538681Y15531683D01*
X51657549Y15412815D01*
X51657554Y15412811D01*
X53377684Y13692680D01*
X53377686Y13692679D01*
X53377690Y13692676D01*
X53514609Y13613627D01*
X53514616Y13613623D01*
X53667343Y13572699D01*
X53667345Y13572699D01*
X53833054Y13572699D01*
X53833070Y13572700D01*
X55925443Y13572700D01*
X55992482Y13553015D01*
X56038237Y13500211D01*
X56047060Y13472891D01*
X56075461Y13330111D01*
X56075464Y13330099D01*
X56135802Y13184428D01*
X56135809Y13184415D01*
X56223410Y13053312D01*
X56223413Y13053308D01*
X56334907Y12941814D01*
X56334911Y12941811D01*
X56466014Y12854210D01*
X56466027Y12854203D01*
X56611698Y12793865D01*
X56611703Y12793863D01*
X56766353Y12763101D01*
X56766356Y12763100D01*
X56766358Y12763100D01*
X56924044Y12763100D01*
X56924045Y12763101D01*
X57078697Y12793863D01*
X57224379Y12854206D01*
X57355489Y12941811D01*
X57466989Y13053311D01*
X57554594Y13184421D01*
X57614937Y13330103D01*
X57645700Y13484758D01*
X57645700Y13642442D01*
X57645700Y13642445D01*
X57645699Y13642447D01*
X57635707Y13692680D01*
X57614937Y13797097D01*
X57614935Y13797102D01*
X57554597Y13942773D01*
X57554590Y13942786D01*
X57466989Y14073889D01*
X57466986Y14073893D01*
X57355492Y14185387D01*
X57355488Y14185390D01*
X57224385Y14272991D01*
X57224372Y14272998D01*
X57078701Y14333336D01*
X57078691Y14333339D01*
X56923350Y14364239D01*
X56861439Y14396624D01*
X56859861Y14398175D01*
X56604317Y14653719D01*
X56604316Y14653720D01*
X56517504Y14703840D01*
X56517504Y14703841D01*
X56517500Y14703842D01*
X56467385Y14732777D01*
X56314657Y14773701D01*
X56156543Y14773701D01*
X56148947Y14773701D01*
X56148931Y14773700D01*
X54046498Y14773700D01*
X53979459Y14793385D01*
X53958817Y14810019D01*
X52656019Y16112817D01*
X52622534Y16174140D01*
X52619700Y16200498D01*
X52619700Y20248235D01*
X52639385Y20315274D01*
X52640598Y20317126D01*
X52728590Y20448815D01*
X52728590Y20448816D01*
X52728594Y20448821D01*
X52788937Y20594503D01*
X52819700Y20749158D01*
X52819700Y20906842D01*
X52819700Y20906845D01*
X52819699Y20906847D01*
X52819258Y20909065D01*
X61144700Y20909065D01*
X61144700Y19713330D01*
X61144701Y19713324D01*
X61151108Y19653717D01*
X61201402Y19518872D01*
X61201406Y19518865D01*
X61287652Y19403656D01*
X61287655Y19403653D01*
X61402864Y19317407D01*
X61402871Y19317403D01*
X61537717Y19267109D01*
X61537716Y19267109D01*
X61544644Y19266365D01*
X61597327Y19260700D01*
X62793072Y19260701D01*
X62852683Y19267109D01*
X62987531Y19317404D01*
X63102746Y19403654D01*
X63188996Y19518869D01*
X63239291Y19653717D01*
X63245700Y19713327D01*
X63245699Y20909072D01*
X63239291Y20968683D01*
X63224770Y21007615D01*
X63188997Y21103529D01*
X63188993Y21103536D01*
X63102747Y21218745D01*
X63102744Y21218748D01*
X62987535Y21304994D01*
X62987528Y21304998D01*
X62852682Y21355292D01*
X62852683Y21355292D01*
X62793083Y21361699D01*
X62793081Y21361700D01*
X62793073Y21361700D01*
X62793064Y21361700D01*
X61597329Y21361700D01*
X61597323Y21361699D01*
X61537716Y21355292D01*
X61402871Y21304998D01*
X61402864Y21304994D01*
X61287655Y21218748D01*
X61287652Y21218745D01*
X61201406Y21103536D01*
X61201402Y21103529D01*
X61151108Y20968683D01*
X61144701Y20909084D01*
X61144701Y20909077D01*
X61144700Y20909065D01*
X52819258Y20909065D01*
X52809148Y20959890D01*
X52788937Y21061497D01*
X52754836Y21143825D01*
X52728597Y21207173D01*
X52728590Y21207186D01*
X52640989Y21338289D01*
X52640986Y21338293D01*
X52529492Y21449787D01*
X52529488Y21449790D01*
X52398385Y21537391D01*
X52398372Y21537398D01*
X52252701Y21597736D01*
X52252689Y21597739D01*
X52098045Y21628500D01*
X52098042Y21628500D01*
X51940358Y21628500D01*
X51940355Y21628500D01*
X51785710Y21597739D01*
X51785698Y21597736D01*
X51640027Y21537398D01*
X51640014Y21537391D01*
X51508911Y21449790D01*
X51508907Y21449787D01*
X51397413Y21338293D01*
X51397410Y21338289D01*
X51309809Y21207186D01*
X51309802Y21207173D01*
X51249464Y21061502D01*
X51249461Y21061490D01*
X51218700Y20906847D01*
X37762690Y20906847D01*
X37752138Y20959890D01*
X37752137Y20959897D01*
X37732369Y21007621D01*
X37691797Y21105573D01*
X37691790Y21105586D01*
X37604189Y21236689D01*
X37604186Y21236693D01*
X37492692Y21348187D01*
X37492688Y21348190D01*
X37361585Y21435791D01*
X37361572Y21435798D01*
X37215901Y21496136D01*
X37215889Y21496139D01*
X37061245Y21526900D01*
X37061242Y21526900D01*
X36903558Y21526900D01*
X36903555Y21526900D01*
X36748910Y21496139D01*
X36748898Y21496136D01*
X36603227Y21435798D01*
X36603214Y21435791D01*
X36472111Y21348190D01*
X36472107Y21348187D01*
X36360613Y21236693D01*
X36360610Y21236689D01*
X36273009Y21105586D01*
X36273002Y21105573D01*
X36212664Y20959902D01*
X36212661Y20959890D01*
X36181900Y20805247D01*
X34837081Y20805247D01*
X35740706Y21708873D01*
X35740711Y21708876D01*
X35750914Y21719080D01*
X35750916Y21719080D01*
X35862720Y21830884D01*
X35925427Y21939497D01*
X35925430Y21939501D01*
X35930877Y21948937D01*
X35941777Y21967815D01*
X35982700Y22120543D01*
X35982700Y22278657D01*
X35982700Y25377247D01*
X43547900Y25377247D01*
X43547900Y25219554D01*
X43578661Y25064911D01*
X43578664Y25064899D01*
X43639002Y24919228D01*
X43639009Y24919215D01*
X43726610Y24788112D01*
X43726613Y24788108D01*
X43838107Y24676614D01*
X43838111Y24676611D01*
X43969214Y24589010D01*
X43969227Y24589003D01*
X44070669Y24546985D01*
X44114903Y24528663D01*
X44269553Y24497901D01*
X44269556Y24497900D01*
X44269558Y24497900D01*
X44427244Y24497900D01*
X44427245Y24497901D01*
X44581897Y24528663D01*
X44727579Y24589006D01*
X44858689Y24676611D01*
X44970189Y24788111D01*
X45057794Y24919221D01*
X45118137Y25064903D01*
X45148900Y25219558D01*
X45148900Y25377242D01*
X45148900Y25377245D01*
X45148899Y25377247D01*
X45141926Y25412300D01*
X45118137Y25531897D01*
X45105522Y25562353D01*
X45057797Y25677573D01*
X45057790Y25677586D01*
X44970189Y25808689D01*
X44970186Y25808693D01*
X44858692Y25920187D01*
X44858688Y25920190D01*
X44727585Y26007791D01*
X44727572Y26007798D01*
X44581901Y26068136D01*
X44581889Y26068139D01*
X44427245Y26098900D01*
X44427242Y26098900D01*
X44269558Y26098900D01*
X44269555Y26098900D01*
X44114910Y26068139D01*
X44114898Y26068136D01*
X43969227Y26007798D01*
X43969214Y26007791D01*
X43838111Y25920190D01*
X43838107Y25920187D01*
X43726613Y25808693D01*
X43726610Y25808689D01*
X43639009Y25677586D01*
X43639002Y25677573D01*
X43578664Y25531902D01*
X43578661Y25531890D01*
X43547900Y25377247D01*
X35982700Y25377247D01*
X35982700Y27004903D01*
X36002385Y27071942D01*
X36019019Y27092584D01*
X38475500Y29549065D01*
X48738300Y29549065D01*
X48738300Y27753330D01*
X48738301Y27753324D01*
X48744708Y27693717D01*
X48795002Y27558872D01*
X48795006Y27558865D01*
X48881252Y27443656D01*
X48881255Y27443653D01*
X48996464Y27357407D01*
X48996471Y27357403D01*
X49131317Y27307109D01*
X49131316Y27307109D01*
X49138244Y27306365D01*
X49190927Y27300700D01*
X50986672Y27300701D01*
X51046283Y27307109D01*
X51181131Y27357404D01*
X51296346Y27443654D01*
X51382596Y27558869D01*
X51432891Y27693717D01*
X51439300Y27753327D01*
X51439299Y29549065D01*
X59970100Y29549065D01*
X59970100Y27753330D01*
X59970101Y27753324D01*
X59976508Y27693717D01*
X60026802Y27558872D01*
X60026806Y27558865D01*
X60113052Y27443656D01*
X60113055Y27443653D01*
X60228264Y27357407D01*
X60228271Y27357403D01*
X60363117Y27307109D01*
X60363116Y27307109D01*
X60370044Y27306365D01*
X60422727Y27300700D01*
X62218472Y27300701D01*
X62278083Y27307109D01*
X62412931Y27357404D01*
X62528146Y27443654D01*
X62614396Y27558869D01*
X62664691Y27693717D01*
X62671100Y27753327D01*
X62671099Y29549072D01*
X62664691Y29608683D01*
X62624773Y29715708D01*
X62614397Y29743529D01*
X62614393Y29743536D01*
X62528147Y29858745D01*
X62528144Y29858748D01*
X62412935Y29944994D01*
X62412928Y29944998D01*
X62278082Y29995292D01*
X62278083Y29995292D01*
X62218483Y30001699D01*
X62218481Y30001700D01*
X62218473Y30001700D01*
X62218464Y30001700D01*
X60422729Y30001700D01*
X60422723Y30001699D01*
X60363116Y29995292D01*
X60228271Y29944998D01*
X60228264Y29944994D01*
X60113055Y29858748D01*
X60113052Y29858745D01*
X60026806Y29743536D01*
X60026802Y29743529D01*
X59976508Y29608683D01*
X59970884Y29556363D01*
X59970101Y29549077D01*
X59970100Y29549065D01*
X51439299Y29549065D01*
X51439299Y29549072D01*
X51432891Y29608683D01*
X51392973Y29715708D01*
X51382597Y29743529D01*
X51382593Y29743536D01*
X51296347Y29858745D01*
X51296344Y29858748D01*
X51181135Y29944994D01*
X51181128Y29944998D01*
X51046282Y29995292D01*
X51046283Y29995292D01*
X50986683Y30001699D01*
X50986681Y30001700D01*
X50986673Y30001700D01*
X50986664Y30001700D01*
X49190929Y30001700D01*
X49190923Y30001699D01*
X49131316Y29995292D01*
X48996471Y29944998D01*
X48996464Y29944994D01*
X48881255Y29858748D01*
X48881252Y29858745D01*
X48795006Y29743536D01*
X48795002Y29743529D01*
X48744708Y29608683D01*
X48739084Y29556363D01*
X48738301Y29549077D01*
X48738300Y29549065D01*
X38475500Y29549065D01*
X39582416Y30655981D01*
X39643739Y30689466D01*
X39670097Y30692300D01*
X60009731Y30692300D01*
X60009747Y30692299D01*
X60017343Y30692299D01*
X60175454Y30692299D01*
X60175457Y30692299D01*
X60328185Y30733223D01*
X60394212Y30771344D01*
X60465116Y30812280D01*
X60576920Y30924084D01*
X60576920Y30924086D01*
X60587124Y30934289D01*
X60587127Y30934294D01*
X63370920Y33718084D01*
X63449977Y33855016D01*
X63490901Y34007743D01*
X63490901Y34165858D01*
X63490901Y34173453D01*
X63490900Y34173471D01*
X63490900Y38790235D01*
X63510585Y38857274D01*
X63511798Y38859126D01*
X63518890Y38869739D01*
X63599794Y38990821D01*
X63660137Y39136503D01*
X63690900Y39291158D01*
X63690900Y39448842D01*
X63690900Y39448845D01*
X63690899Y39448847D01*
X63673844Y39534589D01*
X63660137Y39603497D01*
X63652391Y39622198D01*
X63599797Y39749173D01*
X63599790Y39749186D01*
X63512189Y39880289D01*
X63512186Y39880293D01*
X63475160Y39917319D01*
X63441675Y39978642D01*
X63446659Y40048334D01*
X63475160Y40092681D01*
X63562986Y40180508D01*
X63562989Y40180511D01*
X63650594Y40311621D01*
X63710937Y40457303D01*
X63741700Y40611958D01*
X63741700Y40769642D01*
X63741700Y40769645D01*
X63741699Y40769647D01*
X63724644Y40855389D01*
X63710937Y40924297D01*
X63703191Y40942998D01*
X63650597Y41069973D01*
X63650590Y41069986D01*
X63562989Y41201089D01*
X63562986Y41201093D01*
X63451492Y41312587D01*
X63451488Y41312590D01*
X63320385Y41400191D01*
X63320372Y41400198D01*
X63174701Y41460536D01*
X63174689Y41460539D01*
X63020045Y41491300D01*
X63020042Y41491300D01*
X62862358Y41491300D01*
X62862355Y41491300D01*
X62707710Y41460539D01*
X62707698Y41460536D01*
X62562027Y41400198D01*
X62562014Y41400191D01*
X62430911Y41312590D01*
X62430907Y41312587D01*
X62319413Y41201093D01*
X62319410Y41201089D01*
X62231809Y41069986D01*
X62231802Y41069973D01*
X62171464Y40924302D01*
X62171461Y40924292D01*
X62140561Y40768950D01*
X62108176Y40707039D01*
X62106625Y40705461D01*
X60479481Y39078318D01*
X60479477Y39078313D01*
X60441536Y39012595D01*
X60441536Y39012594D01*
X60400423Y38941386D01*
X60392281Y38910998D01*
X60359499Y38788657D01*
X60359499Y38788655D01*
X60359499Y38620554D01*
X60359500Y38620541D01*
X60359500Y33675697D01*
X60339815Y33608658D01*
X60323181Y33588016D01*
X59274384Y32539219D01*
X59213061Y32505734D01*
X59186703Y32502900D01*
X47346143Y32502900D01*
X47325927Y32508836D01*
X47304889Y32509964D01*
X47293076Y32518483D01*
X47279104Y32522585D01*
X47265307Y32538507D01*
X47248217Y32550831D01*
X47242884Y32564385D01*
X47233349Y32575389D01*
X47230350Y32596241D01*
X47222636Y32615849D01*
X47223965Y32640647D01*
X47223405Y32644547D01*
X47224526Y32651092D01*
X47231838Y32687850D01*
X47264224Y32749761D01*
X47265774Y32751339D01*
X47343536Y32829101D01*
X47470520Y32956084D01*
X47549577Y33093016D01*
X47590501Y33245743D01*
X47590501Y33403858D01*
X47590501Y33411453D01*
X47590500Y33411471D01*
X47590500Y37118265D01*
X48733300Y37118265D01*
X48733300Y35322530D01*
X48733301Y35322524D01*
X48739708Y35262917D01*
X48790002Y35128072D01*
X48790006Y35128065D01*
X48876252Y35012856D01*
X48876255Y35012853D01*
X48991464Y34926607D01*
X48991471Y34926603D01*
X49126317Y34876309D01*
X49126316Y34876309D01*
X49133244Y34875565D01*
X49185927Y34869900D01*
X50981672Y34869901D01*
X51041283Y34876309D01*
X51176131Y34926604D01*
X51291346Y35012854D01*
X51377596Y35128069D01*
X51426610Y35259484D01*
X51468481Y35315416D01*
X51533945Y35339834D01*
X51602218Y35324983D01*
X51630473Y35303831D01*
X51744013Y35190291D01*
X51915979Y35065352D01*
X51915981Y35065351D01*
X51915984Y35065349D01*
X52105388Y34968843D01*
X52307557Y34903154D01*
X52517513Y34869900D01*
X52517514Y34869900D01*
X52730086Y34869900D01*
X52730087Y34869900D01*
X52940043Y34903154D01*
X53142212Y34968843D01*
X53331616Y35065349D01*
X53400093Y35115100D01*
X53503586Y35190291D01*
X53503588Y35190294D01*
X53503592Y35190296D01*
X53653904Y35340608D01*
X53653906Y35340612D01*
X53653909Y35340614D01*
X53778848Y35512580D01*
X53778847Y35512580D01*
X53778851Y35512584D01*
X53875357Y35701988D01*
X53941046Y35904157D01*
X53974300Y36114113D01*
X53974300Y36326687D01*
X53941046Y36536643D01*
X53875357Y36738812D01*
X53778851Y36928216D01*
X53778849Y36928219D01*
X53778848Y36928221D01*
X53653909Y37100187D01*
X53503586Y37250510D01*
X53331620Y37375449D01*
X53142214Y37471956D01*
X53142213Y37471957D01*
X53142212Y37471957D01*
X52940043Y37537646D01*
X52940041Y37537647D01*
X52940040Y37537647D01*
X52778757Y37563192D01*
X52730087Y37570900D01*
X52517513Y37570900D01*
X52468842Y37563192D01*
X52307560Y37537647D01*
X52105385Y37471956D01*
X51915979Y37375449D01*
X51744015Y37250511D01*
X51630473Y37136969D01*
X51569150Y37103485D01*
X51499458Y37108469D01*
X51443525Y37150341D01*
X51426610Y37181318D01*
X51377597Y37312729D01*
X51377593Y37312736D01*
X51291347Y37427945D01*
X51291344Y37427948D01*
X51176135Y37514194D01*
X51176128Y37514198D01*
X51041282Y37564492D01*
X51041283Y37564492D01*
X50981683Y37570899D01*
X50981681Y37570900D01*
X50981673Y37570900D01*
X50981664Y37570900D01*
X49185929Y37570900D01*
X49185923Y37570899D01*
X49126316Y37564492D01*
X48991471Y37514198D01*
X48991464Y37514194D01*
X48876255Y37427948D01*
X48876252Y37427945D01*
X48790006Y37312736D01*
X48790002Y37312729D01*
X48739708Y37177883D01*
X48733301Y37118284D01*
X48733300Y37118265D01*
X47590500Y37118265D01*
X47590500Y37697863D01*
X47610185Y37764902D01*
X47611398Y37766754D01*
X47648594Y37822421D01*
X47708937Y37968103D01*
X47739700Y38122758D01*
X47739700Y38280442D01*
X47739700Y38280445D01*
X47739699Y38280447D01*
X47737597Y38291014D01*
X47708937Y38435097D01*
X47668130Y38533615D01*
X47648597Y38580773D01*
X47648590Y38580786D01*
X47560989Y38711889D01*
X47560986Y38711893D01*
X47449492Y38823387D01*
X47449488Y38823390D01*
X47318385Y38910991D01*
X47318372Y38910998D01*
X47172701Y38971336D01*
X47172689Y38971339D01*
X47018045Y39002100D01*
X47018042Y39002100D01*
X46860358Y39002100D01*
X46860355Y39002100D01*
X46705710Y38971339D01*
X46705698Y38971336D01*
X46560027Y38910998D01*
X46560014Y38910991D01*
X46428911Y38823390D01*
X46428907Y38823387D01*
X46317413Y38711893D01*
X46317410Y38711889D01*
X46229809Y38580786D01*
X46229802Y38580773D01*
X46169464Y38435102D01*
X46169461Y38435090D01*
X46138700Y38280447D01*
X46138700Y38122754D01*
X46169461Y37968111D01*
X46169464Y37968099D01*
X46229802Y37822428D01*
X46229809Y37822415D01*
X46317410Y37691312D01*
X46317413Y37691308D01*
X46353180Y37655542D01*
X46386666Y37594220D01*
X46389500Y37567860D01*
X46389500Y33675653D01*
X46369815Y33608614D01*
X46317011Y33562859D01*
X46289692Y33554036D01*
X46197708Y33535739D01*
X46197698Y33535736D01*
X46052027Y33475398D01*
X46052014Y33475391D01*
X45920911Y33387790D01*
X45920907Y33387787D01*
X45809413Y33276293D01*
X45809410Y33276289D01*
X45721809Y33145186D01*
X45721802Y33145173D01*
X45661464Y32999502D01*
X45661461Y32999490D01*
X45630700Y32844847D01*
X45630700Y32687157D01*
X45637874Y32651093D01*
X45631647Y32581501D01*
X45588785Y32526323D01*
X45522895Y32503078D01*
X45516257Y32502900D01*
X39042657Y32502900D01*
X38884543Y32502900D01*
X38731815Y32461977D01*
X38731814Y32461977D01*
X38731812Y32461976D01*
X38731809Y32461975D01*
X38681696Y32433041D01*
X38681695Y32433040D01*
X38638289Y32407980D01*
X38594885Y32382921D01*
X38594882Y32382919D01*
X34266679Y28054716D01*
X34258063Y28039791D01*
X34242837Y28013418D01*
X34187623Y27917785D01*
X34146699Y27765057D01*
X34146699Y27765055D01*
X34146699Y27596954D01*
X34146700Y27596941D01*
X34146700Y23109297D01*
X34127015Y23042258D01*
X34110381Y23021616D01*
X31227339Y20138575D01*
X31166016Y20105090D01*
X31163850Y20104639D01*
X31008508Y20073739D01*
X31008498Y20073736D01*
X30862827Y20013398D01*
X30862814Y20013391D01*
X30791449Y19965705D01*
X30724772Y19944827D01*
X30657392Y19963311D01*
X30634877Y19981126D01*
X29338819Y21277184D01*
X29305334Y21338507D01*
X29302500Y21364865D01*
X29302500Y23245435D01*
X29322185Y23312474D01*
X29323398Y23314326D01*
X29331400Y23326301D01*
X29411394Y23446021D01*
X29471737Y23591703D01*
X29502500Y23746358D01*
X29502500Y23904042D01*
X29502500Y23904045D01*
X29502499Y23904047D01*
X29475117Y24041709D01*
X29481344Y24111300D01*
X29524207Y24166478D01*
X29590097Y24189722D01*
X29596734Y24189900D01*
X32323731Y24189900D01*
X32323747Y24189899D01*
X32331343Y24189899D01*
X32489454Y24189899D01*
X32489457Y24189899D01*
X32642185Y24230823D01*
X32692304Y24259761D01*
X32779116Y24309880D01*
X32890920Y24421684D01*
X32890921Y24421686D01*
X33449720Y24980484D01*
X33528777Y25117416D01*
X33569701Y25270143D01*
X33569701Y25428258D01*
X33569701Y25435853D01*
X33569700Y25435871D01*
X33569700Y40769647D01*
X58381500Y40769647D01*
X58381500Y40611954D01*
X58412261Y40457311D01*
X58412264Y40457299D01*
X58472602Y40311628D01*
X58472609Y40311615D01*
X58560210Y40180512D01*
X58560213Y40180508D01*
X58671707Y40069014D01*
X58671711Y40069011D01*
X58802814Y39981410D01*
X58802827Y39981403D01*
X58927948Y39929577D01*
X58948503Y39921063D01*
X59051166Y39900642D01*
X59103153Y39890301D01*
X59103156Y39890300D01*
X59103158Y39890300D01*
X59260844Y39890300D01*
X59260845Y39890301D01*
X59415497Y39921063D01*
X59561179Y39981406D01*
X59692289Y40069011D01*
X59803789Y40180511D01*
X59891394Y40311621D01*
X59951737Y40457303D01*
X59982500Y40611958D01*
X59982500Y40769642D01*
X59982500Y40769645D01*
X59982499Y40769647D01*
X59965444Y40855389D01*
X59951737Y40924297D01*
X59943991Y40942998D01*
X59891397Y41069973D01*
X59891390Y41069986D01*
X59803789Y41201089D01*
X59803786Y41201093D01*
X59692292Y41312587D01*
X59692288Y41312590D01*
X59561185Y41400191D01*
X59561172Y41400198D01*
X59415501Y41460536D01*
X59415489Y41460539D01*
X59260845Y41491300D01*
X59260842Y41491300D01*
X59103158Y41491300D01*
X59103155Y41491300D01*
X58948510Y41460539D01*
X58948498Y41460536D01*
X58802827Y41400198D01*
X58802814Y41400191D01*
X58671711Y41312590D01*
X58671707Y41312587D01*
X58560213Y41201093D01*
X58560210Y41201089D01*
X58472609Y41069986D01*
X58472602Y41069973D01*
X58412264Y40924302D01*
X58412261Y40924290D01*
X58381500Y40769647D01*
X33569700Y40769647D01*
X33569700Y41997574D01*
X33589385Y42064613D01*
X33642189Y42110368D01*
X33646248Y42112135D01*
X33648772Y42113181D01*
X33653179Y42115006D01*
X33784289Y42202611D01*
X33895789Y42314111D01*
X33983394Y42445221D01*
X34043737Y42590903D01*
X34074500Y42745558D01*
X34074500Y42903242D01*
X34074500Y42903245D01*
X34074499Y42903247D01*
X34043738Y43057890D01*
X34043737Y43057897D01*
X34004776Y43151958D01*
X33983397Y43203573D01*
X33983393Y43203580D01*
X33983389Y43203586D01*
X33912522Y43309647D01*
X45833900Y43309647D01*
X45833900Y43151954D01*
X45864661Y42997311D01*
X45864664Y42997299D01*
X45925002Y42851628D01*
X45925009Y42851615D01*
X46012610Y42720512D01*
X46012613Y42720508D01*
X46124107Y42609014D01*
X46124111Y42609011D01*
X46255214Y42521410D01*
X46255227Y42521403D01*
X46400898Y42461065D01*
X46400903Y42461063D01*
X46554281Y42430554D01*
X46555553Y42430301D01*
X46555556Y42430300D01*
X46555558Y42430300D01*
X46713244Y42430300D01*
X46713245Y42430301D01*
X46867897Y42461063D01*
X47013579Y42521406D01*
X47144689Y42609011D01*
X47256189Y42720511D01*
X47343794Y42851621D01*
X47404137Y42997303D01*
X47434900Y43151958D01*
X47434900Y43309642D01*
X47434900Y43309645D01*
X47434899Y43309647D01*
X47407739Y43446189D01*
X47404137Y43464297D01*
X47362676Y43564394D01*
X47343797Y43609973D01*
X47343790Y43609986D01*
X47256189Y43741089D01*
X47256186Y43741093D01*
X47144692Y43852587D01*
X47144688Y43852590D01*
X47013585Y43940191D01*
X47013572Y43940198D01*
X46867901Y44000536D01*
X46867889Y44000539D01*
X46713245Y44031300D01*
X46713242Y44031300D01*
X46555558Y44031300D01*
X46555555Y44031300D01*
X46400910Y44000539D01*
X46400898Y44000536D01*
X46255227Y43940198D01*
X46255214Y43940191D01*
X46124111Y43852590D01*
X46124107Y43852587D01*
X46012613Y43741093D01*
X46012610Y43741089D01*
X45925009Y43609986D01*
X45925002Y43609973D01*
X45864664Y43464302D01*
X45864661Y43464290D01*
X45833900Y43309647D01*
X33912522Y43309647D01*
X33895789Y43334690D01*
X33784292Y43446187D01*
X33784288Y43446190D01*
X33653185Y43533791D01*
X33653176Y43533796D01*
X33579304Y43564394D01*
X33579302Y43564395D01*
X33507497Y43594137D01*
X33357704Y43623933D01*
X33357700Y43623934D01*
X33352843Y43624900D01*
X33352842Y43624900D01*
X33195158Y43624900D01*
X33195155Y43624900D01*
X33040510Y43594139D01*
X33040498Y43594136D01*
X32894827Y43533798D01*
X32894814Y43533791D01*
X32763711Y43446190D01*
X32763707Y43446187D01*
X32652213Y43334693D01*
X32652210Y43334689D01*
X32564609Y43203586D01*
X32564602Y43203573D01*
X32504264Y43057902D01*
X32504261Y43057890D01*
X32473500Y42903247D01*
X32473500Y42895250D01*
X32469350Y42879762D01*
X32470005Y42866019D01*
X32456889Y42833254D01*
X32438560Y42801505D01*
X32438559Y42801504D01*
X32409625Y42751391D01*
X32409624Y42751390D01*
X32401350Y42720512D01*
X32368699Y42598657D01*
X32368699Y42598655D01*
X32368699Y42430554D01*
X32368700Y42430541D01*
X32368700Y31053324D01*
X32349015Y30986285D01*
X32296211Y30940530D01*
X32227053Y30930586D01*
X32197248Y30938763D01*
X32059701Y30995736D01*
X32059689Y30995739D01*
X31905045Y31026500D01*
X31905042Y31026500D01*
X31747358Y31026500D01*
X31747355Y31026500D01*
X31592710Y30995739D01*
X31592698Y30995736D01*
X31447027Y30935398D01*
X31447014Y30935391D01*
X31315325Y30847398D01*
X31248647Y30826520D01*
X31246434Y30826500D01*
X28382116Y30826500D01*
X28381313Y30826501D01*
X28375680Y30828163D01*
X28366890Y30827458D01*
X28366882Y30827459D01*
X28367279Y30830641D01*
X28347659Y30836429D01*
X28314428Y30846186D01*
X28314376Y30846246D01*
X28314298Y30846269D01*
X28291301Y30872876D01*
X28268673Y30898990D01*
X28268615Y30899123D01*
X28268609Y30899130D01*
X28268607Y30899141D01*
X28266929Y30902992D01*
X28242994Y30960779D01*
X28242991Y30960784D01*
X28242990Y30960786D01*
X28155389Y31091889D01*
X28155386Y31091893D01*
X28043892Y31203387D01*
X28043888Y31203390D01*
X27912785Y31290991D01*
X27912772Y31290998D01*
X27767101Y31351336D01*
X27767091Y31351339D01*
X27611749Y31382239D01*
X27549838Y31414624D01*
X27548260Y31416175D01*
X24617590Y34346845D01*
X24617588Y34346848D01*
X24498717Y34465719D01*
X24498716Y34465720D01*
X24403970Y34520421D01*
X24403969Y34520422D01*
X24361783Y34544778D01*
X24305881Y34559757D01*
X24209057Y34585701D01*
X24050943Y34585701D01*
X24043347Y34585701D01*
X24043331Y34585700D01*
X23084166Y34585700D01*
X23017127Y34605385D01*
X23015275Y34606598D01*
X22883585Y34694591D01*
X22883572Y34694598D01*
X22737901Y34754936D01*
X22737889Y34754939D01*
X22583245Y34785700D01*
X22583242Y34785700D01*
X22425558Y34785700D01*
X22425555Y34785700D01*
X22270910Y34754939D01*
X22270898Y34754936D01*
X22125227Y34694598D01*
X22125214Y34694591D01*
X21994111Y34606990D01*
X21994107Y34606987D01*
X21882613Y34495493D01*
X21882610Y34495489D01*
X21795009Y34364386D01*
X21795002Y34364373D01*
X21734664Y34218702D01*
X21734661Y34218690D01*
X21703900Y34064047D01*
X21703900Y33906354D01*
X21734661Y33751711D01*
X21734664Y33751699D01*
X21795002Y33606028D01*
X21795009Y33606015D01*
X21882610Y33474912D01*
X21882613Y33474908D01*
X21994107Y33363414D01*
X21994111Y33363411D01*
X22125214Y33275810D01*
X22125227Y33275803D01*
X22270898Y33215465D01*
X22270903Y33215463D01*
X22425553Y33184701D01*
X22425556Y33184700D01*
X22425558Y33184700D01*
X22583244Y33184700D01*
X22583245Y33184701D01*
X22737897Y33215463D01*
X22883579Y33275806D01*
X22884308Y33276293D01*
X23015275Y33363802D01*
X23081953Y33384680D01*
X23084166Y33384700D01*
X23829903Y33384700D01*
X23896942Y33365015D01*
X23917584Y33348381D01*
X26699025Y30566940D01*
X26708087Y30550344D01*
X26721219Y30536735D01*
X26731626Y30507236D01*
X26732510Y30505617D01*
X26732961Y30503452D01*
X26741306Y30461502D01*
X26735079Y30391910D01*
X26692217Y30336732D01*
X26626328Y30313487D01*
X26558331Y30329554D01*
X26532008Y30349628D01*
X24871590Y32010045D01*
X24871588Y32010048D01*
X24752717Y32128919D01*
X24752709Y32128925D01*
X24647728Y32189535D01*
X24647727Y32189536D01*
X24647727Y32189535D01*
X24615785Y32207977D01*
X24463057Y32248901D01*
X24326336Y32248901D01*
X24259297Y32268586D01*
X24223234Y32304010D01*
X24167589Y32387289D01*
X24167587Y32387292D01*
X24056092Y32498787D01*
X24056088Y32498790D01*
X23924985Y32586391D01*
X23924972Y32586398D01*
X23779301Y32646736D01*
X23779289Y32646739D01*
X23624645Y32677500D01*
X23624642Y32677500D01*
X23466958Y32677500D01*
X23466955Y32677500D01*
X23312310Y32646739D01*
X23312298Y32646736D01*
X23166627Y32586398D01*
X23166614Y32586391D01*
X23035511Y32498790D01*
X23035507Y32498787D01*
X22924013Y32387293D01*
X22924010Y32387289D01*
X22836409Y32256186D01*
X22836402Y32256173D01*
X22776064Y32110502D01*
X22776061Y32110490D01*
X22745300Y31955847D01*
X22745300Y31798154D01*
X22776061Y31643511D01*
X22776064Y31643499D01*
X22836402Y31497828D01*
X22836409Y31497815D01*
X22924010Y31366712D01*
X22924013Y31366708D01*
X23035507Y31255214D01*
X23035511Y31255211D01*
X23166614Y31167610D01*
X23166627Y31167603D01*
X23312298Y31107265D01*
X23312303Y31107263D01*
X23466953Y31076501D01*
X23466956Y31076500D01*
X23466958Y31076500D01*
X23572280Y31076500D01*
X23604372Y31072276D01*
X23695342Y31047900D01*
X23695343Y31047900D01*
X24083903Y31047900D01*
X24150942Y31028215D01*
X24171583Y31011582D01*
X26809284Y28373880D01*
X26809286Y28373879D01*
X26809290Y28373876D01*
X26873722Y28336677D01*
X26946216Y28294823D01*
X27098943Y28253899D01*
X27098945Y28253899D01*
X27264654Y28253899D01*
X27264670Y28253900D01*
X28204547Y28253900D01*
X28271586Y28234215D01*
X28283209Y28225755D01*
X28283906Y28225183D01*
X28415014Y28137579D01*
X28415027Y28137572D01*
X28505407Y28100136D01*
X28560703Y28077232D01*
X28673898Y28054716D01*
X28715353Y28046470D01*
X28715356Y28046469D01*
X28715358Y28046469D01*
X28873044Y28046469D01*
X28873045Y28046470D01*
X29027697Y28077232D01*
X29173379Y28137575D01*
X29304489Y28225180D01*
X29415989Y28336680D01*
X29503594Y28467790D01*
X29563937Y28613472D01*
X29594700Y28768127D01*
X29594700Y28925811D01*
X29594700Y28925814D01*
X29594699Y28925816D01*
X29563938Y29080459D01*
X29563937Y29080466D01*
X29563935Y29080471D01*
X29503597Y29226142D01*
X29503590Y29226155D01*
X29415989Y29357258D01*
X29415986Y29357262D01*
X29359429Y29413819D01*
X29325944Y29475142D01*
X29330928Y29544834D01*
X29372800Y29600767D01*
X29438264Y29625184D01*
X29447110Y29625500D01*
X31246434Y29625500D01*
X31313473Y29605815D01*
X31315325Y29604602D01*
X31447014Y29516610D01*
X31447027Y29516603D01*
X31562537Y29468758D01*
X31592703Y29456263D01*
X31728038Y29429343D01*
X31747353Y29425501D01*
X31747356Y29425500D01*
X31747358Y29425500D01*
X31905044Y29425500D01*
X31905045Y29425501D01*
X32059697Y29456263D01*
X32197248Y29513239D01*
X32266717Y29520707D01*
X32329196Y29489432D01*
X32364848Y29429343D01*
X32368700Y29398677D01*
X32368700Y27136969D01*
X32349015Y27069930D01*
X32296211Y27024175D01*
X32241334Y27015026D01*
X32241334Y27013300D01*
X32077555Y27013300D01*
X31922910Y26982539D01*
X31922898Y26982536D01*
X31777227Y26922198D01*
X31777214Y26922191D01*
X31646111Y26834590D01*
X31646107Y26834587D01*
X31534613Y26723093D01*
X31534610Y26723089D01*
X31447009Y26591986D01*
X31447002Y26591973D01*
X31386664Y26446302D01*
X31386661Y26446290D01*
X31355900Y26291647D01*
X31355900Y26133954D01*
X31386661Y25979311D01*
X31386664Y25979299D01*
X31447002Y25833628D01*
X31447009Y25833615D01*
X31534610Y25702512D01*
X31534613Y25702508D01*
X31634540Y25602581D01*
X31668025Y25541258D01*
X31663041Y25471566D01*
X31621169Y25415633D01*
X31555705Y25391216D01*
X31546859Y25390900D01*
X29438244Y25390900D01*
X29371205Y25410585D01*
X29325450Y25463389D01*
X29315506Y25532547D01*
X29323683Y25562353D01*
X29370137Y25674503D01*
X29400900Y25829158D01*
X29400900Y25986842D01*
X29400900Y25986845D01*
X29400899Y25986847D01*
X29396732Y26007798D01*
X29370137Y26141497D01*
X29330171Y26237984D01*
X29309797Y26287173D01*
X29309790Y26287186D01*
X29222189Y26418289D01*
X29222186Y26418293D01*
X29110692Y26529787D01*
X29110688Y26529790D01*
X28979585Y26617391D01*
X28979572Y26617398D01*
X28833901Y26677736D01*
X28833889Y26677739D01*
X28679245Y26708500D01*
X28679242Y26708500D01*
X28521558Y26708500D01*
X28521555Y26708500D01*
X28366910Y26677739D01*
X28366898Y26677736D01*
X28264420Y26635288D01*
X28194951Y26627819D01*
X28148077Y26646747D01*
X28115979Y26668194D01*
X28115972Y26668198D01*
X27970301Y26728536D01*
X27970289Y26728539D01*
X27815645Y26759300D01*
X27815642Y26759300D01*
X27657958Y26759300D01*
X27657955Y26759300D01*
X27503310Y26728539D01*
X27503298Y26728536D01*
X27357627Y26668198D01*
X27357614Y26668191D01*
X27225925Y26580198D01*
X27159247Y26559320D01*
X27157034Y26559300D01*
X26756669Y26559300D01*
X26756653Y26559301D01*
X26749057Y26559301D01*
X26590943Y26559301D01*
X26480797Y26529787D01*
X26438214Y26518377D01*
X26421110Y26508501D01*
X26421107Y26508500D01*
X26301290Y26439325D01*
X26301282Y26439319D01*
X26189478Y26327514D01*
X22342784Y22480819D01*
X22281461Y22447334D01*
X22255103Y22444500D01*
X21820191Y22444500D01*
X21753152Y22464185D01*
X21707397Y22516989D01*
X21697453Y22586147D01*
X21705630Y22615952D01*
X21750135Y22723399D01*
X21750137Y22723403D01*
X21780900Y22878058D01*
X21780900Y23035742D01*
X21780900Y23035745D01*
X21780899Y23035747D01*
X21778034Y23050150D01*
X21750137Y23190397D01*
X21734649Y23227789D01*
X21689797Y23336073D01*
X21689790Y23336086D01*
X21602189Y23467189D01*
X21602186Y23467193D01*
X21490692Y23578687D01*
X21490688Y23578690D01*
X21359585Y23666291D01*
X21359572Y23666298D01*
X21213901Y23726636D01*
X21213889Y23726639D01*
X21059245Y23757400D01*
X21059242Y23757400D01*
X20901558Y23757400D01*
X20901555Y23757400D01*
X20746910Y23726639D01*
X20746898Y23726636D01*
X20601227Y23666298D01*
X20601214Y23666291D01*
X20470111Y23578690D01*
X20470107Y23578687D01*
X20358613Y23467193D01*
X20358610Y23467189D01*
X20271009Y23336086D01*
X20271002Y23336073D01*
X20210664Y23190402D01*
X20210661Y23190390D01*
X20179900Y23035747D01*
X20179900Y22878054D01*
X20210661Y22723411D01*
X20210664Y22723399D01*
X20271002Y22577728D01*
X20271009Y22577715D01*
X20358610Y22446612D01*
X20358613Y22446608D01*
X20382311Y22422910D01*
X20386648Y22414966D01*
X20393896Y22409541D01*
X20403132Y22384779D01*
X20415796Y22361587D01*
X20415150Y22352559D01*
X20418314Y22344077D01*
X20412697Y22318256D01*
X20410812Y22291895D01*
X20404993Y22282843D01*
X20403463Y22275804D01*
X20382312Y22247549D01*
X20347481Y22212717D01*
X20347478Y22212714D01*
X19953302Y21818539D01*
X19891979Y21785054D01*
X19822287Y21790038D01*
X19766354Y21831910D01*
X19762531Y21837312D01*
X19722589Y21897089D01*
X19722197Y21897676D01*
X19701320Y21964354D01*
X19701300Y21966566D01*
X19701300Y22888255D01*
X19701300Y22888257D01*
X19666641Y23017607D01*
X19660377Y23040985D01*
X19604758Y23137319D01*
X19581320Y23177916D01*
X19469516Y23289720D01*
X19469513Y23289722D01*
X18470790Y24288445D01*
X18470788Y24288448D01*
X18351917Y24407319D01*
X18351916Y24407320D01*
X18265104Y24457440D01*
X18265104Y24457441D01*
X18265100Y24457442D01*
X18214985Y24486377D01*
X18062257Y24527301D01*
X17904143Y24527301D01*
X17896547Y24527301D01*
X17896531Y24527300D01*
X13558897Y24527300D01*
X13491858Y24546985D01*
X13471216Y24563619D01*
X11858174Y26176661D01*
X11824689Y26237984D01*
X11824238Y26240151D01*
X11793338Y26395490D01*
X11793337Y26395497D01*
X11783895Y26418293D01*
X11732997Y26541173D01*
X11732990Y26541186D01*
X11645389Y26672289D01*
X11645386Y26672293D01*
X11533892Y26783787D01*
X11533888Y26783790D01*
X11402785Y26871391D01*
X11402772Y26871398D01*
X11257101Y26931736D01*
X11257089Y26931739D01*
X11102445Y26962500D01*
X11102442Y26962500D01*
X10944758Y26962500D01*
X10944755Y26962500D01*
X10790110Y26931739D01*
X10790098Y26931736D01*
X10644427Y26871398D01*
X10644414Y26871391D01*
X10513311Y26783790D01*
X10513307Y26783787D01*
X10401813Y26672293D01*
X10401810Y26672289D01*
X10314209Y26541186D01*
X10314202Y26541173D01*
X10253864Y26395502D01*
X10253861Y26395490D01*
X10223100Y26240847D01*
X10223100Y26083154D01*
X10253861Y25928511D01*
X10253864Y25928499D01*
X10314202Y25782828D01*
X10314209Y25782815D01*
X10401810Y25651712D01*
X10401813Y25651708D01*
X10513307Y25540214D01*
X10513311Y25540211D01*
X10644414Y25452610D01*
X10644427Y25452603D01*
X10733682Y25415633D01*
X10790103Y25392263D01*
X10854747Y25379405D01*
X10945449Y25361362D01*
X11007360Y25328977D01*
X11008939Y25327426D01*
X12773939Y23562426D01*
X12773949Y23562415D01*
X12778279Y23558085D01*
X12778280Y23558084D01*
X12890084Y23446280D01*
X12890086Y23446279D01*
X12890090Y23446276D01*
X12951999Y23410533D01*
X12952003Y23410532D01*
X12952004Y23410531D01*
X12989509Y23388877D01*
X13027012Y23367224D01*
X13027014Y23367224D01*
X13027015Y23367223D01*
X13179743Y23326300D01*
X17683103Y23326300D01*
X17750142Y23306615D01*
X17770784Y23289981D01*
X18463981Y22596784D01*
X18497466Y22535461D01*
X18500300Y22509103D01*
X18500300Y21966566D01*
X18480615Y21899527D01*
X18479402Y21897675D01*
X18391409Y21765986D01*
X18391402Y21765973D01*
X18331064Y21620302D01*
X18331061Y21620290D01*
X18300300Y21465647D01*
X18300300Y21307954D01*
X18331061Y21153311D01*
X18331064Y21153299D01*
X18391402Y21007628D01*
X18391409Y21007615D01*
X18479010Y20876512D01*
X18479013Y20876508D01*
X18590508Y20765013D01*
X18590511Y20765011D01*
X18650271Y20725081D01*
X18695075Y20671470D01*
X18703783Y20602145D01*
X18673629Y20539117D01*
X18669061Y20534298D01*
X15078384Y16943619D01*
X15017061Y16910134D01*
X14990703Y16907300D01*
X8860166Y16907300D01*
X8793127Y16926985D01*
X8791275Y16928198D01*
X8659585Y17016191D01*
X8659572Y17016198D01*
X8513901Y17076536D01*
X8513889Y17076539D01*
X8359245Y17107300D01*
X8359242Y17107300D01*
X8201558Y17107300D01*
X8201555Y17107300D01*
X8046910Y17076539D01*
X8046898Y17076536D01*
X7901227Y17016198D01*
X7901214Y17016191D01*
X7770111Y16928590D01*
X7770107Y16928587D01*
X7658613Y16817093D01*
X7658610Y16817089D01*
X7571009Y16685986D01*
X7571002Y16685973D01*
X7510664Y16540302D01*
X7510661Y16540290D01*
X7479900Y16385647D01*
X449700Y16385647D01*
X449700Y19103447D01*
X11467700Y19103447D01*
X11467700Y18945754D01*
X11498461Y18791111D01*
X11498464Y18791099D01*
X11558802Y18645428D01*
X11558809Y18645415D01*
X11646410Y18514312D01*
X11646413Y18514308D01*
X11757907Y18402814D01*
X11757911Y18402811D01*
X11889014Y18315210D01*
X11889027Y18315203D01*
X12034698Y18254865D01*
X12034703Y18254863D01*
X12162387Y18229465D01*
X12189353Y18224101D01*
X12189356Y18224100D01*
X12189358Y18224100D01*
X12347044Y18224100D01*
X12347045Y18224101D01*
X12501697Y18254863D01*
X12647379Y18315206D01*
X12778489Y18402811D01*
X12889989Y18514311D01*
X12977594Y18645421D01*
X13037937Y18791103D01*
X13068700Y18945758D01*
X13068700Y19103442D01*
X13068700Y19103445D01*
X13068699Y19103447D01*
X13044351Y19225850D01*
X13037937Y19258097D01*
X13018177Y19305803D01*
X12977597Y19403773D01*
X12977590Y19403786D01*
X12889989Y19534889D01*
X12889986Y19534893D01*
X12778492Y19646387D01*
X12778488Y19646390D01*
X12647385Y19733991D01*
X12647372Y19733998D01*
X12501701Y19794336D01*
X12501689Y19794339D01*
X12347045Y19825100D01*
X12347042Y19825100D01*
X12189358Y19825100D01*
X12189355Y19825100D01*
X12034710Y19794339D01*
X12034698Y19794336D01*
X11889027Y19733998D01*
X11889014Y19733991D01*
X11757911Y19646390D01*
X11757907Y19646387D01*
X11646413Y19534893D01*
X11646410Y19534889D01*
X11558809Y19403786D01*
X11558802Y19403773D01*
X11498464Y19258102D01*
X11498461Y19258090D01*
X11467700Y19103447D01*
X449700Y19103447D01*
X449700Y22684847D01*
X4482700Y22684847D01*
X4482700Y22527154D01*
X4513461Y22372511D01*
X4513464Y22372499D01*
X4573802Y22226828D01*
X4573809Y22226815D01*
X4661410Y22095712D01*
X4661413Y22095708D01*
X4772907Y21984214D01*
X4772911Y21984211D01*
X4904014Y21896610D01*
X4904027Y21896603D01*
X5020423Y21848391D01*
X5049703Y21836263D01*
X5204353Y21805501D01*
X5204356Y21805500D01*
X5204358Y21805500D01*
X5362044Y21805500D01*
X5362045Y21805501D01*
X5516697Y21836263D01*
X5662379Y21896606D01*
X5793489Y21984211D01*
X5904989Y22095711D01*
X5992594Y22226821D01*
X6052937Y22372503D01*
X6083700Y22527158D01*
X6083700Y22684842D01*
X6083700Y22684845D01*
X6083699Y22684847D01*
X6052938Y22839490D01*
X6052937Y22839497D01*
X6036966Y22878054D01*
X5992597Y22985173D01*
X5992590Y22985186D01*
X5904989Y23116289D01*
X5904986Y23116293D01*
X5793492Y23227787D01*
X5793488Y23227790D01*
X5662385Y23315391D01*
X5662372Y23315398D01*
X5516701Y23375736D01*
X5516689Y23375739D01*
X5362045Y23406500D01*
X5362042Y23406500D01*
X5204358Y23406500D01*
X5204355Y23406500D01*
X5049710Y23375739D01*
X5049698Y23375736D01*
X4904027Y23315398D01*
X4904014Y23315391D01*
X4772911Y23227790D01*
X4772907Y23227787D01*
X4661413Y23116293D01*
X4661410Y23116289D01*
X4573809Y22985186D01*
X4573802Y22985173D01*
X4513464Y22839502D01*
X4513461Y22839490D01*
X4482700Y22684847D01*
X449700Y22684847D01*
X449700Y27409247D01*
X15201500Y27409247D01*
X15201500Y27251554D01*
X15232261Y27096911D01*
X15232264Y27096899D01*
X15292602Y26951228D01*
X15292609Y26951215D01*
X15380210Y26820112D01*
X15380213Y26820108D01*
X15491707Y26708614D01*
X15491711Y26708611D01*
X15622814Y26621010D01*
X15622827Y26621003D01*
X15768498Y26560665D01*
X15768503Y26560663D01*
X15923153Y26529901D01*
X15923156Y26529900D01*
X15923158Y26529900D01*
X16080844Y26529900D01*
X16080845Y26529901D01*
X16235497Y26560663D01*
X16372459Y26617394D01*
X16381172Y26621003D01*
X16381172Y26621004D01*
X16381179Y26621006D01*
X16512289Y26708611D01*
X16623789Y26820111D01*
X16711394Y26951221D01*
X16771737Y27096903D01*
X16802500Y27251558D01*
X16802500Y27409242D01*
X16802500Y27409245D01*
X16802499Y27409247D01*
X16795655Y27443654D01*
X16771737Y27563897D01*
X16758050Y27596941D01*
X16711397Y27709573D01*
X16711390Y27709586D01*
X16623789Y27840689D01*
X16623786Y27840693D01*
X16512292Y27952187D01*
X16512288Y27952190D01*
X16381185Y28039791D01*
X16381172Y28039798D01*
X16235501Y28100136D01*
X16235489Y28100139D01*
X16080845Y28130900D01*
X16080842Y28130900D01*
X15923158Y28130900D01*
X15923155Y28130900D01*
X15768510Y28100139D01*
X15768498Y28100136D01*
X15622827Y28039798D01*
X15622814Y28039791D01*
X15491711Y27952190D01*
X15491707Y27952187D01*
X15380213Y27840693D01*
X15380210Y27840689D01*
X15292609Y27709586D01*
X15292602Y27709573D01*
X15232264Y27563902D01*
X15232261Y27563890D01*
X15201500Y27409247D01*
X449700Y27409247D01*
X449700Y30304847D01*
X18706700Y30304847D01*
X18706700Y30147154D01*
X18737461Y29992511D01*
X18737464Y29992499D01*
X18797802Y29846828D01*
X18797809Y29846815D01*
X18885410Y29715712D01*
X18885413Y29715708D01*
X18996907Y29604214D01*
X18996911Y29604211D01*
X19128014Y29516610D01*
X19128027Y29516603D01*
X19243537Y29468758D01*
X19273703Y29456263D01*
X19409038Y29429343D01*
X19428353Y29425501D01*
X19428356Y29425500D01*
X19428358Y29425500D01*
X19586044Y29425500D01*
X19586045Y29425501D01*
X19740697Y29456263D01*
X19886379Y29516606D01*
X20017489Y29604211D01*
X20128989Y29715711D01*
X20216594Y29846821D01*
X20221534Y29858746D01*
X20276935Y29992499D01*
X20276937Y29992503D01*
X20307700Y30147158D01*
X20307700Y30304842D01*
X20307700Y30304845D01*
X20307699Y30304847D01*
X20276938Y30459490D01*
X20276937Y30459497D01*
X20259018Y30502758D01*
X20216597Y30605173D01*
X20216590Y30605186D01*
X20128989Y30736289D01*
X20128986Y30736293D01*
X20017492Y30847787D01*
X20017488Y30847790D01*
X19886385Y30935391D01*
X19886372Y30935398D01*
X19740701Y30995736D01*
X19740689Y30995739D01*
X19586045Y31026500D01*
X19586042Y31026500D01*
X19428358Y31026500D01*
X19428355Y31026500D01*
X19273710Y30995739D01*
X19273698Y30995736D01*
X19128027Y30935398D01*
X19128014Y30935391D01*
X18996911Y30847790D01*
X18996907Y30847787D01*
X18885413Y30736293D01*
X18885410Y30736289D01*
X18797809Y30605186D01*
X18797802Y30605173D01*
X18737464Y30459502D01*
X18737461Y30459490D01*
X18706700Y30304847D01*
X449700Y30304847D01*
X449700Y33708447D01*
X7022700Y33708447D01*
X7022700Y33550754D01*
X7053461Y33396111D01*
X7053464Y33396099D01*
X7113802Y33250428D01*
X7113809Y33250415D01*
X7201410Y33119312D01*
X7201413Y33119308D01*
X7312907Y33007814D01*
X7312911Y33007811D01*
X7444014Y32920210D01*
X7444027Y32920203D01*
X7589698Y32859865D01*
X7589703Y32859863D01*
X7744353Y32829101D01*
X7744356Y32829100D01*
X7744358Y32829100D01*
X7902044Y32829100D01*
X7902045Y32829101D01*
X8056697Y32859863D01*
X8202379Y32920206D01*
X8333489Y33007811D01*
X8444989Y33119311D01*
X8532594Y33250421D01*
X8543108Y33275803D01*
X8573170Y33348381D01*
X8592937Y33396103D01*
X8623700Y33550758D01*
X8623700Y33550760D01*
X8623837Y33551448D01*
X8632601Y33568205D01*
X8636622Y33586685D01*
X8655362Y33611718D01*
X8656221Y33613359D01*
X8657774Y33614939D01*
X8746819Y33703982D01*
X8808142Y33737467D01*
X8834499Y33740300D01*
X11546531Y33740300D01*
X11546547Y33740299D01*
X11554143Y33740299D01*
X11712254Y33740299D01*
X11712257Y33740299D01*
X11864985Y33781223D01*
X11931012Y33819344D01*
X12001916Y33860280D01*
X12113720Y33972084D01*
X12113720Y33972086D01*
X12123924Y33982289D01*
X12123927Y33982294D01*
X13268016Y35126381D01*
X13329339Y35159866D01*
X13355697Y35162700D01*
X18644957Y35162700D01*
X18711996Y35143015D01*
X18757751Y35090211D01*
X18767695Y35021053D01*
X18766575Y35014514D01*
X18766245Y35012854D01*
X18759400Y34978444D01*
X18759400Y34820754D01*
X18790161Y34666111D01*
X18790164Y34666099D01*
X18850502Y34520428D01*
X18850509Y34520415D01*
X18938110Y34389312D01*
X18938113Y34389308D01*
X19049607Y34277814D01*
X19049611Y34277811D01*
X19180714Y34190210D01*
X19180727Y34190203D01*
X19302188Y34139893D01*
X19326403Y34129863D01*
X19481053Y34099101D01*
X19481056Y34099100D01*
X19481058Y34099100D01*
X19638744Y34099100D01*
X19638745Y34099101D01*
X19793397Y34129863D01*
X19939079Y34190206D01*
X20070189Y34277811D01*
X20181689Y34389311D01*
X20269294Y34520421D01*
X20329637Y34666103D01*
X20360400Y34820758D01*
X20360400Y34978442D01*
X20353226Y35014508D01*
X20359453Y35084099D01*
X20402315Y35139277D01*
X20468205Y35162522D01*
X20474843Y35162700D01*
X25160931Y35162700D01*
X25160947Y35162699D01*
X25168543Y35162699D01*
X25326654Y35162699D01*
X25326657Y35162699D01*
X25479385Y35203623D01*
X25529504Y35232561D01*
X25616316Y35282680D01*
X25728120Y35394484D01*
X25728120Y35394486D01*
X25738328Y35404693D01*
X25738329Y35404696D01*
X26328081Y35994447D01*
X29527100Y35994447D01*
X29527100Y35836754D01*
X29557861Y35682111D01*
X29557864Y35682099D01*
X29618202Y35536428D01*
X29618209Y35536415D01*
X29705810Y35405312D01*
X29705813Y35405308D01*
X29817307Y35293814D01*
X29817311Y35293811D01*
X29948414Y35206210D01*
X29948427Y35206203D01*
X30094098Y35145865D01*
X30094103Y35145863D01*
X30248753Y35115101D01*
X30248756Y35115100D01*
X30248758Y35115100D01*
X30406444Y35115100D01*
X30406445Y35115101D01*
X30561097Y35145863D01*
X30700543Y35203623D01*
X30706772Y35206203D01*
X30706772Y35206204D01*
X30706779Y35206206D01*
X30837889Y35293811D01*
X30949389Y35405311D01*
X31036994Y35536421D01*
X31039469Y35542395D01*
X31093939Y35673900D01*
X31097337Y35682103D01*
X31128100Y35836758D01*
X31128100Y35994442D01*
X31128100Y35994445D01*
X31128099Y35994447D01*
X31108055Y36095215D01*
X31097337Y36149097D01*
X31059307Y36240911D01*
X31036997Y36294773D01*
X31036990Y36294786D01*
X30949389Y36425889D01*
X30949386Y36425893D01*
X30837892Y36537387D01*
X30837888Y36537390D01*
X30706785Y36624991D01*
X30706772Y36624998D01*
X30561101Y36685336D01*
X30561089Y36685339D01*
X30406445Y36716100D01*
X30406442Y36716100D01*
X30248758Y36716100D01*
X30248755Y36716100D01*
X30094110Y36685339D01*
X30094098Y36685336D01*
X29948427Y36624998D01*
X29948414Y36624991D01*
X29817311Y36537390D01*
X29817307Y36537387D01*
X29705813Y36425893D01*
X29705810Y36425889D01*
X29618209Y36294786D01*
X29618202Y36294773D01*
X29557864Y36149102D01*
X29557861Y36149090D01*
X29527100Y35994447D01*
X26328081Y35994447D01*
X26660322Y36326687D01*
X27034817Y36701181D01*
X27096140Y36734666D01*
X27122498Y36737500D01*
X28427034Y36737500D01*
X28494073Y36717815D01*
X28495925Y36716602D01*
X28627614Y36628610D01*
X28627627Y36628603D01*
X28773298Y36568265D01*
X28773303Y36568263D01*
X28927953Y36537501D01*
X28927956Y36537500D01*
X28927958Y36537500D01*
X29085644Y36537500D01*
X29085645Y36537501D01*
X29240297Y36568263D01*
X29377259Y36624994D01*
X29385972Y36628603D01*
X29385972Y36628604D01*
X29385979Y36628606D01*
X29517089Y36716211D01*
X29628589Y36827711D01*
X29716194Y36958821D01*
X29776537Y37104503D01*
X29807300Y37259158D01*
X29807300Y37416842D01*
X29807300Y37416845D01*
X29790643Y37500583D01*
X29796870Y37570175D01*
X29839733Y37625352D01*
X29843337Y37627856D01*
X29923489Y37681411D01*
X30034989Y37792911D01*
X30122594Y37924021D01*
X30182937Y38069703D01*
X30182938Y38069712D01*
X30184766Y38074123D01*
X30228607Y38128527D01*
X30251877Y38141234D01*
X30256288Y38143062D01*
X30256297Y38143063D01*
X30401979Y38203406D01*
X30533089Y38291011D01*
X30644589Y38402511D01*
X30732194Y38533621D01*
X30792537Y38679303D01*
X30823300Y38833958D01*
X30823300Y38991642D01*
X30823300Y38991645D01*
X30823299Y38991647D01*
X30794485Y39136503D01*
X30792537Y39146297D01*
X30732535Y39291156D01*
X30732197Y39291973D01*
X30732190Y39291986D01*
X30644589Y39423089D01*
X30644586Y39423093D01*
X30533092Y39534587D01*
X30533088Y39534590D01*
X30401985Y39622191D01*
X30401972Y39622198D01*
X30256301Y39682536D01*
X30256291Y39682539D01*
X30100951Y39713438D01*
X30039041Y39745823D01*
X30037462Y39747374D01*
X29934317Y39850519D01*
X29934316Y39850520D01*
X29847504Y39900640D01*
X29847504Y39900641D01*
X29847500Y39900642D01*
X29797385Y39929577D01*
X29644657Y39970501D01*
X29486543Y39970501D01*
X29478947Y39970501D01*
X29478931Y39970500D01*
X25003700Y39970500D01*
X24936661Y39990185D01*
X24890906Y40042989D01*
X24879700Y40094500D01*
X24879700Y40109245D01*
X24879699Y40109247D01*
X24865524Y40180508D01*
X24848937Y40263897D01*
X24829169Y40311621D01*
X24788597Y40409573D01*
X24788590Y40409586D01*
X24700989Y40540689D01*
X24700986Y40540693D01*
X24589492Y40652187D01*
X24589488Y40652190D01*
X24458385Y40739791D01*
X24458372Y40739798D01*
X24312701Y40800136D01*
X24312689Y40800139D01*
X24158045Y40830900D01*
X24158042Y40830900D01*
X24000358Y40830900D01*
X24000355Y40830900D01*
X23845710Y40800139D01*
X23845698Y40800136D01*
X23700027Y40739798D01*
X23700014Y40739791D01*
X23568911Y40652190D01*
X23568907Y40652187D01*
X23457413Y40540693D01*
X23457410Y40540689D01*
X23369809Y40409586D01*
X23369802Y40409573D01*
X23309464Y40263902D01*
X23309461Y40263890D01*
X23278700Y40109247D01*
X23278700Y40094500D01*
X23259015Y40027461D01*
X23206211Y39981706D01*
X23154700Y39970500D01*
X19964943Y39970500D01*
X19897904Y39990185D01*
X19852149Y40042989D01*
X19842205Y40112147D01*
X19843326Y40118693D01*
X19850500Y40154757D01*
X19850500Y40312445D01*
X19850499Y40312447D01*
X19831178Y40409579D01*
X19819737Y40467097D01*
X19819735Y40467102D01*
X19759397Y40612773D01*
X19759390Y40612786D01*
X19671789Y40743889D01*
X19671786Y40743893D01*
X19560292Y40855387D01*
X19560288Y40855390D01*
X19429185Y40942991D01*
X19429172Y40942998D01*
X19283501Y41003336D01*
X19283489Y41003339D01*
X19128845Y41034100D01*
X19128842Y41034100D01*
X18971158Y41034100D01*
X18971155Y41034100D01*
X18816510Y41003339D01*
X18816498Y41003336D01*
X18670827Y40942998D01*
X18670814Y40942991D01*
X18539711Y40855390D01*
X18539707Y40855387D01*
X18428213Y40743893D01*
X18428210Y40743889D01*
X18340609Y40612786D01*
X18340602Y40612773D01*
X18280264Y40467102D01*
X18280261Y40467090D01*
X18249500Y40312447D01*
X18249500Y40154757D01*
X18256674Y40118693D01*
X18250447Y40049101D01*
X18207585Y39993923D01*
X18141695Y39970678D01*
X18135057Y39970500D01*
X12314566Y39970500D01*
X12247527Y39990185D01*
X12245675Y39991398D01*
X12113985Y40079391D01*
X12113972Y40079398D01*
X11968301Y40139736D01*
X11968289Y40139739D01*
X11813645Y40170500D01*
X11813642Y40170500D01*
X11655958Y40170500D01*
X11655955Y40170500D01*
X11501310Y40139739D01*
X11501298Y40139736D01*
X11355627Y40079398D01*
X11355614Y40079391D01*
X11224511Y39991790D01*
X11224507Y39991787D01*
X11113013Y39880293D01*
X11113010Y39880289D01*
X11025409Y39749186D01*
X11025402Y39749173D01*
X10965064Y39603502D01*
X10965061Y39603490D01*
X10934300Y39448847D01*
X10934300Y39291154D01*
X10965061Y39136511D01*
X10965064Y39136499D01*
X11025402Y38990828D01*
X11025409Y38990815D01*
X11113010Y38859712D01*
X11113013Y38859708D01*
X11224507Y38748214D01*
X11224511Y38748211D01*
X11355614Y38660610D01*
X11355627Y38660603D01*
X11452347Y38620541D01*
X11501303Y38600263D01*
X11655953Y38569501D01*
X11655956Y38569500D01*
X11655958Y38569500D01*
X11813644Y38569500D01*
X11813645Y38569501D01*
X11968297Y38600263D01*
X12113979Y38660606D01*
X12175943Y38702009D01*
X12245675Y38748602D01*
X12312353Y38769480D01*
X12314566Y38769500D01*
X19548231Y38769500D01*
X19615270Y38749815D01*
X19661025Y38697011D01*
X19670174Y38642134D01*
X19671900Y38642134D01*
X19671900Y38478354D01*
X19702661Y38323711D01*
X19702664Y38323699D01*
X19763002Y38178028D01*
X19763009Y38178015D01*
X19850610Y38046912D01*
X19850613Y38046908D01*
X19962107Y37935414D01*
X19962111Y37935411D01*
X20093214Y37847810D01*
X20093227Y37847803D01*
X20238898Y37787465D01*
X20238903Y37787463D01*
X20393553Y37756701D01*
X20393556Y37756700D01*
X20393558Y37756700D01*
X20551244Y37756700D01*
X20551245Y37756701D01*
X20705897Y37787463D01*
X20851579Y37847806D01*
X20982689Y37935411D01*
X21094189Y38046911D01*
X21181794Y38178021D01*
X21242137Y38323703D01*
X21272900Y38478358D01*
X21272900Y38636042D01*
X21272900Y38642134D01*
X21274829Y38642134D01*
X21286194Y38702009D01*
X21334266Y38752712D01*
X21396569Y38769500D01*
X25733702Y38769500D01*
X25800741Y38749815D01*
X25846496Y38697011D01*
X25856440Y38627853D01*
X25827415Y38564297D01*
X25821383Y38557819D01*
X24374784Y37111219D01*
X24313461Y37077734D01*
X24287103Y37074900D01*
X12771766Y37074900D01*
X12704727Y37094585D01*
X12702875Y37095798D01*
X12571185Y37183791D01*
X12571172Y37183798D01*
X12425501Y37244136D01*
X12425489Y37244139D01*
X12270845Y37274900D01*
X12270842Y37274900D01*
X12113158Y37274900D01*
X12113155Y37274900D01*
X11958510Y37244139D01*
X11958498Y37244136D01*
X11812827Y37183798D01*
X11812814Y37183791D01*
X11681711Y37096190D01*
X11681707Y37096187D01*
X11570213Y36984693D01*
X11570210Y36984689D01*
X11482609Y36853586D01*
X11482602Y36853573D01*
X11422264Y36707902D01*
X11422261Y36707890D01*
X11391500Y36553247D01*
X11391500Y36395554D01*
X11422261Y36240911D01*
X11422264Y36240899D01*
X11482602Y36095228D01*
X11482609Y36095215D01*
X11570210Y35964112D01*
X11570213Y35964108D01*
X11681707Y35852614D01*
X11681711Y35852611D01*
X11812814Y35765010D01*
X11812827Y35765003D01*
X11920922Y35720229D01*
X11975326Y35676388D01*
X11997391Y35610094D01*
X11980112Y35542395D01*
X11961151Y35517987D01*
X11420784Y34977619D01*
X11359461Y34944134D01*
X11333103Y34941300D01*
X8621070Y34941300D01*
X8621054Y34941301D01*
X8613458Y34941301D01*
X8455343Y34941301D01*
X8400491Y34926603D01*
X8302614Y34900377D01*
X8302609Y34900374D01*
X8165690Y34821325D01*
X8165682Y34821319D01*
X7808537Y34464174D01*
X7747214Y34430689D01*
X7745048Y34430238D01*
X7589708Y34399339D01*
X7589698Y34399336D01*
X7444027Y34338998D01*
X7444014Y34338991D01*
X7312911Y34251390D01*
X7312907Y34251387D01*
X7201413Y34139893D01*
X7201410Y34139889D01*
X7113809Y34008786D01*
X7113802Y34008773D01*
X7053464Y33863102D01*
X7053461Y33863090D01*
X7022700Y33708447D01*
X449700Y33708447D01*
X449700Y38178847D01*
X2857100Y38178847D01*
X2857100Y38021154D01*
X2887861Y37866511D01*
X2887864Y37866499D01*
X2948202Y37720828D01*
X2948209Y37720815D01*
X3035810Y37589712D01*
X3035813Y37589708D01*
X3147307Y37478214D01*
X3147311Y37478211D01*
X3278414Y37390610D01*
X3278427Y37390603D01*
X3424098Y37330265D01*
X3424103Y37330263D01*
X3578753Y37299501D01*
X3578756Y37299500D01*
X3578758Y37299500D01*
X3736444Y37299500D01*
X3736445Y37299501D01*
X3891097Y37330263D01*
X4036779Y37390606D01*
X4167889Y37478211D01*
X4279389Y37589711D01*
X4366994Y37720821D01*
X4427337Y37866503D01*
X4458100Y38021158D01*
X4458100Y38178842D01*
X4458100Y38178845D01*
X4458099Y38178847D01*
X4429285Y38323703D01*
X4427337Y38333497D01*
X4398751Y38402511D01*
X4366997Y38479173D01*
X4366990Y38479186D01*
X4279389Y38610289D01*
X4279386Y38610293D01*
X4167892Y38721787D01*
X4167888Y38721790D01*
X4036785Y38809391D01*
X4036772Y38809398D01*
X3891101Y38869736D01*
X3891089Y38869739D01*
X3736445Y38900500D01*
X3736442Y38900500D01*
X3578758Y38900500D01*
X3578755Y38900500D01*
X3424110Y38869739D01*
X3424098Y38869736D01*
X3278427Y38809398D01*
X3278414Y38809391D01*
X3147311Y38721790D01*
X3147307Y38721787D01*
X3035813Y38610293D01*
X3035810Y38610289D01*
X2948209Y38479186D01*
X2948202Y38479173D01*
X2887864Y38333502D01*
X2887861Y38333490D01*
X2857100Y38178847D01*
X449700Y38178847D01*
X449700Y44681247D01*
X30492300Y44681247D01*
X30492300Y44523554D01*
X30523061Y44368911D01*
X30523064Y44368899D01*
X30583402Y44223228D01*
X30583409Y44223215D01*
X30671010Y44092112D01*
X30671013Y44092108D01*
X30782507Y43980614D01*
X30782511Y43980611D01*
X30913614Y43893010D01*
X30913627Y43893003D01*
X31059298Y43832665D01*
X31059303Y43832663D01*
X31209092Y43802868D01*
X31213953Y43801901D01*
X31213956Y43801900D01*
X31213958Y43801900D01*
X31371644Y43801900D01*
X31371645Y43801901D01*
X31526297Y43832663D01*
X31671979Y43893006D01*
X31671985Y43893010D01*
X31803675Y43981002D01*
X31870353Y44001880D01*
X31872566Y44001900D01*
X33151434Y44001900D01*
X33218473Y43982215D01*
X33220325Y43981002D01*
X33352014Y43893010D01*
X33352027Y43893003D01*
X33398222Y43873870D01*
X33497703Y43832663D01*
X33652358Y43801900D01*
X33652361Y43801900D01*
X33810044Y43801900D01*
X33810045Y43801901D01*
X33964697Y43832663D01*
X34110379Y43893006D01*
X34241489Y43980611D01*
X34352989Y44092111D01*
X34440594Y44223221D01*
X34500937Y44368903D01*
X34531700Y44523558D01*
X34531700Y44681242D01*
X34531700Y44681245D01*
X34531699Y44681247D01*
X34500938Y44835890D01*
X34500937Y44835897D01*
X34500935Y44835902D01*
X34440597Y44981573D01*
X34440590Y44981586D01*
X34352989Y45112689D01*
X34352986Y45112693D01*
X34241492Y45224187D01*
X34241488Y45224190D01*
X34110385Y45311791D01*
X34110372Y45311798D01*
X33964701Y45372136D01*
X33964689Y45372139D01*
X33810045Y45402900D01*
X33810042Y45402900D01*
X33652358Y45402900D01*
X33652355Y45402900D01*
X33497710Y45372139D01*
X33497698Y45372136D01*
X33352027Y45311798D01*
X33352014Y45311791D01*
X33220325Y45223798D01*
X33153647Y45202920D01*
X33151434Y45202900D01*
X31872566Y45202900D01*
X31805527Y45222585D01*
X31803675Y45223798D01*
X31671985Y45311791D01*
X31671972Y45311798D01*
X31526301Y45372136D01*
X31526289Y45372139D01*
X31371645Y45402900D01*
X31371642Y45402900D01*
X31213958Y45402900D01*
X31213955Y45402900D01*
X31059310Y45372139D01*
X31059298Y45372136D01*
X30913627Y45311798D01*
X30913614Y45311791D01*
X30782511Y45224190D01*
X30782507Y45224187D01*
X30671013Y45112693D01*
X30671010Y45112689D01*
X30583409Y44981586D01*
X30583402Y44981573D01*
X30523064Y44835902D01*
X30523061Y44835890D01*
X30492300Y44681247D01*
X449700Y44681247D01*
X449700Y46018250D01*
X449926Y46025737D01*
X467471Y46315795D01*
X469276Y46330660D01*
X520980Y46612799D01*
X524564Y46627337D01*
X601296Y46873578D01*
X609896Y46901178D01*
X615198Y46915159D01*
X732931Y47176751D01*
X739876Y47189984D01*
X888280Y47435474D01*
X896767Y47447770D01*
X1073680Y47673583D01*
X1083595Y47684774D01*
X1286426Y47887605D01*
X1297617Y47897520D01*
X1523430Y48074433D01*
X1535726Y48082920D01*
X1781216Y48231324D01*
X1794449Y48238269D01*
X2056041Y48356002D01*
X2070022Y48361304D01*
X2343868Y48446638D01*
X2358397Y48450220D01*
X2640544Y48501925D01*
X2655401Y48503729D01*
X2945464Y48521274D01*
X2952951Y48521500D01*
X3015092Y48521500D01*
X69171708Y48521500D01*
X69233849Y48521500D01*
X69241336Y48521274D01*
G37*
%TD.AperFunction*%
%TD*%
M02*
