M48
; DRILL file {KiCad 9.0.6} date 2026-05-03T18:05:01+0200
; FORMAT={-:-/ absolute / metric / decimal}
; #@! TF.CreationDate,2026-05-03T18:05:01+02:00
; #@! TF.GenerationSoftware,Kicad,Pcbnew,9.0.6
; #@! TF.FileFunction,Plated,1,4,PTH
FMAT,2
METRIC
; #@! TA.AperFunction,Plated,PTH,ViaDrill
T1C0.200
; #@! TA.AperFunction,Plated,PTH,ComponentDrill
T2C0.200
; #@! TA.AperFunction,Plated,PTH,ViaDrill
T3C0.300
; #@! TA.AperFunction,Plated,PTH,ComponentDrill
T4C0.400
; #@! TA.AperFunction,Plated,PTH,ComponentDrill
T5C0.600
; #@! TA.AperFunction,Plated,PTH,ComponentDrill
T6C0.700
; #@! TA.AperFunction,Plated,PTH,ComponentDrill
T7C1.000
; #@! TA.AperFunction,Plated,PTH,ComponentDrill
T8C2.200
%
G90
G05
T1
X3.505Y41.605
X3.505Y36.525
X3.505Y33.985
X3.505Y31.445
X3.505Y28.905
X3.505Y26.365
X3.505Y23.825
X3.505Y21.285
X3.505Y18.745
X3.505Y16.205
X3.505Y13.665
X3.505Y11.125
X3.505Y8.585
X9.855Y45.415
X9.855Y42.875
X9.855Y32.715
X9.855Y30.175
X14.935Y45.415
X14.935Y42.875
X14.935Y32.715
X14.935Y30.175
X18.745Y26.365
X20.015Y16.205
X20.015Y13.665
X20.015Y11.125
X20.015Y8.585
X20.015Y6.045
X20.015Y3.505
X26.314Y18.44
X26.314Y16.967
X26.314Y15.392
X26.314Y13.818
X26.314Y12.192
X26.314Y10.008
X28.905Y45.415
X28.905Y42.875
X29.566Y18.39
X29.566Y12.598
X29.616Y16.967
X29.616Y15.443
X29.616Y14.072
X35.255Y30.175
X36.525Y26.365
X36.525Y23.825
X36.525Y17.475
X36.525Y14.935
X36.525Y12.395
X36.525Y9.855
X36.525Y3.505
X39.065Y41.605
X39.065Y39.065
X39.065Y36.525
X40.335Y30.175
X44.145Y30.175
X44.145Y3.505
X49.225Y21.285
X49.225Y14.935
X49.225Y12.395
X49.225Y9.855
X53.035Y41.605
X53.035Y23.825
X56.845Y41.605
X56.845Y28.905
X56.845Y26.365
X56.845Y23.825
X56.845Y21.285
X61.925Y45.415
X61.925Y42.875
X63.195Y4.775
X63.322Y13.284
X65.227Y13.284
X68.219Y22.585
X68.275Y32.715
X68.275Y30.175
X68.275Y27.635
X68.275Y25.095
X68.275Y20.015
X68.275Y17.475
X68.275Y14.935
X68.275Y12.395
X68.275Y9.855
T2
X44.247Y21.96
X44.247Y20.86
T3
X3.658Y38.1
X5.283Y22.606
X7.823Y33.63
X8.28Y16.307
X8.458Y28.981
X11.024Y26.162
X11.227Y14.681
X11.227Y12.192
X11.532Y9.296
X11.532Y5.131
X11.735Y39.37
X12.192Y36.474
X12.268Y19.025
X13.97Y4.877
X14.072Y9.246
X14.834Y23.216
X15.371Y10.893
X15.941Y42.276
X16.002Y27.33
X17.17Y13.564
X17.424Y37.338
X17.678Y46.228
X19.05Y40.234
X19.101Y21.387
X19.507Y30.226
X19.56Y34.9
X20.472Y42.57
X20.472Y38.557
X20.625Y43.434
X20.98Y22.957
X21.285Y42.926
X21.793Y18.898
X21.895Y11.989
X22.047Y20.422
X22.504Y33.985
X23.546Y31.877
X24.079Y40.03
X24.181Y18.999
X25.603Y6.147
X26.06Y20.117
X26.256Y22.649
X27.534Y30.582
X27.584Y29.515
X27.737Y25.959
X28.448Y35.865
X28.6Y25.908
X28.702Y23.825
X28.794Y28.847
X28.905Y11.887
X29.007Y37.338
X29.159Y8.28
X29.159Y6.147
X29.413Y38.303
X30.023Y38.913
X30.328Y35.916
X30.429Y12.596
X31.242Y19.304
X31.293Y44.602
X31.648Y9.703
X31.826Y30.226
X32.004Y35.306
X32.106Y27.427
X32.156Y26.213
X32.156Y21.234
X33.198Y20.015
X33.274Y42.824
X33.731Y44.602
X35.611Y10.312
X36.373Y36.83
X36.424Y37.592
X36.474Y38.303
X36.982Y20.726
X39.599Y15.113
X41.148Y19.101
X42.57Y11.582
X43.434Y43.739
X43.434Y39.065
X43.586Y17.577
X44.348Y26.67
X44.348Y25.298
X46.431Y32.766
X46.634Y43.231
X46.939Y38.202
X49.225Y40.234
X49.378Y41.199
X52.019Y20.828
X52.578Y12.954
X53.492Y17.272
X53.594Y5.029
X56.845Y13.564
X57.198Y9.909
X57.506Y12.802
X58.42Y5.08
X59.182Y40.691
X59.182Y39.421
X59.182Y38.151
X59.182Y35.611
X59.436Y8.534
X61.417Y9.597
X61.722Y7.569
X62.89Y39.37
X62.941Y40.691
X66.192Y10.312
T4
X1.804Y45.72
X1.804Y3.454
X2.288Y46.887
X2.288Y44.553
X2.288Y4.621
X2.288Y2.288
X3.454Y47.37
X3.454Y44.07
X3.454Y5.104
X3.454Y1.804
X4.621Y46.887
X4.621Y44.553
X4.621Y4.621
X4.621Y2.288
X5.104Y45.72
X5.104Y3.454
X67.184Y45.72
X67.184Y3.454
X67.667Y46.887
X67.667Y44.553
X67.667Y4.621
X67.667Y2.288
X68.834Y47.37
X68.834Y44.07
X68.834Y5.104
X68.834Y1.804
X70.001Y46.887
X70.001Y44.553
X70.001Y4.621
X70.001Y2.288
X70.484Y45.72
X70.484Y3.454
T6
X62.195Y20.311
X64.195Y20.311
T7
X46.939Y5.588
X46.939Y3.048
X50.084Y36.22
X50.089Y28.651
X52.624Y36.22
X52.629Y28.651
X61.321Y28.651
X63.861Y28.651
T8
X3.454Y45.72
X3.454Y3.454
X68.834Y45.72
X68.834Y3.454
T5
G00X23.092Y7.287
M15
G01X23.092Y6.187
M16
G05
G00X23.092Y2.957
M15
G01X23.092Y2.157
M16
G05
G00X31.732Y7.287
M15
G01X31.732Y6.187
M16
G05
G00X31.732Y2.957
M15
G01X31.732Y2.157
M16
G05
M30
