%TF.GenerationSoftware,KiCad,Pcbnew,9.0.6*%
%TF.CreationDate,2026-05-03T18:05:21+02:00*%
%TF.ProjectId,STM32F0_PCB1,53544d33-3246-4305-9f50-4342312e6b69,rev?*%
%TF.SameCoordinates,PX7223ec0PY875c260*%
%TF.FileFunction,Copper,L3,Inr*%
%TF.FilePolarity,Positive*%
%FSLAX46Y46*%
G04 Gerber Fmt 4.6, Leading zero omitted, Abs format (unit mm)*
G04 Created by KiCad (PCBNEW 9.0.6) date 2026-05-03 18:05:21*
%MOMM*%
%LPD*%
G01*
G04 APERTURE LIST*
%TA.AperFunction,ComponentPad*%
%ADD10C,0.700000*%
%TD*%
%TA.AperFunction,ComponentPad*%
%ADD11C,4.400000*%
%TD*%
%TA.AperFunction,ComponentPad*%
%ADD12R,1.100000X1.100000*%
%TD*%
%TA.AperFunction,ComponentPad*%
%ADD13C,1.100000*%
%TD*%
%TA.AperFunction,HeatsinkPad*%
%ADD14C,0.500000*%
%TD*%
%TA.AperFunction,ComponentPad*%
%ADD15R,1.700000X1.700000*%
%TD*%
%TA.AperFunction,ComponentPad*%
%ADD16C,1.700000*%
%TD*%
%TA.AperFunction,HeatsinkPad*%
%ADD17O,1.000000X2.100000*%
%TD*%
%TA.AperFunction,HeatsinkPad*%
%ADD18O,1.000000X1.800000*%
%TD*%
%TA.AperFunction,ViaPad*%
%ADD19C,0.600000*%
%TD*%
G04 APERTURE END LIST*
D10*
%TO.N,GND*%
%TO.C,H2*%
X1804400Y3454400D03*
X2287674Y4621126D03*
X2287674Y2287674D03*
X3454400Y5104400D03*
D11*
X3454400Y3454400D03*
D10*
X3454400Y1804400D03*
X4621126Y4621126D03*
X4621126Y2287674D03*
X5104400Y3454400D03*
%TD*%
D12*
%TO.N,/VBAT*%
%TO.C,J2*%
X62195200Y20311200D03*
D13*
%TO.N,GND*%
X64195200Y20311200D03*
%TD*%
D14*
%TO.N,GND*%
%TO.C,U2*%
X44247000Y21960000D03*
X44247000Y20860000D03*
%TD*%
D10*
%TO.N,GND*%
%TO.C,H1*%
X1804400Y45720000D03*
X2287674Y46886726D03*
X2287674Y44553274D03*
X3454400Y47370000D03*
D11*
X3454400Y45720000D03*
D10*
X3454400Y44070000D03*
X4621126Y46886726D03*
X4621126Y44553274D03*
X5104400Y45720000D03*
%TD*%
%TO.N,GND*%
%TO.C,H4*%
X67184000Y3454400D03*
X67667274Y4621126D03*
X67667274Y2287674D03*
X68834000Y5104400D03*
D11*
X68834000Y3454400D03*
D10*
X68834000Y1804400D03*
X70000726Y4621126D03*
X70000726Y2287674D03*
X70484000Y3454400D03*
%TD*%
D15*
%TO.N,/VBAT*%
%TO.C,J5*%
X61320600Y28651200D03*
D16*
%TO.N,GND*%
X63860600Y28651200D03*
%TD*%
D15*
%TO.N,/MTR_OUT1*%
%TO.C,J4*%
X50083800Y36220400D03*
D16*
%TO.N,/MTR_OUT2*%
X52623800Y36220400D03*
%TD*%
D15*
%TO.N,+3V3*%
%TO.C,J6*%
X50088800Y28651200D03*
D16*
%TO.N,GND*%
X52628800Y28651200D03*
%TD*%
D15*
%TO.N,+5V*%
%TO.C,J7*%
X46939200Y5588000D03*
D16*
%TO.N,GND*%
X46939200Y3048000D03*
%TD*%
D10*
%TO.N,GND*%
%TO.C,H3*%
X67184000Y45720000D03*
X67667274Y46886726D03*
X67667274Y44553274D03*
X68834000Y47370000D03*
D11*
X68834000Y45720000D03*
D10*
X68834000Y44070000D03*
X70000726Y46886726D03*
X70000726Y44553274D03*
X70484000Y45720000D03*
%TD*%
D17*
%TO.N,GND*%
%TO.C,J1*%
X23092200Y6737200D03*
D18*
X23092200Y2557200D03*
D17*
X31732200Y6737200D03*
D18*
X31732200Y2557200D03*
%TD*%
D19*
%TO.N,GND*%
X39065200Y39065200D03*
X49225200Y9855200D03*
X32105600Y27427300D03*
X15370800Y10892800D03*
X35255200Y30175200D03*
X28448000Y35864800D03*
X9855200Y45415200D03*
X14935200Y30175200D03*
X22047200Y20421600D03*
X3505200Y36525200D03*
X44145200Y30175200D03*
X52578000Y12954000D03*
X57197879Y9908921D03*
X39065200Y36525200D03*
X66192400Y10312400D03*
X53035200Y41605200D03*
X14935200Y42875200D03*
X36525200Y3505200D03*
X68275200Y14935200D03*
X11531600Y5130800D03*
X20472400Y42570400D03*
X39065200Y41605200D03*
X43434000Y39065200D03*
X3505200Y8585200D03*
X29565600Y18389600D03*
X61925200Y42875200D03*
X26314400Y16967200D03*
X53492400Y17272000D03*
X3505200Y18745200D03*
X35610800Y10312400D03*
X58420000Y5080000D03*
X20015200Y13665200D03*
X57505600Y12801600D03*
X36423600Y37592000D03*
X20015200Y11125200D03*
X20015200Y6045200D03*
X17678400Y46228000D03*
X59182000Y39420800D03*
X11226800Y14681200D03*
X68219056Y22585333D03*
X26314400Y18440400D03*
X56845200Y23825200D03*
X56845200Y26365200D03*
X56845200Y21285200D03*
X15941000Y42275800D03*
X8458200Y28981400D03*
X3505200Y28905200D03*
X39598600Y15113000D03*
X9855200Y30175200D03*
X68275200Y12395200D03*
X59182000Y35610800D03*
X18745200Y26365200D03*
X3505200Y23825200D03*
X68275200Y20015200D03*
X53035200Y23825200D03*
X59436000Y8534400D03*
X21285200Y42926000D03*
X36525200Y14935200D03*
X26060400Y20116800D03*
X20015200Y8585200D03*
X44145200Y3505200D03*
X49225200Y14935200D03*
X29616400Y14071600D03*
X26314400Y15392400D03*
X3505200Y16205200D03*
X41148000Y19100800D03*
X49225200Y21285200D03*
X53594000Y5029200D03*
X68275200Y32715200D03*
X3505200Y21285200D03*
X68275200Y9855200D03*
X36474400Y38303200D03*
X49377600Y41198800D03*
X28905200Y42875200D03*
X43434000Y43738800D03*
X26314400Y13817600D03*
X9855200Y42875200D03*
X36525200Y12395200D03*
X26314400Y10007600D03*
X21894800Y11988800D03*
X29565600Y12598400D03*
X9855200Y32715200D03*
X11531600Y9296400D03*
X28905200Y11887200D03*
X29616400Y15443200D03*
X61925200Y45415200D03*
X36525200Y9855200D03*
X40335200Y30175200D03*
X3505200Y41605200D03*
X63195200Y4775200D03*
X29616400Y16967200D03*
X32004000Y35306000D03*
X20624800Y43434000D03*
X17424400Y37338000D03*
X44348400Y26670000D03*
X3505200Y11125200D03*
X3505200Y13665200D03*
X3505200Y33985200D03*
X26314400Y12192000D03*
X28905200Y45415200D03*
X14935200Y45415200D03*
X68275200Y27635200D03*
X61417200Y9597200D03*
X20015200Y16205200D03*
X65227200Y13284200D03*
X68275200Y25095200D03*
X3505200Y31445200D03*
X30429200Y12596500D03*
X36372800Y36830000D03*
X3505200Y26365200D03*
X49225200Y12395200D03*
X36525200Y26365200D03*
X56845200Y28905200D03*
X32156400Y21234400D03*
X20015200Y3505200D03*
X49225200Y40233600D03*
X36525200Y23825200D03*
X43586400Y17576800D03*
X68275200Y17475200D03*
X14935200Y32715200D03*
X14833600Y23215600D03*
X68275200Y30175200D03*
X36525200Y17475200D03*
X56845200Y41605200D03*
X59182000Y38150800D03*
X63322200Y13284200D03*
%TO.N,+3V3*%
X16002000Y27330400D03*
X19050000Y40233600D03*
X32156400Y26212800D03*
X14071600Y9245600D03*
X12268200Y19024600D03*
X19559900Y34899600D03*
X19507200Y30226000D03*
X20980400Y22956900D03*
X13970000Y4876800D03*
X24079200Y40030400D03*
X59182000Y40690800D03*
X44348400Y25298400D03*
X3657600Y38100000D03*
X20472400Y38557200D03*
X30327600Y35915600D03*
X11226800Y12192000D03*
X5283200Y22606000D03*
X46634400Y43230800D03*
%TO.N,/nRESET*%
X8280400Y16306800D03*
X27736800Y25958800D03*
X31826200Y30226000D03*
X27584400Y29514800D03*
%TO.N,+5V*%
X46939200Y38201600D03*
X29159200Y6146800D03*
X25603200Y6146800D03*
X52019200Y20828000D03*
X56845200Y13563600D03*
X46431200Y32766000D03*
%TO.N,/nCHG*%
X61722000Y7569200D03*
X36982400Y20726400D03*
%TO.N,Net-(J1-CC2)*%
X31648400Y9702800D03*
X29159200Y8280400D03*
%TO.N,/MCU_LED*%
X42570400Y11582400D03*
X28702000Y23825200D03*
%TO.N,/I2C_SDA*%
X28794200Y28846969D03*
X23545800Y31877000D03*
%TO.N,/BOOT*%
X17170400Y13563600D03*
X28600400Y25908000D03*
%TO.N,/I2C_SCL*%
X22504400Y33985200D03*
X27533600Y30581600D03*
%TO.N,/RGB_B*%
X30022800Y38912800D03*
X11734800Y39370000D03*
%TO.N,/RGB_G*%
X12192000Y36474400D03*
X29413200Y38303200D03*
%TO.N,/RGB_R*%
X29006800Y37338000D03*
X7823200Y33629600D03*
%TO.N,/SPI1_MISO*%
X24180800Y18999200D03*
X19100800Y21386800D03*
X21793200Y18897600D03*
X11023600Y26162000D03*
%TO.N,/IO_INT*%
X33274000Y42824400D03*
X26255691Y22648891D03*
%TO.N,/MTR_nSLEEP*%
X31292800Y44602400D03*
X33731200Y44602400D03*
%TO.N,/SWCLK*%
X62890400Y39370000D03*
X33197800Y20015200D03*
%TO.N,/SWDIO*%
X31242000Y19304000D03*
X62941200Y40690800D03*
%TD*%
%TA.AperFunction,Conductor*%
%TO.N,+3V3*%
G36*
X69241336Y48521274D02*
G01*
X69531396Y48503729D01*
X69546259Y48501924D01*
X69828398Y48450220D01*
X69842935Y48446637D01*
X70116772Y48361305D01*
X70130763Y48356000D01*
X70392343Y48238273D01*
X70405589Y48231320D01*
X70651065Y48082925D01*
X70663376Y48074427D01*
X70719680Y48030316D01*
X70889173Y47897527D01*
X70900381Y47887597D01*
X71103196Y47684782D01*
X71113126Y47673574D01*
X71233081Y47520462D01*
X71290022Y47447783D01*
X71298526Y47435463D01*
X71439233Y47202705D01*
X71446916Y47189996D01*
X71453875Y47176737D01*
X71571597Y46915169D01*
X71576906Y46901168D01*
X71662235Y46627337D01*
X71665819Y46612799D01*
X71717523Y46330660D01*
X71719328Y46315795D01*
X71736874Y46025737D01*
X71737100Y46018250D01*
X71737100Y3003751D01*
X71736874Y2996264D01*
X71719328Y2706206D01*
X71717523Y2691341D01*
X71665819Y2409202D01*
X71662235Y2394664D01*
X71576906Y2120833D01*
X71571597Y2106832D01*
X71453875Y1845264D01*
X71446916Y1832005D01*
X71298528Y1586541D01*
X71290022Y1574218D01*
X71113126Y1348427D01*
X71103196Y1337219D01*
X70900381Y1134404D01*
X70889173Y1124474D01*
X70663382Y947578D01*
X70651059Y939072D01*
X70405595Y790684D01*
X70392336Y783725D01*
X70130768Y666003D01*
X70116767Y660694D01*
X69842936Y575365D01*
X69828398Y571781D01*
X69546259Y520077D01*
X69531394Y518272D01*
X69241336Y500726D01*
X69233849Y500500D01*
X2952951Y500500D01*
X2945464Y500726D01*
X2655405Y518272D01*
X2640540Y520077D01*
X2358401Y571781D01*
X2343863Y575365D01*
X2070032Y660694D01*
X2056031Y666003D01*
X1794463Y783725D01*
X1781204Y790684D01*
X1535740Y939072D01*
X1523417Y947578D01*
X1297626Y1124474D01*
X1286418Y1134404D01*
X1083603Y1337219D01*
X1073673Y1348427D01*
X1072350Y1350116D01*
X896773Y1574224D01*
X888275Y1586535D01*
X739880Y1832011D01*
X732927Y1845257D01*
X615200Y2106837D01*
X609893Y2120833D01*
X556741Y2291403D01*
X524563Y2394665D01*
X520980Y2409202D01*
X469276Y2691341D01*
X467471Y2706206D01*
X449926Y2996264D01*
X449700Y3003751D01*
X449700Y3589214D01*
X1053900Y3589214D01*
X1053900Y3319587D01*
X1084086Y3051681D01*
X1084088Y3051669D01*
X1144084Y2788806D01*
X1144087Y2788798D01*
X1233134Y2534318D01*
X1350114Y2291406D01*
X1350116Y2291403D01*
X1493562Y2063111D01*
X1661666Y1852315D01*
X1852315Y1661666D01*
X2063111Y1493562D01*
X2291403Y1350116D01*
X2534321Y1233133D01*
X2725449Y1166255D01*
X2788797Y1144088D01*
X2788805Y1144085D01*
X2788808Y1144085D01*
X2788809Y1144084D01*
X3051668Y1084088D01*
X3319587Y1053901D01*
X3319588Y1053900D01*
X3319591Y1053900D01*
X3589212Y1053900D01*
X3589212Y1053901D01*
X3857132Y1084088D01*
X4119991Y1144084D01*
X4374479Y1233133D01*
X4617397Y1350116D01*
X4845689Y1493562D01*
X5056485Y1661666D01*
X5247134Y1852315D01*
X5415238Y2063111D01*
X5431006Y2088205D01*
X22391699Y2088205D01*
X22418618Y1952878D01*
X22418621Y1952868D01*
X22471421Y1825396D01*
X22471428Y1825383D01*
X22548085Y1710659D01*
X22548088Y1710655D01*
X22645654Y1613089D01*
X22645658Y1613086D01*
X22760382Y1536429D01*
X22760395Y1536422D01*
X22887867Y1483622D01*
X22887872Y1483620D01*
X22887876Y1483620D01*
X22887877Y1483619D01*
X23023204Y1456700D01*
X23023207Y1456700D01*
X23161195Y1456700D01*
X23252241Y1474811D01*
X23296528Y1483620D01*
X23424011Y1536425D01*
X23538742Y1613086D01*
X23636314Y1710658D01*
X23712975Y1825389D01*
X23715716Y1832005D01*
X23765778Y1952868D01*
X23765780Y1952872D01*
X23782687Y2037870D01*
X23792700Y2088205D01*
X31031699Y2088205D01*
X31058618Y1952878D01*
X31058621Y1952868D01*
X31111421Y1825396D01*
X31111428Y1825383D01*
X31188085Y1710659D01*
X31188088Y1710655D01*
X31285654Y1613089D01*
X31285658Y1613086D01*
X31400382Y1536429D01*
X31400395Y1536422D01*
X31527867Y1483622D01*
X31527872Y1483620D01*
X31527876Y1483620D01*
X31527877Y1483619D01*
X31663204Y1456700D01*
X31663207Y1456700D01*
X31801195Y1456700D01*
X31892241Y1474811D01*
X31936528Y1483620D01*
X32064011Y1536425D01*
X32178742Y1613086D01*
X32276314Y1710658D01*
X32352975Y1825389D01*
X32355716Y1832005D01*
X32405778Y1952868D01*
X32405780Y1952872D01*
X32422687Y2037870D01*
X32432700Y2088205D01*
X32432700Y3026196D01*
X32405781Y3161523D01*
X32405780Y3161524D01*
X32405780Y3161528D01*
X32390720Y3197887D01*
X32352978Y3289005D01*
X32352971Y3289018D01*
X32276314Y3403742D01*
X32276311Y3403746D01*
X32178745Y3501312D01*
X32178741Y3501315D01*
X32074314Y3571092D01*
X36024700Y3571092D01*
X36024700Y3439309D01*
X36058808Y3312013D01*
X36072092Y3289005D01*
X36124700Y3197886D01*
X36217886Y3104700D01*
X36332014Y3038808D01*
X36459308Y3004700D01*
X36459310Y3004700D01*
X36591090Y3004700D01*
X36591092Y3004700D01*
X36718386Y3038808D01*
X36832514Y3104700D01*
X36925700Y3197886D01*
X36991592Y3312014D01*
X37025700Y3439308D01*
X37025700Y3571092D01*
X43644700Y3571092D01*
X43644700Y3439309D01*
X43678808Y3312013D01*
X43692092Y3289005D01*
X43744700Y3197886D01*
X43837886Y3104700D01*
X43952014Y3038808D01*
X44079308Y3004700D01*
X44079310Y3004700D01*
X44211090Y3004700D01*
X44211092Y3004700D01*
X44338386Y3038808D01*
X44452514Y3104700D01*
X44499284Y3151470D01*
X45888700Y3151470D01*
X45888700Y2944531D01*
X45929068Y2741588D01*
X45929070Y2741580D01*
X46008258Y2550404D01*
X46123224Y2378343D01*
X46269542Y2232025D01*
X46269545Y2232023D01*
X46441602Y2117059D01*
X46632780Y2037870D01*
X46835730Y1997501D01*
X46835734Y1997500D01*
X46835735Y1997500D01*
X47042666Y1997500D01*
X47042667Y1997501D01*
X47245620Y2037870D01*
X47436798Y2117059D01*
X47608855Y2232023D01*
X47755177Y2378345D01*
X47870141Y2550402D01*
X47949330Y2741580D01*
X47989700Y2944535D01*
X47989700Y3151465D01*
X47949330Y3354420D01*
X47888485Y3501312D01*
X47870292Y3545235D01*
X47870291Y3545236D01*
X47870143Y3545595D01*
X47840998Y3589214D01*
X66433500Y3589214D01*
X66433500Y3319587D01*
X66463686Y3051681D01*
X66463688Y3051669D01*
X66523684Y2788806D01*
X66523687Y2788798D01*
X66612734Y2534318D01*
X66729714Y2291406D01*
X66729716Y2291403D01*
X66873162Y2063111D01*
X67041266Y1852315D01*
X67231915Y1661666D01*
X67442711Y1493562D01*
X67671003Y1350116D01*
X67913921Y1233133D01*
X68105049Y1166255D01*
X68168397Y1144088D01*
X68168405Y1144085D01*
X68168408Y1144085D01*
X68168409Y1144084D01*
X68431268Y1084088D01*
X68699187Y1053901D01*
X68699188Y1053900D01*
X68699191Y1053900D01*
X68968812Y1053900D01*
X68968812Y1053901D01*
X69236732Y1084088D01*
X69499591Y1144084D01*
X69754079Y1233133D01*
X69996997Y1350116D01*
X70225289Y1493562D01*
X70436085Y1661666D01*
X70626734Y1852315D01*
X70794838Y2063111D01*
X70938284Y2291403D01*
X71055267Y2534321D01*
X71144316Y2788809D01*
X71204312Y3051668D01*
X71234500Y3319591D01*
X71234500Y3589209D01*
X71204312Y3857132D01*
X71144316Y4119991D01*
X71055267Y4374479D01*
X70938284Y4617397D01*
X70794838Y4845689D01*
X70626734Y5056485D01*
X70436085Y5247134D01*
X70225289Y5415238D01*
X69996997Y5558684D01*
X69996994Y5558686D01*
X69754082Y5675666D01*
X69499602Y5764713D01*
X69499594Y5764716D01*
X69302446Y5809713D01*
X69236732Y5824712D01*
X69236728Y5824713D01*
X69236719Y5824714D01*
X68968813Y5854900D01*
X68968809Y5854900D01*
X68699191Y5854900D01*
X68699186Y5854900D01*
X68431280Y5824714D01*
X68431268Y5824712D01*
X68168405Y5764716D01*
X68168397Y5764713D01*
X67913917Y5675666D01*
X67671005Y5558686D01*
X67442712Y5415239D01*
X67231915Y5247135D01*
X67041265Y5056485D01*
X66873161Y4845688D01*
X66729714Y4617395D01*
X66612734Y4374483D01*
X66523687Y4120003D01*
X66523684Y4119995D01*
X66463688Y3857132D01*
X66463686Y3857120D01*
X66433500Y3589214D01*
X47840998Y3589214D01*
X47755175Y3717658D01*
X47608857Y3863976D01*
X47522826Y3921459D01*
X47436798Y3978941D01*
X47372196Y4005700D01*
X47245620Y4058130D01*
X47245612Y4058132D01*
X47042669Y4098500D01*
X47042665Y4098500D01*
X46835735Y4098500D01*
X46835730Y4098500D01*
X46632787Y4058132D01*
X46632779Y4058130D01*
X46441603Y3978942D01*
X46269542Y3863976D01*
X46123224Y3717658D01*
X46008258Y3545597D01*
X45929070Y3354421D01*
X45929068Y3354413D01*
X45888700Y3151470D01*
X44499284Y3151470D01*
X44545700Y3197886D01*
X44611592Y3312014D01*
X44645700Y3439308D01*
X44645700Y3571092D01*
X44611592Y3698386D01*
X44545700Y3812514D01*
X44452514Y3905700D01*
X44395450Y3938646D01*
X44338387Y3971592D01*
X44274739Y3988646D01*
X44211092Y4005700D01*
X44079308Y4005700D01*
X43952012Y3971592D01*
X43837886Y3905700D01*
X43837883Y3905698D01*
X43744702Y3812517D01*
X43744700Y3812514D01*
X43678808Y3698388D01*
X43644700Y3571092D01*
X37025700Y3571092D01*
X36991592Y3698386D01*
X36925700Y3812514D01*
X36832514Y3905700D01*
X36775450Y3938646D01*
X36718387Y3971592D01*
X36654739Y3988646D01*
X36591092Y4005700D01*
X36459308Y4005700D01*
X36332012Y3971592D01*
X36217886Y3905700D01*
X36217883Y3905698D01*
X36124702Y3812517D01*
X36124700Y3812514D01*
X36058808Y3698388D01*
X36024700Y3571092D01*
X32074314Y3571092D01*
X32064017Y3577972D01*
X32064004Y3577979D01*
X31936532Y3630779D01*
X31936522Y3630782D01*
X31801195Y3657700D01*
X31801193Y3657700D01*
X31663207Y3657700D01*
X31663205Y3657700D01*
X31527877Y3630782D01*
X31527867Y3630779D01*
X31400395Y3577979D01*
X31400382Y3577972D01*
X31285658Y3501315D01*
X31285654Y3501312D01*
X31188088Y3403746D01*
X31188085Y3403742D01*
X31111428Y3289018D01*
X31111421Y3289005D01*
X31058621Y3161533D01*
X31058618Y3161523D01*
X31031700Y3026196D01*
X31031700Y3026193D01*
X31031700Y2088207D01*
X31031700Y2088205D01*
X31031699Y2088205D01*
X23792700Y2088205D01*
X23792700Y3026196D01*
X23765781Y3161523D01*
X23765780Y3161524D01*
X23765780Y3161528D01*
X23750720Y3197887D01*
X23712978Y3289005D01*
X23712971Y3289018D01*
X23636314Y3403742D01*
X23636311Y3403746D01*
X23538745Y3501312D01*
X23538741Y3501315D01*
X23424017Y3577972D01*
X23424004Y3577979D01*
X23296532Y3630779D01*
X23296522Y3630782D01*
X23161195Y3657700D01*
X23161193Y3657700D01*
X23023207Y3657700D01*
X23023205Y3657700D01*
X22887877Y3630782D01*
X22887867Y3630779D01*
X22760395Y3577979D01*
X22760382Y3577972D01*
X22645658Y3501315D01*
X22645654Y3501312D01*
X22548088Y3403746D01*
X22548085Y3403742D01*
X22471428Y3289018D01*
X22471421Y3289005D01*
X22418621Y3161533D01*
X22418618Y3161523D01*
X22391700Y3026196D01*
X22391700Y3026193D01*
X22391700Y2088207D01*
X22391700Y2088205D01*
X22391699Y2088205D01*
X5431006Y2088205D01*
X5558684Y2291403D01*
X5675667Y2534321D01*
X5764716Y2788809D01*
X5824712Y3051668D01*
X5854900Y3319591D01*
X5854900Y3571092D01*
X19514700Y3571092D01*
X19514700Y3439309D01*
X19548808Y3312013D01*
X19562092Y3289005D01*
X19614700Y3197886D01*
X19707886Y3104700D01*
X19822014Y3038808D01*
X19949308Y3004700D01*
X19949310Y3004700D01*
X20081090Y3004700D01*
X20081092Y3004700D01*
X20208386Y3038808D01*
X20322514Y3104700D01*
X20415700Y3197886D01*
X20481592Y3312014D01*
X20515700Y3439308D01*
X20515700Y3571092D01*
X20481592Y3698386D01*
X20415700Y3812514D01*
X20322514Y3905700D01*
X20265450Y3938646D01*
X20208387Y3971592D01*
X20144739Y3988646D01*
X20081092Y4005700D01*
X19949308Y4005700D01*
X19822012Y3971592D01*
X19707886Y3905700D01*
X19707883Y3905698D01*
X19614702Y3812517D01*
X19614700Y3812514D01*
X19548808Y3698388D01*
X19514700Y3571092D01*
X5854900Y3571092D01*
X5854900Y3589209D01*
X5824712Y3857132D01*
X5764716Y4119991D01*
X5675667Y4374479D01*
X5558684Y4617397D01*
X5415238Y4845689D01*
X5247134Y5056485D01*
X5106927Y5196692D01*
X11031100Y5196692D01*
X11031100Y5064909D01*
X11065208Y4937613D01*
X11094537Y4886814D01*
X11131100Y4823486D01*
X11224286Y4730300D01*
X11338414Y4664408D01*
X11465708Y4630300D01*
X11465710Y4630300D01*
X11597490Y4630300D01*
X11597492Y4630300D01*
X11724786Y4664408D01*
X11838914Y4730300D01*
X11932100Y4823486D01*
X11997992Y4937614D01*
X12032100Y5064908D01*
X12032100Y5196692D01*
X11997992Y5323986D01*
X11932100Y5438114D01*
X11838914Y5531300D01*
X11756628Y5578808D01*
X11724787Y5597192D01*
X11661139Y5614246D01*
X11597492Y5631300D01*
X11465708Y5631300D01*
X11338412Y5597192D01*
X11224286Y5531300D01*
X11224283Y5531298D01*
X11131102Y5438117D01*
X11131100Y5438114D01*
X11065208Y5323988D01*
X11031100Y5196692D01*
X5106927Y5196692D01*
X5056485Y5247134D01*
X4845689Y5415238D01*
X4617397Y5558684D01*
X4617394Y5558686D01*
X4374482Y5675666D01*
X4120002Y5764713D01*
X4119994Y5764716D01*
X3922846Y5809713D01*
X3857132Y5824712D01*
X3857128Y5824713D01*
X3857119Y5824714D01*
X3589213Y5854900D01*
X3589209Y5854900D01*
X3319591Y5854900D01*
X3319586Y5854900D01*
X3051680Y5824714D01*
X3051668Y5824712D01*
X2788805Y5764716D01*
X2788797Y5764713D01*
X2534317Y5675666D01*
X2291405Y5558686D01*
X2063112Y5415239D01*
X1852315Y5247135D01*
X1661665Y5056485D01*
X1493561Y4845688D01*
X1350114Y4617395D01*
X1233134Y4374483D01*
X1144087Y4120003D01*
X1144084Y4119995D01*
X1084088Y3857132D01*
X1084086Y3857120D01*
X1053900Y3589214D01*
X449700Y3589214D01*
X449700Y6111092D01*
X19514700Y6111092D01*
X19514700Y5979308D01*
X19521223Y5954964D01*
X19548808Y5852013D01*
X19564571Y5824712D01*
X19614700Y5737886D01*
X19707886Y5644700D01*
X19822014Y5578808D01*
X19949308Y5544700D01*
X19949310Y5544700D01*
X20081090Y5544700D01*
X20081092Y5544700D01*
X20208386Y5578808D01*
X20322514Y5644700D01*
X20415700Y5737886D01*
X20481592Y5852014D01*
X20515700Y5979308D01*
X20515700Y6111092D01*
X20513794Y6118205D01*
X22391699Y6118205D01*
X22418618Y5982878D01*
X22418621Y5982868D01*
X22471421Y5855396D01*
X22471428Y5855383D01*
X22548085Y5740659D01*
X22548088Y5740655D01*
X22645654Y5643089D01*
X22645658Y5643086D01*
X22760382Y5566429D01*
X22760395Y5566422D01*
X22845193Y5531298D01*
X22887872Y5513620D01*
X22887876Y5513620D01*
X22887877Y5513619D01*
X23023204Y5486700D01*
X23023207Y5486700D01*
X23161195Y5486700D01*
X23252241Y5504811D01*
X23296528Y5513620D01*
X23424011Y5566425D01*
X23538742Y5643086D01*
X23636314Y5740658D01*
X23712975Y5855389D01*
X23765780Y5982872D01*
X23785964Y6084343D01*
X23818348Y6146254D01*
X23879064Y6180828D01*
X23948834Y6177089D01*
X24005506Y6136223D01*
X24027355Y6092247D01*
X24041830Y6038227D01*
X24041832Y6038222D01*
X24109695Y5920680D01*
X24109697Y5920678D01*
X24109698Y5920676D01*
X24205676Y5824698D01*
X24205677Y5824697D01*
X24205679Y5824696D01*
X24323221Y5756833D01*
X24323222Y5756833D01*
X24323225Y5756831D01*
X24454333Y5721700D01*
X24454335Y5721700D01*
X24590065Y5721700D01*
X24590067Y5721700D01*
X24721175Y5756831D01*
X24838724Y5824698D01*
X24934702Y5920676D01*
X24937875Y5926173D01*
X24988441Y5974389D01*
X25057048Y5987613D01*
X25121913Y5961646D01*
X25152649Y5926176D01*
X25202700Y5839486D01*
X25295886Y5746300D01*
X25410014Y5680408D01*
X25537308Y5646300D01*
X25537310Y5646300D01*
X25669090Y5646300D01*
X25669092Y5646300D01*
X25796386Y5680408D01*
X25910514Y5746300D01*
X26003700Y5839486D01*
X26069592Y5953614D01*
X26103700Y6080908D01*
X26103700Y6212692D01*
X28658700Y6212692D01*
X28658700Y6080909D01*
X28692808Y5953613D01*
X28711824Y5920677D01*
X28758700Y5839486D01*
X28851886Y5746300D01*
X28966014Y5680408D01*
X29093308Y5646300D01*
X29093310Y5646300D01*
X29225090Y5646300D01*
X29225092Y5646300D01*
X29352386Y5680408D01*
X29466514Y5746300D01*
X29559700Y5839486D01*
X29625592Y5953614D01*
X29625798Y5954386D01*
X29626151Y5954964D01*
X29628700Y5961118D01*
X29629659Y5960721D01*
X29662153Y6014046D01*
X29724996Y6044583D01*
X29794373Y6036298D01*
X29848256Y5991819D01*
X29852962Y5984304D01*
X29855846Y5979309D01*
X29889698Y5920676D01*
X29985676Y5824698D01*
X29985677Y5824697D01*
X29985679Y5824696D01*
X30103221Y5756833D01*
X30103222Y5756833D01*
X30103225Y5756831D01*
X30234333Y5721700D01*
X30234335Y5721700D01*
X30370065Y5721700D01*
X30370067Y5721700D01*
X30501175Y5756831D01*
X30618724Y5824698D01*
X30714702Y5920676D01*
X30782569Y6038225D01*
X30797044Y6092248D01*
X30833408Y6151906D01*
X30896255Y6182435D01*
X30965630Y6174140D01*
X31019508Y6129655D01*
X31038435Y6084344D01*
X31058618Y5982878D01*
X31058621Y5982868D01*
X31111421Y5855396D01*
X31111428Y5855383D01*
X31188085Y5740659D01*
X31188088Y5740655D01*
X31285654Y5643089D01*
X31285658Y5643086D01*
X31400382Y5566429D01*
X31400395Y5566422D01*
X31485193Y5531298D01*
X31527872Y5513620D01*
X31527876Y5513620D01*
X31527877Y5513619D01*
X31663204Y5486700D01*
X31663207Y5486700D01*
X31801195Y5486700D01*
X31892241Y5504811D01*
X31936528Y5513620D01*
X32064011Y5566425D01*
X32178742Y5643086D01*
X32276314Y5740658D01*
X32352975Y5855389D01*
X32405780Y5982872D01*
X32416790Y6038223D01*
X32432700Y6118205D01*
X32432700Y6457753D01*
X45888700Y6457753D01*
X45888700Y4718248D01*
X45900331Y4659771D01*
X45900332Y4659770D01*
X45944647Y4593448D01*
X46010969Y4549133D01*
X46010970Y4549132D01*
X46069447Y4537501D01*
X46069450Y4537500D01*
X46069452Y4537500D01*
X47808950Y4537500D01*
X47808951Y4537501D01*
X47823768Y4540448D01*
X47867429Y4549132D01*
X47867429Y4549133D01*
X47867431Y4549133D01*
X47933752Y4593448D01*
X47978067Y4659769D01*
X47978067Y4659771D01*
X47978068Y4659771D01*
X47989699Y4718248D01*
X47989700Y4718250D01*
X47989700Y5095092D01*
X53093500Y5095092D01*
X53093500Y4963309D01*
X53127608Y4836013D01*
X53134840Y4823487D01*
X53193500Y4721886D01*
X53286686Y4628700D01*
X53400814Y4562808D01*
X53528108Y4528700D01*
X53528110Y4528700D01*
X53659890Y4528700D01*
X53659892Y4528700D01*
X53787186Y4562808D01*
X53901314Y4628700D01*
X53994500Y4721886D01*
X54060392Y4836014D01*
X54094500Y4963308D01*
X54094500Y5095092D01*
X54080888Y5145892D01*
X57919500Y5145892D01*
X57919500Y5014109D01*
X57953608Y4886813D01*
X57977352Y4845688D01*
X58019500Y4772686D01*
X58112686Y4679500D01*
X58226814Y4613608D01*
X58354108Y4579500D01*
X58354110Y4579500D01*
X58485890Y4579500D01*
X58485892Y4579500D01*
X58613186Y4613608D01*
X58727314Y4679500D01*
X58820500Y4772686D01*
X58859994Y4841092D01*
X62694700Y4841092D01*
X62694700Y4709309D01*
X62728808Y4582013D01*
X62747792Y4549133D01*
X62794700Y4467886D01*
X62887886Y4374700D01*
X63002014Y4308808D01*
X63129308Y4274700D01*
X63129310Y4274700D01*
X63261090Y4274700D01*
X63261092Y4274700D01*
X63388386Y4308808D01*
X63502514Y4374700D01*
X63595700Y4467886D01*
X63661592Y4582014D01*
X63695700Y4709308D01*
X63695700Y4841092D01*
X63661592Y4968386D01*
X63595700Y5082514D01*
X63502514Y5175700D01*
X63421652Y5222386D01*
X63388387Y5241592D01*
X63270474Y5273186D01*
X63261092Y5275700D01*
X63129308Y5275700D01*
X63002012Y5241592D01*
X62887886Y5175700D01*
X62887883Y5175698D01*
X62794702Y5082517D01*
X62794700Y5082514D01*
X62728808Y4968388D01*
X62694700Y4841092D01*
X58859994Y4841092D01*
X58886392Y4886814D01*
X58920500Y5014108D01*
X58920500Y5145892D01*
X58886392Y5273186D01*
X58820500Y5387314D01*
X58727314Y5480500D01*
X58669945Y5513622D01*
X58613187Y5546392D01*
X58538406Y5566429D01*
X58485892Y5580500D01*
X58354108Y5580500D01*
X58226812Y5546392D01*
X58112686Y5480500D01*
X58112683Y5480498D01*
X58019502Y5387317D01*
X58019500Y5387314D01*
X57953608Y5273188D01*
X57919500Y5145892D01*
X54080888Y5145892D01*
X54060392Y5222386D01*
X53994500Y5336514D01*
X53901314Y5429700D01*
X53813330Y5480498D01*
X53787187Y5495592D01*
X53719896Y5513622D01*
X53659892Y5529700D01*
X53528108Y5529700D01*
X53400812Y5495592D01*
X53286686Y5429700D01*
X53286683Y5429698D01*
X53193502Y5336517D01*
X53193500Y5336514D01*
X53127608Y5222388D01*
X53093500Y5095092D01*
X47989700Y5095092D01*
X47989700Y6457751D01*
X47989699Y6457753D01*
X47978068Y6516230D01*
X47978067Y6516231D01*
X47933752Y6582553D01*
X47867430Y6626868D01*
X47867429Y6626869D01*
X47808952Y6638500D01*
X47808948Y6638500D01*
X46069452Y6638500D01*
X46069447Y6638500D01*
X46010970Y6626869D01*
X46010969Y6626868D01*
X45944647Y6582553D01*
X45900332Y6516231D01*
X45900331Y6516230D01*
X45888700Y6457753D01*
X32432700Y6457753D01*
X32432700Y7356196D01*
X32405781Y7491523D01*
X32405780Y7491524D01*
X32405780Y7491528D01*
X32352975Y7619011D01*
X32352971Y7619018D01*
X32342231Y7635092D01*
X61221500Y7635092D01*
X61221500Y7503308D01*
X61224658Y7491523D01*
X61255608Y7376013D01*
X61288554Y7318950D01*
X61321500Y7261886D01*
X61414686Y7168700D01*
X61528814Y7102808D01*
X61656108Y7068700D01*
X61656110Y7068700D01*
X61787890Y7068700D01*
X61787892Y7068700D01*
X61915186Y7102808D01*
X62029314Y7168700D01*
X62122500Y7261886D01*
X62188392Y7376014D01*
X62222500Y7503308D01*
X62222500Y7635092D01*
X62188392Y7762386D01*
X62122500Y7876514D01*
X62029314Y7969700D01*
X61972250Y8002646D01*
X61915187Y8035592D01*
X61851539Y8052646D01*
X61787892Y8069700D01*
X61656108Y8069700D01*
X61528812Y8035592D01*
X61414686Y7969700D01*
X61414683Y7969698D01*
X61321502Y7876517D01*
X61321500Y7876514D01*
X61255608Y7762388D01*
X61247934Y7733746D01*
X61221500Y7635092D01*
X32342231Y7635092D01*
X32276314Y7733742D01*
X32276311Y7733746D01*
X32178745Y7831312D01*
X32178741Y7831315D01*
X32064017Y7907972D01*
X32064004Y7907979D01*
X31936532Y7960779D01*
X31936522Y7960782D01*
X31801195Y7987700D01*
X31801193Y7987700D01*
X31663207Y7987700D01*
X31663205Y7987700D01*
X31527877Y7960782D01*
X31527867Y7960779D01*
X31400395Y7907979D01*
X31400382Y7907972D01*
X31285658Y7831315D01*
X31285654Y7831312D01*
X31188088Y7733746D01*
X31188085Y7733742D01*
X31111428Y7619018D01*
X31111421Y7619005D01*
X31058621Y7491533D01*
X31058618Y7491523D01*
X31031700Y7356196D01*
X31031700Y6448279D01*
X31012015Y6381240D01*
X30959211Y6335485D01*
X30890053Y6325541D01*
X30826497Y6354566D01*
X30788723Y6413344D01*
X30787926Y6416184D01*
X30782569Y6436175D01*
X30782567Y6436179D01*
X30714704Y6553721D01*
X30714699Y6553727D01*
X30618726Y6649700D01*
X30618720Y6649705D01*
X30501178Y6717568D01*
X30501179Y6717568D01*
X30485684Y6721720D01*
X30370067Y6752700D01*
X30234333Y6752700D01*
X30118715Y6721720D01*
X30103221Y6717568D01*
X29985679Y6649705D01*
X29985673Y6649700D01*
X29889700Y6553727D01*
X29889695Y6553721D01*
X29821832Y6436179D01*
X29821830Y6436176D01*
X29819500Y6427478D01*
X29783131Y6367820D01*
X29720282Y6337295D01*
X29650907Y6345594D01*
X29597032Y6390083D01*
X29592340Y6397580D01*
X29585399Y6409602D01*
X29559700Y6454114D01*
X29466514Y6547300D01*
X29405454Y6582553D01*
X29352387Y6613192D01*
X29257934Y6638500D01*
X29225092Y6647300D01*
X29093308Y6647300D01*
X28966012Y6613192D01*
X28851886Y6547300D01*
X28851883Y6547298D01*
X28758702Y6454117D01*
X28758700Y6454114D01*
X28692808Y6339988D01*
X28658700Y6212692D01*
X26103700Y6212692D01*
X26069592Y6339986D01*
X26003700Y6454114D01*
X25910514Y6547300D01*
X25849454Y6582553D01*
X25796387Y6613192D01*
X25701934Y6638500D01*
X25669092Y6647300D01*
X25537308Y6647300D01*
X25410012Y6613192D01*
X25295886Y6547300D01*
X25295883Y6547298D01*
X25202702Y6454117D01*
X25197752Y6447665D01*
X25195779Y6449179D01*
X25154258Y6409602D01*
X25085649Y6396390D01*
X25020788Y6422369D01*
X24990069Y6457826D01*
X24980066Y6475150D01*
X24934702Y6553724D01*
X24838724Y6649702D01*
X24838722Y6649703D01*
X24838720Y6649705D01*
X24721178Y6717568D01*
X24721179Y6717568D01*
X24705684Y6721720D01*
X24590067Y6752700D01*
X24454333Y6752700D01*
X24338715Y6721720D01*
X24323221Y6717568D01*
X24205679Y6649705D01*
X24205673Y6649700D01*
X24109700Y6553727D01*
X24109695Y6553721D01*
X24041832Y6436179D01*
X24041830Y6436175D01*
X24036474Y6416184D01*
X24000109Y6356524D01*
X23937262Y6325996D01*
X23867886Y6334291D01*
X23814009Y6378777D01*
X23792735Y6445329D01*
X23792700Y6448279D01*
X23792700Y7356196D01*
X23765781Y7491523D01*
X23765780Y7491524D01*
X23765780Y7491528D01*
X23760900Y7503310D01*
X23712978Y7619005D01*
X23712971Y7619018D01*
X23636314Y7733742D01*
X23636311Y7733746D01*
X23538745Y7831312D01*
X23538741Y7831315D01*
X23424017Y7907972D01*
X23424004Y7907979D01*
X23296532Y7960779D01*
X23296522Y7960782D01*
X23161195Y7987700D01*
X23161193Y7987700D01*
X23023207Y7987700D01*
X23023205Y7987700D01*
X22887877Y7960782D01*
X22887867Y7960779D01*
X22760395Y7907979D01*
X22760382Y7907972D01*
X22645658Y7831315D01*
X22645654Y7831312D01*
X22548088Y7733746D01*
X22548085Y7733742D01*
X22471428Y7619018D01*
X22471421Y7619005D01*
X22418621Y7491533D01*
X22418618Y7491523D01*
X22391700Y7356196D01*
X22391700Y7356193D01*
X22391700Y6118207D01*
X22391700Y6118205D01*
X22391699Y6118205D01*
X20513794Y6118205D01*
X20481592Y6238386D01*
X20415700Y6352514D01*
X20322514Y6445700D01*
X20265450Y6478646D01*
X20208387Y6511592D01*
X20144739Y6528646D01*
X20081092Y6545700D01*
X19949308Y6545700D01*
X19822012Y6511592D01*
X19707886Y6445700D01*
X19707883Y6445698D01*
X19614702Y6352517D01*
X19614700Y6352514D01*
X19548808Y6238388D01*
X19521434Y6136223D01*
X19514700Y6111092D01*
X449700Y6111092D01*
X449700Y8651092D01*
X3004700Y8651092D01*
X3004700Y8519309D01*
X3038808Y8392013D01*
X3065206Y8346292D01*
X3104700Y8277886D01*
X3197886Y8184700D01*
X3312014Y8118808D01*
X3439308Y8084700D01*
X3439310Y8084700D01*
X3571090Y8084700D01*
X3571092Y8084700D01*
X3698386Y8118808D01*
X3812514Y8184700D01*
X3905700Y8277886D01*
X3971592Y8392014D01*
X4005700Y8519308D01*
X4005700Y8651092D01*
X19514700Y8651092D01*
X19514700Y8519309D01*
X19548808Y8392013D01*
X19575206Y8346292D01*
X19614700Y8277886D01*
X19707886Y8184700D01*
X19822014Y8118808D01*
X19949308Y8084700D01*
X19949310Y8084700D01*
X20081090Y8084700D01*
X20081092Y8084700D01*
X20208386Y8118808D01*
X20322514Y8184700D01*
X20415700Y8277886D01*
X20455194Y8346292D01*
X28658700Y8346292D01*
X28658700Y8214509D01*
X28692808Y8087213D01*
X28722612Y8035592D01*
X28758700Y7973086D01*
X28851886Y7879900D01*
X28966014Y7814008D01*
X29093308Y7779900D01*
X29093310Y7779900D01*
X29225090Y7779900D01*
X29225092Y7779900D01*
X29352386Y7814008D01*
X29466514Y7879900D01*
X29559700Y7973086D01*
X29625592Y8087214D01*
X29659700Y8214508D01*
X29659700Y8346292D01*
X29625592Y8473586D01*
X29599194Y8519308D01*
X29583543Y8546417D01*
X29583542Y8546418D01*
X29559700Y8587714D01*
X29547122Y8600292D01*
X58935500Y8600292D01*
X58935500Y8468509D01*
X58969608Y8341213D01*
X59002554Y8284150D01*
X59035500Y8227086D01*
X59128686Y8133900D01*
X59242814Y8068008D01*
X59370108Y8033900D01*
X59370110Y8033900D01*
X59501890Y8033900D01*
X59501892Y8033900D01*
X59629186Y8068008D01*
X59743314Y8133900D01*
X59836500Y8227086D01*
X59902392Y8341214D01*
X59936500Y8468508D01*
X59936500Y8600292D01*
X59902392Y8727586D01*
X59836500Y8841714D01*
X59743314Y8934900D01*
X59655330Y8985698D01*
X59629187Y9000792D01*
X59565539Y9017846D01*
X59501892Y9034900D01*
X59370108Y9034900D01*
X59242812Y9000792D01*
X59128686Y8934900D01*
X59128683Y8934898D01*
X59035502Y8841717D01*
X59035500Y8841714D01*
X58969608Y8727588D01*
X58935500Y8600292D01*
X29547122Y8600292D01*
X29466514Y8680900D01*
X29385652Y8727586D01*
X29352387Y8746792D01*
X29234474Y8778386D01*
X29225092Y8780900D01*
X29093308Y8780900D01*
X28966012Y8746792D01*
X28851886Y8680900D01*
X28851883Y8680898D01*
X28758702Y8587717D01*
X28758700Y8587714D01*
X28692808Y8473588D01*
X28658700Y8346292D01*
X20455194Y8346292D01*
X20481592Y8392014D01*
X20515700Y8519308D01*
X20515700Y8651092D01*
X20481592Y8778386D01*
X20415700Y8892514D01*
X20322514Y8985700D01*
X20265450Y9018646D01*
X20208387Y9051592D01*
X20144739Y9068646D01*
X20081092Y9085700D01*
X19949308Y9085700D01*
X19822012Y9051592D01*
X19707886Y8985700D01*
X19707883Y8985698D01*
X19614702Y8892517D01*
X19614700Y8892514D01*
X19548808Y8778388D01*
X19514700Y8651092D01*
X4005700Y8651092D01*
X3971592Y8778386D01*
X3905700Y8892514D01*
X3812514Y8985700D01*
X3755450Y9018646D01*
X3698387Y9051592D01*
X3634739Y9068646D01*
X3571092Y9085700D01*
X3439308Y9085700D01*
X3312012Y9051592D01*
X3197886Y8985700D01*
X3197883Y8985698D01*
X3104702Y8892517D01*
X3104700Y8892514D01*
X3038808Y8778388D01*
X3004700Y8651092D01*
X449700Y8651092D01*
X449700Y9362292D01*
X11031100Y9362292D01*
X11031100Y9230508D01*
X11040159Y9196700D01*
X11065208Y9103213D01*
X11095012Y9051592D01*
X11131100Y8989086D01*
X11224286Y8895900D01*
X11338414Y8830008D01*
X11465708Y8795900D01*
X11465710Y8795900D01*
X11597490Y8795900D01*
X11597492Y8795900D01*
X11724786Y8830008D01*
X11838914Y8895900D01*
X11932100Y8989086D01*
X11997992Y9103214D01*
X12032100Y9230508D01*
X12032100Y9362292D01*
X11997992Y9489586D01*
X11932100Y9603714D01*
X11838914Y9696900D01*
X11781850Y9729846D01*
X11724787Y9762792D01*
X11661139Y9779846D01*
X11597492Y9796900D01*
X11465708Y9796900D01*
X11338412Y9762792D01*
X11224286Y9696900D01*
X11224283Y9696898D01*
X11131102Y9603717D01*
X11131100Y9603714D01*
X11065208Y9489588D01*
X11052599Y9442529D01*
X11031100Y9362292D01*
X449700Y9362292D01*
X449700Y10073492D01*
X25813900Y10073492D01*
X25813900Y9941709D01*
X25848008Y9814413D01*
X25862502Y9789310D01*
X25913900Y9700286D01*
X26007086Y9607100D01*
X26121214Y9541208D01*
X26248508Y9507100D01*
X26248510Y9507100D01*
X26380290Y9507100D01*
X26380292Y9507100D01*
X26507586Y9541208D01*
X26621714Y9607100D01*
X26714900Y9700286D01*
X26754394Y9768692D01*
X31147900Y9768692D01*
X31147900Y9636908D01*
X31156794Y9603714D01*
X31182008Y9509613D01*
X31183459Y9507100D01*
X31247900Y9395486D01*
X31341086Y9302300D01*
X31455214Y9236408D01*
X31582508Y9202300D01*
X31582510Y9202300D01*
X31714290Y9202300D01*
X31714292Y9202300D01*
X31841586Y9236408D01*
X31955714Y9302300D01*
X32048900Y9395486D01*
X32114792Y9509614D01*
X32148900Y9636908D01*
X32148900Y9768692D01*
X32114792Y9895986D01*
X32048900Y10010114D01*
X31955714Y10103300D01*
X31853153Y10162514D01*
X31841587Y10169192D01*
X31723674Y10200786D01*
X31714292Y10203300D01*
X31582508Y10203300D01*
X31455212Y10169192D01*
X31341086Y10103300D01*
X31341083Y10103298D01*
X31247902Y10010117D01*
X31247900Y10010114D01*
X31182008Y9895988D01*
X31153424Y9789309D01*
X31147900Y9768692D01*
X26754394Y9768692D01*
X26780792Y9814414D01*
X26814900Y9941708D01*
X26814900Y10073492D01*
X26780792Y10200786D01*
X26771872Y10216235D01*
X26733233Y10283160D01*
X26714900Y10314914D01*
X26651522Y10378292D01*
X35110300Y10378292D01*
X35110300Y10246508D01*
X35122551Y10200788D01*
X35144408Y10119213D01*
X35156829Y10097700D01*
X35210300Y10005086D01*
X35303486Y9911900D01*
X35417614Y9846008D01*
X35544908Y9811900D01*
X35544910Y9811900D01*
X35676690Y9811900D01*
X35676692Y9811900D01*
X35803986Y9846008D01*
X35842022Y9867969D01*
X35909921Y9884442D01*
X35975948Y9861591D01*
X36019140Y9806670D01*
X36023798Y9792675D01*
X36058808Y9662013D01*
X36073302Y9636910D01*
X36124700Y9547886D01*
X36217886Y9454700D01*
X36332014Y9388808D01*
X36459308Y9354700D01*
X36459310Y9354700D01*
X36591090Y9354700D01*
X36591092Y9354700D01*
X36718386Y9388808D01*
X36832514Y9454700D01*
X36925700Y9547886D01*
X36991592Y9662014D01*
X37025700Y9789308D01*
X37025700Y9921092D01*
X48724700Y9921092D01*
X48724700Y9789309D01*
X48758808Y9662013D01*
X48773302Y9636910D01*
X48824700Y9547886D01*
X48917886Y9454700D01*
X49032014Y9388808D01*
X49159308Y9354700D01*
X49159310Y9354700D01*
X49291090Y9354700D01*
X49291092Y9354700D01*
X49418386Y9388808D01*
X49532514Y9454700D01*
X49625700Y9547886D01*
X49691592Y9662014D01*
X49725700Y9789308D01*
X49725700Y9921092D01*
X49711306Y9974813D01*
X56697379Y9974813D01*
X56697379Y9843030D01*
X56731487Y9715734D01*
X56761882Y9663090D01*
X56797379Y9601607D01*
X56890565Y9508421D01*
X57004693Y9442529D01*
X57131987Y9408421D01*
X57131989Y9408421D01*
X57263769Y9408421D01*
X57263771Y9408421D01*
X57391065Y9442529D01*
X57505193Y9508421D01*
X57598379Y9601607D01*
X57633877Y9663092D01*
X60916700Y9663092D01*
X60916700Y9531308D01*
X60927879Y9489588D01*
X60950808Y9404013D01*
X60983754Y9346950D01*
X61016700Y9289886D01*
X61109886Y9196700D01*
X61224014Y9130808D01*
X61351308Y9096700D01*
X61351310Y9096700D01*
X61483090Y9096700D01*
X61483092Y9096700D01*
X61610386Y9130808D01*
X61724514Y9196700D01*
X61817700Y9289886D01*
X61883592Y9404014D01*
X61917700Y9531308D01*
X61917700Y9663092D01*
X61883592Y9790386D01*
X61882270Y9792675D01*
X61853197Y9843031D01*
X61817700Y9904514D01*
X61724514Y9997700D01*
X61667450Y10030646D01*
X61610387Y10063592D01*
X61546739Y10080646D01*
X61483092Y10097700D01*
X61351308Y10097700D01*
X61224012Y10063592D01*
X61109886Y9997700D01*
X61109883Y9997698D01*
X61016702Y9904517D01*
X61016700Y9904514D01*
X60950808Y9790388D01*
X60930805Y9715734D01*
X60916700Y9663092D01*
X57633877Y9663092D01*
X57664271Y9715735D01*
X57698379Y9843029D01*
X57698379Y9974813D01*
X57664271Y10102107D01*
X57663583Y10103298D01*
X57654394Y10119214D01*
X57598379Y10216235D01*
X57505193Y10309421D01*
X57425036Y10355700D01*
X57391066Y10375313D01*
X57379948Y10378292D01*
X65691900Y10378292D01*
X65691900Y10246508D01*
X65704151Y10200788D01*
X65726008Y10119213D01*
X65738429Y10097700D01*
X65791900Y10005086D01*
X65885086Y9911900D01*
X65999214Y9846008D01*
X66126508Y9811900D01*
X66126510Y9811900D01*
X66258290Y9811900D01*
X66258292Y9811900D01*
X66385586Y9846008D01*
X66499714Y9911900D01*
X66508906Y9921092D01*
X67774700Y9921092D01*
X67774700Y9789309D01*
X67808808Y9662013D01*
X67823302Y9636910D01*
X67874700Y9547886D01*
X67967886Y9454700D01*
X68082014Y9388808D01*
X68209308Y9354700D01*
X68209310Y9354700D01*
X68341090Y9354700D01*
X68341092Y9354700D01*
X68468386Y9388808D01*
X68582514Y9454700D01*
X68675700Y9547886D01*
X68741592Y9662014D01*
X68775700Y9789308D01*
X68775700Y9921092D01*
X68741592Y10048386D01*
X68675700Y10162514D01*
X68582514Y10255700D01*
X68525450Y10288646D01*
X68468387Y10321592D01*
X68404739Y10338646D01*
X68341092Y10355700D01*
X68209308Y10355700D01*
X68082012Y10321592D01*
X67967886Y10255700D01*
X67967883Y10255698D01*
X67874702Y10162517D01*
X67874700Y10162514D01*
X67808808Y10048388D01*
X67774700Y9921092D01*
X66508906Y9921092D01*
X66592900Y10005086D01*
X66658792Y10119214D01*
X66692900Y10246508D01*
X66692900Y10378292D01*
X66658792Y10505586D01*
X66592900Y10619714D01*
X66499714Y10712900D01*
X66442650Y10745846D01*
X66385587Y10778792D01*
X66321939Y10795846D01*
X66258292Y10812900D01*
X66126508Y10812900D01*
X65999212Y10778792D01*
X65885086Y10712900D01*
X65885083Y10712898D01*
X65791902Y10619717D01*
X65791900Y10619714D01*
X65726008Y10505588D01*
X65700241Y10409421D01*
X65691900Y10378292D01*
X57379948Y10378292D01*
X57327418Y10392367D01*
X57263771Y10409421D01*
X57131987Y10409421D01*
X57004691Y10375313D01*
X56890565Y10309421D01*
X56890562Y10309419D01*
X56797381Y10216238D01*
X56797379Y10216235D01*
X56731487Y10102109D01*
X56697379Y9974813D01*
X49711306Y9974813D01*
X49691592Y10048386D01*
X49625700Y10162514D01*
X49532514Y10255700D01*
X49475450Y10288646D01*
X49418387Y10321592D01*
X49354739Y10338646D01*
X49291092Y10355700D01*
X49159308Y10355700D01*
X49032012Y10321592D01*
X48917886Y10255700D01*
X48917883Y10255698D01*
X48824702Y10162517D01*
X48824700Y10162514D01*
X48758808Y10048388D01*
X48724700Y9921092D01*
X37025700Y9921092D01*
X36991592Y10048386D01*
X36925700Y10162514D01*
X36832514Y10255700D01*
X36775450Y10288646D01*
X36718387Y10321592D01*
X36654739Y10338646D01*
X36591092Y10355700D01*
X36459308Y10355700D01*
X36332011Y10321592D01*
X36293975Y10299631D01*
X36226075Y10283160D01*
X36160048Y10306012D01*
X36116858Y10360934D01*
X36112201Y10374926D01*
X36111300Y10378290D01*
X36111300Y10378292D01*
X36077192Y10505586D01*
X36011300Y10619714D01*
X35918114Y10712900D01*
X35861050Y10745846D01*
X35803987Y10778792D01*
X35740339Y10795846D01*
X35676692Y10812900D01*
X35544908Y10812900D01*
X35417612Y10778792D01*
X35303486Y10712900D01*
X35303483Y10712898D01*
X35210302Y10619717D01*
X35210300Y10619714D01*
X35144408Y10505588D01*
X35118641Y10409421D01*
X35110300Y10378292D01*
X26651522Y10378292D01*
X26621714Y10408100D01*
X26564650Y10441046D01*
X26507587Y10473992D01*
X26389674Y10505586D01*
X26380292Y10508100D01*
X26248508Y10508100D01*
X26121212Y10473992D01*
X26007086Y10408100D01*
X26007083Y10408098D01*
X25913902Y10314917D01*
X25913900Y10314914D01*
X25848008Y10200788D01*
X25813900Y10073492D01*
X449700Y10073492D01*
X449700Y11191092D01*
X3004700Y11191092D01*
X3004700Y11059309D01*
X3038808Y10932013D01*
X3071754Y10874950D01*
X3104700Y10817886D01*
X3197886Y10724700D01*
X3312014Y10658808D01*
X3439308Y10624700D01*
X3439310Y10624700D01*
X3571090Y10624700D01*
X3571092Y10624700D01*
X3698386Y10658808D01*
X3812514Y10724700D01*
X3905700Y10817886D01*
X3971592Y10932014D01*
X3978740Y10958692D01*
X14870300Y10958692D01*
X14870300Y10826908D01*
X14883193Y10778792D01*
X14904408Y10699613D01*
X14927967Y10658809D01*
X14970300Y10585486D01*
X15063486Y10492300D01*
X15177614Y10426408D01*
X15304908Y10392300D01*
X15304910Y10392300D01*
X15436690Y10392300D01*
X15436692Y10392300D01*
X15563986Y10426408D01*
X15678114Y10492300D01*
X15771300Y10585486D01*
X15837192Y10699614D01*
X15871300Y10826908D01*
X15871300Y10958692D01*
X15837192Y11085986D01*
X15776509Y11191092D01*
X19514700Y11191092D01*
X19514700Y11059309D01*
X19548808Y10932013D01*
X19581754Y10874950D01*
X19614700Y10817886D01*
X19707886Y10724700D01*
X19822014Y10658808D01*
X19949308Y10624700D01*
X19949310Y10624700D01*
X20081090Y10624700D01*
X20081092Y10624700D01*
X20208386Y10658808D01*
X20322514Y10724700D01*
X20415700Y10817886D01*
X20481592Y10932014D01*
X20515700Y11059308D01*
X20515700Y11191092D01*
X20481592Y11318386D01*
X20415700Y11432514D01*
X20322514Y11525700D01*
X20228665Y11579884D01*
X20208387Y11591592D01*
X20144739Y11608646D01*
X20081092Y11625700D01*
X19949308Y11625700D01*
X19822012Y11591592D01*
X19707886Y11525700D01*
X19707883Y11525698D01*
X19614702Y11432517D01*
X19614700Y11432514D01*
X19548808Y11318388D01*
X19514700Y11191092D01*
X15776509Y11191092D01*
X15771300Y11200114D01*
X15678114Y11293300D01*
X15621050Y11326246D01*
X15563987Y11359192D01*
X15500339Y11376246D01*
X15436692Y11393300D01*
X15304908Y11393300D01*
X15177612Y11359192D01*
X15063486Y11293300D01*
X15063483Y11293298D01*
X14970302Y11200117D01*
X14970300Y11200114D01*
X14904408Y11085988D01*
X14881077Y10998914D01*
X14870300Y10958692D01*
X3978740Y10958692D01*
X4005700Y11059308D01*
X4005700Y11191092D01*
X3971592Y11318386D01*
X3905700Y11432514D01*
X3812514Y11525700D01*
X3718665Y11579884D01*
X3698387Y11591592D01*
X3634739Y11608646D01*
X3571092Y11625700D01*
X3439308Y11625700D01*
X3312012Y11591592D01*
X3197886Y11525700D01*
X3197883Y11525698D01*
X3104702Y11432517D01*
X3104700Y11432514D01*
X3038808Y11318388D01*
X3004700Y11191092D01*
X449700Y11191092D01*
X449700Y12054692D01*
X21394300Y12054692D01*
X21394300Y11922908D01*
X21404542Y11884684D01*
X21428408Y11795613D01*
X21430783Y11791500D01*
X21494300Y11681486D01*
X21587486Y11588300D01*
X21686321Y11531237D01*
X21695915Y11525698D01*
X21701614Y11522408D01*
X21828908Y11488300D01*
X21828910Y11488300D01*
X21960690Y11488300D01*
X21960692Y11488300D01*
X22087986Y11522408D01*
X22202114Y11588300D01*
X22295300Y11681486D01*
X22361192Y11795614D01*
X22395300Y11922908D01*
X22395300Y12054692D01*
X22361192Y12181986D01*
X22353959Y12194514D01*
X22348473Y12204017D01*
X22348472Y12204018D01*
X22331303Y12233755D01*
X22317367Y12257892D01*
X25813900Y12257892D01*
X25813900Y12126108D01*
X25826151Y12080388D01*
X25848008Y11998813D01*
X25850383Y11994700D01*
X25913900Y11884686D01*
X26007086Y11791500D01*
X26121214Y11725608D01*
X26248508Y11691500D01*
X26248510Y11691500D01*
X26380290Y11691500D01*
X26380292Y11691500D01*
X26507586Y11725608D01*
X26621714Y11791500D01*
X26714900Y11884686D01*
X26754394Y11953092D01*
X28404700Y11953092D01*
X28404700Y11821309D01*
X28438808Y11694013D01*
X28440259Y11691500D01*
X28504700Y11579886D01*
X28597886Y11486700D01*
X28712014Y11420808D01*
X28839308Y11386700D01*
X28839310Y11386700D01*
X28971090Y11386700D01*
X28971092Y11386700D01*
X29098386Y11420808D01*
X29212514Y11486700D01*
X29305700Y11579886D01*
X29345194Y11648292D01*
X42069900Y11648292D01*
X42069900Y11516509D01*
X42104008Y11389213D01*
X42105459Y11386700D01*
X42169900Y11275086D01*
X42263086Y11181900D01*
X42377214Y11116008D01*
X42504508Y11081900D01*
X42504510Y11081900D01*
X42636290Y11081900D01*
X42636292Y11081900D01*
X42763586Y11116008D01*
X42877714Y11181900D01*
X42970900Y11275086D01*
X43036792Y11389214D01*
X43070900Y11516508D01*
X43070900Y11648292D01*
X43036792Y11775586D01*
X42970900Y11889714D01*
X42877714Y11982900D01*
X42801771Y12026746D01*
X42763587Y12048792D01*
X42699939Y12065846D01*
X42636292Y12082900D01*
X42504508Y12082900D01*
X42377212Y12048792D01*
X42263086Y11982900D01*
X42263083Y11982898D01*
X42169902Y11889717D01*
X42169900Y11889714D01*
X42104008Y11775588D01*
X42069900Y11648292D01*
X29345194Y11648292D01*
X29371592Y11694014D01*
X29405700Y11821308D01*
X29405700Y11953092D01*
X29405698Y11953098D01*
X29405091Y11957710D01*
X29415854Y12026746D01*
X29462232Y12079003D01*
X29528030Y12097900D01*
X29631490Y12097900D01*
X29631492Y12097900D01*
X29758786Y12132008D01*
X29872914Y12197900D01*
X29908769Y12233755D01*
X29970092Y12267240D01*
X30039784Y12262256D01*
X30084131Y12233755D01*
X30121886Y12196000D01*
X30236014Y12130108D01*
X30363308Y12096000D01*
X30363310Y12096000D01*
X30495090Y12096000D01*
X30495092Y12096000D01*
X30622386Y12130108D01*
X30736514Y12196000D01*
X30829700Y12289186D01*
X30895592Y12403314D01*
X30911073Y12461092D01*
X36024700Y12461092D01*
X36024700Y12329308D01*
X36035450Y12289187D01*
X36058808Y12202013D01*
X36062280Y12196000D01*
X36124700Y12087886D01*
X36217886Y11994700D01*
X36332014Y11928808D01*
X36459308Y11894700D01*
X36459310Y11894700D01*
X36591090Y11894700D01*
X36591092Y11894700D01*
X36718386Y11928808D01*
X36832514Y11994700D01*
X36925700Y12087886D01*
X36991592Y12202014D01*
X37025700Y12329308D01*
X37025700Y12461092D01*
X48724700Y12461092D01*
X48724700Y12329308D01*
X48735450Y12289187D01*
X48758808Y12202013D01*
X48762280Y12196000D01*
X48824700Y12087886D01*
X48917886Y11994700D01*
X49032014Y11928808D01*
X49159308Y11894700D01*
X49159310Y11894700D01*
X49291090Y11894700D01*
X49291092Y11894700D01*
X49418386Y11928808D01*
X49532514Y11994700D01*
X49625700Y12087886D01*
X49691592Y12202014D01*
X49725700Y12329308D01*
X49725700Y12461092D01*
X49691592Y12588386D01*
X49625700Y12702514D01*
X49532514Y12795700D01*
X49437510Y12850551D01*
X49418387Y12861592D01*
X49335866Y12883703D01*
X49291092Y12895700D01*
X49159308Y12895700D01*
X49032012Y12861592D01*
X48917886Y12795700D01*
X48917883Y12795698D01*
X48824702Y12702517D01*
X48824700Y12702514D01*
X48758808Y12588388D01*
X48742598Y12527890D01*
X48724700Y12461092D01*
X37025700Y12461092D01*
X36991592Y12588386D01*
X36925700Y12702514D01*
X36832514Y12795700D01*
X36737510Y12850551D01*
X36718387Y12861592D01*
X36635866Y12883703D01*
X36591092Y12895700D01*
X36459308Y12895700D01*
X36332012Y12861592D01*
X36217886Y12795700D01*
X36217883Y12795698D01*
X36124702Y12702517D01*
X36124700Y12702514D01*
X36058808Y12588388D01*
X36042598Y12527890D01*
X36024700Y12461092D01*
X30911073Y12461092D01*
X30929700Y12530608D01*
X30929700Y12662392D01*
X30895592Y12789686D01*
X30829700Y12903814D01*
X30736514Y12997000D01*
X30696864Y13019892D01*
X52077500Y13019892D01*
X52077500Y12888108D01*
X52078681Y12883701D01*
X52111608Y12760813D01*
X52126102Y12735710D01*
X52177500Y12646686D01*
X52270686Y12553500D01*
X52384814Y12487608D01*
X52512108Y12453500D01*
X52512110Y12453500D01*
X52643890Y12453500D01*
X52643892Y12453500D01*
X52771186Y12487608D01*
X52885314Y12553500D01*
X52978500Y12646686D01*
X53044392Y12760814D01*
X53078500Y12888108D01*
X53078500Y13019892D01*
X53044392Y13147186D01*
X52978500Y13261314D01*
X52885314Y13354500D01*
X52828250Y13387446D01*
X52771187Y13420392D01*
X52684023Y13443747D01*
X52643892Y13454500D01*
X52512108Y13454500D01*
X52384812Y13420392D01*
X52270686Y13354500D01*
X52270683Y13354498D01*
X52177502Y13261317D01*
X52177500Y13261314D01*
X52111608Y13147188D01*
X52089531Y13064792D01*
X52077500Y13019892D01*
X30696864Y13019892D01*
X30656121Y13043415D01*
X30622387Y13062892D01*
X30558739Y13079946D01*
X30495092Y13097000D01*
X30363308Y13097000D01*
X30236012Y13062892D01*
X30121886Y12997000D01*
X30121883Y12996998D01*
X30086031Y12961145D01*
X30024708Y12927660D01*
X29955016Y12932644D01*
X29910669Y12961145D01*
X29872916Y12998898D01*
X29872914Y12998900D01*
X29795812Y13043415D01*
X29758787Y13064792D01*
X29695139Y13081846D01*
X29631492Y13098900D01*
X29499708Y13098900D01*
X29372412Y13064792D01*
X29258286Y12998900D01*
X29258283Y12998898D01*
X29165102Y12905717D01*
X29165100Y12905714D01*
X29099208Y12791588D01*
X29075342Y12702517D01*
X29065100Y12664292D01*
X29065100Y12532508D01*
X29065101Y12532502D01*
X29065709Y12527890D01*
X29054946Y12458854D01*
X29008568Y12406597D01*
X28942770Y12387700D01*
X28839308Y12387700D01*
X28712012Y12353592D01*
X28597886Y12287700D01*
X28597883Y12287698D01*
X28504702Y12194517D01*
X28504700Y12194514D01*
X28438808Y12080388D01*
X28404700Y11953092D01*
X26754394Y11953092D01*
X26780792Y11998814D01*
X26814900Y12126108D01*
X26814900Y12257892D01*
X26780792Y12385186D01*
X26714900Y12499314D01*
X26621714Y12592500D01*
X26527865Y12646684D01*
X26507587Y12658392D01*
X26443939Y12675446D01*
X26380292Y12692500D01*
X26248508Y12692500D01*
X26121212Y12658392D01*
X26007086Y12592500D01*
X26007083Y12592498D01*
X25913902Y12499317D01*
X25913900Y12499314D01*
X25848008Y12385188D01*
X25821887Y12287700D01*
X25813900Y12257892D01*
X22317367Y12257892D01*
X22295300Y12296114D01*
X22202114Y12389300D01*
X22145050Y12422246D01*
X22087987Y12455192D01*
X22024339Y12472246D01*
X21960692Y12489300D01*
X21828908Y12489300D01*
X21701612Y12455192D01*
X21587486Y12389300D01*
X21587483Y12389298D01*
X21494302Y12296117D01*
X21494300Y12296114D01*
X21428408Y12181988D01*
X21405368Y12096000D01*
X21394300Y12054692D01*
X449700Y12054692D01*
X449700Y13731092D01*
X3004700Y13731092D01*
X3004700Y13599308D01*
X3012258Y13571101D01*
X3038808Y13472013D01*
X3055128Y13443747D01*
X3104700Y13357886D01*
X3197886Y13264700D01*
X3278239Y13218308D01*
X3306315Y13202098D01*
X3312014Y13198808D01*
X3439308Y13164700D01*
X3439310Y13164700D01*
X3571090Y13164700D01*
X3571092Y13164700D01*
X3698386Y13198808D01*
X3812514Y13264700D01*
X3905700Y13357886D01*
X3971592Y13472014D01*
X4005700Y13599308D01*
X4005700Y13629492D01*
X16669900Y13629492D01*
X16669900Y13497708D01*
X16684359Y13443747D01*
X16704008Y13370413D01*
X16715741Y13350092D01*
X16769900Y13256286D01*
X16863086Y13163100D01*
X16977214Y13097208D01*
X17104508Y13063100D01*
X17104510Y13063100D01*
X17236290Y13063100D01*
X17236292Y13063100D01*
X17363586Y13097208D01*
X17477714Y13163100D01*
X17570900Y13256286D01*
X17636792Y13370414D01*
X17670900Y13497708D01*
X17670900Y13629492D01*
X17643677Y13731092D01*
X19514700Y13731092D01*
X19514700Y13599308D01*
X19522258Y13571101D01*
X19548808Y13472013D01*
X19565128Y13443747D01*
X19614700Y13357886D01*
X19707886Y13264700D01*
X19788239Y13218308D01*
X19816315Y13202098D01*
X19822014Y13198808D01*
X19949308Y13164700D01*
X19949310Y13164700D01*
X20081090Y13164700D01*
X20081092Y13164700D01*
X20208386Y13198808D01*
X20322514Y13264700D01*
X20415700Y13357886D01*
X20481592Y13472014D01*
X20515700Y13599308D01*
X20515700Y13731092D01*
X20481592Y13858386D01*
X20467097Y13883492D01*
X25813900Y13883492D01*
X25813900Y13751709D01*
X25848008Y13624413D01*
X25862502Y13599310D01*
X25913900Y13510286D01*
X26007086Y13417100D01*
X26087950Y13370413D01*
X26115515Y13354498D01*
X26121214Y13351208D01*
X26248508Y13317100D01*
X26248510Y13317100D01*
X26380290Y13317100D01*
X26380292Y13317100D01*
X26507586Y13351208D01*
X26621714Y13417100D01*
X26714900Y13510286D01*
X26780792Y13624414D01*
X26814900Y13751708D01*
X26814900Y13883492D01*
X26780792Y14010786D01*
X26769703Y14029992D01*
X26738743Y14083617D01*
X26738742Y14083618D01*
X26714900Y14124914D01*
X26702322Y14137492D01*
X29115900Y14137492D01*
X29115900Y14005708D01*
X29124794Y13972514D01*
X29150008Y13878413D01*
X29154336Y13870917D01*
X29215900Y13764286D01*
X29309086Y13671100D01*
X29423214Y13605208D01*
X29550508Y13571100D01*
X29550510Y13571100D01*
X29682290Y13571100D01*
X29682292Y13571100D01*
X29809586Y13605208D01*
X29851647Y13629492D01*
X56344700Y13629492D01*
X56344700Y13497708D01*
X56359159Y13443747D01*
X56378808Y13370413D01*
X56390541Y13350092D01*
X56444700Y13256286D01*
X56537886Y13163100D01*
X56652014Y13097208D01*
X56779308Y13063100D01*
X56779310Y13063100D01*
X56895913Y13063100D01*
X56962952Y13043415D01*
X57008707Y12990611D01*
X57018651Y12921453D01*
X57015688Y12907009D01*
X57005100Y12867492D01*
X57005100Y12735708D01*
X57022154Y12672061D01*
X57039208Y12608413D01*
X57048396Y12592500D01*
X57105100Y12494286D01*
X57198286Y12401100D01*
X57312414Y12335208D01*
X57439708Y12301100D01*
X57439710Y12301100D01*
X57571490Y12301100D01*
X57571492Y12301100D01*
X57698786Y12335208D01*
X57812914Y12401100D01*
X57872906Y12461092D01*
X67774700Y12461092D01*
X67774700Y12329308D01*
X67785450Y12289187D01*
X67808808Y12202013D01*
X67812280Y12196000D01*
X67874700Y12087886D01*
X67967886Y11994700D01*
X68082014Y11928808D01*
X68209308Y11894700D01*
X68209310Y11894700D01*
X68341090Y11894700D01*
X68341092Y11894700D01*
X68468386Y11928808D01*
X68582514Y11994700D01*
X68675700Y12087886D01*
X68741592Y12202014D01*
X68775700Y12329308D01*
X68775700Y12461092D01*
X68741592Y12588386D01*
X68675700Y12702514D01*
X68582514Y12795700D01*
X68487510Y12850551D01*
X68468387Y12861592D01*
X68385866Y12883703D01*
X68341092Y12895700D01*
X68209308Y12895700D01*
X68082012Y12861592D01*
X67967886Y12795700D01*
X67967883Y12795698D01*
X67874702Y12702517D01*
X67874700Y12702514D01*
X67808808Y12588388D01*
X67792598Y12527890D01*
X67774700Y12461092D01*
X57872906Y12461092D01*
X57906100Y12494286D01*
X57909005Y12499317D01*
X57927425Y12531220D01*
X57971990Y12608411D01*
X57971992Y12608414D01*
X58006100Y12735708D01*
X58006100Y12867492D01*
X57971992Y12994786D01*
X57906100Y13108914D01*
X57812914Y13202100D01*
X57728508Y13250832D01*
X57728506Y13250834D01*
X57698789Y13267991D01*
X57698786Y13267992D01*
X57571492Y13302100D01*
X57454887Y13302100D01*
X57387848Y13321785D01*
X57363320Y13350092D01*
X62821700Y13350092D01*
X62821700Y13218308D01*
X62826925Y13198809D01*
X62855808Y13091013D01*
X62871924Y13063100D01*
X62921700Y12976886D01*
X63014886Y12883700D01*
X63129014Y12817808D01*
X63256308Y12783700D01*
X63256310Y12783700D01*
X63388090Y12783700D01*
X63388092Y12783700D01*
X63515386Y12817808D01*
X63629514Y12883700D01*
X63722700Y12976886D01*
X63788592Y13091014D01*
X63822700Y13218308D01*
X63822700Y13350092D01*
X64726700Y13350092D01*
X64726700Y13218308D01*
X64731925Y13198809D01*
X64760808Y13091013D01*
X64776924Y13063100D01*
X64826700Y12976886D01*
X64919886Y12883700D01*
X65034014Y12817808D01*
X65161308Y12783700D01*
X65161310Y12783700D01*
X65293090Y12783700D01*
X65293092Y12783700D01*
X65420386Y12817808D01*
X65534514Y12883700D01*
X65627700Y12976886D01*
X65693592Y13091014D01*
X65727700Y13218308D01*
X65727700Y13350092D01*
X65693592Y13477386D01*
X65627700Y13591514D01*
X65534514Y13684700D01*
X65464193Y13725300D01*
X65420387Y13750592D01*
X65356739Y13767646D01*
X65293092Y13784700D01*
X65161308Y13784700D01*
X65034012Y13750592D01*
X64919886Y13684700D01*
X64919883Y13684698D01*
X64826702Y13591517D01*
X64826700Y13591514D01*
X64760808Y13477388D01*
X64733264Y13374589D01*
X64726700Y13350092D01*
X63822700Y13350092D01*
X63788592Y13477386D01*
X63722700Y13591514D01*
X63629514Y13684700D01*
X63559193Y13725300D01*
X63515387Y13750592D01*
X63451739Y13767646D01*
X63388092Y13784700D01*
X63256308Y13784700D01*
X63129012Y13750592D01*
X63014886Y13684700D01*
X63014883Y13684698D01*
X62921702Y13591517D01*
X62921700Y13591514D01*
X62855808Y13477388D01*
X62828264Y13374589D01*
X62821700Y13350092D01*
X57363320Y13350092D01*
X57342093Y13374589D01*
X57332149Y13443747D01*
X57335112Y13458193D01*
X57338815Y13472014D01*
X57345700Y13497708D01*
X57345700Y13629492D01*
X57311592Y13756786D01*
X57245700Y13870914D01*
X57152514Y13964100D01*
X57080447Y14005708D01*
X57038387Y14029992D01*
X56974739Y14047046D01*
X56911092Y14064100D01*
X56779308Y14064100D01*
X56652012Y14029992D01*
X56537886Y13964100D01*
X56537883Y13964098D01*
X56444702Y13870917D01*
X56444700Y13870914D01*
X56378808Y13756788D01*
X56355849Y13671101D01*
X56344700Y13629492D01*
X29851647Y13629492D01*
X29923714Y13671100D01*
X30016900Y13764286D01*
X30082792Y13878414D01*
X30116900Y14005708D01*
X30116900Y14137492D01*
X30082792Y14264786D01*
X30016900Y14378914D01*
X29923714Y14472100D01*
X29866650Y14505046D01*
X29809587Y14537992D01*
X29745939Y14555046D01*
X29682292Y14572100D01*
X29550508Y14572100D01*
X29423212Y14537992D01*
X29309086Y14472100D01*
X29309083Y14472098D01*
X29215902Y14378917D01*
X29215900Y14378914D01*
X29150008Y14264788D01*
X29127478Y14180701D01*
X29115900Y14137492D01*
X26702322Y14137492D01*
X26621714Y14218100D01*
X26540852Y14264786D01*
X26507587Y14283992D01*
X26443939Y14301046D01*
X26380292Y14318100D01*
X26248508Y14318100D01*
X26121212Y14283992D01*
X26007086Y14218100D01*
X26007083Y14218098D01*
X25913902Y14124917D01*
X25913900Y14124914D01*
X25848008Y14010788D01*
X25813900Y13883492D01*
X20467097Y13883492D01*
X20415700Y13972514D01*
X20322514Y14065700D01*
X20219953Y14124914D01*
X20208387Y14131592D01*
X20144739Y14148646D01*
X20081092Y14165700D01*
X19949308Y14165700D01*
X19822012Y14131592D01*
X19707886Y14065700D01*
X19707883Y14065698D01*
X19614702Y13972517D01*
X19614700Y13972514D01*
X19548808Y13858388D01*
X19520224Y13751709D01*
X19514700Y13731092D01*
X17643677Y13731092D01*
X17636792Y13756786D01*
X17570900Y13870914D01*
X17477714Y13964100D01*
X17405647Y14005708D01*
X17363587Y14029992D01*
X17299939Y14047046D01*
X17236292Y14064100D01*
X17104508Y14064100D01*
X16977212Y14029992D01*
X16863086Y13964100D01*
X16863083Y13964098D01*
X16769902Y13870917D01*
X16769900Y13870914D01*
X16704008Y13756788D01*
X16681049Y13671101D01*
X16669900Y13629492D01*
X4005700Y13629492D01*
X4005700Y13731092D01*
X3971592Y13858386D01*
X3905700Y13972514D01*
X3812514Y14065700D01*
X3709953Y14124914D01*
X3698387Y14131592D01*
X3634739Y14148646D01*
X3571092Y14165700D01*
X3439308Y14165700D01*
X3312012Y14131592D01*
X3197886Y14065700D01*
X3197883Y14065698D01*
X3104702Y13972517D01*
X3104700Y13972514D01*
X3038808Y13858388D01*
X3010224Y13751709D01*
X3004700Y13731092D01*
X449700Y13731092D01*
X449700Y14747092D01*
X10726300Y14747092D01*
X10726300Y14615308D01*
X10743354Y14551661D01*
X10760408Y14488013D01*
X10791188Y14434701D01*
X10826300Y14373886D01*
X10919486Y14280700D01*
X11018321Y14223637D01*
X11027915Y14218098D01*
X11033614Y14214808D01*
X11160908Y14180700D01*
X11160910Y14180700D01*
X11292690Y14180700D01*
X11292692Y14180700D01*
X11419986Y14214808D01*
X11534114Y14280700D01*
X11627300Y14373886D01*
X11693192Y14488014D01*
X11727300Y14615308D01*
X11727300Y14747092D01*
X11693192Y14874386D01*
X11627300Y14988514D01*
X11534114Y15081700D01*
X11453252Y15128386D01*
X11419987Y15147592D01*
X11356339Y15164646D01*
X11292692Y15181700D01*
X11160908Y15181700D01*
X11033612Y15147592D01*
X10919486Y15081700D01*
X10919483Y15081698D01*
X10826302Y14988517D01*
X10826300Y14988514D01*
X10760408Y14874388D01*
X10726300Y14747092D01*
X449700Y14747092D01*
X449700Y15458292D01*
X25813900Y15458292D01*
X25813900Y15326509D01*
X25848008Y15199213D01*
X25859741Y15178892D01*
X25913900Y15085086D01*
X26007086Y14991900D01*
X26121214Y14926008D01*
X26248508Y14891900D01*
X26248510Y14891900D01*
X26380290Y14891900D01*
X26380292Y14891900D01*
X26507586Y14926008D01*
X26621714Y14991900D01*
X26714900Y15085086D01*
X26780792Y15199214D01*
X26814900Y15326508D01*
X26814900Y15458292D01*
X26801288Y15509092D01*
X29115900Y15509092D01*
X29115900Y15377309D01*
X29150008Y15250013D01*
X29154336Y15242517D01*
X29215900Y15135886D01*
X29309086Y15042700D01*
X29423214Y14976808D01*
X29550508Y14942700D01*
X29550510Y14942700D01*
X29682290Y14942700D01*
X29682292Y14942700D01*
X29809586Y14976808D01*
X29851647Y15001092D01*
X36024700Y15001092D01*
X36024700Y14869309D01*
X36058808Y14742013D01*
X36075846Y14712503D01*
X36124700Y14627886D01*
X36217886Y14534700D01*
X36298750Y14488013D01*
X36326315Y14472098D01*
X36332014Y14468808D01*
X36459308Y14434700D01*
X36459310Y14434700D01*
X36591090Y14434700D01*
X36591092Y14434700D01*
X36718386Y14468808D01*
X36832514Y14534700D01*
X36925700Y14627886D01*
X36991592Y14742014D01*
X37025700Y14869308D01*
X37025700Y15001092D01*
X36991592Y15128386D01*
X36991590Y15128389D01*
X36991591Y15128389D01*
X36962432Y15178892D01*
X39098100Y15178892D01*
X39098100Y15047108D01*
X39099653Y15041313D01*
X39132208Y14919813D01*
X39148324Y14891900D01*
X39198100Y14805686D01*
X39291286Y14712500D01*
X39405414Y14646608D01*
X39532708Y14612500D01*
X39532710Y14612500D01*
X39664490Y14612500D01*
X39664492Y14612500D01*
X39791786Y14646608D01*
X39905914Y14712500D01*
X39999100Y14805686D01*
X40064992Y14919814D01*
X40086770Y15001092D01*
X48724700Y15001092D01*
X48724700Y14869309D01*
X48758808Y14742013D01*
X48775846Y14712503D01*
X48824700Y14627886D01*
X48917886Y14534700D01*
X48998750Y14488013D01*
X49026315Y14472098D01*
X49032014Y14468808D01*
X49159308Y14434700D01*
X49159310Y14434700D01*
X49291090Y14434700D01*
X49291092Y14434700D01*
X49418386Y14468808D01*
X49532514Y14534700D01*
X49625700Y14627886D01*
X49691592Y14742014D01*
X49725700Y14869308D01*
X49725700Y15001092D01*
X67774700Y15001092D01*
X67774700Y14869309D01*
X67808808Y14742013D01*
X67825846Y14712503D01*
X67874700Y14627886D01*
X67967886Y14534700D01*
X68048750Y14488013D01*
X68076315Y14472098D01*
X68082014Y14468808D01*
X68209308Y14434700D01*
X68209310Y14434700D01*
X68341090Y14434700D01*
X68341092Y14434700D01*
X68468386Y14468808D01*
X68582514Y14534700D01*
X68675700Y14627886D01*
X68741592Y14742014D01*
X68775700Y14869308D01*
X68775700Y15001092D01*
X68741592Y15128386D01*
X68675700Y15242514D01*
X68582514Y15335700D01*
X68510447Y15377308D01*
X68468387Y15401592D01*
X68398503Y15420317D01*
X68341092Y15435700D01*
X68209308Y15435700D01*
X68082012Y15401592D01*
X67967886Y15335700D01*
X67967883Y15335698D01*
X67874702Y15242517D01*
X67874700Y15242514D01*
X67808808Y15128388D01*
X67774700Y15001092D01*
X49725700Y15001092D01*
X49691592Y15128386D01*
X49625700Y15242514D01*
X49532514Y15335700D01*
X49460447Y15377308D01*
X49418387Y15401592D01*
X49348503Y15420317D01*
X49291092Y15435700D01*
X49159308Y15435700D01*
X49032012Y15401592D01*
X48917886Y15335700D01*
X48917883Y15335698D01*
X48824702Y15242517D01*
X48824700Y15242514D01*
X48758808Y15128388D01*
X48724700Y15001092D01*
X40086770Y15001092D01*
X40099100Y15047108D01*
X40099100Y15178892D01*
X40064992Y15306186D01*
X39999100Y15420314D01*
X39905914Y15513500D01*
X39848850Y15546446D01*
X39791787Y15579392D01*
X39728139Y15596446D01*
X39664492Y15613500D01*
X39532708Y15613500D01*
X39405412Y15579392D01*
X39291286Y15513500D01*
X39291283Y15513498D01*
X39198102Y15420317D01*
X39198100Y15420314D01*
X39132208Y15306188D01*
X39115148Y15242517D01*
X39098100Y15178892D01*
X36962432Y15178892D01*
X36950699Y15199214D01*
X36925700Y15242514D01*
X36832514Y15335700D01*
X36760447Y15377308D01*
X36718387Y15401592D01*
X36648503Y15420317D01*
X36591092Y15435700D01*
X36459308Y15435700D01*
X36332012Y15401592D01*
X36217886Y15335700D01*
X36217883Y15335698D01*
X36124702Y15242517D01*
X36124700Y15242514D01*
X36058808Y15128388D01*
X36024700Y15001092D01*
X29851647Y15001092D01*
X29923714Y15042700D01*
X30016900Y15135886D01*
X30082792Y15250014D01*
X30116900Y15377308D01*
X30116900Y15509092D01*
X30082792Y15636386D01*
X30016900Y15750514D01*
X29923714Y15843700D01*
X29866650Y15876646D01*
X29809587Y15909592D01*
X29745939Y15926646D01*
X29682292Y15943700D01*
X29550508Y15943700D01*
X29423212Y15909592D01*
X29309086Y15843700D01*
X29309083Y15843698D01*
X29215902Y15750517D01*
X29215900Y15750514D01*
X29150008Y15636388D01*
X29115900Y15509092D01*
X26801288Y15509092D01*
X26780792Y15585586D01*
X26714900Y15699714D01*
X26621714Y15792900D01*
X26539428Y15840408D01*
X26507587Y15858792D01*
X26443939Y15875846D01*
X26380292Y15892900D01*
X26248508Y15892900D01*
X26121212Y15858792D01*
X26007086Y15792900D01*
X26007083Y15792898D01*
X25913902Y15699717D01*
X25913900Y15699714D01*
X25848008Y15585588D01*
X25813900Y15458292D01*
X449700Y15458292D01*
X449700Y16271092D01*
X3004700Y16271092D01*
X3004700Y16139309D01*
X3038808Y16012013D01*
X3046040Y15999487D01*
X3104700Y15897886D01*
X3197886Y15804700D01*
X3312014Y15738808D01*
X3439308Y15704700D01*
X3439310Y15704700D01*
X3571090Y15704700D01*
X3571092Y15704700D01*
X3698386Y15738808D01*
X3812514Y15804700D01*
X3905700Y15897886D01*
X3971592Y16012014D01*
X4005700Y16139308D01*
X4005700Y16271092D01*
X3978477Y16372692D01*
X7779900Y16372692D01*
X7779900Y16240909D01*
X7814008Y16113613D01*
X7846954Y16056550D01*
X7879900Y15999486D01*
X7973086Y15906300D01*
X8055372Y15858792D01*
X8081515Y15843698D01*
X8087214Y15840408D01*
X8214508Y15806300D01*
X8214510Y15806300D01*
X8346290Y15806300D01*
X8346292Y15806300D01*
X8473586Y15840408D01*
X8587714Y15906300D01*
X8680900Y15999486D01*
X8746792Y16113614D01*
X8780900Y16240908D01*
X8780900Y16271092D01*
X19514700Y16271092D01*
X19514700Y16139309D01*
X19548808Y16012013D01*
X19556040Y15999487D01*
X19614700Y15897886D01*
X19707886Y15804700D01*
X19822014Y15738808D01*
X19949308Y15704700D01*
X19949310Y15704700D01*
X20081090Y15704700D01*
X20081092Y15704700D01*
X20208386Y15738808D01*
X20322514Y15804700D01*
X20415700Y15897886D01*
X20481592Y16012014D01*
X20515700Y16139308D01*
X20515700Y16271092D01*
X20481592Y16398386D01*
X20415700Y16512514D01*
X20322514Y16605700D01*
X20228665Y16659884D01*
X20208387Y16671592D01*
X20144739Y16688646D01*
X20081092Y16705700D01*
X19949308Y16705700D01*
X19822012Y16671592D01*
X19707886Y16605700D01*
X19707883Y16605698D01*
X19614702Y16512517D01*
X19614700Y16512514D01*
X19548808Y16398388D01*
X19514700Y16271092D01*
X8780900Y16271092D01*
X8780900Y16372692D01*
X8746792Y16499986D01*
X8746317Y16500808D01*
X8737963Y16515279D01*
X8680900Y16614114D01*
X8587714Y16707300D01*
X8530650Y16740246D01*
X8473587Y16773192D01*
X8409939Y16790246D01*
X8346292Y16807300D01*
X8214508Y16807300D01*
X8087212Y16773192D01*
X7973086Y16707300D01*
X7973083Y16707298D01*
X7879902Y16614117D01*
X7879900Y16614114D01*
X7814008Y16499988D01*
X7779900Y16372692D01*
X3978477Y16372692D01*
X3971592Y16398386D01*
X3905700Y16512514D01*
X3812514Y16605700D01*
X3718665Y16659884D01*
X3698387Y16671592D01*
X3634739Y16688646D01*
X3571092Y16705700D01*
X3439308Y16705700D01*
X3312012Y16671592D01*
X3197886Y16605700D01*
X3197883Y16605698D01*
X3104702Y16512517D01*
X3104700Y16512514D01*
X3038808Y16398388D01*
X3004700Y16271092D01*
X449700Y16271092D01*
X449700Y17033092D01*
X25813900Y17033092D01*
X25813900Y16901309D01*
X25848008Y16774013D01*
X25849459Y16771500D01*
X25913900Y16659886D01*
X26007086Y16566700D01*
X26121214Y16500808D01*
X26248508Y16466700D01*
X26248510Y16466700D01*
X26380290Y16466700D01*
X26380292Y16466700D01*
X26507586Y16500808D01*
X26621714Y16566700D01*
X26714900Y16659886D01*
X26780792Y16774014D01*
X26814900Y16901308D01*
X26814900Y17033092D01*
X29115900Y17033092D01*
X29115900Y16901309D01*
X29150008Y16774013D01*
X29151459Y16771500D01*
X29215900Y16659886D01*
X29309086Y16566700D01*
X29423214Y16500808D01*
X29550508Y16466700D01*
X29550510Y16466700D01*
X29682290Y16466700D01*
X29682292Y16466700D01*
X29809586Y16500808D01*
X29923714Y16566700D01*
X30016900Y16659886D01*
X30082792Y16774014D01*
X30116900Y16901308D01*
X30116900Y17033092D01*
X30082792Y17160386D01*
X30016900Y17274514D01*
X29923714Y17367700D01*
X29851647Y17409308D01*
X29809587Y17433592D01*
X29691674Y17465186D01*
X29682292Y17467700D01*
X29550508Y17467700D01*
X29423212Y17433592D01*
X29309086Y17367700D01*
X29309083Y17367698D01*
X29215902Y17274517D01*
X29215900Y17274514D01*
X29150008Y17160388D01*
X29115900Y17033092D01*
X26814900Y17033092D01*
X26780792Y17160386D01*
X26714900Y17274514D01*
X26621714Y17367700D01*
X26549647Y17409308D01*
X26507587Y17433592D01*
X26389674Y17465186D01*
X26380292Y17467700D01*
X26248508Y17467700D01*
X26121212Y17433592D01*
X26007086Y17367700D01*
X26007083Y17367698D01*
X25913902Y17274517D01*
X25913900Y17274514D01*
X25848008Y17160388D01*
X25813900Y17033092D01*
X449700Y17033092D01*
X449700Y17541092D01*
X36024700Y17541092D01*
X36024700Y17409308D01*
X36035849Y17367700D01*
X36058808Y17282013D01*
X36063136Y17274517D01*
X36124700Y17167886D01*
X36217886Y17074700D01*
X36332014Y17008808D01*
X36459308Y16974700D01*
X36459310Y16974700D01*
X36591090Y16974700D01*
X36591092Y16974700D01*
X36718386Y17008808D01*
X36832514Y17074700D01*
X36925700Y17167886D01*
X36991592Y17282014D01*
X37025700Y17409308D01*
X37025700Y17541092D01*
X36998477Y17642692D01*
X43085900Y17642692D01*
X43085900Y17510908D01*
X43098150Y17465190D01*
X43120008Y17383613D01*
X43129196Y17367700D01*
X43185900Y17269486D01*
X43279086Y17176300D01*
X43393214Y17110408D01*
X43520508Y17076300D01*
X43520510Y17076300D01*
X43652290Y17076300D01*
X43652292Y17076300D01*
X43779586Y17110408D01*
X43893714Y17176300D01*
X43986900Y17269486D01*
X44026394Y17337892D01*
X52991900Y17337892D01*
X52991900Y17206108D01*
X53002142Y17167884D01*
X53026008Y17078813D01*
X53028383Y17074700D01*
X53091900Y16964686D01*
X53185086Y16871500D01*
X53299214Y16805608D01*
X53426508Y16771500D01*
X53426510Y16771500D01*
X53558290Y16771500D01*
X53558292Y16771500D01*
X53685586Y16805608D01*
X53799714Y16871500D01*
X53892900Y16964686D01*
X53958792Y17078814D01*
X53992900Y17206108D01*
X53992900Y17337892D01*
X53958792Y17465186D01*
X53957341Y17467700D01*
X53946073Y17487217D01*
X53946072Y17487218D01*
X53932394Y17510909D01*
X53914968Y17541092D01*
X67774700Y17541092D01*
X67774700Y17409308D01*
X67785849Y17367700D01*
X67808808Y17282013D01*
X67813136Y17274517D01*
X67874700Y17167886D01*
X67967886Y17074700D01*
X68082014Y17008808D01*
X68209308Y16974700D01*
X68209310Y16974700D01*
X68341090Y16974700D01*
X68341092Y16974700D01*
X68468386Y17008808D01*
X68582514Y17074700D01*
X68675700Y17167886D01*
X68741592Y17282014D01*
X68775700Y17409308D01*
X68775700Y17541092D01*
X68741592Y17668386D01*
X68675700Y17782514D01*
X68582514Y17875700D01*
X68500228Y17923208D01*
X68468387Y17941592D01*
X68404739Y17958646D01*
X68341092Y17975700D01*
X68209308Y17975700D01*
X68082012Y17941592D01*
X67967886Y17875700D01*
X67967883Y17875698D01*
X67874702Y17782517D01*
X67874700Y17782514D01*
X67808808Y17668388D01*
X67784942Y17579317D01*
X67774700Y17541092D01*
X53914968Y17541092D01*
X53892900Y17579314D01*
X53799714Y17672500D01*
X53742650Y17705446D01*
X53685587Y17738392D01*
X53567674Y17769986D01*
X53558292Y17772500D01*
X53426508Y17772500D01*
X53299212Y17738392D01*
X53185086Y17672500D01*
X53185083Y17672498D01*
X53091902Y17579317D01*
X53091900Y17579314D01*
X53026008Y17465188D01*
X53004151Y17383614D01*
X52991900Y17337892D01*
X44026394Y17337892D01*
X44052792Y17383614D01*
X44086900Y17510908D01*
X44086900Y17642692D01*
X44052792Y17769986D01*
X43986900Y17884114D01*
X43893714Y17977300D01*
X43836650Y18010246D01*
X43779587Y18043192D01*
X43715939Y18060246D01*
X43652292Y18077300D01*
X43520508Y18077300D01*
X43393212Y18043192D01*
X43279086Y17977300D01*
X43279083Y17977298D01*
X43185902Y17884117D01*
X43185900Y17884114D01*
X43120008Y17769988D01*
X43111542Y17738392D01*
X43085900Y17642692D01*
X36998477Y17642692D01*
X36991592Y17668386D01*
X36925700Y17782514D01*
X36832514Y17875700D01*
X36750228Y17923208D01*
X36718387Y17941592D01*
X36654739Y17958646D01*
X36591092Y17975700D01*
X36459308Y17975700D01*
X36332012Y17941592D01*
X36217886Y17875700D01*
X36217883Y17875698D01*
X36124702Y17782517D01*
X36124700Y17782514D01*
X36058808Y17668388D01*
X36034942Y17579317D01*
X36024700Y17541092D01*
X449700Y17541092D01*
X449700Y18811092D01*
X3004700Y18811092D01*
X3004700Y18679309D01*
X3038808Y18552013D01*
X3065206Y18506292D01*
X3104700Y18437886D01*
X3197886Y18344700D01*
X3312014Y18278808D01*
X3439308Y18244700D01*
X3439310Y18244700D01*
X3571090Y18244700D01*
X3571092Y18244700D01*
X3698386Y18278808D01*
X3812514Y18344700D01*
X3905700Y18437886D01*
X3971592Y18552014D01*
X4005700Y18679308D01*
X4005700Y18811092D01*
X3971592Y18938386D01*
X3957097Y18963492D01*
X21292700Y18963492D01*
X21292700Y18831708D01*
X21302942Y18793484D01*
X21326808Y18704413D01*
X21329183Y18700300D01*
X21392700Y18590286D01*
X21485886Y18497100D01*
X21600014Y18431208D01*
X21727308Y18397100D01*
X21727310Y18397100D01*
X21859090Y18397100D01*
X21859092Y18397100D01*
X21986386Y18431208D01*
X22100514Y18497100D01*
X22193700Y18590286D01*
X22259592Y18704414D01*
X22293700Y18831708D01*
X22293700Y18963492D01*
X22266477Y19065092D01*
X23680300Y19065092D01*
X23680300Y18933308D01*
X23697354Y18869661D01*
X23714408Y18806013D01*
X23715859Y18803500D01*
X23780300Y18691886D01*
X23873486Y18598700D01*
X23987614Y18532808D01*
X24114908Y18498700D01*
X24114910Y18498700D01*
X24246690Y18498700D01*
X24246692Y18498700D01*
X24275026Y18506292D01*
X25813900Y18506292D01*
X25813900Y18374509D01*
X25848008Y18247213D01*
X25849459Y18244700D01*
X25913900Y18133086D01*
X26007086Y18039900D01*
X26095069Y17989103D01*
X26115515Y17977298D01*
X26121214Y17974008D01*
X26248508Y17939900D01*
X26248510Y17939900D01*
X26380290Y17939900D01*
X26380292Y17939900D01*
X26507586Y17974008D01*
X26621714Y18039900D01*
X26714900Y18133086D01*
X26780792Y18247214D01*
X26814900Y18374508D01*
X26814900Y18455492D01*
X29065100Y18455492D01*
X29065100Y18323709D01*
X29099208Y18196413D01*
X29132154Y18139350D01*
X29165100Y18082286D01*
X29258286Y17989100D01*
X29372414Y17923208D01*
X29499708Y17889100D01*
X29499710Y17889100D01*
X29631490Y17889100D01*
X29631492Y17889100D01*
X29758786Y17923208D01*
X29872914Y17989100D01*
X29966100Y18082286D01*
X30031992Y18196414D01*
X30066100Y18323708D01*
X30066100Y18455492D01*
X30031992Y18582786D01*
X29966100Y18696914D01*
X29872914Y18790100D01*
X29800847Y18831708D01*
X29758787Y18855992D01*
X29695139Y18873046D01*
X29631492Y18890100D01*
X29499708Y18890100D01*
X29372412Y18855992D01*
X29258286Y18790100D01*
X29258283Y18790098D01*
X29165102Y18696917D01*
X29165100Y18696914D01*
X29099208Y18582788D01*
X29065100Y18455492D01*
X26814900Y18455492D01*
X26814900Y18506292D01*
X26780792Y18633586D01*
X26780317Y18634408D01*
X26754394Y18679308D01*
X26714900Y18747714D01*
X26621714Y18840900D01*
X26564650Y18873846D01*
X26507587Y18906792D01*
X26443939Y18923846D01*
X26380292Y18940900D01*
X26248508Y18940900D01*
X26121212Y18906792D01*
X26007086Y18840900D01*
X26007083Y18840898D01*
X25913902Y18747717D01*
X25913900Y18747714D01*
X25848008Y18633588D01*
X25813900Y18506292D01*
X24275026Y18506292D01*
X24373986Y18532808D01*
X24488114Y18598700D01*
X24581300Y18691886D01*
X24647192Y18806014D01*
X24681300Y18933308D01*
X24681300Y19065092D01*
X24647192Y19192386D01*
X24581300Y19306514D01*
X24517922Y19369892D01*
X30741500Y19369892D01*
X30741500Y19238108D01*
X30750394Y19204914D01*
X30775608Y19110813D01*
X30787170Y19090788D01*
X30841500Y18996686D01*
X30934686Y18903500D01*
X31016972Y18855992D01*
X31043115Y18840898D01*
X31048814Y18837608D01*
X31176108Y18803500D01*
X31176110Y18803500D01*
X31307890Y18803500D01*
X31307892Y18803500D01*
X31435186Y18837608D01*
X31549314Y18903500D01*
X31642500Y18996686D01*
X31708392Y19110814D01*
X31723364Y19166692D01*
X40647500Y19166692D01*
X40647500Y19034908D01*
X40657742Y18996684D01*
X40681608Y18907613D01*
X40711412Y18855992D01*
X40747500Y18793486D01*
X40840686Y18700300D01*
X40954814Y18634408D01*
X41082108Y18600300D01*
X41082110Y18600300D01*
X41213890Y18600300D01*
X41213892Y18600300D01*
X41341186Y18634408D01*
X41455314Y18700300D01*
X41548500Y18793486D01*
X41614392Y18907614D01*
X41648500Y19034908D01*
X41648500Y19166692D01*
X41614392Y19293986D01*
X41548500Y19408114D01*
X41455314Y19501300D01*
X41373028Y19548808D01*
X41341187Y19567192D01*
X41277539Y19584246D01*
X41213892Y19601300D01*
X41082108Y19601300D01*
X40954812Y19567192D01*
X40840686Y19501300D01*
X40840683Y19501298D01*
X40747502Y19408117D01*
X40747500Y19408114D01*
X40681608Y19293988D01*
X40659531Y19211592D01*
X40647500Y19166692D01*
X31723364Y19166692D01*
X31742500Y19238108D01*
X31742500Y19369892D01*
X31708392Y19497186D01*
X31642500Y19611314D01*
X31549314Y19704500D01*
X31485315Y19741450D01*
X31435187Y19770392D01*
X31371539Y19787446D01*
X31307892Y19804500D01*
X31176108Y19804500D01*
X31048812Y19770392D01*
X30934686Y19704500D01*
X30934683Y19704498D01*
X30841502Y19611317D01*
X30841500Y19611314D01*
X30775608Y19497188D01*
X30767142Y19465592D01*
X30741500Y19369892D01*
X24517922Y19369892D01*
X24488114Y19399700D01*
X24431050Y19432646D01*
X24373987Y19465592D01*
X24256074Y19497186D01*
X24246692Y19499700D01*
X24114908Y19499700D01*
X23987612Y19465592D01*
X23873486Y19399700D01*
X23873483Y19399698D01*
X23780302Y19306517D01*
X23780300Y19306514D01*
X23714408Y19192388D01*
X23701898Y19145698D01*
X23680300Y19065092D01*
X22266477Y19065092D01*
X22259592Y19090786D01*
X22193700Y19204914D01*
X22100514Y19298100D01*
X22043450Y19331046D01*
X21986387Y19363992D01*
X21922739Y19381046D01*
X21859092Y19398100D01*
X21727308Y19398100D01*
X21600012Y19363992D01*
X21485886Y19298100D01*
X21485883Y19298098D01*
X21392702Y19204917D01*
X21392700Y19204914D01*
X21326808Y19090788D01*
X21301594Y18996687D01*
X21292700Y18963492D01*
X3957097Y18963492D01*
X3905700Y19052514D01*
X3812514Y19145700D01*
X3731652Y19192386D01*
X3698387Y19211592D01*
X3634739Y19228646D01*
X3571092Y19245700D01*
X3439308Y19245700D01*
X3312012Y19211592D01*
X3197886Y19145700D01*
X3197883Y19145698D01*
X3104702Y19052517D01*
X3104700Y19052514D01*
X3038808Y18938388D01*
X3004700Y18811092D01*
X449700Y18811092D01*
X449700Y20487492D01*
X21546700Y20487492D01*
X21546700Y20355708D01*
X21555594Y20322514D01*
X21580808Y20228413D01*
X21582259Y20225900D01*
X21646700Y20114286D01*
X21739886Y20021100D01*
X21838721Y19964037D01*
X21853163Y19955699D01*
X21854014Y19955208D01*
X21981308Y19921100D01*
X21981310Y19921100D01*
X22113090Y19921100D01*
X22113092Y19921100D01*
X22240386Y19955208D01*
X22354514Y20021100D01*
X22447700Y20114286D01*
X22487194Y20182692D01*
X25559900Y20182692D01*
X25559900Y20050909D01*
X25594008Y19923613D01*
X25595459Y19921100D01*
X25659900Y19809486D01*
X25753086Y19716300D01*
X25867214Y19650408D01*
X25994508Y19616300D01*
X25994510Y19616300D01*
X26126290Y19616300D01*
X26126292Y19616300D01*
X26253586Y19650408D01*
X26367714Y19716300D01*
X26460900Y19809486D01*
X26526792Y19923614D01*
X26560900Y20050908D01*
X26560900Y20081092D01*
X32697300Y20081092D01*
X32697300Y19949309D01*
X32731408Y19822013D01*
X32761212Y19770392D01*
X32797300Y19707886D01*
X32890486Y19614700D01*
X33004614Y19548808D01*
X33131908Y19514700D01*
X33131910Y19514700D01*
X33263690Y19514700D01*
X33263692Y19514700D01*
X33390986Y19548808D01*
X33505114Y19614700D01*
X33598300Y19707886D01*
X33664192Y19822014D01*
X33698300Y19949308D01*
X33698300Y20081092D01*
X33664192Y20208386D01*
X33598300Y20322514D01*
X33505114Y20415700D01*
X33448050Y20448646D01*
X33390987Y20481592D01*
X33324107Y20499512D01*
X33263692Y20515700D01*
X33131908Y20515700D01*
X33004612Y20481592D01*
X32890486Y20415700D01*
X32890483Y20415698D01*
X32797302Y20322517D01*
X32797300Y20322514D01*
X32731408Y20208388D01*
X32697300Y20081092D01*
X26560900Y20081092D01*
X26560900Y20182692D01*
X26526792Y20309986D01*
X26460900Y20424114D01*
X26367714Y20517300D01*
X26310650Y20550246D01*
X26253587Y20583192D01*
X26135674Y20614786D01*
X26126292Y20617300D01*
X25994508Y20617300D01*
X25867212Y20583192D01*
X25753086Y20517300D01*
X25753083Y20517298D01*
X25659902Y20424117D01*
X25659900Y20424114D01*
X25594008Y20309988D01*
X25559900Y20182692D01*
X22487194Y20182692D01*
X22513592Y20228414D01*
X22547700Y20355708D01*
X22547700Y20487492D01*
X22513592Y20614786D01*
X22447700Y20728914D01*
X22354514Y20822100D01*
X22252587Y20880948D01*
X22240387Y20887992D01*
X22176739Y20905046D01*
X22113092Y20922100D01*
X21981308Y20922100D01*
X21854012Y20887992D01*
X21739886Y20822100D01*
X21739883Y20822098D01*
X21646702Y20728917D01*
X21646700Y20728914D01*
X21580808Y20614788D01*
X21572394Y20583385D01*
X21546700Y20487492D01*
X449700Y20487492D01*
X449700Y21351092D01*
X3004700Y21351092D01*
X3004700Y21219309D01*
X3038808Y21092013D01*
X3063026Y21050067D01*
X3104700Y20977886D01*
X3197886Y20884700D01*
X3285869Y20833903D01*
X3306315Y20822098D01*
X3312014Y20818808D01*
X3439308Y20784700D01*
X3439310Y20784700D01*
X3571090Y20784700D01*
X3571092Y20784700D01*
X3698386Y20818808D01*
X3812514Y20884700D01*
X3905700Y20977886D01*
X3971592Y21092014D01*
X4005700Y21219308D01*
X4005700Y21351092D01*
X3978477Y21452692D01*
X18600300Y21452692D01*
X18600300Y21320908D01*
X18611315Y21279799D01*
X18634408Y21193613D01*
X18648902Y21168510D01*
X18700300Y21079486D01*
X18793486Y20986300D01*
X18907614Y20920408D01*
X19034908Y20886300D01*
X19034910Y20886300D01*
X19166690Y20886300D01*
X19166692Y20886300D01*
X19293986Y20920408D01*
X19408114Y20986300D01*
X19501300Y21079486D01*
X19567192Y21193614D01*
X19595776Y21300292D01*
X31655900Y21300292D01*
X31655900Y21168508D01*
X31664794Y21135314D01*
X31690008Y21041213D01*
X31701570Y21021188D01*
X31755900Y20927086D01*
X31849086Y20833900D01*
X31963214Y20768008D01*
X32090508Y20733900D01*
X32090510Y20733900D01*
X32222290Y20733900D01*
X32222292Y20733900D01*
X32349586Y20768008D01*
X32391647Y20792292D01*
X36481900Y20792292D01*
X36481900Y20660508D01*
X36494151Y20614788D01*
X36516008Y20533213D01*
X36535465Y20499514D01*
X36581900Y20419086D01*
X36675086Y20325900D01*
X36789214Y20260008D01*
X36916508Y20225900D01*
X36916510Y20225900D01*
X37048290Y20225900D01*
X37048292Y20225900D01*
X37175586Y20260008D01*
X37289714Y20325900D01*
X37382900Y20419086D01*
X37448792Y20533214D01*
X37482900Y20660508D01*
X37482900Y20792292D01*
X37448792Y20919586D01*
X37448317Y20920408D01*
X37437334Y20939431D01*
X37382900Y21033714D01*
X37289714Y21126900D01*
X37217647Y21168508D01*
X37175587Y21192792D01*
X37111939Y21209846D01*
X37048292Y21226900D01*
X36916508Y21226900D01*
X36789212Y21192792D01*
X36675086Y21126900D01*
X36675083Y21126898D01*
X36581902Y21033717D01*
X36581900Y21033714D01*
X36516008Y20919588D01*
X36493049Y20833901D01*
X36481900Y20792292D01*
X32391647Y20792292D01*
X32463714Y20833900D01*
X32556900Y20927086D01*
X32622792Y21041214D01*
X32656900Y21168508D01*
X32656900Y21300292D01*
X32622792Y21427586D01*
X32556900Y21541714D01*
X32463714Y21634900D01*
X32379736Y21683385D01*
X32349587Y21700792D01*
X32285939Y21717846D01*
X32222292Y21734900D01*
X32090508Y21734900D01*
X31963212Y21700792D01*
X31849086Y21634900D01*
X31849083Y21634898D01*
X31755902Y21541717D01*
X31755900Y21541714D01*
X31690008Y21427588D01*
X31661424Y21320909D01*
X31655900Y21300292D01*
X19595776Y21300292D01*
X19601300Y21320908D01*
X19601300Y21452692D01*
X19567192Y21579986D01*
X19501300Y21694114D01*
X19408114Y21787300D01*
X19351050Y21820246D01*
X19293987Y21853192D01*
X19230339Y21870246D01*
X19166692Y21887300D01*
X19034908Y21887300D01*
X18907612Y21853192D01*
X18793486Y21787300D01*
X18793483Y21787298D01*
X18700302Y21694117D01*
X18700300Y21694114D01*
X18634408Y21579988D01*
X18611210Y21493410D01*
X18600300Y21452692D01*
X3978477Y21452692D01*
X3971592Y21478386D01*
X3905700Y21592514D01*
X3812514Y21685700D01*
X3755450Y21718646D01*
X3698387Y21751592D01*
X3634739Y21768646D01*
X3571092Y21785700D01*
X3439308Y21785700D01*
X3312012Y21751592D01*
X3197886Y21685700D01*
X3197883Y21685698D01*
X3104702Y21592517D01*
X3104700Y21592514D01*
X3038808Y21478388D01*
X3004700Y21351092D01*
X449700Y21351092D01*
X449700Y22019309D01*
X43796500Y22019309D01*
X43796500Y21900691D01*
X43827201Y21786114D01*
X43886511Y21683387D01*
X43970387Y21599511D01*
X44073114Y21540201D01*
X44112027Y21529775D01*
X44171686Y21493410D01*
X44202215Y21430563D01*
X44193920Y21361187D01*
X44149435Y21307309D01*
X44112028Y21290227D01*
X44073114Y21279799D01*
X44073112Y21279799D01*
X44073112Y21279798D01*
X43970387Y21220489D01*
X43970384Y21220487D01*
X43886513Y21136616D01*
X43886511Y21136613D01*
X43843260Y21061700D01*
X43827201Y21033886D01*
X43796500Y20919309D01*
X43796500Y20800691D01*
X43827201Y20686114D01*
X43886511Y20583387D01*
X43970387Y20499511D01*
X44073114Y20440201D01*
X44187691Y20409500D01*
X44187694Y20409500D01*
X44306306Y20409500D01*
X44306309Y20409500D01*
X44420886Y20440201D01*
X44523613Y20499511D01*
X44607489Y20583387D01*
X44666799Y20686114D01*
X44697500Y20800691D01*
X44697500Y20919309D01*
X44666799Y21033886D01*
X44607489Y21136613D01*
X44523613Y21220489D01*
X44420886Y21279799D01*
X44373157Y21292588D01*
X44364789Y21296212D01*
X44344667Y21312965D01*
X44322313Y21326590D01*
X44318246Y21334962D01*
X44311093Y21340917D01*
X44307886Y21351092D01*
X48724700Y21351092D01*
X48724700Y21219309D01*
X48758808Y21092013D01*
X48783026Y21050067D01*
X48824700Y20977886D01*
X48917886Y20884700D01*
X49005869Y20833903D01*
X49026315Y20822098D01*
X49032014Y20818808D01*
X49159308Y20784700D01*
X49159310Y20784700D01*
X49291090Y20784700D01*
X49291092Y20784700D01*
X49418386Y20818808D01*
X49532514Y20884700D01*
X49541706Y20893892D01*
X51518700Y20893892D01*
X51518700Y20762108D01*
X51527594Y20728914D01*
X51552808Y20634813D01*
X51564370Y20614788D01*
X51618700Y20520686D01*
X51711886Y20427500D01*
X51826014Y20361608D01*
X51953308Y20327500D01*
X51953310Y20327500D01*
X52085090Y20327500D01*
X52085092Y20327500D01*
X52212386Y20361608D01*
X52326514Y20427500D01*
X52419700Y20520686D01*
X52485592Y20634814D01*
X52519700Y20762108D01*
X52519700Y20893892D01*
X52485592Y21021186D01*
X52478258Y21033888D01*
X52474029Y21041214D01*
X52419700Y21135314D01*
X52326514Y21228500D01*
X52251309Y21271920D01*
X52212387Y21294392D01*
X52143070Y21312965D01*
X52085092Y21328500D01*
X51953308Y21328500D01*
X51826012Y21294392D01*
X51711886Y21228500D01*
X51711883Y21228498D01*
X51618702Y21135317D01*
X51618700Y21135314D01*
X51552808Y21021188D01*
X51540776Y20976281D01*
X51518700Y20893892D01*
X49541706Y20893892D01*
X49625700Y20977886D01*
X49691592Y21092014D01*
X49725700Y21219308D01*
X49725700Y21351092D01*
X56344700Y21351092D01*
X56344700Y21219309D01*
X56378808Y21092013D01*
X56403026Y21050067D01*
X56444700Y20977886D01*
X56537886Y20884700D01*
X56625869Y20833903D01*
X56646315Y20822098D01*
X56652014Y20818808D01*
X56779308Y20784700D01*
X56779310Y20784700D01*
X56911090Y20784700D01*
X56911092Y20784700D01*
X57038386Y20818808D01*
X57146024Y20880953D01*
X61444700Y20880953D01*
X61444700Y19741448D01*
X61456331Y19682971D01*
X61456332Y19682970D01*
X61500647Y19616648D01*
X61566969Y19572333D01*
X61566970Y19572332D01*
X61625447Y19560701D01*
X61625450Y19560700D01*
X61625452Y19560700D01*
X62764950Y19560700D01*
X62764951Y19560701D01*
X62779768Y19563648D01*
X62823429Y19572332D01*
X62823429Y19572333D01*
X62823431Y19572333D01*
X62889752Y19616648D01*
X62934067Y19682969D01*
X62934067Y19682971D01*
X62934068Y19682971D01*
X62945699Y19741448D01*
X62945700Y19741450D01*
X62945700Y20237280D01*
X63444699Y20237280D01*
X63473540Y20092293D01*
X63473543Y20092283D01*
X63530112Y19955712D01*
X63530119Y19955699D01*
X63612248Y19832785D01*
X63612251Y19832781D01*
X63716780Y19728252D01*
X63716784Y19728249D01*
X63839698Y19646120D01*
X63839711Y19646113D01*
X63976282Y19589544D01*
X63976287Y19589542D01*
X63976291Y19589542D01*
X63976292Y19589541D01*
X64121279Y19560700D01*
X64121282Y19560700D01*
X64269120Y19560700D01*
X64366662Y19580104D01*
X64414113Y19589542D01*
X64550695Y19646116D01*
X64673616Y19728249D01*
X64778151Y19832784D01*
X64860284Y19955705D01*
X64912221Y20081092D01*
X67774700Y20081092D01*
X67774700Y19949309D01*
X67808808Y19822013D01*
X67838612Y19770392D01*
X67874700Y19707886D01*
X67967886Y19614700D01*
X68082014Y19548808D01*
X68209308Y19514700D01*
X68209310Y19514700D01*
X68341090Y19514700D01*
X68341092Y19514700D01*
X68468386Y19548808D01*
X68582514Y19614700D01*
X68675700Y19707886D01*
X68741592Y19822014D01*
X68775700Y19949308D01*
X68775700Y20081092D01*
X68741592Y20208386D01*
X68675700Y20322514D01*
X68582514Y20415700D01*
X68525450Y20448646D01*
X68468387Y20481592D01*
X68401507Y20499512D01*
X68341092Y20515700D01*
X68209308Y20515700D01*
X68082012Y20481592D01*
X67967886Y20415700D01*
X67967883Y20415698D01*
X67874702Y20322517D01*
X67874700Y20322514D01*
X67808808Y20208388D01*
X67774700Y20081092D01*
X64912221Y20081092D01*
X64916858Y20092287D01*
X64939952Y20208386D01*
X64945700Y20237280D01*
X64945700Y20385121D01*
X64916859Y20530108D01*
X64916858Y20530109D01*
X64916858Y20530113D01*
X64894791Y20583388D01*
X64860287Y20666689D01*
X64860280Y20666702D01*
X64778151Y20789616D01*
X64778148Y20789620D01*
X64673619Y20894149D01*
X64673615Y20894152D01*
X64550701Y20976281D01*
X64550688Y20976288D01*
X64414117Y21032857D01*
X64414107Y21032860D01*
X64269120Y21061700D01*
X64269118Y21061700D01*
X64121282Y21061700D01*
X64121280Y21061700D01*
X63976292Y21032860D01*
X63976282Y21032857D01*
X63839711Y20976288D01*
X63839698Y20976281D01*
X63716784Y20894152D01*
X63716780Y20894149D01*
X63612251Y20789620D01*
X63612248Y20789616D01*
X63530119Y20666702D01*
X63530112Y20666689D01*
X63473543Y20530118D01*
X63473540Y20530108D01*
X63444700Y20385121D01*
X63444700Y20385118D01*
X63444700Y20237282D01*
X63444700Y20237280D01*
X63444699Y20237280D01*
X62945700Y20237280D01*
X62945700Y20880951D01*
X62945699Y20880953D01*
X62934068Y20939430D01*
X62934067Y20939431D01*
X62889752Y21005753D01*
X62823430Y21050068D01*
X62823429Y21050069D01*
X62764952Y21061700D01*
X62764948Y21061700D01*
X61625452Y21061700D01*
X61625447Y21061700D01*
X61566970Y21050069D01*
X61566969Y21050068D01*
X61500647Y21005753D01*
X61456332Y20939431D01*
X61456331Y20939430D01*
X61444700Y20880953D01*
X57146024Y20880953D01*
X57152514Y20884700D01*
X57245700Y20977886D01*
X57311592Y21092014D01*
X57345700Y21219308D01*
X57345700Y21351092D01*
X57311592Y21478386D01*
X57245700Y21592514D01*
X57152514Y21685700D01*
X57095450Y21718646D01*
X57038387Y21751592D01*
X56974739Y21768646D01*
X56911092Y21785700D01*
X56779308Y21785700D01*
X56652012Y21751592D01*
X56537886Y21685700D01*
X56537883Y21685698D01*
X56444702Y21592517D01*
X56444700Y21592514D01*
X56378808Y21478388D01*
X56344700Y21351092D01*
X49725700Y21351092D01*
X49691592Y21478386D01*
X49625700Y21592514D01*
X49532514Y21685700D01*
X49475450Y21718646D01*
X49418387Y21751592D01*
X49354739Y21768646D01*
X49291092Y21785700D01*
X49159308Y21785700D01*
X49032012Y21751592D01*
X48917886Y21685700D01*
X48917883Y21685698D01*
X48824702Y21592517D01*
X48824700Y21592514D01*
X48758808Y21478388D01*
X48724700Y21351092D01*
X44307886Y21351092D01*
X44303222Y21365890D01*
X44291784Y21389437D01*
X44292888Y21398678D01*
X44290091Y21407555D01*
X44296971Y21432819D01*
X44300079Y21458812D01*
X44306003Y21465989D01*
X44308450Y21474970D01*
X44327897Y21492505D01*
X44344564Y21512690D01*
X44356158Y21517986D01*
X44360342Y21521757D01*
X44366700Y21522800D01*
X44381971Y21529774D01*
X44420886Y21540201D01*
X44523613Y21599511D01*
X44607489Y21683387D01*
X44666799Y21786114D01*
X44697500Y21900691D01*
X44697500Y22019309D01*
X44666799Y22133886D01*
X44607489Y22236613D01*
X44523613Y22320489D01*
X44420886Y22379799D01*
X44306309Y22410500D01*
X44187691Y22410500D01*
X44073114Y22379799D01*
X44073112Y22379799D01*
X44073112Y22379798D01*
X43970387Y22320489D01*
X43970384Y22320487D01*
X43886513Y22236616D01*
X43886511Y22236613D01*
X43835576Y22148391D01*
X43827201Y22133886D01*
X43796500Y22019309D01*
X449700Y22019309D01*
X449700Y22714783D01*
X25755191Y22714783D01*
X25755191Y22583000D01*
X25789299Y22455704D01*
X25815398Y22410500D01*
X25855191Y22341577D01*
X25948377Y22248391D01*
X26047212Y22191328D01*
X26058460Y22184834D01*
X26062505Y22182499D01*
X26189799Y22148391D01*
X26189801Y22148391D01*
X26321581Y22148391D01*
X26321583Y22148391D01*
X26448877Y22182499D01*
X26563005Y22248391D01*
X26656191Y22341577D01*
X26722083Y22455705D01*
X26756191Y22582999D01*
X26756191Y22651225D01*
X67718556Y22651225D01*
X67718556Y22519442D01*
X67752664Y22392146D01*
X67781860Y22341578D01*
X67818556Y22278019D01*
X67911742Y22184833D01*
X68025870Y22118941D01*
X68153164Y22084833D01*
X68153166Y22084833D01*
X68284946Y22084833D01*
X68284948Y22084833D01*
X68412242Y22118941D01*
X68526370Y22184833D01*
X68619556Y22278019D01*
X68685448Y22392147D01*
X68719556Y22519441D01*
X68719556Y22651225D01*
X68685448Y22778519D01*
X68619556Y22892647D01*
X68526370Y22985833D01*
X68463010Y23022414D01*
X68412243Y23051725D01*
X68348595Y23068779D01*
X68284948Y23085833D01*
X68153164Y23085833D01*
X68025868Y23051725D01*
X67911742Y22985833D01*
X67911739Y22985831D01*
X67818558Y22892650D01*
X67818556Y22892647D01*
X67752664Y22778521D01*
X67718556Y22651225D01*
X26756191Y22651225D01*
X26756191Y22714783D01*
X26722083Y22842077D01*
X26656191Y22956205D01*
X26563005Y23049391D01*
X26499886Y23085833D01*
X26448878Y23115283D01*
X26385230Y23132337D01*
X26321583Y23149391D01*
X26189799Y23149391D01*
X26062503Y23115283D01*
X25948377Y23049391D01*
X25948374Y23049389D01*
X25855193Y22956208D01*
X25855191Y22956205D01*
X25789299Y22842079D01*
X25755191Y22714783D01*
X449700Y22714783D01*
X449700Y23281492D01*
X14333100Y23281492D01*
X14333100Y23149709D01*
X14367208Y23022413D01*
X14388328Y22985833D01*
X14433100Y22908286D01*
X14526286Y22815100D01*
X14640414Y22749208D01*
X14767708Y22715100D01*
X14767710Y22715100D01*
X14899490Y22715100D01*
X14899492Y22715100D01*
X15026786Y22749208D01*
X15140914Y22815100D01*
X15234100Y22908286D01*
X15299992Y23022414D01*
X15334100Y23149708D01*
X15334100Y23281492D01*
X15299992Y23408786D01*
X15234100Y23522914D01*
X15140914Y23616100D01*
X15083850Y23649046D01*
X15026787Y23681992D01*
X14963139Y23699046D01*
X14899492Y23716100D01*
X14767708Y23716100D01*
X14640412Y23681992D01*
X14526286Y23616100D01*
X14526283Y23616098D01*
X14433102Y23522917D01*
X14433100Y23522914D01*
X14367208Y23408788D01*
X14333100Y23281492D01*
X449700Y23281492D01*
X449700Y23891092D01*
X3004700Y23891092D01*
X3004700Y23759308D01*
X3021754Y23695661D01*
X3038808Y23632013D01*
X3047996Y23616100D01*
X3104700Y23517886D01*
X3197886Y23424700D01*
X3312014Y23358808D01*
X3439308Y23324700D01*
X3439310Y23324700D01*
X3571090Y23324700D01*
X3571092Y23324700D01*
X3698386Y23358808D01*
X3812514Y23424700D01*
X3905700Y23517886D01*
X3971592Y23632014D01*
X4005700Y23759308D01*
X4005700Y23891092D01*
X28201500Y23891092D01*
X28201500Y23759308D01*
X28218554Y23695661D01*
X28235608Y23632013D01*
X28244796Y23616100D01*
X28301500Y23517886D01*
X28394686Y23424700D01*
X28508814Y23358808D01*
X28636108Y23324700D01*
X28636110Y23324700D01*
X28767890Y23324700D01*
X28767892Y23324700D01*
X28895186Y23358808D01*
X29009314Y23424700D01*
X29102500Y23517886D01*
X29168392Y23632014D01*
X29202500Y23759308D01*
X29202500Y23891092D01*
X36024700Y23891092D01*
X36024700Y23759308D01*
X36041754Y23695661D01*
X36058808Y23632013D01*
X36067996Y23616100D01*
X36124700Y23517886D01*
X36217886Y23424700D01*
X36332014Y23358808D01*
X36459308Y23324700D01*
X36459310Y23324700D01*
X36591090Y23324700D01*
X36591092Y23324700D01*
X36718386Y23358808D01*
X36832514Y23424700D01*
X36925700Y23517886D01*
X36991592Y23632014D01*
X37025700Y23759308D01*
X37025700Y23891092D01*
X52534700Y23891092D01*
X52534700Y23759308D01*
X52551754Y23695661D01*
X52568808Y23632013D01*
X52577996Y23616100D01*
X52634700Y23517886D01*
X52727886Y23424700D01*
X52842014Y23358808D01*
X52969308Y23324700D01*
X52969310Y23324700D01*
X53101090Y23324700D01*
X53101092Y23324700D01*
X53228386Y23358808D01*
X53342514Y23424700D01*
X53435700Y23517886D01*
X53501592Y23632014D01*
X53535700Y23759308D01*
X53535700Y23891092D01*
X56344700Y23891092D01*
X56344700Y23759308D01*
X56361754Y23695661D01*
X56378808Y23632013D01*
X56387996Y23616100D01*
X56444700Y23517886D01*
X56537886Y23424700D01*
X56652014Y23358808D01*
X56779308Y23324700D01*
X56779310Y23324700D01*
X56911090Y23324700D01*
X56911092Y23324700D01*
X57038386Y23358808D01*
X57152514Y23424700D01*
X57245700Y23517886D01*
X57311592Y23632014D01*
X57345700Y23759308D01*
X57345700Y23891092D01*
X57311592Y24018386D01*
X57245700Y24132514D01*
X57152514Y24225700D01*
X57095450Y24258646D01*
X57038387Y24291592D01*
X56974739Y24308646D01*
X56911092Y24325700D01*
X56779308Y24325700D01*
X56652012Y24291592D01*
X56537886Y24225700D01*
X56537883Y24225698D01*
X56444702Y24132517D01*
X56444700Y24132514D01*
X56378808Y24018388D01*
X56344700Y23891092D01*
X53535700Y23891092D01*
X53501592Y24018386D01*
X53435700Y24132514D01*
X53342514Y24225700D01*
X53285450Y24258646D01*
X53228387Y24291592D01*
X53164739Y24308646D01*
X53101092Y24325700D01*
X52969308Y24325700D01*
X52842012Y24291592D01*
X52727886Y24225700D01*
X52727883Y24225698D01*
X52634702Y24132517D01*
X52634700Y24132514D01*
X52568808Y24018388D01*
X52534700Y23891092D01*
X37025700Y23891092D01*
X36991592Y24018386D01*
X36925700Y24132514D01*
X36832514Y24225700D01*
X36775450Y24258646D01*
X36718387Y24291592D01*
X36654739Y24308646D01*
X36591092Y24325700D01*
X36459308Y24325700D01*
X36332012Y24291592D01*
X36217886Y24225700D01*
X36217883Y24225698D01*
X36124702Y24132517D01*
X36124700Y24132514D01*
X36058808Y24018388D01*
X36024700Y23891092D01*
X29202500Y23891092D01*
X29168392Y24018386D01*
X29102500Y24132514D01*
X29009314Y24225700D01*
X28952250Y24258646D01*
X28895187Y24291592D01*
X28831539Y24308646D01*
X28767892Y24325700D01*
X28636108Y24325700D01*
X28508812Y24291592D01*
X28394686Y24225700D01*
X28394683Y24225698D01*
X28301502Y24132517D01*
X28301500Y24132514D01*
X28235608Y24018388D01*
X28201500Y23891092D01*
X4005700Y23891092D01*
X3971592Y24018386D01*
X3905700Y24132514D01*
X3812514Y24225700D01*
X3755450Y24258646D01*
X3698387Y24291592D01*
X3634739Y24308646D01*
X3571092Y24325700D01*
X3439308Y24325700D01*
X3312012Y24291592D01*
X3197886Y24225700D01*
X3197883Y24225698D01*
X3104702Y24132517D01*
X3104700Y24132514D01*
X3038808Y24018388D01*
X3004700Y23891092D01*
X449700Y23891092D01*
X449700Y25161092D01*
X67774700Y25161092D01*
X67774700Y25029309D01*
X67808808Y24902013D01*
X67841754Y24844950D01*
X67874700Y24787886D01*
X67967886Y24694700D01*
X68082014Y24628808D01*
X68209308Y24594700D01*
X68209310Y24594700D01*
X68341090Y24594700D01*
X68341092Y24594700D01*
X68468386Y24628808D01*
X68582514Y24694700D01*
X68675700Y24787886D01*
X68741592Y24902014D01*
X68775700Y25029308D01*
X68775700Y25161092D01*
X68741592Y25288386D01*
X68675700Y25402514D01*
X68582514Y25495700D01*
X68525450Y25528646D01*
X68468387Y25561592D01*
X68404739Y25578646D01*
X68341092Y25595700D01*
X68209308Y25595700D01*
X68082012Y25561592D01*
X67967886Y25495700D01*
X67967883Y25495698D01*
X67874702Y25402517D01*
X67874700Y25402514D01*
X67808808Y25288388D01*
X67774700Y25161092D01*
X449700Y25161092D01*
X449700Y26431092D01*
X3004700Y26431092D01*
X3004700Y26299308D01*
X3021754Y26235661D01*
X3038808Y26172013D01*
X3040259Y26169500D01*
X3104700Y26057886D01*
X3197886Y25964700D01*
X3312014Y25898808D01*
X3439308Y25864700D01*
X3439310Y25864700D01*
X3571090Y25864700D01*
X3571092Y25864700D01*
X3698386Y25898808D01*
X3812514Y25964700D01*
X3905700Y26057886D01*
X3971592Y26172014D01*
X3986564Y26227892D01*
X10523100Y26227892D01*
X10523100Y26096108D01*
X10533342Y26057884D01*
X10557208Y25968813D01*
X10559583Y25964700D01*
X10623100Y25854686D01*
X10716286Y25761500D01*
X10830414Y25695608D01*
X10957708Y25661500D01*
X10957710Y25661500D01*
X11089490Y25661500D01*
X11089492Y25661500D01*
X11216786Y25695608D01*
X11330914Y25761500D01*
X11424100Y25854686D01*
X11489992Y25968814D01*
X11524100Y26096108D01*
X11524100Y26227892D01*
X11489992Y26355186D01*
X11485662Y26362686D01*
X11477273Y26377217D01*
X11477272Y26377218D01*
X11459211Y26408500D01*
X11446167Y26431092D01*
X18244700Y26431092D01*
X18244700Y26299308D01*
X18261754Y26235661D01*
X18278808Y26172013D01*
X18280259Y26169500D01*
X18344700Y26057886D01*
X18437886Y25964700D01*
X18552014Y25898808D01*
X18679308Y25864700D01*
X18679310Y25864700D01*
X18811090Y25864700D01*
X18811092Y25864700D01*
X18938386Y25898808D01*
X19052514Y25964700D01*
X19112506Y26024692D01*
X27236300Y26024692D01*
X27236300Y25892908D01*
X27246542Y25854684D01*
X27270408Y25765613D01*
X27272783Y25761500D01*
X27336300Y25651486D01*
X27429486Y25558300D01*
X27517469Y25507503D01*
X27537915Y25495698D01*
X27543614Y25492408D01*
X27670908Y25458300D01*
X27670910Y25458300D01*
X27802690Y25458300D01*
X27802692Y25458300D01*
X27929986Y25492408D01*
X28044114Y25558300D01*
X28055519Y25569705D01*
X28116842Y25603190D01*
X28186534Y25598206D01*
X28230881Y25569705D01*
X28293086Y25507500D01*
X28407214Y25441608D01*
X28534508Y25407500D01*
X28534510Y25407500D01*
X28666290Y25407500D01*
X28666292Y25407500D01*
X28793586Y25441608D01*
X28907714Y25507500D01*
X29000900Y25600686D01*
X29066792Y25714814D01*
X29100900Y25842108D01*
X29100900Y25973892D01*
X29066792Y26101186D01*
X29000900Y26215314D01*
X28907714Y26308500D01*
X28826848Y26355188D01*
X28793587Y26374392D01*
X28729939Y26391446D01*
X28666292Y26408500D01*
X28534508Y26408500D01*
X28407212Y26374392D01*
X28293086Y26308500D01*
X28293080Y26308495D01*
X28281675Y26297091D01*
X28220350Y26263609D01*
X28150659Y26268598D01*
X28106318Y26297096D01*
X28044116Y26359298D01*
X28044114Y26359300D01*
X27987050Y26392246D01*
X27929987Y26425192D01*
X27907967Y26431092D01*
X36024700Y26431092D01*
X36024700Y26299308D01*
X36041754Y26235661D01*
X36058808Y26172013D01*
X36060259Y26169500D01*
X36124700Y26057886D01*
X36217886Y25964700D01*
X36332014Y25898808D01*
X36459308Y25864700D01*
X36459310Y25864700D01*
X36591090Y25864700D01*
X36591092Y25864700D01*
X36718386Y25898808D01*
X36832514Y25964700D01*
X36925700Y26057886D01*
X36991592Y26172014D01*
X37025700Y26299308D01*
X37025700Y26431092D01*
X36991592Y26558386D01*
X36925700Y26672514D01*
X36862322Y26735892D01*
X43847900Y26735892D01*
X43847900Y26604109D01*
X43882008Y26476813D01*
X43908406Y26431092D01*
X43947900Y26362686D01*
X44041086Y26269500D01*
X44155214Y26203608D01*
X44282508Y26169500D01*
X44282510Y26169500D01*
X44414290Y26169500D01*
X44414292Y26169500D01*
X44541586Y26203608D01*
X44655714Y26269500D01*
X44748900Y26362686D01*
X44788394Y26431092D01*
X56344700Y26431092D01*
X56344700Y26299308D01*
X56361754Y26235661D01*
X56378808Y26172013D01*
X56380259Y26169500D01*
X56444700Y26057886D01*
X56537886Y25964700D01*
X56652014Y25898808D01*
X56779308Y25864700D01*
X56779310Y25864700D01*
X56911090Y25864700D01*
X56911092Y25864700D01*
X57038386Y25898808D01*
X57152514Y25964700D01*
X57245700Y26057886D01*
X57311592Y26172014D01*
X57345700Y26299308D01*
X57345700Y26431092D01*
X57311592Y26558386D01*
X57245700Y26672514D01*
X57152514Y26765700D01*
X57095450Y26798646D01*
X57038387Y26831592D01*
X56920474Y26863186D01*
X56911092Y26865700D01*
X56779308Y26865700D01*
X56652012Y26831592D01*
X56537886Y26765700D01*
X56537883Y26765698D01*
X56444702Y26672517D01*
X56444700Y26672514D01*
X56378808Y26558388D01*
X56356951Y26476814D01*
X56344700Y26431092D01*
X44788394Y26431092D01*
X44814792Y26476814D01*
X44848900Y26604108D01*
X44848900Y26735892D01*
X44814792Y26863186D01*
X44748900Y26977314D01*
X44655714Y27070500D01*
X44598650Y27103446D01*
X44541587Y27136392D01*
X44477939Y27153446D01*
X44414292Y27170500D01*
X44282508Y27170500D01*
X44155212Y27136392D01*
X44041086Y27070500D01*
X44041083Y27070498D01*
X43947902Y26977317D01*
X43947900Y26977314D01*
X43882008Y26863188D01*
X43847900Y26735892D01*
X36862322Y26735892D01*
X36832514Y26765700D01*
X36775450Y26798646D01*
X36718387Y26831592D01*
X36600474Y26863186D01*
X36591092Y26865700D01*
X36459308Y26865700D01*
X36332012Y26831592D01*
X36217886Y26765700D01*
X36217883Y26765698D01*
X36124702Y26672517D01*
X36124700Y26672514D01*
X36058808Y26558388D01*
X36036951Y26476814D01*
X36024700Y26431092D01*
X27907967Y26431092D01*
X27866339Y26442246D01*
X27802692Y26459300D01*
X27670908Y26459300D01*
X27543612Y26425192D01*
X27429486Y26359300D01*
X27429483Y26359298D01*
X27336302Y26266117D01*
X27336300Y26266114D01*
X27270408Y26151988D01*
X27245196Y26057893D01*
X27236300Y26024692D01*
X19112506Y26024692D01*
X19145700Y26057886D01*
X19146484Y26059246D01*
X19167025Y26094820D01*
X19202800Y26156788D01*
X19211592Y26172014D01*
X19245700Y26299308D01*
X19245700Y26431092D01*
X19211592Y26558386D01*
X19145700Y26672514D01*
X19052514Y26765700D01*
X18995450Y26798646D01*
X18938387Y26831592D01*
X18820474Y26863186D01*
X18811092Y26865700D01*
X18679308Y26865700D01*
X18552012Y26831592D01*
X18437886Y26765700D01*
X18437883Y26765698D01*
X18344702Y26672517D01*
X18344700Y26672514D01*
X18278808Y26558388D01*
X18256951Y26476814D01*
X18244700Y26431092D01*
X11446167Y26431092D01*
X11424100Y26469314D01*
X11330914Y26562500D01*
X11258847Y26604108D01*
X11216787Y26628392D01*
X11153139Y26645446D01*
X11089492Y26662500D01*
X10957708Y26662500D01*
X10830412Y26628392D01*
X10716286Y26562500D01*
X10716283Y26562498D01*
X10623102Y26469317D01*
X10623100Y26469314D01*
X10557208Y26355188D01*
X10534249Y26269501D01*
X10523100Y26227892D01*
X3986564Y26227892D01*
X4005700Y26299308D01*
X4005700Y26431092D01*
X3971592Y26558386D01*
X3905700Y26672514D01*
X3812514Y26765700D01*
X3755450Y26798646D01*
X3698387Y26831592D01*
X3580474Y26863186D01*
X3571092Y26865700D01*
X3439308Y26865700D01*
X3312012Y26831592D01*
X3197886Y26765700D01*
X3197883Y26765698D01*
X3104702Y26672517D01*
X3104700Y26672514D01*
X3038808Y26558388D01*
X3016951Y26476814D01*
X3004700Y26431092D01*
X449700Y26431092D01*
X449700Y27493192D01*
X31605100Y27493192D01*
X31605100Y27361409D01*
X31639208Y27234113D01*
X31672154Y27177050D01*
X31705100Y27119986D01*
X31798286Y27026800D01*
X31912414Y26960908D01*
X32039708Y26926800D01*
X32039710Y26926800D01*
X32171490Y26926800D01*
X32171492Y26926800D01*
X32298786Y26960908D01*
X32412914Y27026800D01*
X32506100Y27119986D01*
X32571992Y27234114D01*
X32606100Y27361408D01*
X32606100Y27493192D01*
X32571992Y27620486D01*
X32506100Y27734614D01*
X32412914Y27827800D01*
X32355850Y27860746D01*
X32298787Y27893692D01*
X32235139Y27910746D01*
X32171492Y27927800D01*
X32039708Y27927800D01*
X31912412Y27893692D01*
X31798286Y27827800D01*
X31798283Y27827798D01*
X31705102Y27734617D01*
X31705100Y27734614D01*
X31639208Y27620488D01*
X31605100Y27493192D01*
X449700Y27493192D01*
X449700Y28971092D01*
X3004700Y28971092D01*
X3004700Y28839308D01*
X3018391Y28788213D01*
X3038808Y28712013D01*
X3060705Y28674087D01*
X3104700Y28597886D01*
X3197886Y28504700D01*
X3312014Y28438808D01*
X3439308Y28404700D01*
X3439310Y28404700D01*
X3571090Y28404700D01*
X3571092Y28404700D01*
X3698386Y28438808D01*
X3812514Y28504700D01*
X3905700Y28597886D01*
X3971592Y28712014D01*
X4005700Y28839308D01*
X4005700Y28971092D01*
X3985282Y29047292D01*
X7957700Y29047292D01*
X7957700Y28915508D01*
X7958410Y28912859D01*
X7991808Y28788213D01*
X8024754Y28731150D01*
X8057700Y28674086D01*
X8150886Y28580900D01*
X8265014Y28515008D01*
X8392308Y28480900D01*
X8392310Y28480900D01*
X8524090Y28480900D01*
X8524092Y28480900D01*
X8651386Y28515008D01*
X8765514Y28580900D01*
X8858700Y28674086D01*
X8924592Y28788214D01*
X8957991Y28912861D01*
X28293700Y28912861D01*
X28293700Y28781078D01*
X28327808Y28653782D01*
X28360080Y28597887D01*
X28393700Y28539655D01*
X28486886Y28446469D01*
X28601014Y28380577D01*
X28728308Y28346469D01*
X28728310Y28346469D01*
X28860090Y28346469D01*
X28860092Y28346469D01*
X28987386Y28380577D01*
X29101514Y28446469D01*
X29194700Y28539655D01*
X29260592Y28653783D01*
X29287624Y28754670D01*
X51578300Y28754670D01*
X51578300Y28547731D01*
X51618668Y28344788D01*
X51618670Y28344780D01*
X51697858Y28153604D01*
X51812824Y27981543D01*
X51959142Y27835225D01*
X51959145Y27835223D01*
X52131202Y27720259D01*
X52322380Y27641070D01*
X52466852Y27612333D01*
X52525330Y27600701D01*
X52525334Y27600700D01*
X52525335Y27600700D01*
X52732266Y27600700D01*
X52732267Y27600701D01*
X52935220Y27641070D01*
X53126398Y27720259D01*
X53298455Y27835223D01*
X53444777Y27981545D01*
X53559741Y28153602D01*
X53638930Y28344780D01*
X53679300Y28547735D01*
X53679300Y28754665D01*
X53662464Y28839308D01*
X53639447Y28955023D01*
X53639445Y28955029D01*
X53638931Y28957613D01*
X53638930Y28957620D01*
X53633350Y28971092D01*
X56344700Y28971092D01*
X56344700Y28839308D01*
X56358391Y28788213D01*
X56378808Y28712013D01*
X56400705Y28674087D01*
X56444700Y28597886D01*
X56537886Y28504700D01*
X56652014Y28438808D01*
X56779308Y28404700D01*
X56779310Y28404700D01*
X56911090Y28404700D01*
X56911092Y28404700D01*
X57038386Y28438808D01*
X57152514Y28504700D01*
X57245700Y28597886D01*
X57311592Y28712014D01*
X57345700Y28839308D01*
X57345700Y28971092D01*
X57311592Y29098386D01*
X57245700Y29212514D01*
X57152514Y29305700D01*
X57080168Y29347469D01*
X57038387Y29371592D01*
X56974739Y29388646D01*
X56911092Y29405700D01*
X56779308Y29405700D01*
X56652012Y29371592D01*
X56537886Y29305700D01*
X56537883Y29305698D01*
X56444702Y29212517D01*
X56444700Y29212514D01*
X56378808Y29098388D01*
X56363205Y29040155D01*
X56344700Y28971092D01*
X53633350Y28971092D01*
X53559741Y29148798D01*
X53444777Y29320855D01*
X53444775Y29320858D01*
X53298457Y29467176D01*
X53217973Y29520953D01*
X60270100Y29520953D01*
X60270100Y27781448D01*
X60281731Y27722971D01*
X60281732Y27722970D01*
X60326047Y27656648D01*
X60392369Y27612333D01*
X60392370Y27612332D01*
X60450847Y27600701D01*
X60450850Y27600700D01*
X60450852Y27600700D01*
X62190350Y27600700D01*
X62190351Y27600701D01*
X62205168Y27603648D01*
X62248829Y27612332D01*
X62248829Y27612333D01*
X62248831Y27612333D01*
X62315152Y27656648D01*
X62359467Y27722969D01*
X62359467Y27722971D01*
X62359468Y27722971D01*
X62371099Y27781448D01*
X62371100Y27781450D01*
X62371100Y28754670D01*
X62810100Y28754670D01*
X62810100Y28547731D01*
X62850468Y28344788D01*
X62850470Y28344780D01*
X62929658Y28153604D01*
X63044624Y27981543D01*
X63190942Y27835225D01*
X63190945Y27835223D01*
X63363002Y27720259D01*
X63554180Y27641070D01*
X63698652Y27612333D01*
X63757130Y27600701D01*
X63757134Y27600700D01*
X63757135Y27600700D01*
X63964066Y27600700D01*
X63964067Y27600701D01*
X64167020Y27641070D01*
X64311925Y27701092D01*
X67774700Y27701092D01*
X67774700Y27569309D01*
X67808808Y27442013D01*
X67841754Y27384950D01*
X67874700Y27327886D01*
X67967886Y27234700D01*
X68082014Y27168808D01*
X68209308Y27134700D01*
X68209310Y27134700D01*
X68341090Y27134700D01*
X68341092Y27134700D01*
X68468386Y27168808D01*
X68582514Y27234700D01*
X68675700Y27327886D01*
X68741592Y27442014D01*
X68775700Y27569308D01*
X68775700Y27701092D01*
X68741592Y27828386D01*
X68737643Y27835225D01*
X68703887Y27893692D01*
X68675700Y27942514D01*
X68582514Y28035700D01*
X68525450Y28068646D01*
X68468387Y28101592D01*
X68404739Y28118646D01*
X68341092Y28135700D01*
X68209308Y28135700D01*
X68082012Y28101592D01*
X67967886Y28035700D01*
X67967883Y28035698D01*
X67874702Y27942517D01*
X67874700Y27942514D01*
X67808808Y27828388D01*
X67774700Y27701092D01*
X64311925Y27701092D01*
X64358198Y27720259D01*
X64495981Y27812322D01*
X64495983Y27812323D01*
X64513180Y27823815D01*
X64530255Y27835223D01*
X64676577Y27981545D01*
X64791541Y28153602D01*
X64870730Y28344780D01*
X64911100Y28547735D01*
X64911100Y28754665D01*
X64870730Y28957620D01*
X64791541Y29148798D01*
X64676577Y29320855D01*
X64676575Y29320858D01*
X64530257Y29467176D01*
X64362255Y29579430D01*
X64358198Y29582141D01*
X64167020Y29661330D01*
X64167012Y29661332D01*
X63964069Y29701700D01*
X63964065Y29701700D01*
X63757135Y29701700D01*
X63757130Y29701700D01*
X63554187Y29661332D01*
X63554179Y29661330D01*
X63363003Y29582142D01*
X63190942Y29467176D01*
X63044624Y29320858D01*
X62929658Y29148797D01*
X62850470Y28957621D01*
X62850468Y28957613D01*
X62810100Y28754670D01*
X62371100Y28754670D01*
X62371100Y29520951D01*
X62371099Y29520953D01*
X62359468Y29579430D01*
X62359467Y29579431D01*
X62315152Y29645753D01*
X62248830Y29690068D01*
X62248829Y29690069D01*
X62190352Y29701700D01*
X62190348Y29701700D01*
X60450852Y29701700D01*
X60450847Y29701700D01*
X60392370Y29690069D01*
X60392369Y29690068D01*
X60326047Y29645753D01*
X60281732Y29579431D01*
X60281731Y29579430D01*
X60270100Y29520953D01*
X53217973Y29520953D01*
X53130455Y29579430D01*
X53126398Y29582141D01*
X52935220Y29661330D01*
X52935212Y29661332D01*
X52732269Y29701700D01*
X52732265Y29701700D01*
X52525335Y29701700D01*
X52525330Y29701700D01*
X52322387Y29661332D01*
X52322379Y29661330D01*
X52131203Y29582142D01*
X51959142Y29467176D01*
X51812824Y29320858D01*
X51697858Y29148797D01*
X51618670Y28957621D01*
X51618668Y28957613D01*
X51578300Y28754670D01*
X29287624Y28754670D01*
X29294700Y28781077D01*
X29294700Y28912861D01*
X29260592Y29040155D01*
X29256471Y29047292D01*
X29217784Y29114300D01*
X29194700Y29154283D01*
X29101514Y29247469D01*
X29000659Y29305698D01*
X28987387Y29313361D01*
X28923739Y29330415D01*
X28860092Y29347469D01*
X28728308Y29347469D01*
X28601012Y29313361D01*
X28486886Y29247469D01*
X28486883Y29247467D01*
X28393702Y29154286D01*
X28393700Y29154283D01*
X28327808Y29040157D01*
X28293700Y28912861D01*
X8957991Y28912861D01*
X8958700Y28915508D01*
X8958700Y29047292D01*
X8924592Y29174586D01*
X8858700Y29288714D01*
X8765514Y29381900D01*
X8708450Y29414846D01*
X8651387Y29447792D01*
X8579043Y29467176D01*
X8524092Y29481900D01*
X8392308Y29481900D01*
X8265012Y29447792D01*
X8150886Y29381900D01*
X8150883Y29381898D01*
X8057702Y29288717D01*
X8057700Y29288714D01*
X7991808Y29174588D01*
X7971391Y29098388D01*
X7957700Y29047292D01*
X3985282Y29047292D01*
X3971592Y29098386D01*
X3905700Y29212514D01*
X3812514Y29305700D01*
X3740168Y29347469D01*
X3698387Y29371592D01*
X3634739Y29388646D01*
X3571092Y29405700D01*
X3439308Y29405700D01*
X3312012Y29371592D01*
X3197886Y29305700D01*
X3197883Y29305698D01*
X3104702Y29212517D01*
X3104700Y29212514D01*
X3038808Y29098388D01*
X3023205Y29040155D01*
X3004700Y28971092D01*
X449700Y28971092D01*
X449700Y30241092D01*
X9354700Y30241092D01*
X9354700Y30109309D01*
X9388808Y29982013D01*
X9421061Y29926151D01*
X9454700Y29867886D01*
X9547886Y29774700D01*
X9662014Y29708808D01*
X9789308Y29674700D01*
X9789310Y29674700D01*
X9921090Y29674700D01*
X9921092Y29674700D01*
X10048386Y29708808D01*
X10162514Y29774700D01*
X10255700Y29867886D01*
X10321592Y29982014D01*
X10355700Y30109308D01*
X10355700Y30241092D01*
X14434700Y30241092D01*
X14434700Y30109309D01*
X14468808Y29982013D01*
X14501061Y29926151D01*
X14534700Y29867886D01*
X14627886Y29774700D01*
X14742014Y29708808D01*
X14869308Y29674700D01*
X14869310Y29674700D01*
X15001090Y29674700D01*
X15001092Y29674700D01*
X15128386Y29708808D01*
X15242514Y29774700D01*
X15335700Y29867886D01*
X15401592Y29982014D01*
X15435700Y30109308D01*
X15435700Y30241092D01*
X15401592Y30368386D01*
X15335700Y30482514D01*
X15242514Y30575700D01*
X15154530Y30626498D01*
X15128387Y30641592D01*
X15106367Y30647492D01*
X27033100Y30647492D01*
X27033100Y30515708D01*
X27041994Y30482514D01*
X27067208Y30388413D01*
X27082447Y30362019D01*
X27133100Y30274286D01*
X27226286Y30181100D01*
X27295875Y30140923D01*
X27344090Y30090356D01*
X27357314Y30021749D01*
X27331346Y29956884D01*
X27295879Y29926151D01*
X27277089Y29915302D01*
X27277083Y29915298D01*
X27183902Y29822117D01*
X27183900Y29822114D01*
X27118008Y29707988D01*
X27084289Y29582142D01*
X27083900Y29580692D01*
X27083900Y29448908D01*
X27100954Y29385261D01*
X27118008Y29321613D01*
X27127196Y29305700D01*
X27183900Y29207486D01*
X27277086Y29114300D01*
X27391214Y29048408D01*
X27518508Y29014300D01*
X27518510Y29014300D01*
X27650290Y29014300D01*
X27650292Y29014300D01*
X27777586Y29048408D01*
X27891714Y29114300D01*
X27984900Y29207486D01*
X28050792Y29321614D01*
X28084900Y29448908D01*
X28084900Y29580692D01*
X28050792Y29707986D01*
X28050317Y29708808D01*
X28020987Y29759609D01*
X27984900Y29822114D01*
X27891714Y29915300D01*
X27822124Y29955478D01*
X27773908Y30006045D01*
X27760686Y30074652D01*
X27786654Y30139517D01*
X27822122Y30170251D01*
X27840914Y30181100D01*
X27934100Y30274286D01*
X27944265Y30291892D01*
X31325700Y30291892D01*
X31325700Y30160109D01*
X31359808Y30032813D01*
X31375263Y30006045D01*
X31425700Y29918686D01*
X31518886Y29825500D01*
X31633014Y29759608D01*
X31760308Y29725500D01*
X31760310Y29725500D01*
X31892090Y29725500D01*
X31892092Y29725500D01*
X32019386Y29759608D01*
X32133514Y29825500D01*
X32226700Y29918686D01*
X32292592Y30032814D01*
X32326700Y30160108D01*
X32326700Y30241092D01*
X34754700Y30241092D01*
X34754700Y30109309D01*
X34788808Y29982013D01*
X34821061Y29926151D01*
X34854700Y29867886D01*
X34947886Y29774700D01*
X35062014Y29708808D01*
X35189308Y29674700D01*
X35189310Y29674700D01*
X35321090Y29674700D01*
X35321092Y29674700D01*
X35448386Y29708808D01*
X35562514Y29774700D01*
X35655700Y29867886D01*
X35721592Y29982014D01*
X35755700Y30109308D01*
X35755700Y30241092D01*
X39834700Y30241092D01*
X39834700Y30109309D01*
X39868808Y29982013D01*
X39901061Y29926151D01*
X39934700Y29867886D01*
X40027886Y29774700D01*
X40142014Y29708808D01*
X40269308Y29674700D01*
X40269310Y29674700D01*
X40401090Y29674700D01*
X40401092Y29674700D01*
X40528386Y29708808D01*
X40642514Y29774700D01*
X40735700Y29867886D01*
X40801592Y29982014D01*
X40835700Y30109308D01*
X40835700Y30241092D01*
X43644700Y30241092D01*
X43644700Y30109309D01*
X43678808Y29982013D01*
X43711061Y29926151D01*
X43744700Y29867886D01*
X43837886Y29774700D01*
X43952014Y29708808D01*
X44079308Y29674700D01*
X44079310Y29674700D01*
X44211090Y29674700D01*
X44211092Y29674700D01*
X44338386Y29708808D01*
X44452514Y29774700D01*
X44545700Y29867886D01*
X44611592Y29982014D01*
X44645700Y30109308D01*
X44645700Y30241092D01*
X67774700Y30241092D01*
X67774700Y30109309D01*
X67808808Y29982013D01*
X67841061Y29926151D01*
X67874700Y29867886D01*
X67967886Y29774700D01*
X68082014Y29708808D01*
X68209308Y29674700D01*
X68209310Y29674700D01*
X68341090Y29674700D01*
X68341092Y29674700D01*
X68468386Y29708808D01*
X68582514Y29774700D01*
X68675700Y29867886D01*
X68741592Y29982014D01*
X68775700Y30109308D01*
X68775700Y30241092D01*
X68741592Y30368386D01*
X68675700Y30482514D01*
X68582514Y30575700D01*
X68494530Y30626498D01*
X68468387Y30641592D01*
X68404739Y30658646D01*
X68341092Y30675700D01*
X68209308Y30675700D01*
X68082012Y30641592D01*
X67967886Y30575700D01*
X67967883Y30575698D01*
X67874702Y30482517D01*
X67874700Y30482514D01*
X67808808Y30368388D01*
X67774700Y30241092D01*
X44645700Y30241092D01*
X44611592Y30368386D01*
X44545700Y30482514D01*
X44452514Y30575700D01*
X44364530Y30626498D01*
X44338387Y30641592D01*
X44274739Y30658646D01*
X44211092Y30675700D01*
X44079308Y30675700D01*
X43952012Y30641592D01*
X43837886Y30575700D01*
X43837883Y30575698D01*
X43744702Y30482517D01*
X43744700Y30482514D01*
X43678808Y30368388D01*
X43644700Y30241092D01*
X40835700Y30241092D01*
X40801592Y30368386D01*
X40735700Y30482514D01*
X40642514Y30575700D01*
X40554530Y30626498D01*
X40528387Y30641592D01*
X40464739Y30658646D01*
X40401092Y30675700D01*
X40269308Y30675700D01*
X40142012Y30641592D01*
X40027886Y30575700D01*
X40027883Y30575698D01*
X39934702Y30482517D01*
X39934700Y30482514D01*
X39868808Y30368388D01*
X39834700Y30241092D01*
X35755700Y30241092D01*
X35721592Y30368386D01*
X35655700Y30482514D01*
X35562514Y30575700D01*
X35474530Y30626498D01*
X35448387Y30641592D01*
X35384739Y30658646D01*
X35321092Y30675700D01*
X35189308Y30675700D01*
X35062012Y30641592D01*
X34947886Y30575700D01*
X34947883Y30575698D01*
X34854702Y30482517D01*
X34854700Y30482514D01*
X34788808Y30368388D01*
X34754700Y30241092D01*
X32326700Y30241092D01*
X32326700Y30291892D01*
X32292592Y30419186D01*
X32226700Y30533314D01*
X32133514Y30626500D01*
X32076450Y30659446D01*
X32019387Y30692392D01*
X31955739Y30709446D01*
X31892092Y30726500D01*
X31760308Y30726500D01*
X31633012Y30692392D01*
X31518886Y30626500D01*
X31518883Y30626498D01*
X31425702Y30533317D01*
X31425700Y30533314D01*
X31359808Y30419188D01*
X31325700Y30291892D01*
X27944265Y30291892D01*
X27999992Y30388414D01*
X28034100Y30515708D01*
X28034100Y30647492D01*
X27999992Y30774786D01*
X27934100Y30888914D01*
X27840914Y30982100D01*
X27783850Y31015046D01*
X27726787Y31047992D01*
X27663139Y31065046D01*
X27599492Y31082100D01*
X27467708Y31082100D01*
X27340412Y31047992D01*
X27226286Y30982100D01*
X27226283Y30982098D01*
X27133102Y30888917D01*
X27133100Y30888914D01*
X27067208Y30774788D01*
X27054270Y30726500D01*
X27033100Y30647492D01*
X15106367Y30647492D01*
X15064739Y30658646D01*
X15001092Y30675700D01*
X14869308Y30675700D01*
X14742012Y30641592D01*
X14627886Y30575700D01*
X14627883Y30575698D01*
X14534702Y30482517D01*
X14534700Y30482514D01*
X14468808Y30368388D01*
X14434700Y30241092D01*
X10355700Y30241092D01*
X10321592Y30368386D01*
X10255700Y30482514D01*
X10162514Y30575700D01*
X10074530Y30626498D01*
X10048387Y30641592D01*
X9984739Y30658646D01*
X9921092Y30675700D01*
X9789308Y30675700D01*
X9662012Y30641592D01*
X9547886Y30575700D01*
X9547883Y30575698D01*
X9454702Y30482517D01*
X9454700Y30482514D01*
X9388808Y30368388D01*
X9354700Y30241092D01*
X449700Y30241092D01*
X449700Y31511092D01*
X3004700Y31511092D01*
X3004700Y31379308D01*
X3021754Y31315661D01*
X3038808Y31252013D01*
X3071754Y31194950D01*
X3104700Y31137886D01*
X3197886Y31044700D01*
X3296721Y30987637D01*
X3306315Y30982098D01*
X3312014Y30978808D01*
X3439308Y30944700D01*
X3439310Y30944700D01*
X3571090Y30944700D01*
X3571092Y30944700D01*
X3698386Y30978808D01*
X3812514Y31044700D01*
X3905700Y31137886D01*
X3971592Y31252014D01*
X4005700Y31379308D01*
X4005700Y31511092D01*
X3971592Y31638386D01*
X3905700Y31752514D01*
X3812514Y31845700D01*
X3812512Y31845701D01*
X3812510Y31845703D01*
X3698388Y31911591D01*
X3698387Y31911592D01*
X3698386Y31911592D01*
X3581572Y31942892D01*
X23045300Y31942892D01*
X23045300Y31811109D01*
X23079408Y31683813D01*
X23105635Y31638388D01*
X23145300Y31569686D01*
X23238486Y31476500D01*
X23352614Y31410608D01*
X23479908Y31376500D01*
X23479910Y31376500D01*
X23611690Y31376500D01*
X23611692Y31376500D01*
X23738986Y31410608D01*
X23853114Y31476500D01*
X23946300Y31569686D01*
X24012192Y31683814D01*
X24046300Y31811108D01*
X24046300Y31942892D01*
X24012192Y32070186D01*
X23946300Y32184314D01*
X23853114Y32277500D01*
X23788677Y32314703D01*
X23738987Y32343392D01*
X23656466Y32365503D01*
X23611692Y32377500D01*
X23479908Y32377500D01*
X23352612Y32343392D01*
X23238486Y32277500D01*
X23238483Y32277498D01*
X23145302Y32184317D01*
X23145300Y32184314D01*
X23079408Y32070188D01*
X23045300Y31942892D01*
X3581572Y31942892D01*
X3571092Y31945700D01*
X3439308Y31945700D01*
X3312012Y31911592D01*
X3197886Y31845700D01*
X3197883Y31845698D01*
X3104702Y31752517D01*
X3104700Y31752514D01*
X3038808Y31638388D01*
X3004700Y31511092D01*
X449700Y31511092D01*
X449700Y32781092D01*
X9354700Y32781092D01*
X9354700Y32649309D01*
X9388808Y32522013D01*
X9421754Y32464950D01*
X9454700Y32407886D01*
X9547886Y32314700D01*
X9662014Y32248808D01*
X9789308Y32214700D01*
X9789310Y32214700D01*
X9921090Y32214700D01*
X9921092Y32214700D01*
X10048386Y32248808D01*
X10162514Y32314700D01*
X10255700Y32407886D01*
X10321592Y32522014D01*
X10355700Y32649308D01*
X10355700Y32781092D01*
X14434700Y32781092D01*
X14434700Y32649309D01*
X14468808Y32522013D01*
X14501754Y32464950D01*
X14534700Y32407886D01*
X14627886Y32314700D01*
X14742014Y32248808D01*
X14869308Y32214700D01*
X14869310Y32214700D01*
X15001090Y32214700D01*
X15001092Y32214700D01*
X15128386Y32248808D01*
X15242514Y32314700D01*
X15335700Y32407886D01*
X15401592Y32522014D01*
X15435700Y32649308D01*
X15435700Y32781092D01*
X15422088Y32831892D01*
X45930700Y32831892D01*
X45930700Y32700109D01*
X45964808Y32572813D01*
X45994137Y32522014D01*
X46030700Y32458686D01*
X46123886Y32365500D01*
X46238014Y32299608D01*
X46365308Y32265500D01*
X46365310Y32265500D01*
X46497090Y32265500D01*
X46497092Y32265500D01*
X46624386Y32299608D01*
X46738514Y32365500D01*
X46831700Y32458686D01*
X46897592Y32572814D01*
X46931700Y32700108D01*
X46931700Y32781092D01*
X67774700Y32781092D01*
X67774700Y32649309D01*
X67808808Y32522013D01*
X67841754Y32464950D01*
X67874700Y32407886D01*
X67967886Y32314700D01*
X68082014Y32248808D01*
X68209308Y32214700D01*
X68209310Y32214700D01*
X68341090Y32214700D01*
X68341092Y32214700D01*
X68468386Y32248808D01*
X68582514Y32314700D01*
X68675700Y32407886D01*
X68741592Y32522014D01*
X68775700Y32649308D01*
X68775700Y32781092D01*
X68741592Y32908386D01*
X68675700Y33022514D01*
X68582514Y33115700D01*
X68500228Y33163208D01*
X68468387Y33181592D01*
X68404739Y33198646D01*
X68341092Y33215700D01*
X68209308Y33215700D01*
X68082012Y33181592D01*
X67967886Y33115700D01*
X67967883Y33115698D01*
X67874702Y33022517D01*
X67874700Y33022514D01*
X67808808Y32908388D01*
X67774700Y32781092D01*
X46931700Y32781092D01*
X46931700Y32831892D01*
X46897592Y32959186D01*
X46831700Y33073314D01*
X46738514Y33166500D01*
X46681450Y33199446D01*
X46624387Y33232392D01*
X46560739Y33249446D01*
X46497092Y33266500D01*
X46365308Y33266500D01*
X46238012Y33232392D01*
X46123886Y33166500D01*
X46123883Y33166498D01*
X46030702Y33073317D01*
X46030700Y33073314D01*
X45964808Y32959188D01*
X45930700Y32831892D01*
X15422088Y32831892D01*
X15401592Y32908386D01*
X15335700Y33022514D01*
X15242514Y33115700D01*
X15160228Y33163208D01*
X15128387Y33181592D01*
X15064739Y33198646D01*
X15001092Y33215700D01*
X14869308Y33215700D01*
X14742012Y33181592D01*
X14627886Y33115700D01*
X14627883Y33115698D01*
X14534702Y33022517D01*
X14534700Y33022514D01*
X14468808Y32908388D01*
X14434700Y32781092D01*
X10355700Y32781092D01*
X10321592Y32908386D01*
X10255700Y33022514D01*
X10162514Y33115700D01*
X10080228Y33163208D01*
X10048387Y33181592D01*
X9984739Y33198646D01*
X9921092Y33215700D01*
X9789308Y33215700D01*
X9662012Y33181592D01*
X9547886Y33115700D01*
X9547883Y33115698D01*
X9454702Y33022517D01*
X9454700Y33022514D01*
X9388808Y32908388D01*
X9354700Y32781092D01*
X449700Y32781092D01*
X449700Y34051092D01*
X3004700Y34051092D01*
X3004700Y33919309D01*
X3038808Y33792013D01*
X3054047Y33765619D01*
X3104700Y33677886D01*
X3197886Y33584700D01*
X3312014Y33518808D01*
X3439308Y33484700D01*
X3439310Y33484700D01*
X3571090Y33484700D01*
X3571092Y33484700D01*
X3698386Y33518808D01*
X3812514Y33584700D01*
X3905700Y33677886D01*
X3915865Y33695492D01*
X7322700Y33695492D01*
X7322700Y33563709D01*
X7356808Y33436413D01*
X7389754Y33379350D01*
X7422700Y33322286D01*
X7515886Y33229100D01*
X7598172Y33181592D01*
X7624315Y33166498D01*
X7630014Y33163208D01*
X7757308Y33129100D01*
X7757310Y33129100D01*
X7889090Y33129100D01*
X7889092Y33129100D01*
X8016386Y33163208D01*
X8130514Y33229100D01*
X8223700Y33322286D01*
X8289592Y33436414D01*
X8323700Y33563708D01*
X8323700Y33695492D01*
X8289592Y33822786D01*
X8223700Y33936914D01*
X8130514Y34030100D01*
X8094155Y34051092D01*
X22003900Y34051092D01*
X22003900Y33919309D01*
X22038008Y33792013D01*
X22053247Y33765619D01*
X22103900Y33677886D01*
X22197086Y33584700D01*
X22311214Y33518808D01*
X22438508Y33484700D01*
X22438510Y33484700D01*
X22570290Y33484700D01*
X22570292Y33484700D01*
X22697586Y33518808D01*
X22811714Y33584700D01*
X22904900Y33677886D01*
X22970792Y33792014D01*
X23004900Y33919308D01*
X23004900Y34051092D01*
X22970792Y34178386D01*
X22904900Y34292514D01*
X22811714Y34385700D01*
X22754650Y34418646D01*
X22697587Y34451592D01*
X22633939Y34468646D01*
X22570292Y34485700D01*
X22438508Y34485700D01*
X22311212Y34451592D01*
X22197086Y34385700D01*
X22197083Y34385698D01*
X22103902Y34292517D01*
X22103900Y34292514D01*
X22038008Y34178388D01*
X22003900Y34051092D01*
X8094155Y34051092D01*
X8073450Y34063046D01*
X8016387Y34095992D01*
X7952739Y34113046D01*
X7889092Y34130100D01*
X7757308Y34130100D01*
X7630012Y34095992D01*
X7515886Y34030100D01*
X7515883Y34030098D01*
X7422702Y33936917D01*
X7422700Y33936914D01*
X7356808Y33822788D01*
X7322700Y33695492D01*
X3915865Y33695492D01*
X3971592Y33792014D01*
X4005700Y33919308D01*
X4005700Y34051092D01*
X3971592Y34178386D01*
X3905700Y34292514D01*
X3812514Y34385700D01*
X3755450Y34418646D01*
X3698387Y34451592D01*
X3634739Y34468646D01*
X3571092Y34485700D01*
X3439308Y34485700D01*
X3312012Y34451592D01*
X3197886Y34385700D01*
X3197883Y34385698D01*
X3104702Y34292517D01*
X3104700Y34292514D01*
X3038808Y34178388D01*
X3004700Y34051092D01*
X449700Y34051092D01*
X449700Y35930692D01*
X27947500Y35930692D01*
X27947500Y35798909D01*
X27981608Y35671613D01*
X28014554Y35614550D01*
X28047500Y35557486D01*
X28140686Y35464300D01*
X28254814Y35398408D01*
X28382108Y35364300D01*
X28382110Y35364300D01*
X28513890Y35364300D01*
X28513892Y35364300D01*
X28542226Y35371892D01*
X31503500Y35371892D01*
X31503500Y35240109D01*
X31537608Y35112813D01*
X31539059Y35110300D01*
X31603500Y34998686D01*
X31696686Y34905500D01*
X31810814Y34839608D01*
X31938108Y34805500D01*
X31938110Y34805500D01*
X32069890Y34805500D01*
X32069892Y34805500D01*
X32197186Y34839608D01*
X32311314Y34905500D01*
X32404500Y34998686D01*
X32470392Y35112814D01*
X32504500Y35240108D01*
X32504500Y35371892D01*
X32470392Y35499186D01*
X32404500Y35613314D01*
X32311314Y35706500D01*
X32254250Y35739446D01*
X32197187Y35772392D01*
X32133539Y35789446D01*
X32069892Y35806500D01*
X31938108Y35806500D01*
X31810812Y35772392D01*
X31696686Y35706500D01*
X31696683Y35706498D01*
X31603502Y35613317D01*
X31603500Y35613314D01*
X31537608Y35499188D01*
X31503500Y35371892D01*
X28542226Y35371892D01*
X28641186Y35398408D01*
X28755314Y35464300D01*
X28848500Y35557486D01*
X28914392Y35671614D01*
X28948500Y35798908D01*
X28948500Y35930692D01*
X28914392Y36057986D01*
X28913917Y36058808D01*
X28880358Y36116934D01*
X28848500Y36172114D01*
X28755314Y36265300D01*
X28653877Y36323865D01*
X28641187Y36331192D01*
X28577539Y36348246D01*
X28513892Y36365300D01*
X28382108Y36365300D01*
X28254812Y36331192D01*
X28140686Y36265300D01*
X28140683Y36265298D01*
X28047502Y36172117D01*
X28047500Y36172114D01*
X27981608Y36057988D01*
X27947500Y35930692D01*
X449700Y35930692D01*
X449700Y36591092D01*
X3004700Y36591092D01*
X3004700Y36459309D01*
X3038808Y36332013D01*
X3068137Y36281214D01*
X3104700Y36217886D01*
X3197886Y36124700D01*
X3312014Y36058808D01*
X3439308Y36024700D01*
X3439310Y36024700D01*
X3571090Y36024700D01*
X3571092Y36024700D01*
X3698386Y36058808D01*
X3812514Y36124700D01*
X3905700Y36217886D01*
X3971592Y36332014D01*
X4005700Y36459308D01*
X4005700Y36540292D01*
X11691500Y36540292D01*
X11691500Y36408508D01*
X11703531Y36363609D01*
X11725608Y36281213D01*
X11734796Y36265300D01*
X11791500Y36167086D01*
X11884686Y36073900D01*
X11969901Y36024701D01*
X11993115Y36011298D01*
X11998814Y36008008D01*
X12126108Y35973900D01*
X12126110Y35973900D01*
X12257890Y35973900D01*
X12257892Y35973900D01*
X12385186Y36008008D01*
X12499314Y36073900D01*
X12592500Y36167086D01*
X12658392Y36281214D01*
X12692500Y36408508D01*
X12692500Y36540292D01*
X12658392Y36667586D01*
X12592500Y36781714D01*
X12499314Y36874900D01*
X12411330Y36925698D01*
X12385187Y36940792D01*
X12321539Y36957846D01*
X12257892Y36974900D01*
X12126108Y36974900D01*
X11998812Y36940792D01*
X11884686Y36874900D01*
X11884683Y36874898D01*
X11791502Y36781717D01*
X11791500Y36781714D01*
X11725608Y36667588D01*
X11705111Y36591090D01*
X11691500Y36540292D01*
X4005700Y36540292D01*
X4005700Y36591092D01*
X3971592Y36718386D01*
X3905700Y36832514D01*
X3812514Y36925700D01*
X3755450Y36958646D01*
X3698387Y36991592D01*
X3580474Y37023186D01*
X3571092Y37025700D01*
X3439308Y37025700D01*
X3312012Y36991592D01*
X3197886Y36925700D01*
X3197883Y36925698D01*
X3104702Y36832517D01*
X3104700Y36832514D01*
X3038808Y36718388D01*
X3004700Y36591092D01*
X449700Y36591092D01*
X449700Y37403892D01*
X16923900Y37403892D01*
X16923900Y37272108D01*
X16939215Y37214952D01*
X16958008Y37144813D01*
X16990954Y37087750D01*
X17023900Y37030686D01*
X17117086Y36937500D01*
X17199258Y36890058D01*
X17225515Y36874898D01*
X17231214Y36871608D01*
X17358508Y36837500D01*
X17358510Y36837500D01*
X17490290Y36837500D01*
X17490292Y36837500D01*
X17617586Y36871608D01*
X17731714Y36937500D01*
X17824900Y37030686D01*
X17890792Y37144814D01*
X17924900Y37272108D01*
X17924900Y37403892D01*
X28506300Y37403892D01*
X28506300Y37272108D01*
X28521615Y37214952D01*
X28540408Y37144813D01*
X28573354Y37087750D01*
X28606300Y37030686D01*
X28699486Y36937500D01*
X28781658Y36890058D01*
X28807915Y36874898D01*
X28813614Y36871608D01*
X28940908Y36837500D01*
X28940910Y36837500D01*
X29072690Y36837500D01*
X29072692Y36837500D01*
X29199986Y36871608D01*
X29242047Y36895892D01*
X35872300Y36895892D01*
X35872300Y36764109D01*
X35906408Y36636813D01*
X35932806Y36591092D01*
X35972300Y36522686D01*
X36065486Y36429500D01*
X36179614Y36363608D01*
X36306908Y36329500D01*
X36306910Y36329500D01*
X36438690Y36329500D01*
X36438692Y36329500D01*
X36565986Y36363608D01*
X36680114Y36429500D01*
X36773300Y36522686D01*
X36812794Y36591092D01*
X38564700Y36591092D01*
X38564700Y36459309D01*
X38598808Y36332013D01*
X38628137Y36281214D01*
X38664700Y36217886D01*
X38757886Y36124700D01*
X38872014Y36058808D01*
X38999308Y36024700D01*
X38999310Y36024700D01*
X39131090Y36024700D01*
X39131092Y36024700D01*
X39258386Y36058808D01*
X39372514Y36124700D01*
X39465700Y36217886D01*
X39531592Y36332014D01*
X39565700Y36459308D01*
X39565700Y36591092D01*
X39531592Y36718386D01*
X39465700Y36832514D01*
X39372514Y36925700D01*
X39262798Y36989045D01*
X39258387Y36991592D01*
X39140474Y37023186D01*
X39131092Y37025700D01*
X38999308Y37025700D01*
X38872012Y36991592D01*
X38757886Y36925700D01*
X38757883Y36925698D01*
X38664702Y36832517D01*
X38664700Y36832514D01*
X38598808Y36718388D01*
X38564700Y36591092D01*
X36812794Y36591092D01*
X36839192Y36636814D01*
X36873300Y36764108D01*
X36873300Y36895892D01*
X36839192Y37023186D01*
X36800528Y37090153D01*
X49033300Y37090153D01*
X49033300Y35350648D01*
X49044931Y35292171D01*
X49044932Y35292170D01*
X49089247Y35225848D01*
X49155569Y35181533D01*
X49155570Y35181532D01*
X49214047Y35169901D01*
X49214050Y35169900D01*
X49214052Y35169900D01*
X50953550Y35169900D01*
X50953551Y35169901D01*
X50968368Y35172848D01*
X51012029Y35181532D01*
X51012029Y35181533D01*
X51012031Y35181533D01*
X51078352Y35225848D01*
X51122667Y35292169D01*
X51122667Y35292171D01*
X51122668Y35292171D01*
X51134299Y35350648D01*
X51134300Y35350650D01*
X51134300Y36323870D01*
X51573300Y36323870D01*
X51573300Y36116931D01*
X51613668Y35913988D01*
X51613670Y35913980D01*
X51692859Y35722802D01*
X51727062Y35671613D01*
X51807824Y35550743D01*
X51954142Y35404425D01*
X51954145Y35404423D01*
X52126202Y35289459D01*
X52317380Y35210270D01*
X52461852Y35181533D01*
X52520330Y35169901D01*
X52520334Y35169900D01*
X52520335Y35169900D01*
X52727266Y35169900D01*
X52727267Y35169901D01*
X52930220Y35210270D01*
X53121398Y35289459D01*
X53293455Y35404423D01*
X53439777Y35550745D01*
X53523932Y35676692D01*
X58681500Y35676692D01*
X58681500Y35544909D01*
X58715608Y35417613D01*
X58742006Y35371892D01*
X58781500Y35303486D01*
X58874686Y35210300D01*
X58988814Y35144408D01*
X59116108Y35110300D01*
X59116110Y35110300D01*
X59247890Y35110300D01*
X59247892Y35110300D01*
X59375186Y35144408D01*
X59489314Y35210300D01*
X59582500Y35303486D01*
X59648392Y35417614D01*
X59682500Y35544908D01*
X59682500Y35676692D01*
X59648392Y35803986D01*
X59582500Y35918114D01*
X59489314Y36011300D01*
X59428855Y36046206D01*
X59375187Y36077192D01*
X59311539Y36094246D01*
X59247892Y36111300D01*
X59116108Y36111300D01*
X58988812Y36077192D01*
X58874686Y36011300D01*
X58874683Y36011298D01*
X58781502Y35918117D01*
X58781500Y35918114D01*
X58715608Y35803988D01*
X58681500Y35676692D01*
X53523932Y35676692D01*
X53554741Y35722802D01*
X53633930Y35913980D01*
X53674300Y36116935D01*
X53674300Y36323865D01*
X53633930Y36526820D01*
X53554741Y36717998D01*
X53439777Y36890055D01*
X53439775Y36890058D01*
X53293457Y37036376D01*
X53142385Y37137318D01*
X53121398Y37151341D01*
X53042463Y37184037D01*
X52930220Y37230530D01*
X52930212Y37230532D01*
X52727269Y37270900D01*
X52727265Y37270900D01*
X52520335Y37270900D01*
X52520330Y37270900D01*
X52317387Y37230532D01*
X52317379Y37230530D01*
X52126203Y37151342D01*
X51954142Y37036376D01*
X51807824Y36890058D01*
X51692858Y36717997D01*
X51613670Y36526821D01*
X51613668Y36526813D01*
X51573300Y36323870D01*
X51134300Y36323870D01*
X51134300Y37090151D01*
X51134299Y37090153D01*
X51122668Y37148630D01*
X51122667Y37148631D01*
X51078352Y37214953D01*
X51012030Y37259268D01*
X51012029Y37259269D01*
X50953552Y37270900D01*
X50953548Y37270900D01*
X49214052Y37270900D01*
X49214047Y37270900D01*
X49155570Y37259269D01*
X49155569Y37259268D01*
X49089247Y37214953D01*
X49044932Y37148631D01*
X49044931Y37148630D01*
X49033300Y37090153D01*
X36800528Y37090153D01*
X36785525Y37116139D01*
X36769053Y37184037D01*
X36791905Y37250064D01*
X36805228Y37265815D01*
X36824100Y37284686D01*
X36889992Y37398814D01*
X36924100Y37526108D01*
X36924100Y37657892D01*
X36889992Y37785186D01*
X36854919Y37845934D01*
X36838447Y37913831D01*
X36861299Y37979858D01*
X36874622Y37995609D01*
X36874900Y37995886D01*
X36940792Y38110014D01*
X36974900Y38237308D01*
X36974900Y38267492D01*
X46438700Y38267492D01*
X46438700Y38135708D01*
X46452311Y38084910D01*
X46472808Y38008413D01*
X46480040Y37995887D01*
X46538700Y37894286D01*
X46631886Y37801100D01*
X46719869Y37750303D01*
X46740315Y37738498D01*
X46746014Y37735208D01*
X46873308Y37701100D01*
X46873310Y37701100D01*
X47005090Y37701100D01*
X47005092Y37701100D01*
X47132386Y37735208D01*
X47246514Y37801100D01*
X47339700Y37894286D01*
X47405592Y38008414D01*
X47439700Y38135708D01*
X47439700Y38216692D01*
X58681500Y38216692D01*
X58681500Y38084909D01*
X58715608Y37957613D01*
X58720988Y37948295D01*
X58781500Y37843486D01*
X58874686Y37750300D01*
X58988814Y37684408D01*
X59116108Y37650300D01*
X59116110Y37650300D01*
X59247890Y37650300D01*
X59247892Y37650300D01*
X59375186Y37684408D01*
X59489314Y37750300D01*
X59582500Y37843486D01*
X59648392Y37957614D01*
X59682500Y38084908D01*
X59682500Y38216692D01*
X59648392Y38343986D01*
X59582500Y38458114D01*
X59489314Y38551300D01*
X59407028Y38598808D01*
X59375187Y38617192D01*
X59311539Y38634246D01*
X59247892Y38651300D01*
X59116108Y38651300D01*
X58988812Y38617192D01*
X58874686Y38551300D01*
X58874683Y38551298D01*
X58781502Y38458117D01*
X58781500Y38458114D01*
X58715608Y38343988D01*
X58681500Y38216692D01*
X47439700Y38216692D01*
X47439700Y38267492D01*
X47405592Y38394786D01*
X47339700Y38508914D01*
X47246514Y38602100D01*
X47189450Y38635046D01*
X47132387Y38667992D01*
X47068739Y38685046D01*
X47005092Y38702100D01*
X46873308Y38702100D01*
X46746012Y38667992D01*
X46631886Y38602100D01*
X46631883Y38602098D01*
X46538702Y38508917D01*
X46538700Y38508914D01*
X46472808Y38394788D01*
X46462238Y38355339D01*
X46438700Y38267492D01*
X36974900Y38267492D01*
X36974900Y38369092D01*
X36940792Y38496386D01*
X36874900Y38610514D01*
X36781714Y38703700D01*
X36687865Y38757884D01*
X36667587Y38769592D01*
X36599315Y38787885D01*
X36540292Y38803700D01*
X36408508Y38803700D01*
X36281212Y38769592D01*
X36167086Y38703700D01*
X36167083Y38703698D01*
X36073902Y38610517D01*
X36073900Y38610514D01*
X36008008Y38496388D01*
X35973900Y38369092D01*
X35973900Y38237309D01*
X36008008Y38110013D01*
X36043079Y38049270D01*
X36059552Y37981369D01*
X36036700Y37915342D01*
X36023381Y37899595D01*
X36023102Y37899317D01*
X36023100Y37899314D01*
X35957208Y37785188D01*
X35934678Y37701101D01*
X35923100Y37657892D01*
X35923100Y37526108D01*
X35955847Y37403892D01*
X35957209Y37398812D01*
X35957209Y37398811D01*
X36010873Y37305863D01*
X36027346Y37237963D01*
X36004494Y37171936D01*
X35991169Y37156184D01*
X35972303Y37137318D01*
X35972300Y37137314D01*
X35906408Y37023188D01*
X35872300Y36895892D01*
X29242047Y36895892D01*
X29314114Y36937500D01*
X29407300Y37030686D01*
X29473192Y37144814D01*
X29507300Y37272108D01*
X29507300Y37403892D01*
X29473192Y37531186D01*
X29419025Y37625006D01*
X29402552Y37692906D01*
X29425404Y37758933D01*
X29480325Y37802123D01*
X29494303Y37806776D01*
X29606386Y37836808D01*
X29720514Y37902700D01*
X29813700Y37995886D01*
X29879592Y38110014D01*
X29913700Y38237308D01*
X29913700Y38288300D01*
X29933385Y38355339D01*
X29986189Y38401094D01*
X30037700Y38412300D01*
X30088690Y38412300D01*
X30088692Y38412300D01*
X30215986Y38446408D01*
X30330114Y38512300D01*
X30423300Y38605486D01*
X30489192Y38719614D01*
X30523300Y38846908D01*
X30523300Y38978692D01*
X30489192Y39105986D01*
X30474697Y39131092D01*
X38564700Y39131092D01*
X38564700Y38999309D01*
X38598808Y38872013D01*
X38613302Y38846910D01*
X38664700Y38757886D01*
X38757886Y38664700D01*
X38851739Y38610514D01*
X38866315Y38602098D01*
X38872014Y38598808D01*
X38999308Y38564700D01*
X38999310Y38564700D01*
X39131090Y38564700D01*
X39131092Y38564700D01*
X39258386Y38598808D01*
X39372514Y38664700D01*
X39465700Y38757886D01*
X39531592Y38872014D01*
X39565700Y38999308D01*
X39565700Y39131092D01*
X42933500Y39131092D01*
X42933500Y38999309D01*
X42967608Y38872013D01*
X42982102Y38846910D01*
X43033500Y38757886D01*
X43126686Y38664700D01*
X43220539Y38610514D01*
X43235115Y38602098D01*
X43240814Y38598808D01*
X43368108Y38564700D01*
X43368110Y38564700D01*
X43499890Y38564700D01*
X43499892Y38564700D01*
X43627186Y38598808D01*
X43741314Y38664700D01*
X43834500Y38757886D01*
X43900392Y38872014D01*
X43934500Y38999308D01*
X43934500Y39131092D01*
X43900392Y39258386D01*
X43834500Y39372514D01*
X43741314Y39465700D01*
X43704955Y39486692D01*
X58681500Y39486692D01*
X58681500Y39354909D01*
X58715608Y39227613D01*
X58719936Y39220117D01*
X58781500Y39113486D01*
X58874686Y39020300D01*
X58988814Y38954408D01*
X59116108Y38920300D01*
X59116110Y38920300D01*
X59247890Y38920300D01*
X59247892Y38920300D01*
X59375186Y38954408D01*
X59489314Y39020300D01*
X59582500Y39113486D01*
X59648392Y39227614D01*
X59682500Y39354908D01*
X59682500Y39435892D01*
X62389900Y39435892D01*
X62389900Y39304109D01*
X62424008Y39176813D01*
X62450406Y39131092D01*
X62489900Y39062686D01*
X62583086Y38969500D01*
X62697214Y38903608D01*
X62824508Y38869500D01*
X62824510Y38869500D01*
X62956290Y38869500D01*
X62956292Y38869500D01*
X63083586Y38903608D01*
X63197714Y38969500D01*
X63290900Y39062686D01*
X63356792Y39176814D01*
X63390900Y39304108D01*
X63390900Y39435892D01*
X63356792Y39563186D01*
X63290900Y39677314D01*
X63197714Y39770500D01*
X63109730Y39821298D01*
X63083587Y39836392D01*
X63019939Y39853446D01*
X62956292Y39870500D01*
X62824508Y39870500D01*
X62697212Y39836392D01*
X62583086Y39770500D01*
X62583083Y39770498D01*
X62489902Y39677317D01*
X62489900Y39677314D01*
X62424008Y39563188D01*
X62389900Y39435892D01*
X59682500Y39435892D01*
X59682500Y39486692D01*
X59648392Y39613986D01*
X59582500Y39728114D01*
X59489314Y39821300D01*
X59432250Y39854246D01*
X59375187Y39887192D01*
X59311539Y39904246D01*
X59247892Y39921300D01*
X59116108Y39921300D01*
X58988812Y39887192D01*
X58874686Y39821300D01*
X58874683Y39821298D01*
X58781502Y39728117D01*
X58781500Y39728114D01*
X58715608Y39613988D01*
X58681500Y39486692D01*
X43704955Y39486692D01*
X43684250Y39498646D01*
X43627187Y39531592D01*
X43509274Y39563186D01*
X43499892Y39565700D01*
X43368108Y39565700D01*
X43240812Y39531592D01*
X43126686Y39465700D01*
X43126683Y39465698D01*
X43033502Y39372517D01*
X43033500Y39372514D01*
X42967608Y39258388D01*
X42933500Y39131092D01*
X39565700Y39131092D01*
X39531592Y39258386D01*
X39465700Y39372514D01*
X39372514Y39465700D01*
X39315450Y39498646D01*
X39258387Y39531592D01*
X39140474Y39563186D01*
X39131092Y39565700D01*
X38999308Y39565700D01*
X38872012Y39531592D01*
X38757886Y39465700D01*
X38757883Y39465698D01*
X38664702Y39372517D01*
X38664700Y39372514D01*
X38598808Y39258388D01*
X38564700Y39131092D01*
X30474697Y39131092D01*
X30423300Y39220114D01*
X30330114Y39313300D01*
X30258047Y39354908D01*
X30215987Y39379192D01*
X30152339Y39396246D01*
X30088692Y39413300D01*
X29956908Y39413300D01*
X29829612Y39379192D01*
X29715486Y39313300D01*
X29715483Y39313298D01*
X29622302Y39220117D01*
X29622300Y39220114D01*
X29556408Y39105988D01*
X29522300Y38978692D01*
X29522300Y38927700D01*
X29502615Y38860661D01*
X29449811Y38814906D01*
X29398300Y38803700D01*
X29347308Y38803700D01*
X29220012Y38769592D01*
X29105886Y38703700D01*
X29105883Y38703698D01*
X29012702Y38610517D01*
X29012700Y38610514D01*
X28946808Y38496388D01*
X28928515Y38428116D01*
X28912700Y38369092D01*
X28912700Y38237308D01*
X28939923Y38135708D01*
X28946809Y38110012D01*
X28946809Y38110011D01*
X29000974Y38016195D01*
X29017447Y37948295D01*
X28994595Y37882268D01*
X28939673Y37839077D01*
X28925680Y37834420D01*
X28813614Y37804392D01*
X28813612Y37804392D01*
X28813612Y37804391D01*
X28699486Y37738500D01*
X28699483Y37738498D01*
X28606302Y37645317D01*
X28606300Y37645314D01*
X28540408Y37531188D01*
X28539047Y37526108D01*
X28506300Y37403892D01*
X17924900Y37403892D01*
X17890792Y37531186D01*
X17824900Y37645314D01*
X17731714Y37738500D01*
X17650850Y37785187D01*
X17617587Y37804392D01*
X17553939Y37821446D01*
X17490292Y37838500D01*
X17358508Y37838500D01*
X17231212Y37804392D01*
X17117086Y37738500D01*
X17117083Y37738498D01*
X17023902Y37645317D01*
X17023900Y37645314D01*
X16958008Y37531188D01*
X16956647Y37526108D01*
X16923900Y37403892D01*
X449700Y37403892D01*
X449700Y39435892D01*
X11234300Y39435892D01*
X11234300Y39304109D01*
X11268408Y39176813D01*
X11294806Y39131092D01*
X11334300Y39062686D01*
X11427486Y38969500D01*
X11541614Y38903608D01*
X11668908Y38869500D01*
X11668910Y38869500D01*
X11800690Y38869500D01*
X11800692Y38869500D01*
X11927986Y38903608D01*
X12042114Y38969500D01*
X12135300Y39062686D01*
X12201192Y39176814D01*
X12235300Y39304108D01*
X12235300Y39435892D01*
X12201192Y39563186D01*
X12135300Y39677314D01*
X12042114Y39770500D01*
X11954130Y39821298D01*
X11927987Y39836392D01*
X11864339Y39853446D01*
X11800692Y39870500D01*
X11668908Y39870500D01*
X11541612Y39836392D01*
X11427486Y39770500D01*
X11427483Y39770498D01*
X11334302Y39677317D01*
X11334300Y39677314D01*
X11268408Y39563188D01*
X11234300Y39435892D01*
X449700Y39435892D01*
X449700Y40299492D01*
X48724700Y40299492D01*
X48724700Y40167709D01*
X48758808Y40040413D01*
X48791754Y39983350D01*
X48824700Y39926286D01*
X48917886Y39833100D01*
X49016721Y39776037D01*
X49026315Y39770498D01*
X49032014Y39767208D01*
X49159308Y39733100D01*
X49159310Y39733100D01*
X49291090Y39733100D01*
X49291092Y39733100D01*
X49418386Y39767208D01*
X49532514Y39833100D01*
X49625700Y39926286D01*
X49691592Y40040414D01*
X49725700Y40167708D01*
X49725700Y40299492D01*
X49691592Y40426786D01*
X49625700Y40540914D01*
X49598466Y40568148D01*
X49590406Y40582907D01*
X49578320Y40594598D01*
X49574009Y40612937D01*
X49564981Y40629471D01*
X49566180Y40646245D01*
X49562333Y40662614D01*
X49568621Y40680372D01*
X49569965Y40699163D01*
X49580204Y40713082D01*
X49585656Y40728476D01*
X49603136Y40744253D01*
X49610193Y40753845D01*
X49613866Y40756692D01*
X62440700Y40756692D01*
X62440700Y40624908D01*
X62451954Y40582907D01*
X62474808Y40497613D01*
X62507754Y40440550D01*
X62540700Y40383486D01*
X62633886Y40290300D01*
X62748014Y40224408D01*
X62875308Y40190300D01*
X62875310Y40190300D01*
X63007090Y40190300D01*
X63007092Y40190300D01*
X63134386Y40224408D01*
X63248514Y40290300D01*
X63341700Y40383486D01*
X63407592Y40497614D01*
X63441700Y40624908D01*
X63441700Y40756692D01*
X63407592Y40883986D01*
X63341700Y40998114D01*
X63248514Y41091300D01*
X63176447Y41132908D01*
X63134387Y41157192D01*
X63070739Y41174246D01*
X63007092Y41191300D01*
X62875308Y41191300D01*
X62748012Y41157192D01*
X62633886Y41091300D01*
X62633883Y41091298D01*
X62540702Y40998117D01*
X62540700Y40998114D01*
X62474808Y40883988D01*
X62453089Y40802930D01*
X62440700Y40756692D01*
X49613866Y40756692D01*
X49616847Y40759002D01*
X49684914Y40798300D01*
X49778100Y40891486D01*
X49843992Y41005614D01*
X49878100Y41132908D01*
X49878100Y41264692D01*
X49843992Y41391986D01*
X49778100Y41506114D01*
X49684914Y41599300D01*
X49627850Y41632246D01*
X49570787Y41665192D01*
X49548767Y41671092D01*
X52534700Y41671092D01*
X52534700Y41539308D01*
X52543594Y41506114D01*
X52568808Y41412013D01*
X52580370Y41391988D01*
X52634700Y41297886D01*
X52727886Y41204700D01*
X52842014Y41138808D01*
X52969308Y41104700D01*
X52969310Y41104700D01*
X53101090Y41104700D01*
X53101092Y41104700D01*
X53228386Y41138808D01*
X53342514Y41204700D01*
X53435700Y41297886D01*
X53501592Y41412014D01*
X53535700Y41539308D01*
X53535700Y41671092D01*
X56344700Y41671092D01*
X56344700Y41539308D01*
X56353594Y41506114D01*
X56378808Y41412013D01*
X56390370Y41391988D01*
X56444700Y41297886D01*
X56537886Y41204700D01*
X56652014Y41138808D01*
X56779308Y41104700D01*
X56779310Y41104700D01*
X56911090Y41104700D01*
X56911092Y41104700D01*
X57038386Y41138808D01*
X57152514Y41204700D01*
X57245700Y41297886D01*
X57311592Y41412014D01*
X57345700Y41539308D01*
X57345700Y41671092D01*
X57311592Y41798386D01*
X57245700Y41912514D01*
X57152514Y42005700D01*
X57095450Y42038646D01*
X57038387Y42071592D01*
X56974739Y42088646D01*
X56911092Y42105700D01*
X56779308Y42105700D01*
X56652012Y42071592D01*
X56537886Y42005700D01*
X56537883Y42005698D01*
X56444702Y41912517D01*
X56444700Y41912514D01*
X56378808Y41798388D01*
X56372622Y41775301D01*
X56344700Y41671092D01*
X53535700Y41671092D01*
X53501592Y41798386D01*
X53435700Y41912514D01*
X53342514Y42005700D01*
X53285450Y42038646D01*
X53228387Y42071592D01*
X53164739Y42088646D01*
X53101092Y42105700D01*
X52969308Y42105700D01*
X52842012Y42071592D01*
X52727886Y42005700D01*
X52727883Y42005698D01*
X52634702Y41912517D01*
X52634700Y41912514D01*
X52568808Y41798388D01*
X52562622Y41775301D01*
X52534700Y41671092D01*
X49548767Y41671092D01*
X49507139Y41682246D01*
X49443492Y41699300D01*
X49311708Y41699300D01*
X49184412Y41665192D01*
X49070286Y41599300D01*
X49070283Y41599298D01*
X48977102Y41506117D01*
X48977100Y41506114D01*
X48911208Y41391988D01*
X48877100Y41264692D01*
X48877100Y41132909D01*
X48911208Y41005613D01*
X48915536Y40998117D01*
X48977100Y40891486D01*
X48977102Y40891484D01*
X49004333Y40864253D01*
X49037818Y40802930D01*
X49032834Y40733238D01*
X48990962Y40677305D01*
X48978654Y40669186D01*
X48917889Y40634102D01*
X48917883Y40634098D01*
X48824702Y40540917D01*
X48824700Y40540914D01*
X48758808Y40426788D01*
X48724700Y40299492D01*
X449700Y40299492D01*
X449700Y41671092D01*
X3004700Y41671092D01*
X3004700Y41539308D01*
X3013594Y41506114D01*
X3038808Y41412013D01*
X3050370Y41391988D01*
X3104700Y41297886D01*
X3197886Y41204700D01*
X3312014Y41138808D01*
X3439308Y41104700D01*
X3439310Y41104700D01*
X3571090Y41104700D01*
X3571092Y41104700D01*
X3698386Y41138808D01*
X3812514Y41204700D01*
X3905700Y41297886D01*
X3971592Y41412014D01*
X4005700Y41539308D01*
X4005700Y41671092D01*
X38564700Y41671092D01*
X38564700Y41539308D01*
X38573594Y41506114D01*
X38598808Y41412013D01*
X38610370Y41391988D01*
X38664700Y41297886D01*
X38757886Y41204700D01*
X38872014Y41138808D01*
X38999308Y41104700D01*
X38999310Y41104700D01*
X39131090Y41104700D01*
X39131092Y41104700D01*
X39258386Y41138808D01*
X39372514Y41204700D01*
X39465700Y41297886D01*
X39531592Y41412014D01*
X39565700Y41539308D01*
X39565700Y41671092D01*
X39531592Y41798386D01*
X39465700Y41912514D01*
X39372514Y42005700D01*
X39315450Y42038646D01*
X39258387Y42071592D01*
X39194739Y42088646D01*
X39131092Y42105700D01*
X38999308Y42105700D01*
X38872012Y42071592D01*
X38757886Y42005700D01*
X38757883Y42005698D01*
X38664702Y41912517D01*
X38664700Y41912514D01*
X38598808Y41798388D01*
X38592622Y41775301D01*
X38564700Y41671092D01*
X4005700Y41671092D01*
X3971592Y41798386D01*
X3905700Y41912514D01*
X3812514Y42005700D01*
X3755450Y42038646D01*
X3698387Y42071592D01*
X3634739Y42088646D01*
X3571092Y42105700D01*
X3439308Y42105700D01*
X3312012Y42071592D01*
X3197886Y42005700D01*
X3197883Y42005698D01*
X3104702Y41912517D01*
X3104700Y41912514D01*
X3038808Y41798388D01*
X3032622Y41775301D01*
X3004700Y41671092D01*
X449700Y41671092D01*
X449700Y42941092D01*
X9354700Y42941092D01*
X9354700Y42809308D01*
X9366951Y42763588D01*
X9388808Y42682013D01*
X9400444Y42661860D01*
X9454700Y42567886D01*
X9547886Y42474700D01*
X9662014Y42408808D01*
X9789308Y42374700D01*
X9789310Y42374700D01*
X9921090Y42374700D01*
X9921092Y42374700D01*
X10048386Y42408808D01*
X10162514Y42474700D01*
X10255700Y42567886D01*
X10321592Y42682014D01*
X10355700Y42809308D01*
X10355700Y42941092D01*
X14434700Y42941092D01*
X14434700Y42809308D01*
X14446951Y42763588D01*
X14468808Y42682013D01*
X14480444Y42661860D01*
X14534700Y42567886D01*
X14627886Y42474700D01*
X14742014Y42408808D01*
X14869308Y42374700D01*
X14869310Y42374700D01*
X15001090Y42374700D01*
X15001092Y42374700D01*
X15128386Y42408808D01*
X15242514Y42474700D01*
X15242521Y42474708D01*
X15246798Y42477988D01*
X15311966Y42503184D01*
X15380411Y42489147D01*
X15430403Y42440335D01*
X15446068Y42372244D01*
X15442062Y42347523D01*
X15440500Y42341697D01*
X15440500Y42209909D01*
X15474608Y42082613D01*
X15481948Y42069900D01*
X15540500Y41968486D01*
X15633686Y41875300D01*
X15747814Y41809408D01*
X15875108Y41775300D01*
X15875110Y41775300D01*
X16006890Y41775300D01*
X16006892Y41775300D01*
X16134186Y41809408D01*
X16248314Y41875300D01*
X16341500Y41968486D01*
X16407392Y42082614D01*
X16441500Y42209908D01*
X16441500Y42341692D01*
X16407392Y42468986D01*
X16404092Y42474701D01*
X16386883Y42504509D01*
X16341500Y42583114D01*
X16288322Y42636292D01*
X19971900Y42636292D01*
X19971900Y42504508D01*
X19981418Y42468986D01*
X20006008Y42377213D01*
X20026518Y42341690D01*
X20071900Y42263086D01*
X20165086Y42169900D01*
X20279214Y42104008D01*
X20406508Y42069900D01*
X20406510Y42069900D01*
X20538290Y42069900D01*
X20538292Y42069900D01*
X20665586Y42104008D01*
X20779714Y42169900D01*
X20872900Y42263086D01*
X20938792Y42377214D01*
X20938792Y42377217D01*
X20941900Y42384718D01*
X20944326Y42383713D01*
X20973906Y42432264D01*
X21036747Y42462806D01*
X21089429Y42460302D01*
X21092009Y42459611D01*
X21092014Y42459608D01*
X21219308Y42425500D01*
X21219311Y42425500D01*
X21351090Y42425500D01*
X21351092Y42425500D01*
X21478386Y42459608D01*
X21592514Y42525500D01*
X21685700Y42618686D01*
X21751592Y42732814D01*
X21785700Y42860108D01*
X21785700Y42941092D01*
X28404700Y42941092D01*
X28404700Y42809308D01*
X28416951Y42763588D01*
X28438808Y42682013D01*
X28450444Y42661860D01*
X28504700Y42567886D01*
X28597886Y42474700D01*
X28712014Y42408808D01*
X28839308Y42374700D01*
X28839310Y42374700D01*
X28971090Y42374700D01*
X28971092Y42374700D01*
X29098386Y42408808D01*
X29212514Y42474700D01*
X29305700Y42567886D01*
X29371592Y42682014D01*
X29405700Y42809308D01*
X29405700Y42890292D01*
X32773500Y42890292D01*
X32773500Y42758509D01*
X32807608Y42631213D01*
X32814840Y42618687D01*
X32873500Y42517086D01*
X32966686Y42423900D01*
X33080814Y42358008D01*
X33208108Y42323900D01*
X33208110Y42323900D01*
X33339890Y42323900D01*
X33339892Y42323900D01*
X33467186Y42358008D01*
X33581314Y42423900D01*
X33674500Y42517086D01*
X33740392Y42631214D01*
X33774500Y42758508D01*
X33774500Y42890292D01*
X33760888Y42941092D01*
X61424700Y42941092D01*
X61424700Y42809308D01*
X61436951Y42763588D01*
X61458808Y42682013D01*
X61470444Y42661860D01*
X61524700Y42567886D01*
X61617886Y42474700D01*
X61732014Y42408808D01*
X61859308Y42374700D01*
X61859310Y42374700D01*
X61991090Y42374700D01*
X61991092Y42374700D01*
X62118386Y42408808D01*
X62232514Y42474700D01*
X62325700Y42567886D01*
X62391592Y42682014D01*
X62425700Y42809308D01*
X62425700Y42941092D01*
X62391592Y43068386D01*
X62325700Y43182514D01*
X62232514Y43275700D01*
X62175450Y43308646D01*
X62118387Y43341592D01*
X62054739Y43358646D01*
X61991092Y43375700D01*
X61859308Y43375700D01*
X61732012Y43341592D01*
X61617886Y43275700D01*
X61617883Y43275698D01*
X61524702Y43182517D01*
X61524700Y43182514D01*
X61458808Y43068388D01*
X61438311Y42991890D01*
X61424700Y42941092D01*
X33760888Y42941092D01*
X33740392Y43017586D01*
X33674500Y43131714D01*
X33581314Y43224900D01*
X33499028Y43272408D01*
X33467187Y43290792D01*
X33360045Y43319500D01*
X33339892Y43324900D01*
X33208108Y43324900D01*
X33080812Y43290792D01*
X32966686Y43224900D01*
X32966683Y43224898D01*
X32873502Y43131717D01*
X32873500Y43131714D01*
X32807608Y43017588D01*
X32773500Y42890292D01*
X29405700Y42890292D01*
X29405700Y42941092D01*
X29371592Y43068386D01*
X29305700Y43182514D01*
X29212514Y43275700D01*
X29155450Y43308646D01*
X29098387Y43341592D01*
X29034739Y43358646D01*
X28971092Y43375700D01*
X28839308Y43375700D01*
X28712012Y43341592D01*
X28597886Y43275700D01*
X28597883Y43275698D01*
X28504702Y43182517D01*
X28504700Y43182514D01*
X28438808Y43068388D01*
X28418311Y42991890D01*
X28404700Y42941092D01*
X21785700Y42941092D01*
X21785700Y42991892D01*
X21751592Y43119186D01*
X21685700Y43233314D01*
X21592514Y43326500D01*
X21520447Y43368108D01*
X21478387Y43392392D01*
X21413836Y43409688D01*
X21351092Y43426500D01*
X21240114Y43426500D01*
X21173075Y43446185D01*
X21127320Y43498989D01*
X21120339Y43518406D01*
X21113049Y43545613D01*
X21091192Y43627186D01*
X21025300Y43741314D01*
X20961922Y43804692D01*
X42933500Y43804692D01*
X42933500Y43672909D01*
X42967608Y43545613D01*
X42994006Y43499892D01*
X43033500Y43431486D01*
X43126686Y43338300D01*
X43208972Y43290792D01*
X43235115Y43275698D01*
X43240814Y43272408D01*
X43368108Y43238300D01*
X43368110Y43238300D01*
X43499890Y43238300D01*
X43499892Y43238300D01*
X43627186Y43272408D01*
X43741314Y43338300D01*
X43834500Y43431486D01*
X43900392Y43545614D01*
X43934500Y43672908D01*
X43934500Y43804692D01*
X43900392Y43931986D01*
X43834500Y44046114D01*
X43741314Y44139300D01*
X43684250Y44172246D01*
X43627187Y44205192D01*
X43563539Y44222246D01*
X43499892Y44239300D01*
X43368108Y44239300D01*
X43240812Y44205192D01*
X43126686Y44139300D01*
X43126683Y44139298D01*
X43033502Y44046117D01*
X43033500Y44046114D01*
X42967608Y43931988D01*
X42933500Y43804692D01*
X20961922Y43804692D01*
X20932114Y43834500D01*
X20875050Y43867446D01*
X20817987Y43900392D01*
X20754339Y43917446D01*
X20690692Y43934500D01*
X20558908Y43934500D01*
X20431612Y43900392D01*
X20317486Y43834500D01*
X20317483Y43834498D01*
X20224302Y43741317D01*
X20224300Y43741314D01*
X20158408Y43627188D01*
X20155334Y43615715D01*
X20124300Y43499892D01*
X20124300Y43368108D01*
X20149942Y43272408D01*
X20158409Y43240812D01*
X20158409Y43240811D01*
X20214953Y43142874D01*
X20231426Y43074974D01*
X20208573Y43008947D01*
X20169570Y42973489D01*
X20165089Y42970902D01*
X20165083Y42970898D01*
X20071902Y42877717D01*
X20071900Y42877714D01*
X20006008Y42763588D01*
X19997762Y42732813D01*
X19971900Y42636292D01*
X16288322Y42636292D01*
X16248314Y42676300D01*
X16188771Y42710677D01*
X16134187Y42742192D01*
X16070539Y42759246D01*
X16006892Y42776300D01*
X15875108Y42776300D01*
X15747812Y42742192D01*
X15633676Y42676295D01*
X15629391Y42673006D01*
X15564220Y42647816D01*
X15495776Y42661860D01*
X15445790Y42710677D01*
X15430132Y42778770D01*
X15434136Y42803472D01*
X15435700Y42809308D01*
X15435700Y42941092D01*
X15401592Y43068386D01*
X15335700Y43182514D01*
X15242514Y43275700D01*
X15185450Y43308646D01*
X15128387Y43341592D01*
X15064739Y43358646D01*
X15001092Y43375700D01*
X14869308Y43375700D01*
X14742012Y43341592D01*
X14627886Y43275700D01*
X14627883Y43275698D01*
X14534702Y43182517D01*
X14534700Y43182514D01*
X14468808Y43068388D01*
X14448311Y42991890D01*
X14434700Y42941092D01*
X10355700Y42941092D01*
X10321592Y43068386D01*
X10255700Y43182514D01*
X10162514Y43275700D01*
X10105450Y43308646D01*
X10048387Y43341592D01*
X9984739Y43358646D01*
X9921092Y43375700D01*
X9789308Y43375700D01*
X9662012Y43341592D01*
X9547886Y43275700D01*
X9547883Y43275698D01*
X9454702Y43182517D01*
X9454700Y43182514D01*
X9388808Y43068388D01*
X9368311Y42991890D01*
X9354700Y42941092D01*
X449700Y42941092D01*
X449700Y45854814D01*
X1053900Y45854814D01*
X1053900Y45585187D01*
X1084086Y45317281D01*
X1084088Y45317269D01*
X1144084Y45054406D01*
X1144087Y45054398D01*
X1233134Y44799918D01*
X1350114Y44557006D01*
X1350116Y44557003D01*
X1493562Y44328711D01*
X1594690Y44201900D01*
X1647236Y44136009D01*
X1661666Y44117915D01*
X1852315Y43927266D01*
X2063111Y43759162D01*
X2291403Y43615716D01*
X2534321Y43498733D01*
X2684495Y43446185D01*
X2788797Y43409688D01*
X2788805Y43409685D01*
X2788808Y43409685D01*
X2788809Y43409684D01*
X3051668Y43349688D01*
X3319587Y43319501D01*
X3319588Y43319500D01*
X3319591Y43319500D01*
X3589212Y43319500D01*
X3589212Y43319501D01*
X3857132Y43349688D01*
X4119991Y43409684D01*
X4374479Y43498733D01*
X4617397Y43615716D01*
X4845689Y43759162D01*
X5056485Y43927266D01*
X5247134Y44117915D01*
X5415238Y44328711D01*
X5558684Y44557003D01*
X5612278Y44668292D01*
X30792300Y44668292D01*
X30792300Y44536509D01*
X30826408Y44409213D01*
X30859354Y44352150D01*
X30892300Y44295086D01*
X30985486Y44201900D01*
X31084321Y44144837D01*
X31093915Y44139298D01*
X31099614Y44136008D01*
X31226908Y44101900D01*
X31226910Y44101900D01*
X31358690Y44101900D01*
X31358692Y44101900D01*
X31485986Y44136008D01*
X31600114Y44201900D01*
X31693300Y44295086D01*
X31759192Y44409214D01*
X31793300Y44536508D01*
X31793300Y44668292D01*
X33230700Y44668292D01*
X33230700Y44536509D01*
X33264808Y44409213D01*
X33297754Y44352150D01*
X33330700Y44295086D01*
X33423886Y44201900D01*
X33522721Y44144837D01*
X33532315Y44139298D01*
X33538014Y44136008D01*
X33665308Y44101900D01*
X33665310Y44101900D01*
X33797090Y44101900D01*
X33797092Y44101900D01*
X33924386Y44136008D01*
X34038514Y44201900D01*
X34131700Y44295086D01*
X34197592Y44409214D01*
X34231700Y44536508D01*
X34231700Y44668292D01*
X34197592Y44795586D01*
X34131700Y44909714D01*
X34038514Y45002900D01*
X33981450Y45035846D01*
X33924387Y45068792D01*
X33860739Y45085846D01*
X33797092Y45102900D01*
X33665308Y45102900D01*
X33538012Y45068792D01*
X33423886Y45002900D01*
X33423883Y45002898D01*
X33330702Y44909717D01*
X33330700Y44909714D01*
X33264808Y44795588D01*
X33230700Y44668292D01*
X31793300Y44668292D01*
X31759192Y44795586D01*
X31693300Y44909714D01*
X31600114Y45002900D01*
X31543050Y45035846D01*
X31485987Y45068792D01*
X31422339Y45085846D01*
X31358692Y45102900D01*
X31226908Y45102900D01*
X31099612Y45068792D01*
X30985486Y45002900D01*
X30985483Y45002898D01*
X30892302Y44909717D01*
X30892300Y44909714D01*
X30826408Y44795588D01*
X30792300Y44668292D01*
X5612278Y44668292D01*
X5642102Y44730221D01*
X5642103Y44730223D01*
X5675662Y44799910D01*
X5675663Y44799913D01*
X5675667Y44799921D01*
X5764716Y45054409D01*
X5824712Y45317268D01*
X5843171Y45481092D01*
X9354700Y45481092D01*
X9354700Y45349309D01*
X9388808Y45222013D01*
X9421754Y45164950D01*
X9454700Y45107886D01*
X9547886Y45014700D01*
X9662014Y44948808D01*
X9789308Y44914700D01*
X9789310Y44914700D01*
X9921090Y44914700D01*
X9921092Y44914700D01*
X10048386Y44948808D01*
X10162514Y45014700D01*
X10255700Y45107886D01*
X10321592Y45222014D01*
X10355700Y45349308D01*
X10355700Y45481092D01*
X14434700Y45481092D01*
X14434700Y45349309D01*
X14468808Y45222013D01*
X14501754Y45164950D01*
X14534700Y45107886D01*
X14627886Y45014700D01*
X14742014Y44948808D01*
X14869308Y44914700D01*
X14869310Y44914700D01*
X15001090Y44914700D01*
X15001092Y44914700D01*
X15128386Y44948808D01*
X15242514Y45014700D01*
X15335700Y45107886D01*
X15401592Y45222014D01*
X15435700Y45349308D01*
X15435700Y45481092D01*
X28404700Y45481092D01*
X28404700Y45349309D01*
X28438808Y45222013D01*
X28471754Y45164950D01*
X28504700Y45107886D01*
X28597886Y45014700D01*
X28712014Y44948808D01*
X28839308Y44914700D01*
X28839310Y44914700D01*
X28971090Y44914700D01*
X28971092Y44914700D01*
X29098386Y44948808D01*
X29212514Y45014700D01*
X29305700Y45107886D01*
X29371592Y45222014D01*
X29405700Y45349308D01*
X29405700Y45481092D01*
X61424700Y45481092D01*
X61424700Y45349309D01*
X61458808Y45222013D01*
X61491754Y45164950D01*
X61524700Y45107886D01*
X61617886Y45014700D01*
X61732014Y44948808D01*
X61859308Y44914700D01*
X61859310Y44914700D01*
X61991090Y44914700D01*
X61991092Y44914700D01*
X62118386Y44948808D01*
X62232514Y45014700D01*
X62325700Y45107886D01*
X62391592Y45222014D01*
X62425700Y45349308D01*
X62425700Y45481092D01*
X62391592Y45608386D01*
X62325700Y45722514D01*
X62232514Y45815700D01*
X62175450Y45848646D01*
X62164767Y45854814D01*
X66433500Y45854814D01*
X66433500Y45585187D01*
X66463686Y45317281D01*
X66463688Y45317269D01*
X66523684Y45054406D01*
X66523687Y45054398D01*
X66612734Y44799918D01*
X66729714Y44557006D01*
X66729716Y44557003D01*
X66873162Y44328711D01*
X66974290Y44201900D01*
X67026836Y44136009D01*
X67041266Y44117915D01*
X67231915Y43927266D01*
X67442711Y43759162D01*
X67671003Y43615716D01*
X67913921Y43498733D01*
X68064095Y43446185D01*
X68168397Y43409688D01*
X68168405Y43409685D01*
X68168408Y43409685D01*
X68168409Y43409684D01*
X68431268Y43349688D01*
X68699187Y43319501D01*
X68699188Y43319500D01*
X68699191Y43319500D01*
X68968812Y43319500D01*
X68968812Y43319501D01*
X69236732Y43349688D01*
X69499591Y43409684D01*
X69754079Y43498733D01*
X69996997Y43615716D01*
X70225289Y43759162D01*
X70436085Y43927266D01*
X70626734Y44117915D01*
X70794838Y44328711D01*
X70938284Y44557003D01*
X71055267Y44799921D01*
X71144316Y45054409D01*
X71204312Y45317268D01*
X71234500Y45585191D01*
X71234500Y45854809D01*
X71204312Y46122732D01*
X71144316Y46385591D01*
X71055267Y46640079D01*
X70938284Y46882997D01*
X70794838Y47111289D01*
X70626734Y47322085D01*
X70436085Y47512734D01*
X70426394Y47520462D01*
X70382549Y47555427D01*
X70225289Y47680838D01*
X69996997Y47824284D01*
X69996994Y47824286D01*
X69754082Y47941266D01*
X69499602Y48030313D01*
X69499594Y48030316D01*
X69302446Y48075313D01*
X69236732Y48090312D01*
X69236728Y48090313D01*
X69236719Y48090314D01*
X68968813Y48120500D01*
X68968809Y48120500D01*
X68699191Y48120500D01*
X68699186Y48120500D01*
X68431280Y48090314D01*
X68431268Y48090312D01*
X68168405Y48030316D01*
X68168397Y48030313D01*
X67913917Y47941266D01*
X67671005Y47824286D01*
X67442712Y47680839D01*
X67231915Y47512735D01*
X67041265Y47322085D01*
X66873161Y47111288D01*
X66729714Y46882995D01*
X66612734Y46640083D01*
X66523687Y46385603D01*
X66523684Y46385595D01*
X66463688Y46122732D01*
X66463686Y46122720D01*
X66433500Y45854814D01*
X62164767Y45854814D01*
X62118387Y45881592D01*
X62054739Y45898646D01*
X61991092Y45915700D01*
X61859308Y45915700D01*
X61732012Y45881592D01*
X61617886Y45815700D01*
X61617883Y45815698D01*
X61524702Y45722517D01*
X61524700Y45722514D01*
X61458808Y45608388D01*
X61424700Y45481092D01*
X29405700Y45481092D01*
X29371592Y45608386D01*
X29305700Y45722514D01*
X29212514Y45815700D01*
X29155450Y45848646D01*
X29098387Y45881592D01*
X29034739Y45898646D01*
X28971092Y45915700D01*
X28839308Y45915700D01*
X28712012Y45881592D01*
X28597886Y45815700D01*
X28597883Y45815698D01*
X28504702Y45722517D01*
X28504700Y45722514D01*
X28438808Y45608388D01*
X28404700Y45481092D01*
X15435700Y45481092D01*
X15401592Y45608386D01*
X15335700Y45722514D01*
X15242514Y45815700D01*
X15185450Y45848646D01*
X15128387Y45881592D01*
X15064739Y45898646D01*
X15001092Y45915700D01*
X14869308Y45915700D01*
X14742012Y45881592D01*
X14627886Y45815700D01*
X14627883Y45815698D01*
X14534702Y45722517D01*
X14534700Y45722514D01*
X14468808Y45608388D01*
X14434700Y45481092D01*
X10355700Y45481092D01*
X10321592Y45608386D01*
X10255700Y45722514D01*
X10162514Y45815700D01*
X10105450Y45848646D01*
X10048387Y45881592D01*
X9984739Y45898646D01*
X9921092Y45915700D01*
X9789308Y45915700D01*
X9662012Y45881592D01*
X9547886Y45815700D01*
X9547883Y45815698D01*
X9454702Y45722517D01*
X9454700Y45722514D01*
X9388808Y45608388D01*
X9354700Y45481092D01*
X5843171Y45481092D01*
X5854900Y45585191D01*
X5854900Y45854809D01*
X5824712Y46122732D01*
X5785646Y46293890D01*
X5785646Y46293892D01*
X17177900Y46293892D01*
X17177900Y46162109D01*
X17212008Y46034813D01*
X17219406Y46022000D01*
X17277900Y45920686D01*
X17371086Y45827500D01*
X17485214Y45761608D01*
X17612508Y45727500D01*
X17612510Y45727500D01*
X17744290Y45727500D01*
X17744292Y45727500D01*
X17871586Y45761608D01*
X17985714Y45827500D01*
X18078900Y45920686D01*
X18144792Y46034814D01*
X18178900Y46162108D01*
X18178900Y46293892D01*
X18144792Y46421186D01*
X18078900Y46535314D01*
X17985714Y46628500D01*
X17928650Y46661446D01*
X17871587Y46694392D01*
X17807939Y46711446D01*
X17744292Y46728500D01*
X17612508Y46728500D01*
X17485212Y46694392D01*
X17371086Y46628500D01*
X17371083Y46628498D01*
X17277902Y46535317D01*
X17277900Y46535314D01*
X17212008Y46421188D01*
X17177900Y46293892D01*
X5785646Y46293892D01*
X5764715Y46385594D01*
X5764712Y46385603D01*
X5712326Y46535314D01*
X5675667Y46640079D01*
X5558684Y46882997D01*
X5415238Y47111289D01*
X5247134Y47322085D01*
X5056485Y47512734D01*
X5046794Y47520462D01*
X5002949Y47555427D01*
X4845689Y47680838D01*
X4617397Y47824284D01*
X4617394Y47824286D01*
X4374482Y47941266D01*
X4120002Y48030313D01*
X4119994Y48030316D01*
X3922846Y48075313D01*
X3857132Y48090312D01*
X3857128Y48090313D01*
X3857119Y48090314D01*
X3589213Y48120500D01*
X3589209Y48120500D01*
X3319591Y48120500D01*
X3319586Y48120500D01*
X3051680Y48090314D01*
X3051668Y48090312D01*
X2788805Y48030316D01*
X2788797Y48030313D01*
X2534317Y47941266D01*
X2291405Y47824286D01*
X2063112Y47680839D01*
X1852315Y47512735D01*
X1661665Y47322085D01*
X1493561Y47111288D01*
X1350114Y46882995D01*
X1233134Y46640083D01*
X1144087Y46385603D01*
X1144084Y46385595D01*
X1084088Y46122732D01*
X1084086Y46122720D01*
X1053900Y45854814D01*
X449700Y45854814D01*
X449700Y46018250D01*
X449926Y46025737D01*
X467471Y46315795D01*
X469276Y46330660D01*
X506781Y46535314D01*
X520980Y46612803D01*
X524564Y46627337D01*
X524926Y46628498D01*
X609896Y46901178D01*
X615198Y46915159D01*
X732931Y47176751D01*
X739876Y47189984D01*
X888280Y47435474D01*
X896767Y47447770D01*
X1073680Y47673583D01*
X1083595Y47684774D01*
X1286426Y47887605D01*
X1297617Y47897520D01*
X1523430Y48074433D01*
X1535726Y48082920D01*
X1781216Y48231324D01*
X1794449Y48238269D01*
X2056041Y48356002D01*
X2070022Y48361304D01*
X2343868Y48446638D01*
X2358397Y48450220D01*
X2640544Y48501925D01*
X2655401Y48503729D01*
X2945464Y48521274D01*
X2952951Y48521500D01*
X3015092Y48521500D01*
X69171708Y48521500D01*
X69233849Y48521500D01*
X69241336Y48521274D01*
G37*
%TD.AperFunction*%
%TD*%
M02*
