%TF.GenerationSoftware,KiCad,Pcbnew,9.0.6*%
%TF.CreationDate,2026-05-03T18:05:21+02:00*%
%TF.ProjectId,STM32F0_PCB1,53544d33-3246-4305-9f50-4342312e6b69,rev?*%
%TF.SameCoordinates,PX7223ec0PY875c260*%
%TF.FileFunction,Paste,Top*%
%TF.FilePolarity,Positive*%
%FSLAX46Y46*%
G04 Gerber Fmt 4.6, Leading zero omitted, Abs format (unit mm)*
G04 Created by KiCad (PCBNEW 9.0.6) date 2026-05-03 18:05:21*
%MOMM*%
%LPD*%
G01*
G04 APERTURE LIST*
G04 Aperture macros list*
%AMRoundRect*
0 Rectangle with rounded corners*
0 $1 Rounding radius*
0 $2 $3 $4 $5 $6 $7 $8 $9 X,Y pos of 4 corners*
0 Add a 4 corners polygon primitive as box body*
4,1,4,$2,$3,$4,$5,$6,$7,$8,$9,$2,$3,0*
0 Add four circle primitives for the rounded corners*
1,1,$1+$1,$2,$3*
1,1,$1+$1,$4,$5*
1,1,$1+$1,$6,$7*
1,1,$1+$1,$8,$9*
0 Add four rect primitives between the rounded corners*
20,1,$1+$1,$2,$3,$4,$5,0*
20,1,$1+$1,$4,$5,$6,$7,0*
20,1,$1+$1,$6,$7,$8,$9,0*
20,1,$1+$1,$8,$9,$2,$3,0*%
G04 Aperture macros list end*
%ADD10RoundRect,0.250000X-0.262500X-0.450000X0.262500X-0.450000X0.262500X0.450000X-0.262500X0.450000X0*%
%ADD11RoundRect,0.250000X0.262500X0.450000X-0.262500X0.450000X-0.262500X-0.450000X0.262500X-0.450000X0*%
%ADD12RoundRect,0.250000X0.450000X-0.262500X0.450000X0.262500X-0.450000X0.262500X-0.450000X-0.262500X0*%
%ADD13RoundRect,0.250000X0.475000X-0.250000X0.475000X0.250000X-0.475000X0.250000X-0.475000X-0.250000X0*%
%ADD14R,0.650000X1.050000*%
%ADD15RoundRect,0.250000X-0.250000X-0.475000X0.250000X-0.475000X0.250000X0.475000X-0.250000X0.475000X0*%
%ADD16RoundRect,0.250000X-0.475000X0.250000X-0.475000X-0.250000X0.475000X-0.250000X0.475000X0.250000X0*%
%ADD17RoundRect,0.250000X0.250000X0.475000X-0.250000X0.475000X-0.250000X-0.475000X0.250000X-0.475000X0*%
%ADD18RoundRect,0.225000X-0.250000X0.225000X-0.250000X-0.225000X0.250000X-0.225000X0.250000X0.225000X0*%
%ADD19RoundRect,0.243750X0.243750X0.456250X-0.243750X0.456250X-0.243750X-0.456250X0.243750X-0.456250X0*%
%ADD20RoundRect,0.087500X0.087500X-0.187500X0.087500X0.187500X-0.087500X0.187500X-0.087500X-0.187500X0*%
%ADD21RoundRect,0.087500X0.187500X-0.087500X0.187500X0.087500X-0.187500X0.087500X-0.187500X-0.087500X0*%
%ADD22RoundRect,0.100000X-0.100000X0.637500X-0.100000X-0.637500X0.100000X-0.637500X0.100000X0.637500X0*%
%ADD23RoundRect,0.162500X-0.162500X0.650000X-0.162500X-0.650000X0.162500X-0.650000X0.162500X0.650000X0*%
%ADD24RoundRect,0.172500X-0.262500X-0.172500X0.262500X-0.172500X0.262500X0.172500X-0.262500X0.172500X0*%
%ADD25RoundRect,0.093750X-0.093750X-0.106250X0.093750X-0.106250X0.093750X0.106250X-0.093750X0.106250X0*%
%ADD26R,0.650000X0.750000*%
%ADD27RoundRect,0.062500X0.062500X-0.187500X0.062500X0.187500X-0.062500X0.187500X-0.062500X-0.187500X0*%
%ADD28RoundRect,0.250000X0.295000X0.295000X-0.295000X0.295000X-0.295000X-0.295000X0.295000X-0.295000X0*%
%ADD29RoundRect,0.062500X0.337500X0.062500X-0.337500X0.062500X-0.337500X-0.062500X0.337500X-0.062500X0*%
%ADD30RoundRect,0.062500X0.062500X0.337500X-0.062500X0.337500X-0.062500X-0.337500X0.062500X-0.337500X0*%
%ADD31RoundRect,0.150000X0.150000X-0.587500X0.150000X0.587500X-0.150000X0.587500X-0.150000X-0.587500X0*%
%ADD32RoundRect,0.250000X-0.450000X0.262500X-0.450000X-0.262500X0.450000X-0.262500X0.450000X0.262500X0*%
%ADD33R,0.250000X0.625000*%
%ADD34R,0.450000X0.700000*%
%ADD35R,0.450000X0.575000*%
%ADD36RoundRect,0.243750X-0.243750X-0.456250X0.243750X-0.456250X0.243750X0.456250X-0.243750X0.456250X0*%
%ADD37R,0.700000X0.200000*%
%ADD38R,1.000000X1.600000*%
%ADD39R,0.450000X0.600000*%
%ADD40RoundRect,0.225000X0.250000X-0.225000X0.250000X0.225000X-0.250000X0.225000X-0.250000X-0.225000X0*%
%ADD41RoundRect,0.150000X-0.150000X-0.425000X0.150000X-0.425000X0.150000X0.425000X-0.150000X0.425000X0*%
%ADD42RoundRect,0.075000X-0.075000X-0.500000X0.075000X-0.500000X0.075000X0.500000X-0.075000X0.500000X0*%
%ADD43O,1.000000X2.100000*%
%ADD44O,1.000000X1.800000*%
%ADD45R,2.400000X0.740000*%
G04 APERTURE END LIST*
D10*
%TO.C,R13*%
X8637900Y35814000D03*
X10462900Y35814000D03*
%TD*%
D11*
%TO.C,R3*%
X17195800Y12115800D03*
X15370800Y12115800D03*
%TD*%
D12*
%TO.C,R9*%
X5791200Y23723600D03*
X5791200Y25548600D03*
%TD*%
D13*
%TO.C,C13*%
X17653000Y43337900D03*
X17653000Y45237900D03*
%TD*%
D14*
%TO.C,SW2*%
X17381800Y9237800D03*
X17381800Y5087800D03*
X15231800Y9237800D03*
X15231800Y5087800D03*
%TD*%
D12*
%TO.C,R4*%
X31699200Y10771500D03*
X31699200Y12596500D03*
%TD*%
D15*
%TO.C,C2*%
X8251100Y14706600D03*
X10151100Y14706600D03*
%TD*%
D12*
%TO.C,R17*%
X57200800Y5081900D03*
X57200800Y6906900D03*
%TD*%
D16*
%TO.C,C6*%
X41163200Y22021000D03*
X41163200Y20121000D03*
%TD*%
D10*
%TO.C,R14*%
X4853300Y33655000D03*
X6678300Y33655000D03*
%TD*%
D17*
%TO.C,C14*%
X55509200Y13004800D03*
X53609200Y13004800D03*
%TD*%
D13*
%TO.C,C5*%
X34340800Y8397200D03*
X34340800Y10297200D03*
%TD*%
D18*
%TO.C,C3*%
X21995800Y22956900D03*
X21995800Y21406900D03*
%TD*%
D19*
%TO.C,D1*%
X43152500Y26771600D03*
X41277500Y26771600D03*
%TD*%
D20*
%TO.C,U5*%
X19828000Y41599400D03*
X20328000Y41599400D03*
X20828000Y41599400D03*
X21328000Y41599400D03*
X21828000Y41599400D03*
D21*
X22053000Y42324400D03*
X22053000Y42824400D03*
X22053000Y43324400D03*
D20*
X21828000Y44049400D03*
X21328000Y44049400D03*
X20828000Y44049400D03*
X20328000Y44049400D03*
X19828000Y44049400D03*
D21*
X19603000Y43324400D03*
X19603000Y42824400D03*
X19603000Y42324400D03*
%TD*%
D22*
%TO.C,U1*%
X29544200Y27144900D03*
X28894200Y27144900D03*
X28244200Y27144900D03*
X27594200Y27144900D03*
X26944200Y27144900D03*
X26294200Y27144900D03*
X25644200Y27144900D03*
X24994200Y27144900D03*
X24344200Y27144900D03*
X23694200Y27144900D03*
X23694200Y21419900D03*
X24344200Y21419900D03*
X24994200Y21419900D03*
X25644200Y21419900D03*
X26294200Y21419900D03*
X26944200Y21419900D03*
X27594200Y21419900D03*
X28244200Y21419900D03*
X28894200Y21419900D03*
X29544200Y21419900D03*
%TD*%
D12*
%TO.C,R7*%
X41503600Y5996300D03*
X41503600Y7821300D03*
%TD*%
D18*
%TO.C,C4*%
X31139800Y22906100D03*
X31139800Y21356100D03*
%TD*%
D14*
%TO.C,SW1*%
X10447600Y9288600D03*
X10447600Y5138600D03*
X8297600Y9288600D03*
X8297600Y5138600D03*
%TD*%
D23*
%TO.C,U3*%
X12268200Y27565100D03*
X10998200Y27565100D03*
X9728200Y27565100D03*
X8458200Y27565100D03*
X8458200Y20390100D03*
X9728200Y20390100D03*
X10998200Y20390100D03*
X12268200Y20390100D03*
%TD*%
D11*
%TO.C,R6*%
X43127500Y24271400D03*
X41302500Y24271400D03*
%TD*%
D24*
%TO.C,U2*%
X44247000Y21810000D03*
X44247000Y21010000D03*
D25*
X43359500Y22060000D03*
X43359500Y21410000D03*
X43359500Y20760000D03*
X45134500Y20760000D03*
X45134500Y21410000D03*
X45134500Y22060000D03*
%TD*%
D11*
%TO.C,R21*%
X65123700Y10312400D03*
X63298700Y10312400D03*
%TD*%
D26*
%TO.C,U7*%
X47238400Y41214000D03*
X48038400Y41214000D03*
D27*
X46888400Y40264000D03*
X47388400Y40264000D03*
X47888400Y40264000D03*
X48388400Y40264000D03*
X48388400Y42164000D03*
X47888400Y42164000D03*
X47388400Y42164000D03*
X46888400Y42164000D03*
%TD*%
D28*
%TO.C,U6*%
X33863100Y37780600D03*
X33863100Y39130600D03*
X32513100Y37780600D03*
X32513100Y39130600D03*
D29*
X35138100Y37455600D03*
X35138100Y37955600D03*
X35138100Y38455600D03*
X35138100Y38955600D03*
X35138100Y39455600D03*
D30*
X34188100Y40405600D03*
X33688100Y40405600D03*
X33188100Y40405600D03*
X32688100Y40405600D03*
X32188100Y40405600D03*
D29*
X31238100Y39455600D03*
X31238100Y38955600D03*
X31238100Y38455600D03*
X31238100Y37955600D03*
X31238100Y37455600D03*
D30*
X32188100Y36505600D03*
X32688100Y36505600D03*
X33188100Y36505600D03*
X33688100Y36505600D03*
X34188100Y36505600D03*
%TD*%
D10*
%TO.C,R1*%
X19559900Y31445200D03*
X21384900Y31445200D03*
%TD*%
D17*
%TO.C,C17*%
X60436800Y12801600D03*
X58536800Y12801600D03*
%TD*%
D31*
%TO.C,Q1*%
X39537600Y12907800D03*
X41437600Y12907800D03*
X40487600Y14782800D03*
%TD*%
D17*
%TO.C,C16*%
X45349200Y40182800D03*
X43449200Y40182800D03*
%TD*%
D32*
%TO.C,R8*%
X14681200Y27049100D03*
X14681200Y25224100D03*
%TD*%
D12*
%TO.C,R18*%
X54813200Y5081900D03*
X54813200Y6906900D03*
%TD*%
D33*
%TO.C,U4*%
X27667200Y10312400D03*
X28167200Y10312400D03*
D34*
X28667200Y10349900D03*
D33*
X29167200Y10312400D03*
X29667200Y10312400D03*
X29667200Y11087400D03*
X29167200Y11087400D03*
D35*
X28667200Y11112400D03*
D33*
X28167200Y11087400D03*
X27667200Y11087400D03*
%TD*%
D17*
%TO.C,C7*%
X45466000Y18846800D03*
X43566000Y18846800D03*
%TD*%
D12*
%TO.C,R5*%
X23164800Y10111100D03*
X23164800Y11936100D03*
%TD*%
D10*
%TO.C,R10*%
X19559900Y33731200D03*
X21384900Y33731200D03*
%TD*%
D36*
%TO.C,D3*%
X63324500Y8204200D03*
X65199500Y8204200D03*
%TD*%
D13*
%TO.C,C8*%
X14681200Y20233600D03*
X14681200Y22133600D03*
%TD*%
D36*
%TO.C,D2*%
X39587600Y10113800D03*
X41462600Y10113800D03*
%TD*%
D37*
%TO.C,IC1*%
X58402800Y10947200D03*
X58402800Y10547200D03*
X58402800Y10147200D03*
X58402800Y9747200D03*
X58402800Y9347200D03*
X60502800Y9347200D03*
X60502800Y9747200D03*
X60502800Y10147200D03*
X60502800Y10547200D03*
X60502800Y10947200D03*
D38*
X59452800Y10147200D03*
%TD*%
D17*
%TO.C,C10*%
X19365000Y38572900D03*
X17465000Y38572900D03*
%TD*%
%TO.C,C15*%
X45349200Y42468800D03*
X43449200Y42468800D03*
%TD*%
D39*
%TO.C,LED1*%
X5384800Y36392000D03*
X6134800Y36392000D03*
X6134800Y37592000D03*
X5384800Y37592000D03*
%TD*%
D12*
%TO.C,R11*%
X24130000Y41124500D03*
X24130000Y42949500D03*
%TD*%
D11*
%TO.C,R2*%
X10113600Y12166600D03*
X8288600Y12166600D03*
%TD*%
D32*
%TO.C,R20*%
X54762400Y17117700D03*
X54762400Y15292700D03*
%TD*%
D17*
%TO.C,C11*%
X17841000Y40985900D03*
X15941000Y40985900D03*
%TD*%
D10*
%TO.C,R19*%
X57101100Y15290800D03*
X58926100Y15290800D03*
%TD*%
%TO.C,R15*%
X60987300Y15240000D03*
X62812300Y15240000D03*
%TD*%
D40*
%TO.C,C9*%
X31139800Y25877300D03*
X31139800Y27427300D03*
%TD*%
D17*
%TO.C,C1*%
X30363200Y34605600D03*
X28463200Y34605600D03*
%TD*%
D41*
%TO.C,J1*%
X24212200Y7312200D03*
X25012200Y7312200D03*
D42*
X26162200Y7312200D03*
X27162200Y7312200D03*
X27662200Y7312200D03*
X28662200Y7312200D03*
D41*
X29812200Y7312200D03*
X30612200Y7312200D03*
X30612200Y7312200D03*
X29812200Y7312200D03*
D42*
X29162200Y7312200D03*
X28162200Y7312200D03*
X26662200Y7312200D03*
X25662200Y7312200D03*
D41*
X25012200Y7312200D03*
X24212200Y7312200D03*
D43*
X23092200Y6737200D03*
D44*
X23092200Y2557200D03*
D43*
X31732200Y6737200D03*
D44*
X31732200Y2557200D03*
%TD*%
D45*
%TO.C,J3*%
X60920800Y40690800D03*
X64820800Y40690800D03*
X60920800Y39420800D03*
X64820800Y39420800D03*
X60920800Y38150800D03*
X64820800Y38150800D03*
X60920800Y36880800D03*
X64820800Y36880800D03*
X60920800Y35610800D03*
X64820800Y35610800D03*
%TD*%
D11*
%TO.C,R12*%
X10488300Y39370000D03*
X8663300Y39370000D03*
%TD*%
M02*
